<svg width="30" height="36" viewBox="0 0 30 36" fill="none" xmlns="http://www.w3.org/2000/svg">
<path d="M27.9411 14.879C29.0504 13.9563 29.7581 12.5664 29.7581 11.0141C29.7581 8.24262 27.5034 5.98791 24.7319 5.98791H23.7702V5.02621C23.7702 2.25472 21.5154 0 18.744 0C17.1916 0 15.8018 0.707662 14.879 1.81691C13.9563 0.707662 12.5664 0 11.0141 0C8.24262 0 5.98791 2.25472 5.98791 5.02621V5.98791H5.02621C2.25472 5.98791 0 8.24262 0 11.0141C0 12.5664 0.707661 13.9563 1.81691 14.879C0.707589 15.8018 0 17.1917 0 18.744C0 21.5155 2.25472 23.7702 5.02621 23.7702H5.98791V24.7319C5.98791 29.0371 11.0752 31.3427 14.3128 28.5193C15.8135 33.2312 19.8508 35.9174 24.3659 35.9999C25.0174 36.0094 25.5366 35.4934 25.5482 34.8599C25.5599 34.2187 25.0496 33.6893 24.4083 33.6777C21.4933 33.6245 18.7698 32.1954 17.2649 29.5358C20.4957 30.5325 23.7702 28.1012 23.7702 24.7319V23.7702H24.7319C27.5034 23.7702 29.7581 21.5155 29.7581 18.744C29.7581 17.1917 29.0504 15.8018 27.9411 14.879V14.879ZM24.7319 21.4476H22.6089C21.9675 21.4476 21.4476 21.9676 21.4476 22.6089V24.7319C21.4476 26.2227 20.2348 27.4355 18.744 27.4355C17.2532 27.4355 16.0403 26.2227 16.0403 24.7319V18.9073C16.0403 18.2659 15.5204 17.746 14.879 17.746C14.2376 17.746 13.7177 18.2659 13.7177 18.9073V24.7319C13.7177 26.2227 12.5049 27.4355 11.0141 27.4355C9.52331 27.4355 8.31049 26.2227 8.31049 24.7319V22.6089C8.31049 21.9676 7.79059 21.4476 7.1492 21.4476H5.02621C3.5354 21.4476 2.32258 20.2348 2.32258 18.744C2.32258 17.2532 3.5354 16.0403 5.02621 16.0403H10.8508C11.4922 16.0403 12.0121 15.5204 12.0121 14.879C12.0121 14.2377 11.4922 13.7177 10.8508 13.7177H5.02621C3.5354 13.7177 2.32258 12.5049 2.32258 11.0141C2.32258 9.52331 3.5354 8.31049 5.02621 8.31049H7.1492C7.79059 8.31049 8.31049 7.79052 8.31049 7.1492V5.02621C8.31049 3.5354 9.52331 2.32258 11.0141 2.32258C12.5049 2.32258 13.7177 3.5354 13.7177 5.02621V10.8508C13.7177 11.4921 14.2376 12.0121 14.879 12.0121C15.5204 12.0121 16.0403 11.4921 16.0403 10.8508V5.02621C16.0403 3.5354 17.2532 2.32258 18.744 2.32258C20.2348 2.32258 21.4476 3.5354 21.4476 5.02621V7.1492C21.4476 7.79052 21.9675 8.31049 22.6089 8.31049H24.7319C26.2227 8.31049 27.4355 9.52331 27.4355 11.0141C27.4355 12.5049 26.2227 13.7177 24.7319 13.7177H18.9073C18.2659 13.7177 17.746 14.2377 17.746 14.879C17.746 15.5204 18.2659 16.0403 18.9073 16.0403H24.7319C26.2227 16.0403 27.4355 17.2532 27.4355 18.744C27.4355 20.2348 26.2227 21.4476 24.7319 21.4476Z" fill="white"/>
</svg>
