<svg width="33" height="33" viewBox="0 0 33 33" fill="none" xmlns="http://www.w3.org/2000/svg">
<path d="M28.4478 16.2718C28.2406 15.0845 27.6263 13.9469 26.6473 13.106L27.7523 9.83467C30.5693 10.1282 33 7.91131 33 5.10903C33 2.48901 30.8684 0.357422 28.2484 0.357422C25.6284 0.357422 23.4968 2.48901 23.4968 5.10903C23.4968 6.82541 24.4117 8.33206 25.7793 9.16723L24.7992 12.0688C23.7762 11.7358 22.7357 11.7266 21.7743 11.976L20.8254 9.16671C22.1926 8.33147 23.1071 6.82515 23.1071 5.10903C23.1071 2.48901 20.9756 0.357422 18.3555 0.357422C15.7355 0.357422 13.6039 2.48901 13.6039 5.10903C13.6039 7.91248 16.0362 10.1287 18.8525 9.83454L19.8841 12.8887C19.0922 13.4851 18.4612 14.3011 18.0898 15.2736L15.0661 23.1909C14.6812 24.1987 13.827 24.9579 12.7811 25.2218L5.02506 27.1785C3.17466 25.6821 2.0829 23.4151 2.0829 21.0237C2.0829 16.6629 5.63066 13.1152 9.9914 13.1152C11.9271 13.1152 13.7898 13.8217 15.2363 15.1045C15.6666 15.4862 16.325 15.4467 16.7065 15.0164C17.0882 14.5861 17.0487 13.9278 16.6184 13.5462C14.7905 11.9251 12.437 11.0323 9.9914 11.0323C4.48214 11.0323 0 15.5145 0 21.0237C0 23.5439 0.959565 25.9545 2.63435 27.7818L1.78159 27.9969C0.732594 28.2615 0 29.2019 0 30.2838C0 31.5843 1.05805 32.6423 2.35856 32.6423H28.3956C31.493 32.6423 33.3516 29.175 31.6317 26.5956C29.405 23.2554 29.2259 20.7333 28.4478 16.2718ZM28.2484 2.44032C29.7199 2.44032 30.9171 3.63753 30.9171 5.10903C30.9171 6.58054 29.7199 7.77775 28.2484 7.77775C26.7769 7.77775 25.5797 6.58054 25.5797 5.10903C25.5797 3.63753 26.7769 2.44032 28.2484 2.44032ZM15.6868 5.10903C15.6868 3.63753 16.884 2.44032 18.3555 2.44032C19.827 2.44032 21.0243 3.63753 21.0243 5.10903C21.0243 6.58054 19.827 7.77775 18.3555 7.77775C16.884 7.77775 15.6868 6.5806 15.6868 5.10903ZM28.3956 30.5594H2.35856C2.03629 30.5594 1.97771 30.0955 2.29112 30.0164C2.39631 29.9898 13.1581 27.2748 13.2905 27.2413C14.9939 26.8115 16.3851 25.5752 17.0119 23.934L20.0356 16.0167C20.5276 14.7284 21.7602 13.8852 23.1301 13.8852C24.7407 13.8852 26.1224 15.062 26.3958 16.6296C27.1814 21.1334 27.4085 24.0156 29.8986 27.751C30.6905 28.9384 29.8443 30.5594 28.3956 30.5594ZM8.2665 20.9911C8.2665 21.9602 9.05488 22.7486 10.0239 22.7486C10.5991 22.7486 11.0654 23.2149 11.0654 23.79C11.0654 24.3652 10.5991 24.8315 10.0239 24.8315C7.90635 24.8315 6.1836 23.1087 6.1836 20.9911C6.1836 18.8735 7.90635 17.1508 10.0239 17.1508C12.1415 17.1508 13.8643 18.8735 13.8643 20.9911C13.8643 21.5663 13.398 22.0326 12.8228 22.0326C12.2477 22.0326 11.7814 21.5663 11.7814 20.9911C11.7814 20.0221 10.993 19.2337 10.0239 19.2337C9.05488 19.2337 8.2665 20.0221 8.2665 20.9911ZM28.0456 4.08776C28.5442 3.99169 29.0208 4.25544 29.2106 4.71068C29.4286 5.23336 29.1875 5.84508 28.6477 6.07042C28.0684 6.31119 27.3747 5.99095 27.228 5.31277C27.1233 4.76601 27.4514 4.2156 28.0456 4.08776ZM18.5593 6.1303C18.0112 6.23569 17.4626 5.906 17.3343 5.31277C17.2288 4.76236 17.5611 4.21482 18.1519 4.08776C18.6943 3.98323 19.249 4.309 19.3768 4.9053C19.4826 5.45239 19.1521 6.00253 18.5593 6.1303Z" fill="white"/>
</svg>
