<svg width="36" height="36" viewBox="0 0 36 36" fill="none" xmlns="http://www.w3.org/2000/svg">
<path d="M35.6886 20.2568L32.7129 17.0633C32.5213 16.8577 32.2618 16.7286 31.9824 16.6998L28.452 16.3355C28.452 15.4775 28.452 13.4898 28.452 12.7652L34.7024 8.43017C35.2295 8.06465 35.3604 7.3411 34.9948 6.8141C34.6293 6.28702 33.9057 6.1563 33.3788 6.52167L27.9118 10.3133C27.1311 8.84286 25.5844 7.83878 23.8068 7.83878H23.4669C23.3096 7.09759 23.0046 6.41077 22.5848 5.80944L24.1329 5.00554C24.8906 5.95496 26.427 5.23773 26.1772 4.04451L25.524 0.923558C25.3926 0.295739 24.7769 -0.106355 24.1495 0.0247975C23.5217 0.156168 23.1193 0.771575 23.2507 1.39932L23.524 2.70475L20.7569 4.14155C19.0501 3.16941 16.9571 3.16571 15.2438 4.14155L12.4767 2.70482L12.75 1.39939C12.8814 0.77172 12.4789 0.15624 11.8512 0.02487C11.2234 -0.106428 10.608 0.295885 10.4767 0.923631L9.82345 4.04458C9.5729 5.24135 11.1114 5.95329 11.8677 5.00561L13.416 5.80951C12.9961 6.41084 12.6912 7.09774 12.5339 7.83886H12.194C10.4164 7.83886 8.8696 8.84293 8.08893 10.3133L2.62197 6.52174C2.09504 6.15637 1.37148 6.28724 1.0059 6.81417C0.640311 7.3411 0.771318 8.06465 1.29832 8.43024L7.54879 12.7652V16.3356L4.01834 16.6999C3.73891 16.7286 3.47943 16.8578 3.28796 17.0634L0.312176 20.2569C-0.125047 20.7261 -0.0991364 21.4609 0.370095 21.8981C0.839253 22.3353 1.57413 22.3095 2.01135 21.8402L4.69014 18.9655L7.54886 18.6705V23.1709L3.90047 25.7632C3.6206 25.9621 3.443 26.2746 3.41549 26.6169L2.76227 34.7459C2.71088 35.3851 3.18751 35.945 3.8268 35.9963C4.46572 36.0479 5.02597 35.5714 5.07736 34.9318L5.68718 27.3428L7.55967 26.0123C7.80325 31.5608 12.3929 36 18.0004 36C23.608 36 28.1976 31.5608 28.4411 26.0123L30.3136 27.3428L30.9235 34.9318C30.9748 35.5714 31.535 36.048 32.1739 35.9963C32.8133 35.945 33.2899 35.3851 33.2385 34.7459L32.5853 26.6169C32.5578 26.2746 32.3803 25.9621 32.1003 25.7632L28.4519 23.1709V18.6706L31.3106 18.9655L33.9893 21.8402C34.4266 22.3096 35.1616 22.3353 35.6306 21.8982C36.0999 21.4609 36.1258 20.7261 35.6886 20.2568ZM21.0524 7.83886H14.9483C16.0181 5.03697 19.984 5.04024 21.0524 7.83886ZM12.194 10.1614H23.8068C25.0875 10.1614 26.1294 11.2033 26.1294 12.484V13.227L18.0004 15.7673L9.87142 13.227V12.484C9.87142 11.2034 10.9133 10.1614 12.194 10.1614ZM18.0004 33.6774C13.5181 33.6774 9.87142 30.0308 9.87142 25.5484C9.87142 24.5129 9.87142 16.7439 9.87142 15.6603L16.8391 17.8377V30.5565C16.8391 31.1979 17.3591 31.7177 18.0004 31.7177C18.6418 31.7177 19.1617 31.1979 19.1617 30.5565V17.8377L26.1294 15.6603V25.5484C26.1294 30.0308 22.4827 33.6774 18.0004 33.6774Z" fill="white"/>
</svg>
