<svg width="36" height="36" viewBox="0 0 36 36" fill="none" xmlns="http://www.w3.org/2000/svg">
<path d="M14.8722 12.1222C14.8722 12.7636 14.3523 13.2835 13.7109 13.2835C13.0695 13.2835 12.5496 12.7636 12.5496 12.1222V11.7251C12.5496 11.0837 13.0695 10.5638 13.7109 10.5638C14.3523 10.5638 14.8722 11.0837 14.8722 11.7251V12.1222ZM22.289 10.5638C21.6476 10.5638 21.1277 11.0837 21.1277 11.7251V12.1222C21.1277 12.7636 21.6476 13.2835 22.289 13.2835C22.9304 13.2835 23.4502 12.7636 23.4502 12.1222V11.7251C23.4502 11.0837 22.9304 10.5638 22.289 10.5638ZM20.1444 19.7773C19.6022 19.7773 19.1612 19.3363 19.1612 18.7941V18.6896C19.4957 18.4197 19.5392 18.2833 20.3548 16.899C21.082 15.6649 20.1898 14.1024 18.7567 14.1024H17.243C15.8109 14.1024 14.9172 15.664 15.6448 16.899C16.4441 18.2553 16.497 18.4142 16.8386 18.6896V18.7941C16.8386 19.3363 16.3975 19.7773 15.8553 19.7773C15.2139 19.7773 14.6941 20.2972 14.6941 20.9386C14.6941 21.58 15.2139 22.0999 15.8553 22.0999C16.6731 22.0999 17.422 21.8007 17.9998 21.3068C18.5776 21.8007 19.3265 22.0999 20.1443 22.0999C20.7857 22.0999 21.3056 21.58 21.3056 20.9386C21.3056 20.2972 20.7858 19.7773 20.1444 19.7773ZM35.9666 23.1195C35.8373 23.6503 35.3623 24.0064 34.8392 24.0064C34.6436 24.0064 34.9305 24.0625 30.4398 22.9691V23.4803C30.4398 30.3396 24.8593 35.9201 18 35.9201C11.1406 35.9201 5.56009 30.3396 5.56009 23.4803V22.9691C1.07374 24.0614 1.35629 24.0064 1.16062 24.0064C0.637468 24.0064 0.162509 23.6505 0.0332448 23.1195C-0.118519 22.4964 0.263684 21.8683 0.88685 21.7165L5.56016 20.5786V16.7811L0.814634 15.2956C0.202572 15.1039 -0.13826 14.4525 0.0533493 13.8403C0.245031 13.2282 0.896721 12.8873 1.50856 13.0791L5.56706 14.3496C5.58433 13.7979 5.63782 13.2554 5.72499 12.7239C3.88996 11.429 2.7803 9.32184 2.7803 7.039C2.7803 3.20159 5.9023 0.0795898 9.73971 0.0795898C11.8588 0.0795898 13.8177 1.02203 15.1321 2.63779C16.9942 2.19673 18.9659 2.18729 20.868 2.63779C22.1824 1.02203 24.1413 0.0795898 26.2604 0.0795898C30.0979 0.0795898 33.2198 3.20159 33.2198 7.039C33.2198 9.32184 32.1102 11.429 30.2752 12.7239C30.3623 13.2554 30.4158 13.798 30.4331 14.3496L34.4916 13.0791C35.1037 12.8875 35.7551 13.2284 35.9468 13.8403C36.1384 14.4525 35.7975 15.1039 35.1855 15.2956L30.44 16.7811V20.5786L35.1133 21.7165C35.7362 21.8683 36.1184 22.4964 35.9666 23.1195ZM23.2816 3.48225C26.163 4.83905 28.4425 7.26944 29.6016 10.2549C30.421 9.40393 30.8971 8.25913 30.8971 7.03893C30.8972 3.07421 26.2477 0.989517 23.2816 3.48225ZM6.39823 10.2549C7.55725 7.26937 9.83682 4.83905 12.7182 3.48225C11.8961 2.79137 10.8508 2.40213 9.73957 2.40213C5.66751 2.40213 3.57664 7.32497 6.39823 10.2549ZM28.1172 22.4036L25.4296 21.7492C24.8065 21.5974 24.4243 20.9693 24.576 20.3461C24.7278 19.723 25.3558 19.3406 25.979 19.4925L28.1172 20.0131V17.5081L26.0513 18.1549C25.4396 18.3464 24.7878 18.006 24.596 17.3936C24.4044 16.7815 24.7453 16.1301 25.3573 15.9384L28.1172 15.0745C28.1172 8.80725 23.3288 4.62603 17.9999 4.62603C12.7323 4.62603 7.88263 8.73591 7.88263 15.0745L10.6425 15.9384C11.2545 16.1301 11.5953 16.7815 11.4037 17.3936C11.212 18.0058 10.5604 18.3464 9.94852 18.1549L7.88255 17.5081V20.0131L10.0207 19.4925C10.6439 19.3407 11.272 19.723 11.4238 20.3461C11.5755 20.9693 11.1933 21.5974 10.5702 21.7492L7.88255 22.4036V23.4803C7.88255 29.0589 12.4212 33.5975 17.9998 33.5975C23.5785 33.5975 28.1171 29.059 28.1171 23.4803V22.4036H28.1172Z" fill="white"/>
</svg>
