<svg width="36" height="36" viewBox="0 0 36 36" fill="none" xmlns="http://www.w3.org/2000/svg">
<path d="M35.6338 13.1189C34.3759 9.24803 30.2032 7.12221 26.3326 8.37968C25.8213 8.54582 25.3036 8.77561 24.7921 9.0603C24.9048 8.48592 24.9633 7.9225 24.9633 7.38489C24.9633 3.27534 22.1236 0.00341797 18.074 0.00341797C14.0184 0.00341797 11.0367 3.28258 11.0367 7.38489C11.0367 7.92243 11.0953 8.48585 11.208 9.0603C10.6964 8.77568 10.1787 8.54582 9.66742 8.37968C5.79699 7.122 1.62409 9.24803 0.366266 13.1189C-0.909343 17.0451 1.26106 21.4173 5.10554 22.6665C5.61685 22.8327 6.17063 22.951 6.75184 23.0214C6.323 23.4199 5.94458 23.8413 5.62852 24.2762C3.23614 27.5691 3.96873 32.1944 7.26146 34.5867C10.5526 36.978 14.8274 36.2572 17.2276 32.9537C17.5436 32.5187 17.8272 32.0285 18.0739 31.4975C18.3205 32.0286 18.6042 32.5187 18.9203 32.9537C21.3236 36.2617 25.4543 36.9729 28.7384 34.5867C32.0312 32.1943 32.7638 27.569 30.3714 24.2762C30.0555 23.8413 29.6769 23.4199 29.2481 23.0213C29.8292 22.951 30.3833 22.8326 30.8946 22.6665C34.739 21.4174 36.9094 17.0451 35.6338 13.1189ZM18.074 2.11244C20.8439 2.11244 22.8543 4.32982 22.8543 7.38489C22.8543 8.75993 22.3162 10.4552 21.4149 11.9198C21.3059 12.0971 21.2555 12.2946 21.2587 12.4893L20.1607 14.3897C19.8324 14.2476 19.4731 14.1374 19.1144 14.0644V9.74036C19.1144 9.15804 18.6563 8.68589 18.074 8.68589C17.4916 8.68589 17.0195 9.15804 17.0195 9.74036V14.0644C16.6524 14.1393 16.2996 14.2533 15.9643 14.4002L14.7384 12.3923C14.7261 12.2296 14.676 12.0676 14.585 11.9198C13.6837 10.4552 13.1456 8.75993 13.1456 7.38489C13.1457 4.37911 15.2644 2.11244 18.074 2.11244ZM5.7572 20.6608C3.04742 19.7803 1.46553 16.5606 2.372 13.7707C3.27045 11.0057 6.25058 9.48717 9.01576 10.3854C10.1509 10.7543 11.3903 11.584 12.4268 12.6534L14.2377 15.6195C13.9498 15.9251 13.698 16.2649 13.489 16.6323L9.37386 15.2952C8.81952 15.1151 8.22502 15.4184 8.04509 15.9722C7.86502 16.5261 8.16828 17.1209 8.72206 17.3009L12.8357 18.6376C12.788 19.0608 12.7913 19.4407 12.8383 19.8444L10.2044 20.7633C8.6258 21.0947 6.98429 21.0595 5.7572 20.6608ZM17.0194 27.2317C16.883 28.9355 16.3244 30.609 15.5215 31.7141C13.8054 34.0759 10.8479 34.5856 8.50114 32.8805C6.14919 31.1716 5.62599 27.8679 7.3348 25.5158C8.73099 23.594 11.1561 22.7208 11.3401 22.6009L13.4995 21.8475C13.694 22.1861 13.924 22.5018 14.186 22.7879L11.6425 26.2889C11.3001 26.7601 11.4046 27.4195 11.8757 27.7618C12.3466 28.104 13.0061 27.9998 13.3486 27.5286L15.8915 24.0285C16.2482 24.1914 16.6255 24.3169 17.0193 24.3971V27.2317H17.0194ZM18.074 22.3943C16.3297 22.3943 14.9105 20.9752 14.9105 19.2308C14.9105 17.4864 16.3296 16.0673 18.074 16.0673C19.8183 16.0673 21.2375 17.4864 21.2375 19.2308C21.2375 20.9752 19.8183 22.3943 18.074 22.3943ZM27.4988 32.8805C25.0753 34.6413 22.2865 33.9987 20.6264 31.7141C19.8235 30.609 19.2508 28.9355 19.1143 27.2318V24.3972C19.5081 24.3169 19.8994 24.1915 20.2562 24.0286L22.799 27.5287C23.1414 27.9998 23.8009 28.1042 24.272 27.7619C24.7431 27.4195 24.8476 26.7601 24.5052 26.289L21.9617 22.788C22.2215 22.5043 22.4499 22.1916 22.6433 21.8561L24.6088 22.5642C24.8511 22.7439 27.2486 23.5659 28.6651 25.5158C30.3741 27.8679 29.8508 31.1716 27.4988 32.8805ZM25.8759 20.7789L23.3083 19.8539C23.3575 19.4391 23.3593 19.0567 23.3121 18.6375L27.4258 17.3009C27.9796 17.1209 28.2827 16.526 28.1027 15.9721C27.9227 15.4182 27.3278 15.1151 26.774 15.2951L22.6588 16.6322C22.4461 16.2585 22.1892 15.9133 21.895 15.6036L23.6366 12.5894C24.6601 11.5511 25.8719 10.7468 26.9842 10.3854C29.7489 9.48717 32.7294 11.0056 33.6279 13.7705C34.5344 16.5605 32.9525 19.7802 30.2428 20.6607H30.2428C29.0364 21.0527 27.4296 21.0925 25.8759 20.7789Z" fill="white"/>
</svg>
