<svg width="20" height="36" viewBox="0 0 20 36" fill="none" xmlns="http://www.w3.org/2000/svg">
<path d="M16.6787 13.0398V9.56661C16.6787 8.98422 16.2066 8.51208 15.6242 8.51208H14.4291V7.31694C14.4291 5.48909 14.0335 3.74582 13.3152 2.40832C11.5915 -0.801311 8.40988 -0.803912 6.68488 2.40832C5.9666 3.74582 5.57101 5.48909 5.57101 7.31694V8.51208H4.37588C3.7935 8.51208 3.32135 8.98422 3.32135 9.56661V13.0398C1.73689 13.2473 0.509277 14.6051 0.509277 16.2453V32.7662C0.509277 34.5494 1.96003 36.0001 3.74317 36.0001H16.2569C18.04 36.0001 19.4908 34.5494 19.4908 32.7662V16.2453C19.4908 14.6051 18.2632 13.2472 16.6787 13.0398ZM7.68007 7.31687C7.68007 4.38704 8.92716 2.11453 10 2.11453C11.0729 2.11453 12.32 4.38704 12.32 7.31687V8.51201H7.68007V7.31687ZM5.43041 10.6211H14.5697V13.0113H5.43041V10.6211ZM17.3817 32.7662C17.3817 33.3864 16.8771 33.891 16.2569 33.891H3.74317C3.12296 33.891 2.61833 33.3864 2.61833 32.7662V16.2452C2.61833 15.625 3.12296 15.1204 3.74317 15.1204H16.2569C16.8771 15.1204 17.3817 15.625 17.3817 16.2452V32.7662Z" fill="white"/>
<path d="M10.8229 19.593C10.4011 19.0669 9.59924 19.0664 9.17715 19.593C9.14713 19.6304 8.43455 20.5219 7.71233 21.6224C6.29709 23.779 6.13342 24.7623 6.13342 25.3143C6.13342 27.4463 7.86798 29.1809 10 29.1809C12.1321 29.1809 13.8666 27.4463 13.8666 25.3143C13.8666 24.7623 13.703 23.779 12.2877 21.6224C11.5655 20.5219 10.8529 19.6304 10.8229 19.593ZM10 27.0718C9.03092 27.0718 8.24248 26.2833 8.24248 25.3142C8.24248 24.7644 9.05271 23.3433 10 22.0063C10.9475 23.3434 11.7576 24.7643 11.7576 25.3142C11.7576 26.2834 10.9691 27.0718 10 27.0718Z" fill="white"/>
</svg>
