<svg width="32" height="32" viewBox="0 0 32 32" fill="none" xmlns="http://www.w3.org/2000/svg">
<path d="M30.9677 29.2581H28.528C27.0263 24.0863 22.4742 20.3261 17.0323 19.8912V14.1374L19.5243 11.6453H22.4032C26.0585 11.6452 29.0323 8.67143 29.0323 5.0162V1.70975C29.0323 1.13962 28.5701 0.67749 28 0.67749H24.6935C21.0383 0.67749 18.0645 3.6513 18.0645 7.30652V10.1854L17.0323 11.2177V10.0323C17.0323 9.46226 16.5701 9.00007 16 9.00007C15.4299 9.00007 14.9677 9.46226 14.9677 10.0323V14.4435L13.9355 13.4112V10.5323C13.9355 6.8771 10.9617 3.9033 7.30645 3.9033H4C3.42994 3.9033 2.96774 4.36543 2.96774 4.93555V8.24201C2.96774 11.8972 5.94148 14.871 9.59677 14.871H12.4757L14.9677 17.3631V19.8911C9.53226 20.3256 4.97555 24.0801 3.472 29.2581H1.03226C0.462193 29.2581 0 29.7202 0 30.2903C0 30.8605 0.462193 31.3226 1.03226 31.3226H30.9677C31.5378 31.3226 32 30.8605 32 30.2903C32 29.7202 31.5378 29.2581 30.9677 29.2581ZM20.129 7.30652C20.129 4.78962 22.1766 2.74201 24.6935 2.74201H26.9677V5.0162C26.9677 7.5331 24.9201 9.58072 22.4032 9.58072H21.5888L23.375 7.79452C23.7782 7.39143 23.7782 6.73781 23.375 6.33472C22.9719 5.93155 22.3183 5.93155 21.9152 6.33472L20.129 8.12091V7.30652ZM9.59677 12.8065C7.07987 12.8065 5.03226 10.7589 5.03226 8.24201V5.96781H7.30645C9.82335 5.96781 11.871 8.01543 11.871 10.5323V11.3467L10.4718 9.94755C10.0687 9.54439 9.4151 9.54439 9.012 9.94755C8.60884 10.3507 8.60884 11.0043 9.012 11.4074L10.4111 12.8065H9.59677V12.8065ZM16 21.9138C20.6697 21.9138 24.8376 24.9351 26.3601 29.2581H5.63987C7.16239 24.9351 11.3303 21.9138 16 21.9138ZM10.0639 28.431C9.52658 28.5345 8.97761 28.2141 8.84968 27.6201C8.73755 27.0489 9.11419 26.5136 9.66 26.4065C10.2057 26.3017 10.7482 26.6319 10.8742 27.2168C10.9791 27.7514 10.6561 28.3032 10.0639 28.431ZM15.2897 28.431C14.7476 28.5354 14.2025 28.2096 14.0755 27.6201C13.9634 27.0489 14.34 26.5136 14.8858 26.4065C15.4329 26.3015 15.9743 26.6331 16.1 27.2168C16.2049 27.7514 15.8819 28.3032 15.2897 28.431ZM12.8381 26.0439C12.296 26.1483 11.7509 25.8225 11.6239 25.233C11.5119 24.6624 11.8879 24.1266 12.4342 24.0194C12.9814 23.9143 13.5227 24.2463 13.6484 24.8297C13.7527 25.3614 13.4337 25.9154 12.8381 26.0439Z" fill="white"/>
</svg>
