<svg width="30" height="36" viewBox="0 0 30 36" fill="none" xmlns="http://www.w3.org/2000/svg">
<path d="M20.4412 8.79648C20.7886 7.55724 20.7056 6.23192 20.1941 5.04261C20.7418 4.49499 22.0781 3.35874 22.0781 1.16129C22.0781 0.519968 21.5581 0 20.9168 0C20.2755 0 19.7555 0.519968 19.7555 1.16129C19.7555 1.82896 19.4955 2.45664 19.0234 2.92877L18.8327 3.11952C16.6642 1.11462 13.3345 1.11571 11.1672 3.11952L10.9764 2.9287C10.5043 2.45664 10.2443 1.82896 10.2443 1.16129C10.2443 0.519968 9.72438 0 9.08306 0C8.44173 0 7.92177 0.519968 7.92177 1.16129C7.92177 3.30939 9.18177 4.41871 9.80574 5.04261C9.29521 6.22967 9.21065 7.55499 9.55868 8.79641C4.66471 9.89274 0.996338 14.2714 0.996338 19.4912V20.1037C0.996338 22.0847 2.60806 23.6964 4.58908 23.6964C5.33434 23.6964 6.18651 23.7226 7.39817 23.4752C7.75069 26.849 9.23598 29.9773 11.6658 32.4072C12.2879 33.0292 13.042 33.44 13.8387 33.6411V34.8387C13.8387 35.48 14.3587 36 15 36C15.6413 36 16.1613 35.48 16.1613 34.8387V33.6411C16.958 33.44 17.7121 33.0292 18.3342 32.4072C20.0668 30.6745 21.3532 28.5259 22.0542 26.1934C22.2388 25.5792 21.8906 24.9316 21.2764 24.747C20.6622 24.5622 20.0146 24.9106 19.83 25.5249C19.239 27.4908 18.154 29.3028 16.6919 30.7648C15.759 31.6977 14.2411 31.6977 13.3081 30.7648C13.0137 30.4704 12.7358 30.1638 12.4746 29.8462H14.5373C15.1787 29.8462 15.6986 29.3262 15.6986 28.6849C15.6986 28.0436 15.1787 27.5236 14.5373 27.5236H10.9626C10.7033 27.0074 10.4806 26.4741 10.2957 25.9268H12.3599C13.0013 25.9268 13.5212 25.4069 13.5212 24.7655C13.5212 24.1242 13.0013 23.6042 12.3599 23.6042H9.75327C9.71494 23.3198 9.68627 23.033 9.66733 22.7445C11.9776 21.7095 13.8665 19.8973 15 17.6425C16.8031 21.2293 20.5178 23.6964 24.7984 23.6964H25.4109C27.3919 23.6964 29.0036 22.0847 29.0036 20.1037V19.4912C29.0035 14.2714 25.3352 9.89281 20.4412 8.79648ZM14.9999 3.9391C17.357 3.9391 18.9799 6.34035 18.0804 8.53207C17.7874 8.5312 12.0896 8.53156 11.9192 8.53207C11.0202 6.34101 12.6423 3.9391 14.9999 3.9391ZM5.20152 21.3739H4.58901C3.88868 21.3739 3.31885 20.8041 3.31885 20.1037V19.4913C3.31885 14.7288 7.19342 10.8542 11.9559 10.8542H13.8386V12.7368C13.8386 17.4993 9.96404 21.3739 5.20152 21.3739ZM26.6809 20.1037C26.6809 20.8041 26.1111 21.3739 25.4107 21.3739H24.7983C20.0358 21.3739 16.1612 17.4993 16.1612 12.7368V10.8542C19.712 10.8542 18.1887 10.8752 18.7447 10.8828C23.1807 11.2407 26.681 14.9648 26.681 19.4913V20.1037H26.6809ZM16.3064 23.5887C16.9477 23.5887 17.4676 24.1087 17.4676 24.75C17.4676 25.3913 16.9477 25.9113 16.3064 25.9113H15.9435C15.3021 25.9113 14.7822 25.3913 14.7822 24.75C14.7822 24.1087 15.3021 23.5887 15.9435 23.5887H16.3064Z" fill="white"/>
</svg>
