<svg width="36" height="28" viewBox="0 0 36 28" fill="none" xmlns="http://www.w3.org/2000/svg">
<path d="M36 20.6911C36 21.3325 35.48 21.8524 34.8387 21.8524H30.7808C30.1481 21.8524 29.5947 22.261 29.4037 22.8692C28.4669 25.8519 25.696 27.9533 22.474 27.9533C19.2538 27.9533 16.4818 25.8537 15.5444 22.8693C15.3533 22.2611 14.7999 21.8524 14.1672 21.8524H7.66894C7.02762 21.8524 6.50765 21.3325 6.50765 20.6911C6.50765 20.0497 7.02762 19.5298 7.66894 19.5298H14.1672C15.8197 19.5298 17.2636 20.5921 17.7602 22.1732C18.4097 24.2413 20.3041 25.6308 22.4739 25.6308C24.6438 25.6308 26.5382 24.2413 27.1877 22.1733C27.6843 20.5921 29.1282 19.5298 30.7807 19.5298H34.8387C35.48 19.5298 36 20.0497 36 20.6911ZM9.39092 10.4439H4.08324C1.83172 10.4439 0 8.61219 0 6.36059C0 4.10907 1.83172 2.27735 4.08324 2.27735H9.39085C11.239 2.27735 12.8034 3.51195 13.3049 5.19952H15.4292V1.2078C15.4292 0.566404 15.9492 0.0465088 16.5905 0.0465088H20.8245C23.8 0.0465088 26.6126 1.48934 28.3484 3.90599L29.5995 5.64778C29.8902 6.05263 29.8902 6.59786 29.5995 7.00271L28.3484 8.7445C26.6126 11.1611 23.8 12.604 20.8245 12.604H16.5905C15.9492 12.604 15.4292 12.0841 15.4292 11.4427V7.5221H13.3048C12.8032 9.20945 11.2389 10.4439 9.39092 10.4439ZM17.7518 5.19952H19.865C20.5064 5.19952 21.0263 5.71941 21.0263 6.36081C21.0263 7.0022 20.5064 7.5221 19.865 7.5221H17.7518V10.2814H20.8246C23.054 10.2814 25.1615 9.20031 26.4621 7.38957L27.2265 6.32524L26.4621 5.26092C25.1615 3.45018 23.054 2.36909 20.8246 2.36909H17.7518V5.19952ZM4.08324 8.12132H9.39085C10.3617 8.12132 11.1515 7.33143 11.1515 6.36059C11.1515 5.38975 10.3617 4.59993 9.39085 4.59993H4.08324C3.1124 4.59993 2.32258 5.38975 2.32258 6.36059C2.32258 7.33143 3.1124 8.12132 4.08324 8.12132ZM20.5729 14.6489C19.0521 14.6489 17.8148 15.8862 17.8148 17.407V17.5999C17.8148 18.2412 18.3348 18.7611 18.9761 18.7611H19.169C20.6898 18.7611 21.927 17.5239 21.927 16.0031V15.8102C21.927 15.1688 21.4071 14.6489 20.7658 14.6489H20.5729ZM22.9686 17.7343C22.4835 17.9457 22.3606 18.3516 22.2812 18.5538C21.7239 19.9725 22.4208 21.5719 23.8398 22.1293C24.0371 22.2068 24.1909 22.2806 24.4436 22.2806C24.9071 22.2806 25.345 22.0011 25.5248 21.5437L25.5953 21.3642C26.1514 19.9488 25.4523 18.3447 24.0368 17.7886C23.8467 17.7139 23.4589 17.5206 22.9686 17.7343Z" fill="white"/>
</svg>
