<svg width="29" height="35" viewBox="0 0 29 35" fill="none" xmlns="http://www.w3.org/2000/svg">
<path d="M14.4988 0C4.48918 0 -1.61521 10.9691 0.451763 16.1074C1.56033 18.863 5.06845 20.2723 7.95023 20.9435C4.41777 27.0635 6.79135 35 14.5209 35C22.1144 35 24.6643 27.2368 21.1358 21.0209C23.9564 20.3936 27.3818 19.0522 28.5107 16.3768C30.675 11.248 24.6461 0 14.4988 0V0ZM18.7141 31.2657C16.5979 33.2481 12.4441 33.2481 10.3278 31.2657C8.23489 29.305 7.84798 25.0043 10.3412 21.3828C13.0791 21.7625 16.0019 21.7806 18.7357 21.4341C21.1912 25.0466 20.7961 29.3153 18.7141 31.2657ZM26.4303 15.4989C25.9493 16.639 24.4872 17.6571 22.3137 18.3656C15.3939 20.6212 4.10192 19.1307 2.54668 15.2647C1.13271 11.7498 5.95001 2.25806 14.4986 2.25806C16.9747 2.25806 19.2216 3.0402 21.1827 4.46455C19.6296 5.3658 18.6125 7.03528 18.6125 8.92359C18.6125 11.7651 20.9242 14.0768 23.7656 14.0768C24.3892 14.0768 24.8947 13.5713 24.8947 12.9477C24.8947 12.3242 24.3892 11.8187 23.7656 11.8187C22.1693 11.8187 20.8705 10.52 20.8705 8.92359C20.8705 7.5854 21.7999 6.43428 23.0596 6.11625C26.0166 9.23054 27.3039 13.4286 26.4303 15.4989ZM10.5331 5.87309C7.31183 5.87309 4.69107 8.49378 4.69107 11.715C4.69107 14.9363 7.31183 17.5571 10.5331 17.5571C13.7544 17.5571 16.3751 14.9363 16.3751 11.715C16.3751 8.49378 13.7544 5.87309 10.5331 5.87309ZM10.5331 15.2991C8.55687 15.2991 6.94913 13.6914 6.94913 11.7151C6.94913 9.73896 8.55687 8.13122 10.5331 8.13122C12.5093 8.13122 14.117 9.73896 14.117 11.7151C14.117 13.6913 12.5092 15.2991 10.5331 15.2991Z" fill="white"/>
</svg>
