<svg width="29" height="31" viewBox="0 0 29 31" fill="none" xmlns="http://www.w3.org/2000/svg">
<path d="M18.8942 10.6911L15.2746 15.1152C14.8673 15.6128 14.1021 15.6025 13.7086 15.0941L12.0998 13.0161C11.7614 12.5791 11.8414 11.9504 12.2785 11.6121C12.7155 11.2737 13.3441 11.3537 13.6825 11.7908L14.5216 12.8745L17.345 9.42362C17.695 8.99589 18.3255 8.93277 18.7534 9.28281C19.1812 9.6328 19.2441 10.2633 18.8942 10.6911ZM19.3307 22.8525C20.1949 25.389 21.7744 27.4947 24.0572 28.9983H26.1298C26.6826 28.9983 27.1306 29.4464 27.1306 29.9991C27.1306 30.5518 26.6826 31 26.1298 31C25.2676 31 3.95166 31 2.80301 31C2.25029 31 1.80217 30.5518 1.80217 29.9991C1.80217 29.4464 2.25029 28.9983 2.80301 28.9983H4.9425C7.15392 27.5414 8.78654 25.4624 9.66422 22.8524C7.32212 22.7813 5.51116 21.0101 5.22254 18.8195C5.12471 18.077 4.61797 17.4523 3.93158 17.2281C1.67562 16.4909 0.159912 14.4039 0.159912 12.0349C0.159912 9.85598 1.45394 7.88814 3.45662 7.02154C4.15821 6.71791 4.62629 6.04728 4.64912 5.3131C4.7878 0.849163 9.85694 -1.496 13.3405 1.06616C14.034 1.57621 14.9659 1.57621 15.6594 1.06616C19.2016 -1.53916 24.2148 0.919222 24.3504 5.31473C24.373 6.04835 24.84 6.71778 25.5401 7.02016C27.5447 7.8862 28.84 9.85461 28.84 12.0349C28.84 14.4035 27.3248 16.4904 25.0695 17.2279C24.3828 17.4524 23.8754 18.0782 23.777 18.8221C23.4872 21.0114 21.6765 22.7836 19.3307 22.8525ZM21.7925 18.5594C21.9913 17.0571 23.0334 15.7876 24.4473 15.3252C27.4832 14.3324 27.6661 10.1191 24.7461 8.85758C23.3368 8.24876 22.3962 6.8823 22.3496 5.37634C22.2608 2.49993 19.0254 1.07491 16.8453 2.67851C15.4423 3.71032 13.5573 3.71026 12.1544 2.67851C9.96822 1.0706 6.73894 2.50593 6.64974 5.37509C6.60295 6.88092 5.6616 8.2482 4.25148 8.85846C1.32683 10.1241 1.52287 14.335 4.55329 15.3253C5.96755 15.7874 7.00923 17.0563 7.20702 18.558C7.38912 19.94 8.61609 21.0269 10.1425 20.8328C10.4503 18.5983 10.0192 16.4404 8.88024 14.5234C8.59788 14.0482 8.75426 13.4341 9.22948 13.1518C9.70456 12.8695 10.3188 13.0258 10.6011 13.501C13.7903 18.8688 11.9695 25.2511 8.12279 28.9982H20.8768C16.1841 24.4262 14.9288 16.605 20.1609 11.1964C20.5452 10.7992 21.1787 10.7886 21.5761 11.173C21.9734 11.5573 21.9839 12.1909 21.5996 12.5882C19.4792 14.7799 18.4143 17.7451 18.8451 20.8337C20.5232 21.0262 21.6262 19.8157 21.7925 18.5594Z" fill="white"/>
</svg>
