<svg width="48" height="48" viewBox="0 0 48 48" fill="none" xmlns="http://www.w3.org/2000/svg">
<g opacity="0.5">
<path d="M16.6063 28.9331C19.3047 25.2006 19.3047 19.8038 16.6063 15.9762C13.8723 19.7801 13.8723 25.2719 16.6063 28.9331Z" fill="#BFDFC5"/>
<path d="M25.8306 22.4666C30.9063 21.6464 34.3179 17.3789 34.9004 13.3967C30.3358 14.1694 26.6151 17.8782 25.8306 22.4666Z" fill="#BFDFC5"/>
<path d="M30.3712 32.1898L30.4782 32.1661C30.918 32.0828 31.5599 31.7975 32.1186 31.5479C28.8497 29.2299 23.4768 28.6831 19.3401 31.6311C21.7413 32.9268 27.447 33.2716 30.3712 32.1898Z" fill="#BFDFC5"/>
<path d="M24 0C10.7697 0 0 10.7697 0 24C0 37.2303 10.7697 48 24 48C37.2303 48 48 37.2303 48 24C48 10.7697 37.2303 0 24 0ZM38.5379 12.5527L38.4785 13.0163C38.4309 13.373 38.3834 13.7177 38.3239 14.0743C37.7771 17.1293 36.3744 19.7801 34.1278 21.9673C32.0357 24.0119 29.5156 25.3195 26.6627 25.8663C26.2348 25.9495 25.8068 25.9851 25.3908 26.0327C25.153 26.0565 24.8202 26.1278 24.7964 26.1516C28.0178 25.9019 30.8588 26.6508 33.6048 28.3507C34.4844 28.8975 35.3284 29.5632 36.1129 30.3358C36.5171 30.7281 36.7192 31.2036 36.7192 31.6791C36.7073 32.1545 36.4933 32.5944 36.101 32.9629C35.5661 33.4502 35.0074 33.9257 34.3655 34.425L34.2823 34.4844C34.0684 34.6033 33.8544 34.7103 33.6642 34.7935C33.5215 34.8767 33.3551 34.9599 33.1412 35.0788C29.0996 36.9569 21.789 37.0758 18.6152 35.3165C18.0802 35.0193 17.5929 34.6746 17.1174 34.3299C16.9866 34.2348 16.8559 34.1397 16.7132 34.0446C15.9525 34.8172 15.1798 35.578 14.4071 36.3507L12.5409 38.2169C12.3982 38.3596 11.9584 38.7994 11.2571 38.8113C11.2452 38.8113 11.2452 38.8113 11.2333 38.8113C10.5201 38.8113 9.94948 38.4547 9.64042 37.8128C9.33135 37.1709 9.43834 36.4339 9.93759 35.8871C9.98514 35.8395 10.0327 35.7801 10.0802 35.7325L10.8648 34.948C11.9822 33.8306 13.0996 32.7132 14.2169 31.5958C14.1337 31.4889 14.0505 31.3819 13.9792 31.2868C12.3863 29.159 11.4354 26.7816 11.162 24.2259C10.6627 19.6018 12.0297 15.5483 15.2392 12.1724C15.7385 11.6493 16.2377 11.5423 16.5706 11.5305C16.8915 11.5423 17.4146 11.6374 17.9257 12.1724C20.2199 14.5379 21.6464 17.367 22.003 20.6003C22.1337 21.789 22.2526 23.6196 22.3001 22.419C22.4309 19.5186 23.477 17.6404 25.2957 15.3581C27.6256 12.422 30.6805 10.6152 34.3774 9.96137C34.6865 9.90193 35.0074 9.86627 35.3165 9.83061C35.4591 9.81872 35.6018 9.79495 35.7325 9.78306H35.8158H37.1828L37.3016 9.83061C37.8484 10.0446 38.2526 10.4606 38.4785 11.0074L38.526 11.1263L38.5379 12.5527Z" fill="#BFDFC5"/>
</g>
</svg>
