<svg width="38" height="36" viewBox="0 0 38 36" fill="none" xmlns="http://www.w3.org/2000/svg">
<path d="M36.6643 11.4376C32.5088 8.6466 27.2198 8.49673 22.9727 10.7738C22.7835 10.5401 22.575 10.3246 22.3499 10.1294C23.5302 9.15939 24.2845 7.68904 24.2845 6.0457C24.2845 3.1319 21.9139 0.76123 19 0.76123C16.0862 0.76123 13.7156 3.13182 13.7156 6.0457C13.7156 7.68897 14.4698 9.15931 15.65 10.1293C15.4249 10.3246 15.2164 10.5401 15.0272 10.7739C10.78 8.49689 5.49101 8.64667 1.3358 11.4377C-0.445841 12.6343 -0.444691 15.2642 1.3358 16.4601C2.72983 17.3964 4.25113 18.0353 5.81786 18.3852C4.87946 19.7253 4.19344 21.2298 3.80231 22.8268C3.33464 24.7369 4.79112 26.5715 6.73979 26.5715C7.51239 26.5711 11.264 26.0199 14.4332 22.9612L14.9564 31.4369C15.0879 33.5688 16.8641 35.2387 19 35.2387C21.1359 35.2387 22.9122 33.5688 23.0437 31.4369L23.5669 22.9613C25.5022 24.8291 28.0066 26.1204 30.814 26.5384C32.9364 26.8548 34.7077 24.91 34.1977 22.8268C33.8065 21.2298 33.1204 19.7253 32.182 18.3852C33.7489 18.0352 35.2705 17.3963 36.6643 16.4602C38.446 15.2632 38.4445 12.6333 36.6643 11.4376ZM16.1674 6.0457C16.1674 4.48372 17.4381 3.21296 19.0001 3.21296C20.5621 3.21296 21.8328 4.48372 21.8328 6.0457C21.8328 7.60768 20.5621 8.87836 19.0001 8.87836C17.4381 8.87836 16.1674 7.60768 16.1674 6.0457ZM20.9119 12.1411C20.4318 12.5289 19.8968 13.0278 19.7662 13.1951C19.6169 13.386 19.5291 13.6138 19.5104 13.8548C19.4554 14.5779 19.7236 17.3621 21.2899 20.0572L21.1065 23.0274H16.8937L16.7103 20.0571C17.7565 18.257 18.3918 16.1946 18.493 14.0055C18.5085 13.6604 18.3741 13.3217 18.1352 13.0821C17.8001 12.747 17.4503 12.4336 17.0881 12.1411C18.1346 11.0593 19.8663 11.0609 20.9119 12.1411ZM2.70287 13.4729C6.6339 10.8327 11.7888 11.0998 15.4235 13.9488C11.7756 16.8081 6.62072 17.0562 2.70294 14.4248C2.36621 14.1987 2.36575 13.6993 2.70287 13.4729ZM6.82498 24.1133C6.42374 24.1727 6.08724 23.8042 6.18378 23.4098C6.61291 21.6574 7.47868 20.0413 8.69688 18.7047C10.9903 18.7155 13.3728 18.1086 15.4815 16.8689C14.2025 20.635 10.906 23.5058 6.82498 24.1133ZM19 32.7869C18.1566 32.7869 17.4554 32.1276 17.4034 31.2858L17.3498 30.4175H18.5403C19.2174 30.4175 19.7662 29.8687 19.7662 29.1917C19.7662 28.5146 19.2174 27.9658 18.5403 27.9658H17.1985L17.0449 25.479H20.9551L20.5966 31.2858C20.5448 32.1276 19.8434 32.7869 19 32.7869ZM31.8164 23.4098C31.913 23.8045 31.5768 24.1727 31.1751 24.1134C27.0942 23.5059 23.7978 20.6352 22.5187 16.8692C24.6346 18.1132 27.0176 18.7157 29.3033 18.7048C30.5215 20.0414 31.3872 21.6574 31.8164 23.4098ZM35.2973 14.4247C31.3481 17.0771 26.1942 16.7843 22.5766 13.9488C26.2244 11.0896 31.3792 10.8413 35.2973 13.4728C35.634 13.699 35.6343 14.1984 35.2973 14.4247Z" fill="white"/>
</svg>
