<svg width="30" height="32" viewBox="0 0 30 32" fill="none" xmlns="http://www.w3.org/2000/svg">
<path d="M27.4231 25.2256C28.1286 19.3181 28.1801 13.1239 27.4236 6.77327C29.4339 4.91924 29.6001 2.22704 28.4695 0.958994C27.3188 -0.331434 24.5657 -0.448077 22.4976 1.40563C17.5264 0.719063 12.4844 0.717321 7.50521 1.40563C5.42873 -0.455109 2.67807 -0.324789 1.53339 0.959059C0.402633 2.22697 0.568888 4.91995 2.57969 6.77398C1.87422 12.6815 1.82267 18.8752 2.57917 25.2264C1.59829 26.1309 0.978945 27.3139 0.854882 28.5487C0.471276 32.3684 4.85674 32.9677 7.50521 30.594C12.4764 31.2806 17.5184 31.2823 22.4976 30.594C24.5695 32.4506 27.3212 32.3284 28.4693 31.0406C29.5991 29.774 29.4351 27.0809 27.4231 25.2256ZM26.9286 29.6667C26.5811 30.0563 24.9182 30.2072 23.6132 28.7985C23.3817 28.5486 23.0416 28.429 22.7049 28.4789C17.6033 29.2337 12.406 29.2338 7.29773 28.4789C6.96096 28.4291 6.62104 28.5486 6.38956 28.7985C5.08042 30.2118 3.41948 30.0539 3.0742 29.6667C2.72853 29.2791 2.76685 27.6249 4.29063 26.4848C4.58798 26.2623 4.74294 25.8972 4.6963 25.5287C3.92683 19.4485 3.86412 13.0348 4.69694 6.47205C4.74371 6.10342 4.58875 5.73807 4.29121 5.51549C2.77052 4.37809 2.72646 2.72296 3.0742 2.33303C3.42225 1.94278 5.08584 1.79388 6.38962 3.20121C6.6211 3.45108 6.96109 3.5703 7.29793 3.52082C12.3995 2.76599 17.5968 2.76586 22.7051 3.52082C23.0418 3.57056 23.3818 3.45101 23.6132 3.20115C24.9136 1.79743 26.5783 1.94014 26.9286 2.33303C27.2744 2.72077 27.2358 4.37487 25.7122 5.51491C25.4148 5.73742 25.2599 6.10251 25.3065 6.47096C26.076 12.5514 26.1386 18.9654 25.3059 25.5276C25.2591 25.8963 25.414 26.2616 25.7117 26.4842C27.2327 27.6219 27.2761 29.2771 26.9286 29.6667ZM19.832 9.03285C19.262 9.03285 18.7998 9.49497 18.7998 10.0651V10.206C17.9682 10.206 17.1039 10.1336 16.0336 10.7478V9.37503C16.0336 8.80492 15.5715 8.3428 15.0014 8.3428C14.4313 8.3428 13.9692 8.80492 13.9692 9.37503V10.7478C12.902 10.1353 12.0405 10.206 11.203 10.206V10.0651C11.203 9.49497 10.7408 9.03285 10.1708 9.03285C9.60072 9.03285 9.13854 9.49497 9.13854 10.0651C9.13854 13.1898 9.00712 13.8968 9.70511 15.0795C9.36924 15.2498 9.13854 15.5975 9.13854 15.9999V17.766C9.13854 20.025 10.9763 21.8627 13.2352 21.8627H13.9692V23.3838C13.9692 23.9539 14.4313 24.416 15.0014 24.416C15.5715 24.416 16.0336 23.9539 16.0336 23.3838V21.8627H16.7676C19.0265 21.8627 20.8643 20.025 20.8643 17.766V15.9999C20.8643 15.5976 20.6336 15.2498 20.2977 15.0795C20.9906 13.9053 20.8643 13.2332 20.8643 10.0651C20.8643 9.49497 20.4021 9.03285 19.832 9.03285ZM18.0659 12.2705H18.7998V13.0044C18.7998 14.1249 17.8881 15.0366 16.7676 15.0366H16.0336V14.3027C16.0336 13.1821 16.9453 12.2705 18.0659 12.2705ZM13.9692 14.3027V15.0366H13.2352C12.1147 15.0366 11.203 14.1249 11.203 13.0044V12.2705H11.9369C13.0575 12.2705 13.9692 13.1821 13.9692 14.3027ZM11.203 17.766V17.0321H11.9369C13.0575 17.0321 13.9692 17.9437 13.9692 19.0643V19.7982H13.2352C12.1147 19.7982 11.203 18.8866 11.203 17.766ZM18.7998 17.766C18.7998 18.8865 17.8881 19.7982 16.7676 19.7982H16.0336V19.0643C16.0336 17.9437 16.9453 17.0321 18.0659 17.0321H18.7998V17.766Z" fill="white"/>
</svg>
