<svg width="31" height="33" viewBox="0 0 31 33" fill="none" xmlns="http://www.w3.org/2000/svg">
<path d="M11.8466 27.3124C10.8148 27.3124 10.027 27.2369 9.60332 27.1842C9.01991 27.1117 8.60568 26.58 8.6782 25.9966C8.75065 25.4132 9.28231 24.9991 9.86586 25.0714C11.2131 25.2388 18.1922 25.8227 23.2804 20.8576C27.999 16.2531 29.2312 8.87919 26.4579 2.28293C19.6045 3.7616 13.5273 6.15816 9.27373 9.0692C5.18286 11.869 2.98351 14.9561 3.08072 17.762C3.13061 19.2014 3.81357 20.682 5.11301 22.1754C7.0135 19.1277 9.33647 16.5016 11.9547 14.3083C12.4053 13.9308 13.0768 13.9901 13.4543 14.4408C13.8319 14.8915 13.7726 15.5629 13.3219 15.9404C8.37508 20.0844 4.81973 25.6485 3.12383 32.202C2.99968 32.6817 2.56755 33.0001 2.09398 33.0001C1.39732 33.0001 0.888416 32.3421 1.06266 31.6687C1.75333 28.9998 2.73528 26.4726 3.99613 24.1094C-5.50166 14.1487 8.67434 3.71496 26.8685 0.0211001C27.3467 -0.0759037 27.8345 0.168602 28.0428 0.60971C33.7605 12.7142 26.8787 27.3119 11.8466 27.3124ZM24.1908 16.2067C25.1541 14.5724 25.8535 12.7763 26.2694 10.8682C26.3946 10.2938 26.0304 9.72661 25.456 9.60139C24.882 9.47605 24.3144 9.84038 24.1892 10.4147C23.8216 12.1015 23.205 13.6863 22.3567 15.1255C22.0581 15.6319 22.2267 16.2845 22.7331 16.5831C23.239 16.8814 23.8919 16.7137 24.1908 16.2067Z" fill="white"/>
</svg>
