<svg width="27" height="35" viewBox="0 0 27 35" fill="none" xmlns="http://www.w3.org/2000/svg">
<path d="M16.733 3.85876C15.9247 2.67016 15.2116 1.57665 14.546 0.578232C14.4509 0.4356 14.3083 0.292969 14.1656 0.197881C13.5951 -0.18247 12.8344 0.00770554 12.454 0.578232C11.836 1.57665 11.1228 2.62262 10.267 3.85876C6.51106 9.37385 0.900879 17.694 0.900879 22.4484C0.900879 25.9191 2.32719 29.057 4.6093 31.3391C6.89141 33.5737 10.0293 35 13.5 35C16.9707 35 20.1086 33.5737 22.3907 31.2916C24.6728 29.0095 26.0991 25.8716 26.0991 22.4009C26.0991 17.6465 20.489 9.37385 16.733 3.85876ZM20.6791 29.58C18.8249 31.4342 16.3051 32.5277 13.5 32.5277C10.6949 32.5277 8.17509 31.3867 6.32088 29.58C4.46667 27.7258 3.37316 25.2059 3.37316 22.4009C3.37316 18.4072 8.74562 10.4674 12.3114 5.18999C12.7393 4.57192 13.1197 3.95385 13.5 3.43086C13.8804 3.95385 14.2607 4.57192 14.6886 5.18999C18.2544 10.5149 23.6269 18.4072 23.6269 22.4009C23.6269 25.2059 22.4858 27.7258 20.6791 29.58Z" fill="white"/>
<path d="M20.8693 21.5451C20.2036 21.4976 19.6331 22.0206 19.5856 22.6862C19.538 23.7321 19.2052 24.7306 18.6822 25.5863C18.1593 26.4421 17.3986 27.2028 16.4952 27.6783C15.9247 28.0111 15.687 28.7718 16.0198 29.3423C16.4001 30.0079 17.1608 30.1981 17.7314 29.8653C19.0151 29.1521 20.061 28.1062 20.7742 26.9176C21.5349 25.729 21.9628 24.3027 22.0103 22.8288C22.0579 22.1632 21.5349 21.5927 20.8693 21.5451Z" fill="white"/>
</svg>
