<svg width="36" height="36" viewBox="0 0 36 36" fill="none" xmlns="http://www.w3.org/2000/svg">
<path d="M34.9407 15.4365C34.3489 14.8447 33.1274 13.5319 30.9095 12.6523C31.6536 10.9284 31.7915 9.55476 31.7915 7.83386C31.7915 5.83509 30.1654 4.20891 28.1666 4.20891C27.3333 4.20891 25.5408 4.14445 23.3482 5.09092C22.642 3.31035 21.746 2.242 20.5639 1.05977C19.1505 -0.353582 16.8509 -0.353582 15.4374 1.05977C14.8416 1.65571 13.5318 2.87569 12.6533 5.09085C10.9294 4.34675 9.55581 4.20884 7.83483 4.20884C5.83599 4.20884 4.20988 5.83501 4.20988 7.83378C4.20988 8.5879 4.13098 10.426 5.09189 12.6522C3.30813 13.3597 2.2395 14.2578 1.06075 15.4365C-0.352606 16.8498 -0.352606 19.1495 1.06075 20.5629C1.65255 21.1547 2.87406 22.4675 5.09189 23.3471C4.3478 25.071 4.20988 26.4446 4.20988 28.1656C4.20988 30.1643 5.83599 31.7905 7.83483 31.7905C8.58902 31.7905 10.4271 31.8694 12.6533 30.9085C13.3595 32.6891 14.2554 33.7575 15.4375 34.9396C16.8509 36.3531 19.1506 36.3529 20.564 34.9396C21.1565 34.3472 22.4688 33.126 23.3482 30.9086C25.0721 31.6527 26.4458 31.7906 28.1667 31.7906C30.1655 31.7906 31.7916 30.1644 31.7916 28.1656C31.7916 27.4115 31.8705 25.5734 30.9096 23.3472C32.6934 22.6398 33.762 21.7416 34.9408 20.563C36.354 19.1496 36.354 16.85 34.9407 15.4365ZM28.1666 6.53171C28.8846 6.53171 29.4687 7.11582 29.4687 7.83386C29.4687 8.62143 29.5328 10.1667 28.6407 12.03C26.9776 11.7648 25.2374 11.8829 23.5738 12.4267C24.0907 10.8455 24.2494 9.10965 23.9705 7.35979C25.7163 6.52394 27.1261 6.53171 28.1666 6.53171ZM18.0007 20.5319C16.6045 20.5319 15.4686 19.396 15.4686 17.9997C15.4686 16.6035 16.6045 15.4676 18.0007 15.4676C19.3969 15.4676 20.5329 16.6035 20.5329 17.9997C20.5329 19.396 19.3969 20.5319 18.0007 20.5319ZM16.6962 3.08598L17.0799 2.70228C17.5876 2.1946 18.4137 2.1946 18.9214 2.70228L19.3052 3.08605C22.1773 5.95812 22.5641 10.4623 20.3647 13.7616C19.9913 13.5524 19.5878 13.3913 19.1621 13.2864V10.7632C19.1621 10.1218 18.6421 9.6018 18.0007 9.6018C17.3593 9.6018 16.8393 10.1218 16.8393 10.7632V13.2864C16.4137 13.3913 16.0101 13.5524 15.6368 13.7616C13.4373 10.4622 13.8241 5.95805 16.6962 3.08598ZM6.53261 7.83386C6.53261 7.11582 7.11672 6.53171 7.83476 6.53171C8.62241 6.53171 10.1676 6.46769 12.0309 7.35971C11.7663 9.01928 11.8826 10.7595 12.4275 12.4265C10.8471 11.9099 9.11114 11.7508 7.36069 12.0299C6.52484 10.2842 6.53261 8.87433 6.53261 7.83386ZM2.70318 18.9205C2.19543 18.4128 2.19543 17.5867 2.70318 17.079L3.08688 16.6953C5.95903 13.8231 10.4631 13.4363 13.7624 15.6358C13.5533 16.0092 13.3921 16.4128 13.2872 16.8383H10.7641C10.1227 16.8383 9.6027 17.3584 9.6027 17.9997C9.6027 18.6411 10.1227 19.1611 10.7641 19.1611H13.2872C13.3921 19.5868 13.5533 19.9903 13.7624 20.3637C10.4631 22.5631 5.95903 22.1763 3.08688 19.3042L2.70318 18.9205ZM7.83476 29.4678C7.11672 29.4678 6.53261 28.8837 6.53261 28.1657C6.53261 27.3781 6.46859 25.8329 7.36069 23.9696C9.05931 24.2404 10.7958 24.106 12.4277 23.5725C11.9107 25.1537 11.7519 26.8898 12.0309 28.6398C10.2851 29.4756 8.87523 29.4678 7.83476 29.4678ZM19.3051 32.9136L18.9214 33.2973C18.4137 33.805 17.5876 33.805 17.0799 33.2973L16.6962 32.9135C13.824 30.0414 13.4373 25.5373 15.6367 22.238C16.0101 22.4471 16.4136 22.6082 16.8392 22.7131V25.2364C16.8392 25.8777 17.3593 26.3978 18.0006 26.3978C18.642 26.3978 19.162 25.8777 19.162 25.2364V22.7131C19.5877 22.6082 19.9912 22.4471 20.3646 22.238C22.5641 25.5374 22.1773 30.0415 19.3051 32.9136ZM29.4687 28.1657C29.4687 28.8837 28.8846 29.4678 28.1666 29.4678C27.379 29.4678 25.8337 29.5319 23.9705 28.6398C24.2356 26.9765 24.1177 25.2364 23.5737 23.5726C25.2018 24.1049 26.9383 24.241 28.6407 23.9695C29.4765 25.7154 29.4687 27.1252 29.4687 28.1657ZM33.2982 18.9205L32.9145 19.3042C30.0423 22.1763 25.5383 22.5631 22.239 20.3637C22.4482 19.9903 22.6093 19.5868 22.7142 19.1611H25.2373C25.8787 19.1611 26.3987 18.6411 26.3987 17.9997C26.3987 17.3584 25.8787 16.8383 25.2373 16.8383H22.7142C22.6093 16.4127 22.4482 16.0092 22.239 15.6358C25.5383 13.4364 30.0424 13.8232 32.9145 16.6953L33.2982 17.079C33.8059 17.5867 33.8059 18.4128 33.2982 18.9205Z" fill="white"/>
</svg>
