<svg width="34" height="30" viewBox="0 0 34 30" fill="none" xmlns="http://www.w3.org/2000/svg">
<path d="M27.3306 0.89979C22.4291 2.08841 18.9257 6.07884 18.2444 11.3417C18.1463 11.302 18.1028 11.9046 19.1619 3.6813C19.2438 3.04515 19.7892 2.56548 20.4306 2.56548C21.0364 2.56548 21.5273 2.07443 21.5273 1.46877C21.5273 0.863119 21.0364 0.37207 20.4306 0.37207C18.6896 0.37207 17.2089 1.67434 16.9864 3.40117C16.9505 3.68069 16.9684 3.68021 16.9325 3.40117C16.7101 1.67427 15.2294 0.37207 13.4882 0.37207C12.8825 0.37207 12.3915 0.863119 12.3915 1.46877C12.3915 2.07443 12.8825 2.56548 13.4882 2.56548C14.1296 2.56548 14.6751 3.04522 14.7571 3.68137L15.6712 10.7796C14.8011 5.70013 11.3089 2.02487 6.66955 0.89979C2.7134 -0.0593453 -0.843625 3.53359 0.176927 7.47857L1.65275 13.1823C2.09431 14.8889 3.3451 16.2726 4.99865 16.8837L5.56709 17.0938C2.77186 17.3528 1.14436 20.3833 2.45183 22.8584L4.91866 27.5277C6.0142 29.6013 8.67076 30.2642 10.6119 28.9511C14.0824 26.6447 14.4069 26.5215 15.0502 25.6637C16.2156 26.508 17.7853 26.5074 18.9499 25.6637C19.5956 26.5245 19.9231 26.6482 23.3882 28.9511C25.3224 30.2596 27.9813 29.6098 29.0815 27.5277L31.5483 22.8584C32.86 20.3754 31.2186 17.3519 28.433 17.0938L29.0014 16.8838C30.655 16.2726 31.9058 14.8889 32.3474 13.1823L33.8232 7.47864C34.8427 3.53805 31.2913 -0.0606476 27.3306 0.89979ZM3.77631 12.6329L2.30049 6.92919C1.69655 4.59506 3.80023 2.46122 6.15266 3.03151C10.9337 4.191 13.7835 8.54039 13.6705 13.178C13.6697 13.2137 13.6685 16.9291 13.6685 17.0762H11.8467L5.75915 14.8264C4.77917 14.4642 4.03801 13.6442 3.77631 12.6329ZM12.6265 24.9786L9.39369 27.1271C8.4874 27.7383 7.33065 27.3974 6.85811 26.5031L4.39135 21.8339C3.78673 20.6894 4.60953 19.2695 5.93681 19.2695H13.6685C13.6685 23.2947 13.6519 23.141 13.7154 23.5184C13.5326 24.1161 13.152 24.6294 12.6265 24.9786ZM17.0001 24.103C16.3725 24.103 15.8619 23.5924 15.8619 22.9648C15.8619 16.029 15.8636 21.6964 15.8636 14.3984C15.8812 13.7861 16.3836 13.2932 17.0001 13.2932C17.6166 13.2932 18.1189 13.7861 18.1366 14.3984C18.1366 20.0455 18.1383 16.3108 18.1383 22.9648C18.1383 23.5924 17.6277 24.103 17.0001 24.103ZM29.6088 21.8338L27.1421 26.5031C26.6641 27.4076 25.5029 27.7317 24.6065 27.1271L21.3737 24.9786C20.8483 24.6294 20.4677 24.1161 20.2848 23.5184C20.3482 23.1414 20.3317 23.2993 20.3317 19.2695H28.0634C29.391 19.2695 30.2134 20.6895 29.6088 21.8338ZM31.6997 6.92912L30.2239 12.6328C29.9622 13.6442 29.221 14.4642 28.241 14.8263L22.1535 17.076H20.3317C20.3317 16.9289 20.3304 13.2136 20.3297 13.1779C20.217 8.55464 23.0534 4.19401 27.8475 3.03137C30.1953 2.46211 32.3047 4.59081 31.6997 6.92912ZM6.16589 11.8303C5.56016 11.8303 5.06918 11.3392 5.06918 10.7336C5.06918 8.74821 6.68442 7.13291 8.6698 7.13291C9.27552 7.13291 9.7665 7.62395 9.7665 8.22961C9.7665 8.83526 9.27552 9.32631 8.6698 9.32631C7.89388 9.32631 7.26259 9.9576 7.26259 10.7336C7.26259 11.3392 6.77161 11.8303 6.16589 11.8303ZM28.931 10.7336C28.931 11.3392 28.44 11.8303 27.8343 11.8303C27.2286 11.8303 26.7376 11.3392 26.7376 10.7336C26.7376 9.9576 26.1063 9.32631 25.3304 9.32631C24.7246 9.32631 24.2337 8.83526 24.2337 8.22961C24.2337 7.62395 24.7246 7.13291 25.3304 7.13291C27.3157 7.13291 28.931 8.74814 28.931 10.7336ZM11.2295 22.6803C11.2295 23.286 10.7385 23.777 10.1328 23.777H8.50735C7.90163 23.777 7.41065 23.286 7.41065 22.6803C7.41065 22.0747 7.90163 21.5836 8.50735 21.5836H10.1328C10.7385 21.5836 11.2295 22.0746 11.2295 22.6803ZM26.5895 22.6803C26.5895 23.286 26.0985 23.777 25.4928 23.777H23.8674C23.2616 23.777 22.7707 23.286 22.7707 22.6803C22.7707 22.0747 23.2616 21.5836 23.8674 21.5836H25.4928C26.0985 21.5836 26.5895 22.0746 26.5895 22.6803Z" fill="white"/>
</svg>
