<svg width="32" height="32" viewBox="0 0 32 32" fill="none" xmlns="http://www.w3.org/2000/svg">
<path d="M31.6654 5.4859L26.4818 0.302381C26.0785 -0.100858 25.425 -0.100729 25.0219 0.302381L23.3372 1.98708C21.7565 3.56784 21.5412 6.00373 22.6891 7.81882L12.5985 17.9095L8.70274 14.0137C8.29963 13.6105 7.64606 13.6105 7.24289 14.0137L3.38889 17.8677C0.785453 20.471 -0.413102 24.1942 0.182659 27.8273L0.629383 30.5515C0.701063 30.9887 1.04378 31.3314 1.48102 31.4031C4.39234 31.8805 4.885 32 6.05033 32C9.06553 32 12.0018 30.8067 14.1648 28.6437L18.0188 24.7897C18.422 24.3865 18.422 23.7329 18.0188 23.3298L14.0582 19.3692L24.1481 9.27938C25.9308 10.4115 28.3695 10.2416 29.9807 8.63046L31.6654 6.94582C32.0682 6.54297 32.0685 5.88908 31.6654 5.4859ZM15.829 24.0598L12.7049 27.1839C10.5705 29.3183 7.51799 30.301 4.53925 29.8125L2.54667 29.4858L2.21995 27.4933C1.73155 24.5146 2.71422 21.462 4.84855 19.3276L7.97265 16.2035L11.1385 19.3694L8.88785 21.62C8.48467 22.0231 8.48467 22.6768 8.88785 23.0799C9.29089 23.483 9.94459 23.4831 10.3477 23.0799L12.5984 20.8292L15.829 24.0598ZM28.5208 7.1706C28.0235 7.66791 27.3622 7.94179 26.659 7.94179C24.3309 7.94179 23.1373 5.10666 24.7971 3.44687L25.7519 2.49213L29.4756 6.21586L28.5208 7.1706Z" fill="white"/>
</svg>
