<svg width="23" height="35" viewBox="0 0 23 35" fill="none" xmlns="http://www.w3.org/2000/svg">
<path d="M13.5508 28.8477H9.44922C8.88285 28.8477 8.42383 29.3067 8.42383 29.873C8.42383 30.4394 8.88285 30.8984 9.44922 30.8984H13.5508C14.1171 30.8984 14.5762 30.4394 14.5762 29.873C14.5762 29.3067 14.1171 28.8477 13.5508 28.8477Z" fill="white"/>
<path d="M13.5508 24.7461H9.44922C8.88285 24.7461 8.42383 25.2051 8.42383 25.7715C8.42383 26.3379 8.88285 26.7969 9.44922 26.7969H13.5508C14.1171 26.7969 14.5762 26.3379 14.5762 25.7715C14.5762 25.2051 14.1171 24.7461 13.5508 24.7461Z" fill="white"/>
<path d="M14.5762 12.7378V8.20312H16.627C18.8887 8.20312 20.7285 6.3633 20.7285 4.10156C20.7285 1.83983 18.8887 0 16.627 0C15.8165 0 2.06026 0 1.24609 0C0.679726 0 0.220703 0.459023 0.220703 1.02539V5.12695C0.220703 5.69332 0.679726 6.15234 1.24609 6.15234H4.32227V6.75289L0.521111 10.5543C0.120567 10.9546 0.120567 11.6037 0.521111 12.0043C0.921387 12.4048 1.5708 12.4048 1.97108 12.0043L5.7725 8.20312H8.42383V12.7378C3.76017 14.0826 0.220703 18.4829 0.220703 23.7207V33.9746C0.220703 34.541 0.679726 35 1.24609 35H21.7539C22.3203 35 22.7793 34.541 22.7793 33.9746V23.7207C22.7793 18.4979 19.251 14.0858 14.5762 12.7378ZM18.6777 4.10156C18.6777 5.23243 17.7578 6.15234 16.627 6.15234C13.4397 6.15234 9.56351 6.15234 6.37305 6.15234V2.05078H16.627C17.7578 2.05078 18.6777 2.9707 18.6777 4.10156ZM2.27148 4.10156V2.05078H4.32227V4.10156H2.27148ZM10.4746 8.20312H12.5254V12.3522C12.1863 12.3212 11.8445 12.3047 11.5 12.3047C11.1555 12.3047 10.8137 12.3212 10.4746 12.3522V8.20312ZM11.5 14.3555C14.7804 14.3555 17.6662 16.1018 19.3031 18.7262C18.8922 18.6795 18.4887 18.562 18.1108 18.3729C16.5396 17.5873 14.6635 17.5873 13.0923 18.3729C12.0952 18.8715 10.9048 18.8715 9.90771 18.3729C8.33651 17.5873 6.46037 17.5873 4.88917 18.3729C4.51132 18.5617 4.10811 18.6795 3.69688 18.7259C5.33404 16.1018 8.21955 14.3555 11.5 14.3555V14.3555ZM20.7285 32.9492H2.27148V23.7207C2.27148 22.6908 2.43651 21.6993 2.74065 20.7716C3.78901 20.8766 4.84991 20.6857 5.80614 20.2074C6.80323 19.7089 7.99364 19.7089 8.99073 20.2074C10.5619 20.993 12.4381 20.993 14.0093 20.2074C15.0064 19.7089 16.1968 19.7089 17.1939 20.2074C17.9805 20.6007 18.8382 20.8005 19.701 20.8005C19.8871 20.8005 20.0735 20.7909 20.2596 20.7722C20.5635 21.6998 20.7285 22.691 20.7285 23.7207V32.9492Z" fill="white"/>
</svg>
