<svg width="22" height="16" viewBox="0 0 22 16" xmlns="http://www.w3.org/2000/svg">
<path d="M20.8718 0.666748H1.12823C0.507676 0.666748 0 1.17442 0 1.79494V14.2052C0 14.8257 0.507676 15.3334 1.12823 15.3334H20.8718C21.4923 15.3334 22 14.8258 22 14.2052V1.79494C22 1.17442 21.4923 0.666748 20.8718 0.666748ZM20.4484 1.51285L11.649 8.11293C11.4908 8.23333 11.2479 8.30865 11 8.30754C10.752 8.30865 10.5092 8.23333 10.351 8.11293L1.55156 1.51285H20.4484ZM15.748 8.54842L20.5429 14.4715C20.5477 14.4775 20.5536 14.482 20.5587 14.4873H1.44126C1.44633 14.4817 1.45226 14.4775 1.45707 14.4715L6.25195 8.54842C6.39886 8.36679 6.37102 8.10051 6.18905 7.95326C6.00742 7.80635 5.74114 7.83419 5.59419 8.01586L0.846141 13.8811V2.04171L9.84354 8.78977C10.1817 9.04166 10.5932 9.15252 10.9999 9.15363C11.4061 9.15277 11.8179 9.04191 12.1563 8.78977L21.1537 2.04171V13.8811L16.4058 8.01586C16.2588 7.83424 15.9923 7.80631 15.8109 7.95326C15.629 8.10017 15.6011 8.36679 15.748 8.54842Z"/>
</svg>
