<svg width="24" height="24" viewBox="0 0 24 24" fill="none" xmlns="http://www.w3.org/2000/svg">
<g clip-path="url(#clip0)">
<path d="M13.9348 23.8437C13.8348 23.86 13.7345 23.8751 13.6338 23.8888C13.7345 23.8751 13.8348 23.86 13.9348 23.8437Z" fill="black"/>
<path d="M14.1746 23.8027C14.1268 23.8115 14.079 23.8196 14.0313 23.8278C14.079 23.8196 14.1268 23.8115 14.1746 23.8027Z" fill="black"/>
<path d="M13.3655 23.9221C13.2485 23.9353 13.1308 23.947 13.0127 23.9569C13.1308 23.947 13.2485 23.9353 13.3655 23.9221Z" fill="black"/>
<path d="M13.5959 23.894C13.5397 23.9016 13.4832 23.9085 13.4268 23.9151C13.4832 23.9085 13.5397 23.9016 13.5959 23.894Z" fill="black"/>
<path d="M14.5017 23.738C14.4596 23.747 14.4173 23.756 14.375 23.7646C14.4173 23.756 14.4596 23.747 14.5017 23.738Z" fill="black"/>
<path d="M15.3121 23.5366C15.2781 23.5463 15.244 23.5555 15.21 23.565C15.244 23.5555 15.2781 23.5463 15.3121 23.5366Z" fill="black"/>
<path d="M15.0674 23.6035C15.0304 23.6132 14.9932 23.6231 14.9561 23.6324C14.9932 23.6231 15.0304 23.6134 15.0674 23.6035Z" fill="black"/>
<path d="M14.7462 23.6838C14.707 23.693 14.6675 23.7016 14.6279 23.7104C14.6675 23.7016 14.707 23.693 14.7462 23.6838Z" fill="black"/>
<path d="M13.009 23.9573C12.9459 23.9626 12.8827 23.9673 12.8193 23.9716C12.8827 23.9673 12.9459 23.9626 13.009 23.9573Z" fill="black"/>
<path d="M24 12C24 5.3736 18.6264 -3.34087e-08 12 -2.15234e-08C5.3736 -9.63819e-09 9.63819e-09 5.3736 2.15234e-08 12C3.34087e-08 18.6264 5.3736 24 12 24C12.0705 24 12.1406 23.9985 12.2109 23.9973L12.2109 14.6558L9.63281 14.6558L9.63281 11.6512L12.2109 11.6512L12.2109 9.44019C12.2109 6.87598 13.7763 5.48035 16.0637 5.48035C17.159 5.48035 18.1005 5.56201 18.375 5.59845L18.375 8.27838L16.7977 8.27838C15.5533 8.27838 15.3124 8.86981 15.3124 9.73755L15.3124 11.6512L18.2878 11.6512L17.9 14.6558L15.3124 14.6558L15.3124 23.5364C20.3282 22.0984 24 17.4774 24 12Z" fill="white"/>
<path d="M12.7931 23.9734C12.6682 23.9814 12.5428 23.9879 12.417 23.9921C12.5428 23.9879 12.6682 23.9814 12.7931 23.9734Z" fill="black"/>
<path d="M12.4102 23.9924C12.3439 23.9948 12.2774 23.9965 12.2109 23.9977C12.2774 23.9965 12.3439 23.9948 12.4102 23.9924Z" fill="black"/>
</g>
<defs>
<clipPath id="clip0">
<rect width="24" height="24" fill="white"/>
</clipPath>
</defs>
</svg>
