<svg width="24" height="28" viewBox="0 0 24 28" xmlns="http://www.w3.org/2000/svg">
<path d="M22.4511 25.2962C22.0996 23.8511 20.7924 22.8045 19.2667 22.8045H16.075L15.0793 20.0656C16.6777 19.0665 17.7411 17.3344 17.8176 15.3475L17.834 14.9213C26.3713 12.4675 25.553 5.72426 16.1959 3.94015L16.0268 2.21597C15.9007 0.952649 14.848 0 13.5782 0H10.4228C9.15288 0 8.10015 0.952649 7.97394 2.21734L7.80468 3.94332C5.801 4.32881 3.47095 5.10367 1.91357 6.43333C-1.11856 9.02205 -0.202547 13.0906 6.16702 14.9212C6.17238 15.0605 6.17779 15.2017 6.18343 15.3474C6.25884 17.3071 7.29921 19.0515 8.92204 20.0655L7.92592 22.8045H4.73416C3.20987 22.8045 1.90159 23.8499 1.54979 25.2962L1.14073 26.9865C1.0342 27.4269 1.30474 27.8702 1.74508 27.9768C2.18531 28.0834 2.62882 27.8128 2.7353 27.3724L3.14365 25.6852C3.32756 24.9549 3.98112 24.4451 4.73416 24.4451H5.49267V27.1795C5.49267 27.6325 5.85995 27.9998 6.31298 27.9998C6.76601 27.9998 7.13329 27.6325 7.13329 27.1795V24.4451H8.19673C10.3913 26.192 13.6049 26.1958 15.8042 24.4451H16.8676V27.1795C16.8676 27.6325 17.2349 27.9998 17.6879 27.9998C18.141 27.9998 18.5083 27.6325 18.5083 27.1795V24.4451H19.2668C20.0198 24.4451 20.6734 24.9549 20.8573 25.6852L21.2656 27.3725C21.3722 27.8128 21.8156 28.0835 22.2558 27.9768C22.6962 27.8703 22.9667 27.4269 22.8602 26.9866L22.4511 25.2962ZM9.60656 2.37889C9.64862 1.95802 9.99949 1.64061 10.4228 1.64061H13.5782C14.0014 1.64061 14.3523 1.95802 14.3942 2.37747L14.5229 3.68952C12.8474 3.50413 11.14 3.50555 9.47788 3.69138L9.60656 2.37889ZM2.97876 7.68102C4.08743 6.73438 5.90452 5.98036 8.09529 5.55785C10.3942 5.11439 12.9571 5.07605 15.3115 5.44973C17.3335 5.77118 19.1312 6.39543 20.3735 7.20759C23.7818 9.43565 21.7708 11.9195 17.9008 13.1851L18.0702 8.78143C18.085 8.39354 17.826 8.0483 17.4493 7.95412C13.8879 7.06377 10.1234 7.06289 6.56153 7.95161C6.15247 8.04851 5.88795 8.43614 5.93547 8.84388C5.98852 10.0583 5.83299 6.19276 6.10041 13.1852C2.81366 12.1104 0.369425 9.9087 2.97876 7.68102ZM7.82278 15.2844C7.74824 13.3459 7.67097 11.3268 7.5984 9.39464C10.4924 8.76978 13.5107 8.76989 16.4047 9.39513C16.3792 10.0564 16.2046 14.5966 16.1781 15.2844C16.0632 18.2708 12.988 20.1205 10.3188 18.9543C10.271 18.9291 10.2412 18.9169 10.2105 18.9061C8.8433 18.2617 7.88479 16.8984 7.82278 15.2844ZM9.4728 23.3512L10.4261 20.7296C11.4532 21.017 12.5476 21.0171 13.575 20.7296L14.5281 23.3512C13.017 24.3717 10.9858 24.3728 9.4728 23.3512Z"/>
</svg>
