<svg width="40" height="41" viewBox="0 0 40 41" fill="none" xmlns="http://www.w3.org/2000/svg">
<path d="M20 40.4697C31.0457 40.4697 40 31.5154 40 20.4697C40 9.42403 31.0457 0.469727 20 0.469727C8.95431 0.469727 0 9.42403 0 20.4697C0 31.5154 8.95431 40.4697 20 40.4697Z" fill="white"/>
<path d="M31.9498 22.0797V30.3253H27.1693V22.6323C27.1693 20.7007 26.479 19.3815 24.7481 19.3815C23.4272 19.3815 22.6425 20.2696 22.296 21.1296C22.1701 21.4369 22.1377 21.8636 22.1377 22.2947V30.3249H17.3568C17.3568 30.3249 17.421 17.2956 17.3568 15.9468H22.1381V17.9844C22.1284 18.0004 22.1149 18.0161 22.1063 18.0314H22.1381V17.9844C22.7734 17.0068 23.9064 15.6092 26.4466 15.6092C29.5918 15.6092 31.9498 17.6642 31.9498 22.0797ZM12.3555 9.01611C10.7202 9.01611 9.65027 10.0896 9.65027 11.5C9.65027 12.8804 10.6892 13.9849 12.2928 13.9849H12.3238C13.9912 13.9849 15.028 12.8804 15.028 11.5C14.9963 10.0896 13.9912 9.01611 12.3555 9.01611ZM9.93441 30.3253H14.7136V15.9468H9.93441V30.3253Z" fill="#001700"/>
</svg>
