<svg width="28" height="20" viewBox="0 0 28 20" xmlns="http://www.w3.org/2000/svg">
<path d="M28 0.210938H0V10.0547H1.95871C1.22534 11.0186 1.29776 12.4037 2.17767 13.2834C2.62286 13.7288 3.19772 13.9674 3.78177 13.9995C3.81381 14.5835 4.05243 15.1584 4.49783 15.6038C4.94302 16.049 5.51788 16.2876 6.10193 16.3196C6.13397 16.9037 6.37259 17.4785 6.81799 17.9239C7.63531 18.7412 8.85938 18.8493 9.77988 18.3213C9.89929 18.5983 10.0721 18.8579 10.2983 19.0839C11.2577 20.0435 12.8191 20.0435 13.7785 19.0839L14.0004 18.8622L14.0098 18.8718C14.96 19.8217 16.5081 19.8217 17.4611 18.872L17.4853 18.8478C17.688 18.646 17.8508 18.4146 17.9695 18.1634C18.9298 18.8733 20.2976 18.7976 21.1713 17.9237C21.6041 17.4911 21.8556 16.9254 21.8882 16.3192C22.4721 16.2869 23.0465 16.0485 23.4915 15.6035C23.9367 15.1586 24.1749 14.5841 24.2071 14.0003C24.8134 13.9676 25.3791 13.7162 25.8116 13.2834C26.6969 12.3983 26.7642 11.0154 26.031 10.0545H28V0.210938ZM3.33765 12.1234C3.01785 11.8036 3.01785 11.2832 3.33765 10.9632L4.24619 10.0547H5.18613C5.42111 10.288 5.65781 10.5234 5.87827 10.743L4.49783 12.1234C4.17719 12.4441 3.65829 12.4441 3.33765 12.1234ZM5.65781 14.4436C5.33801 14.1238 5.33801 13.6034 5.65781 13.2836L7.03973 11.9017L8.19971 13.0619L6.81799 14.4436C6.49799 14.7634 5.9776 14.7634 5.65781 14.4436ZM9.13815 16.7637C8.8175 17.0844 8.29861 17.0844 7.97818 16.7637C7.65817 16.4439 7.65817 15.9236 7.97818 15.6038L9.35989 14.2218L10.5201 15.382C8.63828 17.2638 9.29858 16.6033 9.13815 16.7637ZM12.6185 17.9239C12.2985 18.2437 11.7781 18.2437 11.4583 17.9239C11.1392 17.6048 11.1385 17.0859 11.4562 16.7659L11.6801 16.542L12.84 17.7022L12.6185 17.9239ZM24.6517 12.1234C24.331 12.4438 23.8121 12.4441 23.4915 12.1234L18.9919 7.62387L17.8318 8.78384L22.3315 13.2834C22.6513 13.6034 22.6513 14.1238 22.3315 14.4436C22.0115 14.7634 21.4911 14.7634 21.1713 14.4436L16.6718 9.94403L15.5116 11.104L20.0114 15.6038C20.3318 15.9244 20.3318 16.4431 20.0114 16.7639C19.6913 17.0835 19.171 17.0837 18.8512 16.7639C18.8512 16.7639 15.0395 12.9521 14.3516 12.2642L13.1914 13.4244L16.3244 16.5574C16.6406 16.8735 16.6374 17.3768 16.3283 17.6851L16.3031 17.7101C15.9897 18.0224 15.4815 18.023 15.17 17.7118C10.8777 13.424 10.1174 12.6491 5.8616 8.41406H1.64062V1.85156H8.77008L5.07782 5.54382L6.81799 7.284C7.77951 8.24573 9.3364 8.24594 10.2983 7.284L12.297 5.28534C14.3924 6.7886 17.199 7.02957 19.5395 5.85123L24.6517 10.9632C24.9721 11.2839 24.9723 11.8028 24.6517 12.1234ZM26.3594 8.41406H24.4227L19.7986 3.78998L19.2451 4.13605C17.2204 5.4024 14.5635 5.17169 12.7843 3.57507L12.2058 3.05618L9.13815 6.12381C8.8175 6.44446 8.29861 6.44446 7.97818 6.12381L7.39798 5.54382L11.0902 1.85156H26.3594V8.41406Z"/>
</svg>
