<svg width="24" height="24" viewBox="0 0 24 24" xmlns="http://www.w3.org/2000/svg">
<path d="M24 22.9395L15.8661 14.8056C17.1945 13.2369 18 11.2119 18 9.00001C18 4.0371 13.9629 0 9.00001 0C4.03715 0 0 4.0371 0 9.00001C0 13.9629 4.0371 18 9.00001 18C11.2119 18 13.2369 17.1945 14.8056 15.8661L22.9395 24L24 22.9395ZM9.00001 16.5C4.86475 16.5 1.50002 13.1353 1.50002 9.00001C1.50002 4.86475 4.86475 1.50002 9.00001 1.50002C13.1353 1.50002 16.5 4.86475 16.5 9.00001C16.5 13.1353 13.1353 16.5 9.00001 16.5Z"/>
</svg>
