<svg width="105" height="194" viewBox="0 0 105 194" fill="none" xmlns="http://www.w3.org/2000/svg">
<path d="M7.46862 179.07C3.33891 179.07 0 182.388 0 186.492C0 190.595 3.33891 193.913 7.46862 193.913C11.5983 193.913 14.9372 190.595 14.9372 186.492C15.0251 182.388 11.5983 179.07 7.46862 179.07ZM10.2803 191.032C9.22595 191.032 8.25941 190.42 7.82008 189.46L5.79917 189.111C5.35984 189.46 4.9205 189.635 4.39331 189.635C3.16318 189.635 2.10878 188.587 2.10878 187.365C2.10878 186.142 3.16318 185.095 4.39331 185.095H4.48118L5.97488 183.523V183.436C5.97488 182.213 6.94141 181.253 8.17154 181.253C9.40166 181.253 10.3682 182.213 10.3682 183.436C10.3682 184.658 9.40166 185.618 8.17154 185.618L7.38075 186.404L8.34728 186.579C8.87448 186.055 9.57742 185.793 10.2803 185.793C11.7741 185.793 13.0042 187.015 13.0042 188.5C12.9163 189.897 11.7741 191.032 10.2803 191.032Z" fill="white"/>
<path d="M10.2801 186.841C9.75289 186.841 9.31356 187.103 8.96209 187.452C8.87423 187.627 8.61062 187.714 8.43489 187.627L6.15037 187.277C5.97464 187.277 5.7989 187.103 5.71104 186.928C5.62317 186.753 5.71104 186.491 5.79891 186.404L7.38049 184.658C7.46835 184.571 7.64409 184.483 7.81982 184.483C7.90768 184.483 7.90769 184.483 7.99556 184.483C8.61062 184.483 9.13781 183.96 9.13781 183.348C9.13781 182.737 8.61062 182.213 7.99556 182.213C7.3805 182.213 6.85329 182.737 6.85329 183.348C6.85329 183.436 6.85329 183.523 6.85329 183.523C6.85329 183.698 6.8533 183.872 6.67757 183.96L4.83238 185.968C4.74451 186.055 4.56878 186.142 4.39305 186.142C4.30518 186.142 4.2173 186.142 4.2173 186.142C3.51437 186.142 2.98718 186.666 2.98718 187.365C2.98718 188.063 3.51437 188.587 4.2173 188.587C4.56877 188.587 4.83237 188.412 5.09596 188.238C5.18383 188.15 5.35958 188.063 5.44745 188.063H5.53529L8.17128 188.5C8.34701 188.5 8.52274 188.674 8.61061 188.849C8.78634 189.547 9.40141 189.984 10.1043 189.984C10.983 189.984 11.6859 189.285 11.6859 188.412C11.8617 187.539 11.1587 186.841 10.2801 186.841Z" fill="white"/>
<path d="M7.46836 145.282C9.40142 145.282 11.0709 143.71 11.0709 141.702C11.0709 139.694 9.48928 138.122 7.46836 138.122C5.53531 138.122 3.86584 139.694 3.86584 141.702C3.86584 143.71 5.53531 145.282 7.46836 145.282ZM7.81982 140.218C7.46836 140.131 7.29262 139.781 7.38049 139.432C7.46836 139.17 7.73197 138.996 7.99556 138.996C8.08343 138.996 8.08341 138.996 8.17128 138.996C9.48927 139.345 10.3679 140.48 10.3679 141.789C10.3679 143.099 9.48927 144.234 8.17128 144.583C7.81982 144.671 7.46836 144.496 7.38049 144.147C7.29262 143.798 7.46836 143.448 7.81982 143.361C8.52275 143.186 9.04994 142.575 9.04994 141.789C9.04994 141.004 8.52275 140.392 7.81982 140.218ZM6.41396 139.519C6.94115 139.519 7.38049 139.956 7.38049 140.48C7.38049 141.004 6.94115 141.44 6.41396 141.44C5.88676 141.44 5.44745 141.004 5.44745 140.48C5.44745 139.956 5.88676 139.519 6.41396 139.519ZM6.41396 142.226C6.94115 142.226 7.38049 142.663 7.38049 143.186C7.38049 143.71 6.94115 144.147 6.41396 144.147C5.88676 144.147 5.44745 143.71 5.44745 143.186C5.44745 142.575 5.88676 142.226 6.41396 142.226Z" fill="white"/>
<path d="M7.46862 149.211C11.5983 149.211 14.9372 145.893 14.9372 141.789C14.9372 137.686 11.5983 134.368 7.46862 134.368C3.33891 134.368 0 137.686 0 141.789C0 145.893 3.33891 149.211 7.46862 149.211ZM7.46862 136.987C10.1046 136.987 12.3013 139.17 12.3013 141.789C12.3013 144.409 10.1046 146.591 7.46862 146.591C4.83264 146.591 2.63598 144.409 2.63598 141.789C2.63598 139.17 4.83264 136.987 7.46862 136.987Z" fill="white"/>
<path d="M7.46862 89.4915C3.33891 89.4915 0 92.8092 0 96.9127C0 101.016 3.33891 104.334 7.46862 104.334C11.5983 104.334 14.9372 101.016 14.9372 96.9127C14.9372 92.8092 11.5983 89.4915 7.46862 89.4915ZM10.2803 101.54C9.22595 101.54 8.25941 100.929 7.82008 99.9685L5.79917 99.6193C5.35984 99.9685 4.9205 100.143 4.39331 100.143C3.16318 100.143 2.10878 99.0954 2.10878 97.8731C2.10878 96.6508 3.16318 95.6031 4.39331 95.6031H4.48118L5.97488 94.0315V93.9442C5.97488 92.7219 6.94141 91.7615 8.17154 91.7615C9.40166 91.7615 10.3682 92.7219 10.3682 93.9442C10.3682 95.1665 9.40166 96.1269 8.17154 96.1269L7.38075 96.9127L8.34728 97.0873C8.87448 96.5635 9.57742 96.3016 10.2803 96.3016C11.7741 96.3016 13.0042 97.5239 13.0042 99.0081C12.9163 100.318 11.7741 101.54 10.2803 101.54Z" fill="white"/>
<path d="M10.2801 97.2619C9.75289 97.2619 9.31356 97.5238 8.96209 97.8731C8.87423 98.0477 8.61062 98.135 8.43489 98.0477L6.15037 97.6984C5.97464 97.6984 5.7989 97.5238 5.71104 97.3492C5.62317 97.1746 5.71104 96.9127 5.79891 96.8254L7.38049 95.0792C7.46835 94.9919 7.64409 94.9045 7.81982 94.9045C7.90768 94.9045 7.90769 94.9045 7.99556 94.9045C8.61062 94.9045 9.13781 94.3807 9.13781 93.7695C9.13781 93.1584 8.61062 92.6345 7.99556 92.6345C7.3805 92.6345 6.85329 93.1584 6.85329 93.7695C6.85329 93.8568 6.85329 93.9442 6.85329 93.9442C6.85329 94.1188 6.8533 94.2934 6.67757 94.3807L4.83238 96.3888C4.74451 96.4761 4.56878 96.5634 4.39305 96.5634C4.30518 96.5634 4.2173 96.5634 4.2173 96.5634C3.51437 96.5634 2.98718 97.0873 2.98718 97.7857C2.98718 98.4842 3.51437 99.0081 4.2173 99.0081C4.56877 99.0081 4.83237 98.8334 5.09596 98.6588C5.18383 98.5715 5.35958 98.4842 5.44745 98.4842H5.53529L8.17128 98.9208C8.34701 98.9208 8.52274 99.0954 8.61061 99.27C8.78634 99.9685 9.40141 100.405 10.1043 100.405C10.983 100.405 11.6859 99.7065 11.6859 98.8334C11.8617 97.9604 11.1587 97.2619 10.2801 97.2619Z" fill="white"/>
<path d="M7.46862 0C3.33891 0 0 3.31773 0 7.42124C0 11.5248 3.33891 14.8425 7.46862 14.8425C11.5983 14.8425 14.9372 11.5248 14.9372 7.42124C14.9372 3.31773 11.5983 0 7.46862 0ZM10.2803 11.9613C9.22595 11.9613 8.25941 11.3501 7.82008 10.3897L5.79917 10.0405C5.35984 10.3897 4.9205 10.5644 4.39331 10.5644C3.16318 10.5644 2.10878 9.51665 2.10878 8.29433C2.10878 7.07201 3.16318 6.0243 4.39331 6.0243H4.48118L5.97488 4.45274V4.36544C5.97488 3.14311 6.94141 2.18272 8.17154 2.18272C9.40166 2.18272 10.3682 3.14311 10.3682 4.36544C10.3682 5.58776 9.40166 6.54816 8.17154 6.54816L7.38075 7.33393L8.34728 7.50855C8.87448 6.9847 9.57742 6.72277 10.2803 6.72277C11.7741 6.72277 13.0042 7.9451 13.0042 9.42934C13.0042 10.9136 11.7741 11.9613 10.2803 11.9613Z" fill="white"/>
<path d="M10.2807 7.68318C9.7535 7.68318 9.31417 7.94511 8.9627 8.29434C8.87484 8.46896 8.61123 8.55627 8.4355 8.46896L6.15098 8.11972C5.97525 8.11972 5.79951 7.9451 5.71165 7.77049C5.62378 7.59587 5.71165 7.33394 5.79952 7.24664L7.3811 5.50046C7.46896 5.41315 7.6447 5.32584 7.82043 5.32584C7.9083 5.32584 7.90831 5.32584 7.99617 5.32584C8.61123 5.32584 9.13842 4.80199 9.13842 4.19083C9.13842 3.57967 8.61123 3.05582 7.99617 3.05582C7.38111 3.05582 6.8539 3.57967 6.8539 4.19083C6.8539 4.27814 6.8539 4.36545 6.8539 4.36545C6.8539 4.54007 6.85391 4.71468 6.67818 4.80199L4.83299 6.81009C4.74512 6.8974 4.56939 6.98471 4.39366 6.98471C4.30579 6.98471 4.21791 6.98471 4.21791 6.98471C3.51498 6.98471 2.98779 7.50856 2.98779 8.20703C2.98779 8.9055 3.51498 9.42935 4.21791 9.42935C4.56938 9.42935 4.83298 9.25474 5.09657 9.08012C5.18444 8.99281 5.36019 8.9055 5.44806 8.9055H5.5359L8.17189 9.34205C8.34762 9.34205 8.52335 9.51666 8.61122 9.69128C8.78695 10.3898 9.40202 10.8263 10.105 10.8263C10.9836 10.8263 11.6865 10.1278 11.6865 9.25474C11.8623 8.38165 11.1594 7.68318 10.2807 7.68318Z" fill="white"/>
<path d="M7.46836 55.7029C9.40142 55.7029 11.0709 54.1314 11.0709 52.1233C11.0709 50.2025 9.48928 48.5436 7.46836 48.5436C5.53531 48.5436 3.86584 50.1152 3.86584 52.1233C3.95371 54.1314 5.53531 55.7029 7.46836 55.7029ZM7.81982 50.639C7.46836 50.5517 7.29262 50.2025 7.38049 49.8533C7.46836 49.5913 7.73197 49.4167 7.99556 49.4167C8.08343 49.4167 8.08341 49.4167 8.17128 49.4167C9.48927 49.766 10.3679 50.901 10.3679 52.2106C10.3679 53.5202 9.48927 54.6552 8.17128 55.0045C7.81982 55.0918 7.46836 54.9172 7.38049 54.5679C7.29262 54.2187 7.46836 53.8695 7.81982 53.7822C8.52275 53.6075 9.04994 52.9964 9.04994 52.2106C9.04994 51.4248 8.52275 50.8137 7.81982 50.639ZM6.41396 49.9406C6.94115 49.9406 7.38049 50.3771 7.38049 50.901C7.38049 51.4248 6.94115 51.8614 6.41396 51.8614C5.88676 51.8614 5.44745 51.4248 5.44745 50.901C5.44745 50.3771 5.88676 49.9406 6.41396 49.9406ZM6.41396 52.6471C6.94115 52.6471 7.38049 53.0837 7.38049 53.6075C7.38049 54.1314 6.94115 54.5679 6.41396 54.5679C5.88676 54.5679 5.44745 54.1314 5.44745 53.6075C5.44745 53.0837 5.88676 52.6471 6.41396 52.6471Z" fill="white"/>
<path d="M7.46862 59.6317C11.5983 59.6317 14.9372 56.314 14.9372 52.2105C14.9372 48.107 11.5983 44.7892 7.46862 44.7892C3.33891 44.7892 0 48.107 0 52.2105C0 56.314 3.33891 59.6317 7.46862 59.6317ZM7.46862 47.4085C10.1046 47.4085 12.3013 49.5912 12.3013 52.2105C12.3013 54.8297 10.1046 57.0124 7.46862 57.0124C4.83264 57.0124 2.63598 54.8297 2.63598 52.2105C2.63598 49.5912 4.83264 47.4085 7.46862 47.4085Z" fill="white"/>
<path d="M56.0589 186.579C56.0589 184.658 54.4773 182.999 52.4564 182.999C50.5233 182.999 48.8539 184.571 48.8539 186.579C48.8539 188.587 50.4355 190.158 52.4564 190.158C54.4773 190.071 56.0589 188.499 56.0589 186.579ZM50.9627 186.229C50.8748 186.579 50.5233 186.753 50.1719 186.666C49.9083 186.579 49.7325 186.317 49.7325 186.055C49.7325 185.968 49.7325 185.968 49.7325 185.88C50.084 184.571 51.2263 183.697 52.5442 183.697C53.8622 183.697 55.0045 184.571 55.356 185.88C55.4438 186.229 55.2681 186.579 54.9166 186.666C54.5652 186.753 54.2137 186.579 54.1258 186.229C53.9501 185.531 53.335 185.007 52.5442 185.007C51.7534 185.007 51.1384 185.531 50.9627 186.229ZM50.2597 187.626C50.2597 187.103 50.6991 186.666 51.2263 186.666C51.7534 186.666 52.1928 187.103 52.1928 187.626C52.1928 188.15 51.7534 188.587 51.2263 188.587C50.6991 188.587 50.2597 188.15 50.2597 187.626ZM52.9836 187.626C52.9836 187.103 53.4229 186.666 53.9501 186.666C54.4773 186.666 54.9166 187.103 54.9166 187.626C54.9166 188.15 54.4773 188.587 53.9501 188.587C53.4229 188.587 52.9836 188.15 52.9836 187.626Z" fill="white"/>
<path d="M60.1008 186.579C60.1008 182.475 56.7619 179.157 52.6322 179.157C48.5025 179.157 45.1636 182.475 45.1636 186.579C45.1636 190.682 48.5025 194 52.6322 194C56.674 194 60.1008 190.682 60.1008 186.579ZM47.7117 186.579C47.7117 183.959 49.9083 181.777 52.5443 181.777C55.1803 181.777 57.377 183.959 57.377 186.579C57.377 189.198 55.1803 191.381 52.5443 191.381C49.9083 191.381 47.7117 189.198 47.7117 186.579Z" fill="white"/>
<path d="M51.0505 141.789L49.7325 141.178C49.2932 141.003 48.766 141.091 48.3267 141.44L47.9752 141.789L48.3267 142.138C48.6781 142.488 49.2053 142.575 49.6447 142.4L51.0505 141.789Z" fill="white"/>
<path d="M52.8961 137.599L52.5446 137.249L52.1931 137.599C51.8417 137.948 51.7538 138.472 51.9295 138.996L52.5446 140.305L53.1597 138.996C53.3354 138.472 53.2475 137.948 52.8961 137.599Z" fill="white"/>
<path d="M60.1008 141.789C60.1008 137.686 56.7619 134.368 52.6322 134.368C48.5025 134.368 45.1636 137.686 45.1636 141.789C45.1636 145.893 48.5025 149.211 52.6322 149.211C56.7619 149.211 60.1008 145.893 60.1008 141.789ZM52.5443 147.814C52.3686 147.814 52.1929 147.726 52.105 147.639L51.3142 146.853C50.8749 146.417 50.6113 145.718 50.6113 145.107C50.6113 144.758 50.6991 144.409 50.8749 144.059L51.3142 143.012L50.2598 143.448C49.2933 143.885 48.2389 143.71 47.4481 142.924L46.5694 142.139C46.4816 142.051 46.3937 141.877 46.3937 141.702C46.3937 141.527 46.4816 141.353 46.5694 141.265L47.3602 140.48C48.0632 139.781 49.2054 139.519 50.172 139.956L51.2263 140.392L50.787 139.345C50.6113 138.995 50.5234 138.646 50.5234 138.297C50.5234 137.686 50.787 136.987 51.2263 136.551L52.0172 135.765C52.2807 135.503 52.6322 135.503 52.8958 135.765L53.6866 136.551C54.3895 137.249 54.6531 138.384 54.2138 139.345L53.7745 140.392L54.8289 139.956C55.7954 139.519 56.8498 139.694 57.6406 140.48L58.4314 141.265C58.695 141.527 58.695 141.877 58.4314 142.139L57.6406 142.924C56.9377 143.623 55.7954 143.885 54.8289 143.448L53.7745 143.012L54.2138 144.059C54.6531 145.02 54.4774 146.067 53.6866 146.853L52.8958 147.639C52.8958 147.814 52.7201 147.814 52.5443 147.814Z" fill="white"/>
<path d="M57.1136 141.789L56.7622 141.44C56.4107 141.091 55.8835 141.003 55.3563 141.178L54.0383 141.789L55.3563 142.4C55.7956 142.575 56.3229 142.488 56.7622 142.138L57.1136 141.789Z" fill="white"/>
<path d="M53.1597 144.583L52.5446 143.273L51.9295 144.583C51.7538 145.02 51.8417 145.543 52.1931 145.98L52.5446 146.329L52.8961 145.98C53.2475 145.631 53.3354 145.107 53.1597 144.583Z" fill="white"/>
<path d="M56.0589 97.0002C56.0589 95.0794 54.4773 93.4205 52.4564 93.4205C50.5233 93.4205 48.8539 94.9921 48.8539 97.0002C48.8539 98.921 50.4355 100.58 52.4564 100.58C54.4773 100.493 56.0589 98.921 56.0589 97.0002ZM50.9627 96.6509C50.8748 97.0002 50.5233 97.1748 50.1719 97.0875C49.9083 97.0002 49.7325 96.7382 49.7325 96.4763C49.7325 96.389 49.7325 96.389 49.7325 96.3017C50.084 94.9921 51.2263 94.119 52.5442 94.119C53.8622 94.119 55.0045 94.9921 55.356 96.3017C55.4438 96.6509 55.2681 97.0002 54.9166 97.0875C54.5652 97.1748 54.2137 97.0002 54.1258 96.6509C53.9501 95.9525 53.335 95.4286 52.5442 95.4286C51.7534 95.4286 51.1384 95.9525 50.9627 96.6509ZM50.2597 98.1352C50.2597 97.6113 50.6991 97.1748 51.2263 97.1748C51.7534 97.1748 52.1928 97.6113 52.1928 98.1352C52.1928 98.659 51.7534 99.0956 51.2263 99.0956C50.6991 99.0083 50.2597 98.5717 50.2597 98.1352ZM52.9836 98.1352C52.9836 97.6113 53.4229 97.1748 53.9501 97.1748C54.4773 97.1748 54.9166 97.6113 54.9166 98.1352C54.9166 98.659 54.4773 99.0956 53.9501 99.0956C53.4229 99.0083 52.9836 98.5717 52.9836 98.1352Z" fill="white"/>
<path d="M60.1008 97.0001C60.1008 92.8966 56.7619 89.5789 52.6322 89.5789C48.5025 89.5789 45.1636 92.8966 45.1636 97.0001C45.1636 101.104 48.5025 104.421 52.6322 104.421C56.674 104.421 60.1008 101.104 60.1008 97.0001ZM47.7117 97.0001C47.7117 94.3808 49.9083 92.1981 52.5443 92.1981C55.1803 92.1981 57.377 94.3808 57.377 97.0001C57.377 99.6194 55.1803 101.802 52.5443 101.802C49.9083 101.802 47.7117 99.6194 47.7117 97.0001Z" fill="white"/>
<path d="M56.0589 7.4213C56.0589 5.50051 54.4773 3.84164 52.4564 3.84164C50.5233 3.84164 48.8539 5.4132 48.8539 7.4213C48.8539 9.42941 50.4355 11.001 52.4564 11.001C54.4773 11.001 56.0589 9.42941 56.0589 7.4213ZM50.9627 7.07207C50.8748 7.4213 50.5233 7.59592 50.1719 7.50861C49.9083 7.4213 49.7325 7.15938 49.7325 6.89745C49.7325 6.81014 49.7325 6.81014 49.7325 6.72284C50.084 5.4132 51.2263 4.54012 52.5442 4.54012C53.8622 4.54012 55.0045 5.4132 55.356 6.72284C55.4438 7.07207 55.2681 7.4213 54.9166 7.50861C54.5652 7.59592 54.2137 7.4213 54.1258 7.07207C53.9501 6.3736 53.335 5.84975 52.5442 5.84975C51.7534 5.84975 51.1384 6.3736 50.9627 7.07207ZM50.2597 8.55632C50.2597 8.03247 50.6991 7.59592 51.2263 7.59592C51.7534 7.59592 52.1928 8.03247 52.1928 8.55632C52.1928 9.08017 51.7534 9.51671 51.2263 9.51671C50.6991 9.4294 50.2597 9.08017 50.2597 8.55632ZM52.9836 8.55632C52.9836 8.03247 53.4229 7.59592 53.9501 7.59592C54.4773 7.59592 54.9166 8.03247 54.9166 8.55632C54.9166 9.08017 54.4773 9.51671 53.9501 9.51671C53.4229 9.4294 52.9836 9.08017 52.9836 8.55632Z" fill="white"/>
<path d="M60.1008 7.42124C60.1008 3.31773 56.7619 0 52.6322 0C48.5025 0 45.1636 3.31773 45.1636 7.42124C45.1636 11.5248 48.5025 14.8425 52.6322 14.8425C56.674 14.9298 60.1008 11.5248 60.1008 7.42124ZM47.7117 7.42124C47.7117 4.80198 49.9083 2.61926 52.5443 2.61926C55.1803 2.61926 57.377 4.80198 57.377 7.42124C57.377 10.0405 55.1803 12.2232 52.5443 12.2232C49.9083 12.2232 47.7117 10.0405 47.7117 7.42124Z" fill="white"/>
<path d="M51.0505 52.2106L49.7325 51.5995C49.2932 51.4249 48.766 51.5122 48.3267 51.8614L47.9752 52.2106L48.3267 52.5599C48.6781 52.9091 49.2053 52.9964 49.6447 52.8218L51.0505 52.2106Z" fill="white"/>
<path d="M52.8961 48.0201L52.5446 47.6708L52.1931 48.0201C51.8417 48.3693 51.7538 48.8932 51.9295 49.417L52.5446 50.7266L53.1597 49.417C53.3354 48.9805 53.2475 48.3693 52.8961 48.0201Z" fill="white"/>
<path d="M60.1008 52.2108C60.1008 48.1072 56.7619 44.7895 52.6322 44.7895C48.5025 44.7895 45.1636 48.1072 45.1636 52.2108C45.1636 56.3143 48.5025 59.632 52.6322 59.632C56.7619 59.632 60.1008 56.3143 60.1008 52.2108ZM52.5443 58.3224C52.3686 58.3224 52.1929 58.2351 52.105 58.1478L51.3142 57.362C50.8749 56.9254 50.6113 56.227 50.6113 55.6158C50.6113 55.2666 50.6991 54.9173 50.8749 54.5681L51.3142 53.5204L50.2598 53.9569C49.2933 54.3935 48.2389 54.2189 47.4481 53.4331L46.5694 52.6473C46.4816 52.56 46.3937 52.3854 46.3937 52.2108C46.3937 52.0361 46.4816 51.8615 46.5694 51.7742L47.3602 50.9884C48.0632 50.29 49.2054 50.028 50.172 50.4646L51.2263 50.9011L50.787 49.8534C50.6113 49.5042 50.5234 49.1549 50.5234 48.8057C50.5234 48.1946 50.787 47.4961 51.2263 47.0595L52.0172 46.2738C52.2807 46.0118 52.6322 46.0118 52.8958 46.2738L53.6866 47.0595C54.3895 47.758 54.6531 48.893 54.2138 49.8534L53.7745 50.9011L54.8289 50.4646C55.7954 50.028 56.8498 50.2027 57.6406 50.9884L58.4314 51.7742C58.695 52.0361 58.695 52.3854 58.4314 52.6473L57.6406 53.4331C56.9377 54.1315 55.7954 54.3935 54.8289 53.9569L53.7745 53.5204L54.2138 54.5681C54.6531 55.5285 54.4774 56.5762 53.6866 57.362L52.8958 58.1478C52.8958 58.2351 52.7201 58.3224 52.5443 58.3224Z" fill="white"/>
<path d="M57.1136 52.2106L56.7622 51.8614C56.4107 51.5122 55.8835 51.4249 55.3563 51.5995L54.0383 52.2106L55.3563 52.8218C55.7956 52.9964 56.3229 52.9091 56.7622 52.5599L57.1136 52.2106Z" fill="white"/>
<path d="M53.1597 55.0921L52.5446 53.7824L51.9295 55.0921C51.7538 55.5286 51.8417 56.0525 52.1931 56.489L52.5446 56.8382L52.8961 56.489C53.2475 56.0525 53.3354 55.5286 53.1597 55.0921Z" fill="white"/>
<path d="M99.113 186.491L100.431 187.102C100.87 187.277 101.398 187.19 101.837 186.84L102.188 186.491L101.837 186.142C101.485 185.793 100.958 185.705 100.519 185.88L99.113 186.491Z" fill="white"/>
<path d="M97.2679 190.682L97.6193 191.031L97.9708 190.682C98.3222 190.333 98.4101 189.809 98.2344 189.285L97.6193 187.975L97.0042 189.285C96.8285 189.809 96.9164 190.333 97.2679 190.682Z" fill="white"/>
<path d="M90.0627 186.579C90.0627 190.682 93.4017 194 97.5314 194C101.661 194 105 190.682 105 186.579C105 182.475 101.661 179.157 97.5314 179.157C93.4895 179.07 90.0627 182.388 90.0627 186.579ZM97.6192 180.467C97.795 180.467 97.9707 180.554 98.0586 180.642L98.8494 181.427C99.2887 181.864 99.5523 182.562 99.5523 183.174C99.5523 183.523 99.4644 183.872 99.2887 184.221L98.8494 185.269L99.9038 184.832C100.87 184.396 101.925 184.57 102.715 185.356L103.594 186.142C103.682 186.229 103.77 186.404 103.77 186.579C103.77 186.753 103.682 186.928 103.594 187.015L102.803 187.801C102.1 188.499 100.958 188.761 99.9916 188.325L98.9372 187.888L99.3766 188.936C99.5523 189.285 99.6401 189.634 99.6401 189.984C99.6401 190.595 99.3766 191.293 98.9372 191.73L98.1464 192.516C97.8828 192.777 97.5314 192.777 97.2678 192.516L96.477 191.73C95.774 191.031 95.5105 189.896 95.9498 188.936L96.3891 187.888L95.3347 188.325C94.3682 188.761 93.3138 188.587 92.523 187.801L91.7322 187.015C91.4686 186.753 91.4686 186.404 91.7322 186.142L92.523 185.356C93.2259 184.658 94.3682 184.396 95.3347 184.832L96.3891 185.269L95.9498 184.221C95.5105 183.261 95.6862 182.213 96.477 181.427L97.2678 180.642C97.2678 180.467 97.4435 180.467 97.6192 180.467Z" fill="white"/>
<path d="M93.0499 186.491L93.4014 186.84C93.7528 187.19 94.28 187.277 94.8072 187.102L96.1252 186.491L94.8072 185.88C94.3679 185.705 93.8407 185.793 93.4014 186.142L93.0499 186.491Z" fill="white"/>
<path d="M97.0042 183.697L97.6193 185.007L98.2344 183.697C98.4101 183.261 98.3222 182.737 97.9708 182.3L97.6193 181.951L97.2679 182.3C96.9164 182.65 96.8285 183.261 97.0042 183.697Z" fill="white"/>
<path d="M94.1049 141.789C94.1049 143.71 95.6865 145.369 97.7074 145.369C99.6404 145.369 101.31 143.797 101.31 141.789C101.31 139.781 99.7283 138.21 97.7074 138.21C95.6865 138.21 94.1049 139.781 94.1049 141.789ZM99.2011 142.051C99.2889 141.702 99.6404 141.527 99.9919 141.615C100.255 141.702 100.431 141.964 100.431 142.226C100.431 142.313 100.431 142.313 100.431 142.4C100.08 143.71 98.9375 144.583 97.6195 144.583C96.3015 144.583 95.1592 143.71 94.8078 142.4C94.7199 142.051 94.8956 141.702 95.2471 141.615C95.5986 141.527 95.95 141.702 96.0379 142.051C96.2136 142.75 96.8287 143.274 97.6195 143.274C98.4103 143.274 99.0253 142.837 99.2011 142.051ZM99.8162 140.654C99.8162 141.178 99.3768 141.615 98.8496 141.615C98.3224 141.615 97.8831 141.178 97.8831 140.654C97.8831 140.13 98.3224 139.694 98.8496 139.694C99.4647 139.694 99.8162 140.13 99.8162 140.654ZM97.1802 140.654C97.1802 141.178 96.7408 141.615 96.2136 141.615C95.6864 141.615 95.2471 141.178 95.2471 140.654C95.2471 140.13 95.6864 139.694 96.2136 139.694C96.7408 139.694 97.1802 140.13 97.1802 140.654Z" fill="white"/>
<path d="M90.0627 141.789C90.0627 145.893 93.4017 149.211 97.5314 149.211C101.661 149.211 105 145.893 105 141.789C105 137.686 101.661 134.368 97.5314 134.368C93.4895 134.281 90.0627 137.686 90.0627 141.789ZM102.452 141.789C102.452 144.409 100.255 146.591 97.6192 146.591C94.9833 146.591 92.7866 144.409 92.7866 141.789C92.7866 139.17 94.9833 136.987 97.6192 136.987C100.255 136.987 102.452 139.083 102.452 141.789Z" fill="white"/>
<path d="M99.113 97.0002L100.431 97.6113C100.87 97.786 101.398 97.6986 101.837 97.3494L102.188 97.0002L101.837 96.6509C101.485 96.3017 100.958 96.2144 100.519 96.389L99.113 97.0002Z" fill="white"/>
<path d="M97.2679 101.191L97.6193 101.54L97.9708 101.191C98.3222 100.842 98.4101 100.318 98.2344 99.7941L97.6193 98.4844L97.0042 99.7941C96.8285 100.231 96.9164 100.842 97.2679 101.191Z" fill="white"/>
<path d="M90.0627 97C90.0627 101.104 93.4017 104.421 97.5314 104.421C101.661 104.421 105 101.104 105 97C105 92.8965 101.661 89.5788 97.5314 89.5788C93.4895 89.4915 90.0627 92.8965 90.0627 97ZM97.6192 90.8884C97.795 90.8884 97.9707 90.9757 98.0586 91.0631L98.8494 91.8488C99.2887 92.2854 99.5523 92.9838 99.5523 93.595C99.5523 93.9442 99.4644 94.2935 99.2887 94.6427L98.8494 95.6904L99.9038 95.2539C100.87 94.8173 101.925 94.9919 102.715 95.7777L103.594 96.5635C103.682 96.6508 103.77 96.8254 103.77 97C103.77 97.1747 103.682 97.3493 103.594 97.4366L102.803 98.2224C102.1 98.9208 100.958 99.1828 99.9916 98.7462L98.9372 98.3097L99.3766 99.3574C99.5523 99.7066 99.6401 100.056 99.6401 100.405C99.6401 101.016 99.3766 101.715 98.9372 102.151L98.1464 102.937C97.8828 103.199 97.5314 103.199 97.2678 102.937L96.477 102.151C95.774 101.453 95.5105 100.318 95.9498 99.3574L96.3891 98.3097L95.3347 98.7462C94.3682 99.1828 93.3138 99.0081 92.523 98.2224L91.7322 97.4366C91.4686 97.1747 91.4686 96.8254 91.7322 96.5635L92.523 95.7777C93.2259 95.0792 94.3682 94.8173 95.3347 95.2539L96.3891 95.6904L95.9498 94.6427C95.5105 93.6823 95.6862 92.6346 96.477 91.8488L97.2678 91.0631C97.2678 90.9757 97.4435 90.8884 97.6192 90.8884Z" fill="white"/>
<path d="M93.0499 97.0002L93.4014 97.3494C93.7528 97.6986 94.28 97.786 94.8072 97.6113L96.1252 97.0002L94.8072 96.389C94.3679 96.2144 93.8407 96.3017 93.4014 96.6509L93.0499 97.0002Z" fill="white"/>
<path d="M97.0042 94.119L97.6193 95.4286L98.2344 94.119C98.4101 93.6824 98.3222 93.1586 97.9708 92.722L97.6193 92.3728L97.2679 92.722C96.9164 93.1586 96.8285 93.6824 97.0042 94.119Z" fill="white"/>
<path d="M99.113 7.42111L100.431 8.03227C100.87 8.20689 101.398 8.11958 101.837 7.77034L102.188 7.42111L101.837 7.07188C101.485 6.72264 100.958 6.63533 100.519 6.80995L99.113 7.42111Z" fill="white"/>
<path d="M97.2679 11.6119L97.6193 11.9612L97.9708 11.6119C98.3222 11.2627 98.4101 10.7388 98.2344 10.215L97.6193 8.90536L97.0042 10.215C96.8285 10.7388 96.9164 11.2627 97.2679 11.6119Z" fill="white"/>
<path d="M90.0627 7.42124C90.0627 11.5248 93.4017 14.8425 97.5314 14.8425C101.661 14.8425 105 11.5248 105 7.42124C105 3.31773 101.661 0 97.5314 0C93.4895 0 90.0627 3.31773 90.0627 7.42124ZM97.6192 1.30963C97.795 1.30963 97.9707 1.39694 98.0586 1.48425L98.8494 2.27003C99.2887 2.70657 99.5523 3.40504 99.5523 4.0162C99.5523 4.36544 99.4644 4.71467 99.2887 5.06391L98.8494 6.11161L99.9038 5.67507C100.87 5.23852 101.925 5.41314 102.715 6.19892L103.594 6.9847C103.682 7.07201 103.77 7.24663 103.77 7.42124C103.77 7.59586 103.682 7.77048 103.594 7.85779L102.803 8.64356C102.1 9.34203 100.958 9.60396 99.9916 9.16742L98.9372 8.73088L99.3766 9.77858C99.5523 10.1278 99.6401 10.477 99.6401 10.8263C99.6401 11.4374 99.3766 12.1359 98.9372 12.5725L98.1464 13.3582C97.8828 13.6202 97.5314 13.6202 97.2678 13.3582L96.477 12.5725C95.774 11.874 95.5105 10.739 95.9498 9.77858L96.3891 8.73088L95.3347 9.16742C94.3682 9.60396 93.3138 9.42934 92.523 8.64356L91.7322 7.85779C91.4686 7.59586 91.4686 7.24663 91.7322 6.9847L92.523 6.19892C93.2259 5.50045 94.3682 5.23852 95.3347 5.67507L96.3891 6.11161L95.9498 5.06391C95.5105 4.10351 95.6862 3.0558 96.477 2.27003L97.2678 1.48425C97.2678 1.39694 97.4435 1.30963 97.6192 1.30963Z" fill="white"/>
<path d="M93.0499 7.42111L93.4014 7.77034C93.7528 8.11958 94.28 8.20689 94.8072 8.03227L96.1252 7.42111L94.8072 6.80995C94.3679 6.63533 93.8407 6.72264 93.4014 7.07188L93.0499 7.42111Z" fill="white"/>
<path d="M97.0042 4.62749L97.6193 5.93712L98.2344 4.62749C98.4101 4.19095 98.3222 3.6671 97.9708 3.23055L97.6193 2.88132L97.2679 3.23055C96.9164 3.57979 96.8285 4.10364 97.0042 4.62749Z" fill="white"/>
<path d="M94.1049 52.2109C94.1049 54.1317 95.6865 55.7906 97.7074 55.7906C99.6404 55.7906 101.31 54.219 101.31 52.2109C101.31 50.2901 99.7283 48.6312 97.7074 48.6312C95.6865 48.6312 94.1049 50.2901 94.1049 52.2109ZM99.2011 52.5601C99.2889 52.2109 99.6404 52.0363 99.9919 52.1236C100.255 52.2109 100.431 52.4728 100.431 52.7348C100.431 52.8221 100.431 52.8221 100.431 52.9094C100.08 54.219 98.9375 55.0921 97.6195 55.0921C96.3015 55.0921 95.1592 54.219 94.8078 52.9094C94.7199 52.5601 94.8956 52.2109 95.2471 52.1236C95.5986 52.0363 95.95 52.2109 96.0379 52.5601C96.2136 53.2586 96.8287 53.7825 97.6195 53.7825C98.4103 53.7825 99.0253 53.2586 99.2011 52.5601ZM99.8162 51.0759C99.8162 51.5997 99.3768 52.0363 98.8496 52.0363C98.3224 52.0363 97.8831 51.5997 97.8831 51.0759C97.8831 50.552 98.3224 50.1155 98.8496 50.1155C99.4647 50.2028 99.8162 50.6393 99.8162 51.0759ZM97.1802 51.0759C97.1802 51.5997 96.7408 52.0363 96.2136 52.0363C95.6864 52.0363 95.2471 51.5997 95.2471 51.0759C95.2471 50.552 95.6864 50.1155 96.2136 50.1155C96.7408 50.2028 97.1802 50.6393 97.1802 51.0759Z" fill="white"/>
<path d="M90.0627 52.2108C90.0627 56.3144 93.4017 59.6321 97.5314 59.6321C101.661 59.6321 105 56.3144 105 52.2108C105 48.1073 101.661 44.7896 97.5314 44.7896C93.4895 44.7896 90.0627 48.1073 90.0627 52.2108ZM102.452 52.2108C102.452 54.8301 100.255 57.0128 97.6192 57.0128C94.9833 57.0128 92.7866 54.8301 92.7866 52.2108C92.7866 49.5916 94.9833 47.4089 97.6192 47.4089C100.255 47.4089 102.452 49.5916 102.452 52.2108Z" fill="white"/>
</svg>
