<svg width="32" height="32" viewBox="0 0 32 32" fill="none" xmlns="http://www.w3.org/2000/svg">
<path d="M8.65918 15.9999C8.65918 20.1411 12.0474 23.7175 16.3768 23.7175C20.7063 23.7175 24.0945 20.3293 24.0945 15.9999C24.0945 11.6705 20.7063 8.28223 16.3768 8.28223C12.0474 8.28223 8.65918 11.8587 8.65918 15.9999ZM19.5768 16.7528C19.7651 15.9999 20.518 15.6234 21.271 15.8116C21.8357 15.9999 22.2121 16.5646 22.2121 17.1293C22.2121 17.3175 22.2121 17.3175 22.2121 17.5058C21.4592 20.3293 19.0121 22.2116 16.1886 22.2116C13.3651 22.2116 10.918 20.3293 10.1651 17.5058C9.97683 16.7528 10.3533 15.9999 11.1062 15.8116C11.8592 15.6234 12.6121 15.9999 12.8004 16.7528C13.1768 18.2587 14.4945 19.3881 16.1886 19.3881C17.8827 19.3881 19.2004 18.2587 19.5768 16.7528ZM20.8945 13.5528C20.8945 14.6822 19.9533 15.6234 18.8239 15.6234C17.6945 15.6234 16.7533 14.6822 16.7533 13.5528C16.7533 12.4234 17.6945 11.4822 18.8239 11.4822C20.1416 11.6705 20.8945 12.6116 20.8945 13.5528ZM15.2474 13.5528C15.2474 14.6822 14.3063 15.6234 13.1768 15.6234C12.0474 15.6234 11.1062 14.6822 11.1062 13.5528C11.1062 12.4234 12.0474 11.4822 13.1768 11.4822C14.3063 11.6705 15.2474 12.6116 15.2474 13.5528Z" fill="#50D168"/>
<path d="M0 16C0 24.8471 7.15294 32 16 32C24.8471 32 32 24.8471 32 16C32 7.15294 24.8471 0 16 0C7.15294 0 0 7.15294 0 16ZM26.5412 16C26.5412 21.6471 21.8353 26.3529 16.1882 26.3529C10.5412 26.3529 5.83528 21.6471 5.83528 16C5.83528 10.3529 10.5412 5.64706 16.1882 5.64706C21.8353 5.64706 26.5412 10.3529 26.5412 16Z" fill="#50D168"/>
</svg>
