<svg width="32" height="30" viewBox="0 0 32 30" fill="none" xmlns="http://www.w3.org/2000/svg">
<path d="M23.5625 8.4375H19.8125C18.2619 8.4375 17 9.69938 17 11.25C17 11.5788 17.0575 11.8944 17.1612 12.1875H14.9019C15.0056 11.8944 15.0625 11.5788 15.0625 11.25C15.0625 9.69938 13.8006 8.4375 12.25 8.4375H8.5C3.81313 8.4375 0 12.2225 0 16.875V20.625C0 25.2775 3.81313 29.0625 8.5 29.0625H23.5625C28.215 29.0625 32 25.2775 32 20.625V16.875C32 12.2225 28.215 8.4375 23.5625 8.4375ZM17.875 23.4375H12.25C11.7325 23.4375 11.3125 23.8575 11.3125 24.375C11.3125 24.8925 11.7325 25.3125 12.25 25.3125H16C16.5169 25.3125 16.9375 25.7331 16.9375 26.25C16.9375 26.7669 16.5169 27.1875 16 27.1875H8.5C4.84688 27.1875 1.875 24.2437 1.875 20.625V16.875C1.875 13.2562 4.84688 10.3125 8.5 10.3125H12.25C12.7669 10.3125 13.1875 10.7331 13.1875 11.25C13.1875 11.7669 12.7669 12.1875 12.25 12.1875H8.5C7.9825 12.1875 7.5625 12.6075 7.5625 13.125C7.5625 13.6425 7.9825 14.0625 8.5 14.0625H17.875C18.3919 14.0625 18.8125 14.4831 18.8125 15C18.8125 15.5169 18.3919 15.9375 17.875 15.9375H12.25C11.7325 15.9375 11.3125 16.3575 11.3125 16.875C11.3125 17.3925 11.7325 17.8125 12.25 17.8125H17.875C18.3919 17.8125 18.8125 18.2331 18.8125 18.75C18.8125 19.2669 18.3919 19.6875 17.875 19.6875H12.25C11.7325 19.6875 11.3125 20.1075 11.3125 20.625C11.3125 21.1425 11.7325 21.5625 12.25 21.5625H17.875C18.3919 21.5625 18.8125 21.9831 18.8125 22.5C18.8125 23.0169 18.3919 23.4375 17.875 23.4375ZM30.125 20.625C30.125 24.2437 27.1812 27.1875 23.5625 27.1875H18.6513C18.755 26.8944 18.8125 26.5788 18.8125 26.25C18.8125 25.8838 18.7413 25.5344 18.6138 25.2131C19.8075 24.8881 20.6875 23.795 20.6875 22.5C20.6875 21.78 20.4156 21.1231 19.9694 20.625C20.4156 20.1269 20.6875 19.47 20.6875 18.75C20.6875 18.03 20.4156 17.3731 19.9694 16.875C20.4156 16.3769 20.6875 15.72 20.6875 15C20.6875 14.6712 20.63 14.3556 20.5263 14.0625H22.625V15C22.625 16.7531 23.3075 18.4012 24.5469 19.6406C24.9125 20.0063 25.507 20.0067 25.8731 19.6406C26.2394 19.2744 26.2394 18.6806 25.8731 18.3144C24.9875 17.4294 24.5 16.2519 24.5 15V13.125C24.5 12.6075 24.08 12.1875 23.5625 12.1875H19.8125C19.2956 12.1875 18.875 11.7669 18.875 11.25C18.875 10.7331 19.2956 10.3125 19.8125 10.3125H23.5625C27.1812 10.3125 30.125 13.2562 30.125 16.875V20.625Z" fill="white"/>
<path d="M16 0.9375C15.4822 0.9375 15.0625 1.35725 15.0625 1.875V4.6875C15.0625 5.20525 15.4822 5.625 16 5.625C16.5178 5.625 16.9375 5.20525 16.9375 4.6875V1.875C16.9375 1.35725 16.5178 0.9375 16 0.9375Z" fill="white"/>
<path d="M24.2254 3.08706C23.8593 2.72094 23.2657 2.72094 22.8996 3.08706L21.0246 4.96206C20.6585 5.32819 20.6585 5.92175 21.0246 6.28788C21.3907 6.654 21.9843 6.65406 22.3504 6.28788L24.2254 4.41288C24.5915 4.04675 24.5915 3.45319 24.2254 3.08706Z" fill="white"/>
<path d="M11.0379 4.96206L9.1629 3.08706C8.79684 2.72094 8.20322 2.72094 7.83709 3.08706C7.47097 3.45319 7.47097 4.04675 7.83709 4.41288L9.71209 6.28788C10.0782 6.654 10.6718 6.65406 11.0379 6.28788C11.404 5.92175 11.404 5.32819 11.0379 4.96206Z" fill="white"/>
</svg>
