<svg width="32" height="32" viewBox="0 0 32 32" fill="none" xmlns="http://www.w3.org/2000/svg">
<path d="M24.9775 0C22.7725 0 20.8469 1.0575 19.4088 3.05813C19.1938 3.3575 19.0056 3.65625 18.8412 3.9425C18.6819 3.65813 18.4975 3.36125 18.2881 3.06437C16.8706 1.05937 14.9544 0 12.7456 0C8.665 0 5.72375 3.45312 5.72375 7.605C5.72375 9.755 6.56813 11.7338 8.43688 13.9062C8.03938 14.2631 7.74312 14.7306 7.59875 15.26C7.27813 15.1325 6.92812 15.0625 6.5625 15.0625C5.2675 15.0625 4.17438 15.9419 3.84875 17.135C3.52813 17.0075 3.17812 16.9375 2.8125 16.9375C1.26188 16.9375 0 18.1994 0 19.75V24.7663C0 25.2712 0.080625 25.77 0.239375 26.2456L1.92188 31.3556C2.04875 31.74 2.4075 32 2.8125 32H15.9375C16.3219 32 16.6669 31.7656 16.8088 31.4081L20.1362 23.0275C20.2437 22.7581 20.3063 22.4788 20.3288 22.1987C20.925 21.6831 21.5012 21.1869 22.0562 20.7087C28.035 15.5625 32 12.3694 32 7.605C32 3.4525 29.0575 0 24.9775 0ZM18.3944 22.3337L15.3013 30.125H3.49062L2.01938 25.6556C1.92375 25.3687 1.875 25.0694 1.875 24.7663V19.75C1.875 19.2331 2.29562 18.8125 2.8125 18.8125C3.32938 18.8125 3.75 19.2331 3.75 19.75V21.625C3.75 22.1425 4.17 22.5625 4.6875 22.5625C5.205 22.5625 5.625 22.1425 5.625 21.625V17.875C5.625 17.3581 6.04562 16.9375 6.5625 16.9375C7.07938 16.9375 7.5 17.3581 7.5 17.875V21.625C7.5 22.1425 7.92 22.5625 8.4375 22.5625C8.955 22.5625 9.375 22.1425 9.375 21.625V16C9.375 15.4825 9.79688 15.0625 10.3125 15.0625C10.8294 15.0625 11.25 15.4831 11.25 16V21.625C11.25 22.1425 11.67 22.5625 12.1875 22.5625C12.705 22.5625 13.125 22.1425 13.125 21.625V10.375C13.125 9.85812 13.5456 9.4375 14.0625 9.4375C14.5794 9.4375 15 9.85812 15 10.375V21.625C15 22.1425 15.42 22.5625 15.9375 22.5625C16.455 22.5625 16.875 22.1425 16.875 21.625V19.7844L18.2369 21.3731C18.4644 21.6388 18.5256 22.0063 18.3944 22.3337ZM20.8331 19.2875C20.4744 19.5969 20.1056 19.9144 19.7294 20.2388C19.7063 20.21 19.6844 20.1806 19.66 20.1525L16.875 16.9031V10.375C16.875 8.82438 15.6131 7.5625 14.0625 7.5625C12.5119 7.5625 11.25 8.82438 11.25 10.375V13.3481C10.9569 13.2444 10.6412 13.1875 10.3125 13.1875H10.3081C8.41375 11.1438 7.59875 9.45563 7.59875 7.605C7.59875 4.33813 9.81125 1.875 12.7456 1.875C14.3263 1.875 15.6656 2.625 16.7269 4.105C17.5769 5.29 17.9237 6.51062 17.9263 6.52063C18.0369 6.92563 18.4037 7.20687 18.8237 7.21H18.8306C19.2475 7.21 19.615 6.93375 19.7313 6.5325C19.735 6.52062 20.0963 5.29812 20.9613 4.11125C22.0431 2.6275 23.3944 1.875 24.9775 1.875C27.9119 1.875 30.125 4.33813 30.125 7.605C30.125 11.4237 26.665 14.2681 20.8331 19.2875Z" fill="white"/>
</svg>
