<svg width="30" height="32" viewBox="0 0 30 32" fill="none" xmlns="http://www.w3.org/2000/svg">
<path d="M29.507 27.5012L25.3737 18.6366C26.515 16.7735 27.175 14.5819 27.175 12.2375C27.175 5.49 21.7131 0 15 0C8.28684 0 2.8249 5.49 2.8249 12.2375C2.8249 14.582 3.48484 16.7735 4.62615 18.6366L0.492967 27.5012C0.333155 27.844 0.395592 28.2505 0.65153 28.5296C0.90753 28.8086 1.30647 28.9067 1.66234 28.7768L5.76065 27.2852L7.25228 31.3835C7.38153 31.7394 7.71303 31.9823 8.0914 31.9991C8.46478 32.0154 8.81878 31.8068 8.98109 31.4591L12.372 24.1871C13.2187 24.3751 14.0978 24.4749 15 24.4749C15.9022 24.4749 16.7813 24.3751 17.6279 24.1871L21.0188 31.4591C21.173 31.79 21.5052 31.9998 21.8673 31.9998C22.2613 31.9998 22.6128 31.7537 22.7477 31.3835L24.2393 27.2852L28.3376 28.7768C28.6941 28.9067 29.0925 28.8086 29.3484 28.5296C29.6043 28.2505 29.6668 27.844 29.507 27.5012ZM8.23878 28.6182L7.20047 25.7642C7.11553 25.5314 6.94134 25.3409 6.71597 25.2361C6.49122 25.1312 6.23334 25.1199 5.99984 25.2048L3.14647 26.2431L5.89366 20.351C7.16109 21.7858 8.75759 22.9209 10.5633 23.6339L8.23878 28.6182ZM15 22.6019C9.31953 22.6019 4.69803 17.9522 4.69803 12.2375C4.69803 6.52275 9.31953 1.87306 15 1.87306C20.6804 1.87306 25.3019 6.52269 25.3019 12.2374C25.3019 17.9522 20.6804 22.6019 15 22.6019ZM24.0002 25.2048C23.5144 25.0281 22.9762 25.2785 22.7995 25.7642L21.7612 28.6182L19.4367 23.6339C21.2423 22.9209 22.8388 21.7858 24.1063 20.3511L26.8535 26.2432L24.0002 25.2048Z" fill="white"/>
<path d="M15 3.80862C10.3523 3.80862 6.57117 7.58975 6.57117 12.2375C6.57117 16.8877 10.3442 20.7288 15 20.7288C19.6497 20.7288 23.4289 16.8934 23.4289 12.2375C23.4289 7.58975 19.6478 3.80862 15 3.80862ZM15 18.8557C11.385 18.8557 8.44423 15.8869 8.44423 12.2374C8.44423 8.62237 11.385 5.68162 15 5.68162C18.6151 5.68162 21.5559 8.62244 21.5559 12.2375C21.5559 15.8869 18.6151 18.8557 15 18.8557Z" fill="white"/>
</svg>
