<svg width="32" height="32" viewBox="0 0 32 32" fill="none" xmlns="http://www.w3.org/2000/svg">
<path d="M8.65869 16C8.65869 20.1412 12.0469 23.7176 16.3764 23.7176C20.7058 23.7176 24.094 20.3294 24.094 16C24.094 11.6706 20.7058 8.28235 16.3764 8.28235C12.0469 8.28235 8.65869 11.8588 8.65869 16ZM19.5763 16.7529C19.7646 16 20.5175 15.6235 21.2705 15.8118C21.8352 16 22.2117 16.5647 22.2117 17.1294C22.2117 17.3176 22.2117 17.3176 22.2117 17.5059C21.4587 20.3294 19.0116 22.2118 16.1881 22.2118C13.3646 22.2118 10.9175 20.3294 10.1646 17.5059C9.97634 16.7529 10.3528 16 11.1058 15.8118C11.8587 15.6235 12.6117 16 12.7999 16.7529C13.1764 18.2588 14.494 19.3882 16.1881 19.3882C17.8822 19.3882 19.1999 18.2588 19.5763 16.7529ZM20.894 13.5529C20.894 14.6824 19.9528 15.6235 18.8234 15.6235C17.694 15.6235 16.7528 14.6824 16.7528 13.5529C16.7528 12.4235 17.694 11.4823 18.8234 11.4823C20.1411 11.6706 20.894 12.6118 20.894 13.5529ZM15.2469 13.5529C15.2469 14.6824 14.3058 15.6235 13.1764 15.6235C12.0469 15.6235 11.1058 14.6824 11.1058 13.5529C11.1058 12.4235 12.0469 11.4823 13.1764 11.4823C14.3058 11.6706 15.2469 12.6118 15.2469 13.5529Z" fill="white"/>
<path d="M0 16C0 24.8471 7.15294 32 16 32C24.8471 32 32 24.8471 32 16C32 7.15294 24.8471 0 16 0C7.15294 0 0 7.15294 0 16ZM26.5412 16C26.5412 21.6471 21.8353 26.3529 16.1882 26.3529C10.5412 26.3529 5.83528 21.6471 5.83528 16C5.83528 10.3529 10.5412 5.64706 16.1882 5.64706C21.8353 5.64706 26.5412 10.3529 26.5412 16Z" fill="white"/>
</svg>
