<svg width="32" height="32" viewBox="0 0 32 32" fill="none" xmlns="http://www.w3.org/2000/svg">
<path d="M16 19.2L14.6824 22.0235C14.3059 22.9647 14.4941 24.0941 15.2471 25.0352L16 25.7882L16.753 25.0352C17.5059 24.2823 17.6941 23.1529 17.3177 22.2117L16 19.2Z" fill="#50D168"/>
<path d="M6.96485 15.2471L6.21191 16L6.96485 16.753C7.7178 17.5059 8.8472 17.6941 9.97662 17.3177L12.8001 16L9.97662 14.6824C9.03544 14.3059 7.90603 14.4941 6.96485 15.2471Z" fill="#50D168"/>
<path d="M16 0C7.15294 0 0 7.15294 0 16C0 24.8471 7.15294 32 16 32C24.8471 32 32 24.8471 32 16C32 7.15294 24.8471 0 16 0ZM29.1765 16C29.1765 16.3765 28.9882 16.7529 28.8 16.9412L27.1059 18.6353C26.1647 19.5765 24.6588 20.1412 23.3412 20.1412C22.5882 20.1412 21.8353 19.9529 21.0824 19.5765L18.8235 18.6353L19.7647 20.8941C20.7059 22.9647 20.3294 25.2235 18.6353 26.9176L16.9412 28.8C16.7529 28.9882 16.3765 29.1765 16 29.1765C15.6235 29.1765 15.2471 28.9882 15.0588 28.8L13.3647 26.9176C11.8588 25.4118 11.2941 22.9647 12.2353 20.8941L13.1765 18.6353L10.9176 19.5765C10.1647 19.9529 9.41177 20.1412 8.65883 20.1412C7.34118 20.1412 5.83529 19.5765 4.89412 18.6353L3.2 16.9412C2.6353 16.3765 2.6353 15.6235 3.2 15.0588L4.89412 13.3647C6.4 11.8588 8.84706 11.2941 10.9176 12.2353L13.1765 13.1765L12.2353 10.9176C11.2941 8.84706 11.6706 6.58823 13.3647 4.89411L15.0588 3.2C15.6235 2.6353 16.3765 2.6353 16.9412 3.2L18.6353 4.89411C20.1412 6.4 20.7059 8.84706 19.7647 10.9176L18.8235 13.1765L21.0824 12.2353C23.1529 11.2941 25.4118 11.6706 27.1059 13.3647L28.8 15.0588C28.9882 15.4353 29.1765 15.6235 29.1765 16Z" fill="#50D168"/>
<path d="M16 6.21167L15.2471 6.96461C14.4941 7.71756 14.3059 8.84696 14.6824 9.97638L16 12.7999L17.3177 9.97638C17.6941 9.0352 17.5059 7.90579 16.753 6.96461L16 6.21167Z" fill="#50D168"/>
<path d="M22.212 14.6824L19.2002 16L22.0237 17.3177C22.9649 17.6941 24.0943 17.5059 25.0355 16.753L25.7884 16L25.0355 15.2471C24.2825 14.4941 23.1531 14.3059 22.212 14.6824Z" fill="#50D168"/>
</svg>
