<svg width="30" height="40" viewBox="0 0 30 40" fill="none" xmlns="http://www.w3.org/2000/svg">
<path d="M23.2031 5.85938L20.8594 0H2.10938C1.45305 0 0.9375 0.515547 0.9375 1.17188V38.8281C0.9375 39.4843 1.45305 40 2.10938 40H27.8906C28.547 40 29.0625 39.4843 29.0625 38.8281V8.20312L23.2031 5.85938Z" fill="url(#paint0_linear)"/>
<path d="M23.2031 5.85938L20.8594 0H2.10938C1.45305 0 0.9375 0.515547 0.9375 1.17188V38.8281C0.9375 39.4843 1.45305 40 2.10938 40H27.8906C28.547 40 29.0625 39.4843 29.0625 38.8281V8.20312L23.2031 5.85938Z" fill="url(#paint1_linear)"/>
<path d="M23.2031 5.85938L20.8594 0H2.10938C1.45305 0 0.9375 0.515547 0.9375 1.17188V38.8281C0.9375 39.4843 1.45305 40 2.10938 40H27.8906C28.547 40 29.0625 39.4843 29.0625 38.8281V8.20312L23.2031 5.85938Z" fill="#50D168"/>
<path d="M14.1715 27.8598C14.4004 28.0887 14.7002 28.2031 15 28.2031C15.2998 28.2031 15.5997 28.0887 15.8285 27.8598L22.8598 20.8285C23.1951 20.4932 23.2958 19.9897 23.1138 19.5513C22.933 19.113 22.505 18.8281 22.0312 18.8281H19.6875V12.9688C19.6875 12.321 19.1634 11.7969 18.5156 11.7969H11.4844C10.8366 11.7969 10.3125 12.321 10.3125 12.9688V18.8281H7.96875C7.495 18.8281 7.06695 19.113 6.88617 19.5514C6.70422 19.9897 6.80492 20.4933 7.14023 20.8286L14.1715 27.8598ZM23.2031 28.2031C22.5554 28.2031 22.0312 28.7273 22.0312 29.375V30.5469H7.96875V29.375C7.96875 28.7273 7.44461 28.2031 6.79688 28.2031C6.14914 28.2031 5.625 28.7273 5.625 29.375V31.7188C5.625 32.3665 6.14914 32.8906 6.79688 32.8906H23.2031C23.8509 32.8906 24.375 32.3665 24.375 31.7188V29.375C24.375 28.7273 23.8509 28.2031 23.2031 28.2031ZM22.0312 8.20312H29.0625C29.0625 3.67969 25.3828 0 20.8594 0V7.03125C20.8594 7.67844 21.3841 8.20312 22.0312 8.20312Z" fill="url(#paint2_linear)"/>
<defs>
<linearGradient id="paint0_linear" x1="15" y1="40" x2="15" y2="0" gradientUnits="userSpaceOnUse">
<stop stop-color="#FD5900"/>
<stop offset="1" stop-color="#FFDE00"/>
</linearGradient>
<linearGradient id="paint1_linear" x1="29" y1="40" x2="29" y2="3.06515e-08" gradientUnits="userSpaceOnUse">
<stop stop-color="#0066B2"/>
<stop offset="1" stop-color="#50D168"/>
</linearGradient>
<linearGradient id="paint2_linear" x1="17.3438" y1="32.8906" x2="17.3438" y2="0" gradientUnits="userSpaceOnUse">
<stop offset="0.463542" stop-color="white"/>
<stop offset="1" stop-color="#DAE6E5"/>
</linearGradient>
</defs>
</svg>
