<svg width="40" height="28" viewBox="0 0 40 28" fill="none" xmlns="http://www.w3.org/2000/svg">
<path d="M0 18.3677H39.9999V26.4136C39.9999 26.7945 39.6911 27.1033 39.3102 27.1033H0.689686C0.308828 27.1033 0 26.7945 0 26.4136V18.3677Z" fill="#73AF00"/>
<path d="M0.689686 0.896606H39.3103C39.6912 0.896606 40 1.20543 40 1.58629V9.63221H0V1.58629C0 1.20543 0.308828 0.896606 0.689686 0.896606Z" fill="#82AFFF"/>
<path d="M39.9999 9.63184H0V18.367H39.9999V9.63184Z" fill="#FF4B55"/>
<path d="M20.9407 16.8599C19.393 16.8599 18.1375 15.6043 18.1375 14.0554C18.1375 12.5091 19.393 11.2508 20.9407 11.2508C21.5165 11.2508 22.0475 11.4279 22.49 11.7276C22.5578 11.7736 22.6351 11.6844 22.5784 11.6254C21.917 10.9379 20.9809 10.5183 19.9431 10.5537C18.16 10.6146 16.6839 12.0441 16.5699 13.8247C16.4393 15.864 18.0542 17.5589 20.0648 17.5589C21.0551 17.5589 21.9452 17.1448 22.5809 16.4829C22.637 16.4244 22.5595 16.3367 22.4925 16.3821C22.0495 16.6826 21.5175 16.8599 20.9407 16.8599Z" fill="#F5F5F5"/>
<path d="M23.3942 12.329L23.685 13.1467L24.4689 12.7742C24.528 12.746 24.5896 12.8077 24.5615 12.8667L24.1889 13.6507L25.0067 13.9415C25.0683 13.9634 25.0683 14.0506 25.0067 14.0724L24.1889 14.3633L24.5615 15.1472C24.5896 15.2063 24.528 15.2679 24.4689 15.2398L23.685 14.8672L23.3942 15.6849C23.3723 15.7466 23.2851 15.7466 23.2632 15.6849L22.9724 14.8672L22.1885 15.2398C22.1294 15.2679 22.0678 15.2063 22.0959 15.1472L22.4685 14.3633L21.6507 14.0724C21.5891 14.0506 21.5891 13.9634 21.6507 13.9415L22.4685 13.6507L22.0959 12.8667C22.0678 12.8077 22.1294 12.746 22.1885 12.7742L22.9724 13.1467L23.2632 12.329C23.2852 12.2674 23.3723 12.2674 23.3942 12.329Z" fill="#F5F5F5"/>
</svg>
