<svg width="40" height="28" viewBox="0 0 40 28" fill="none" xmlns="http://www.w3.org/2000/svg">
<path d="M39.3102 0.896729H0.689686C0.308828 0.896729 0 1.20548 0 1.58634V26.4139C0 26.7947 0.308828 27.1036 0.689686 27.1036H39.3103C39.6912 27.1036 40 26.7947 40 26.4139V1.58634C39.9999 1.20548 39.6911 0.896729 39.3102 0.896729Z" fill="#82C3D2"/>
<path d="M4.64921 4.03508C4.58679 3.77079 4.57124 3.67336 4.68984 3.55485C4.74765 3.49704 4.74765 3.40336 4.68984 3.34555C4.63203 3.28774 4.53835 3.28774 4.48054 3.34555C4.24054 3.58563 4.29781 3.83477 4.35992 4.0986C4.1707 4.0368 3.97445 4.08266 3.86929 4.21532C3.81711 4.28149 3.71617 4.46711 3.90531 4.76352C3.94929 4.83235 4.04023 4.85258 4.10968 4.80899C4.17867 4.765 4.19875 4.67336 4.15476 4.60461C4.08382 4.49297 4.08171 4.42414 4.10156 4.39899C4.125 4.36922 4.19765 4.35352 4.27375 4.38047C4.32289 4.3975 4.4371 4.45649 4.4371 4.63461C4.4371 4.77688 4.37132 4.90727 4.25664 4.99196C4.14171 5.07696 3.99296 5.10094 3.84961 5.05641C3.67257 5.00235 3.5489 4.81586 3.5489 4.60282C3.5489 4.45039 3.58156 4.29633 3.64156 4.16133C3.65109 4.14141 3.87734 3.67274 3.93562 3.49805C4.05086 3.15251 3.93375 2.97876 3.85382 2.90618C3.74687 2.80876 3.59054 2.78446 3.45601 2.84344C3.43554 2.85251 3.41867 2.86563 3.40093 2.87782C3.3832 2.86555 3.36625 2.85251 3.34586 2.84344C3.2114 2.78446 3.05515 2.80876 2.94805 2.90618C2.86812 2.97876 2.75101 3.15258 2.86625 3.49805C2.92453 3.67274 3.1507 4.14141 3.1582 4.15703C3.22015 4.29641 3.25289 4.45047 3.25289 4.60289C3.25289 4.81602 3.12929 5.00242 2.95219 5.05649C2.80828 5.10094 2.66 5.07727 2.54516 4.99203C2.43047 4.90727 2.36469 4.77696 2.36469 4.63469C2.36469 4.45657 2.47891 4.39766 2.52805 4.38055C2.60437 4.35368 2.67664 4.36922 2.70023 4.39907C2.72008 4.42422 2.71797 4.49305 2.64703 4.60469C2.60305 4.67352 2.62312 4.76516 2.69211 4.80907C2.76164 4.85305 2.85289 4.8325 2.89648 4.7636C3.08554 4.46719 2.98469 4.28164 2.9325 4.21539C2.82726 4.08274 2.63109 4.03688 2.44187 4.09868C2.50406 3.835 2.56125 3.58571 2.32125 3.34563C2.26344 3.28782 2.16977 3.28782 2.11195 3.34563C2.05414 3.40344 2.05414 3.49711 2.11195 3.55493C2.23047 3.67344 2.21508 3.77086 2.15258 4.03516C2.11508 4.19352 2.06852 4.39102 2.06852 4.63446C2.06852 4.79641 2.12547 4.95133 2.22125 5.0786H2.21648C2.13469 5.0786 2.06844 5.14477 2.06844 5.22664C2.06844 5.30844 2.13461 5.37469 2.21648 5.37469H2.22125C2.12547 5.50195 2.06852 5.6568 2.06852 5.81875C2.06852 6.06219 2.11508 6.25969 2.1525 6.41812C2.21492 6.68242 2.23047 6.77984 2.11187 6.89836C2.05406 6.95617 2.05406 7.04984 2.11187 7.10765C2.14078 7.13656 2.17867 7.15101 2.21656 7.15101C2.25437 7.15101 2.29234 7.13656 2.32125 7.10765C2.56125 6.86758 2.50398 6.61836 2.44187 6.35461C2.63109 6.41617 2.82734 6.37055 2.9325 6.23789C2.98469 6.17172 3.08562 5.98609 2.89648 5.68969C2.85265 5.62086 2.76117 5.60039 2.69211 5.64422C2.62312 5.6882 2.60305 5.77984 2.64703 5.84859C2.71797 5.96023 2.72008 6.02906 2.70023 6.05422C2.67672 6.08367 2.60437 6.0993 2.52805 6.07273C2.47891 6.0557 2.36469 5.99672 2.36469 5.81859C2.36469 5.67633 2.43047 5.54594 2.54516 5.46125C2.66008 5.37625 2.80867 5.35195 2.95219 5.3968C3.12922 5.45086 3.25289 5.63734 3.25289 5.85039C3.25289 6.00281 3.22023 6.15687 3.1582 6.29625L2.18859 8.47757C2.10891 8.65679 2.06844 8.84742 2.06844 9.04367C2.06844 9.29624 2.18328 9.52687 2.36406 9.66765C2.18336 9.80843 2.06844 10.0391 2.06844 10.2916C2.06844 10.488 2.10898 10.6785 2.18859 10.8577L3.15804 13.0389C3.22 13.1783 3.25273 13.3323 3.25273 13.4847C3.25273 13.6979 3.12914 13.8843 2.95203 13.9383C2.80812 13.9832 2.65984 13.9591 2.545 13.8739C2.43031 13.7891 2.36453 13.6588 2.36453 13.5165C2.36453 13.3384 2.47875 13.2795 2.52789 13.2624C2.60422 13.2358 2.67648 13.2511 2.70008 13.2809C2.71992 13.3061 2.71781 13.3749 2.64687 13.4865C2.60289 13.5554 2.62297 13.647 2.69195 13.6909C2.76148 13.7349 2.85273 13.7146 2.89633 13.6455C3.08539 13.349 2.98453 13.1635 2.93234 13.0972C2.82711 12.9646 2.63094 12.9189 2.44172 12.9805C2.50391 12.7169 2.56109 12.4676 2.32109 12.2275C2.26328 12.1697 2.16961 12.1697 2.1118 12.2275C2.05398 12.2853 2.05398 12.379 2.1118 12.4368C2.23031 12.5553 2.21492 12.6527 2.15242 12.917C2.115 13.0755 2.06844 13.273 2.06844 13.5164C2.06844 13.6783 2.12539 13.8333 2.22117 13.9605H2.21641C2.13461 13.9605 2.06836 14.0267 2.06836 14.1086C2.06836 14.1905 2.13453 14.2566 2.21641 14.2566H2.22117C2.12531 14.3839 2.06844 14.5387 2.06844 14.7008C2.06844 14.9442 2.115 15.1417 2.15242 15.3001C2.21484 15.5644 2.23039 15.6619 2.1118 15.7804C2.05398 15.8382 2.05398 15.9319 2.1118 15.9897C2.1407 16.0186 2.17859 16.033 2.21648 16.033C2.2543 16.033 2.29227 16.0186 2.32117 15.9897C2.56117 15.7496 2.50391 15.5004 2.4418 15.2366C2.63101 15.2982 2.82726 15.2526 2.93242 15.1199C2.98461 15.0537 3.08554 14.8681 2.8964 14.5717C2.85258 14.5029 2.76109 14.4824 2.69203 14.5262C2.62305 14.5702 2.60297 14.6619 2.64695 14.7306C2.71789 14.8422 2.72 14.9111 2.70015 14.9362C2.67664 14.966 2.6043 14.9817 2.52797 14.9547C2.47883 14.9377 2.36461 14.8787 2.36461 14.7006C2.36461 14.5583 2.43039 14.428 2.54508 14.3433C2.66 14.2583 2.80859 14.234 2.95211 14.2788C3.12914 14.3329 3.25281 14.5194 3.25281 14.7324C3.25281 14.8848 3.22015 15.0389 3.15812 15.1783L2.18859 17.3598C2.10891 17.539 2.06844 17.7297 2.06844 17.9259C2.06844 18.1785 2.18328 18.4091 2.36406 18.5499C2.18336 18.6907 2.06844 18.9213 2.06844 19.1739C2.06844 19.3702 2.10898 19.5608 2.18859 19.74L3.15804 21.9211C3.22 22.0605 3.25273 22.2146 3.25273 22.367C3.25273 22.5801 3.12914 22.7665 2.95203 22.8206C2.80812 22.8654 2.65984 22.8411 2.545 22.7561C2.43031 22.6714 2.36453 22.5411 2.36453 22.3988C2.36453 22.2207 2.47875 22.1618 2.52789 22.1447C2.60422 22.118 2.67648 22.1333 2.70008 22.1632C2.71992 22.1883 2.71781 22.2572 2.64687 22.3688C2.60289 22.4376 2.62297 22.5292 2.69195 22.5732C2.76148 22.6172 2.85273 22.5968 2.89633 22.5277C3.08539 22.2313 2.98453 22.0457 2.93234 21.9795C2.82711 21.8465 2.63094 21.801 2.44172 21.8628C2.50391 21.5991 2.56109 21.3498 2.32109 21.1097C2.26328 21.0519 2.16961 21.0519 2.1118 21.1097C2.05398 21.1675 2.05398 21.2612 2.1118 21.319C2.23031 21.4375 2.21492 21.535 2.15242 21.7993C2.115 21.9577 2.06844 22.1551 2.06844 22.3986C2.06844 22.6306 2.17961 22.8515 2.36547 22.9907C2.17961 23.13 2.06844 23.3509 2.06844 23.5829C2.06844 23.8264 2.115 24.0239 2.15242 24.1823C2.21484 24.4465 2.23039 24.544 2.1118 24.6625C2.05398 24.7204 2.05398 24.814 2.1118 24.8718C2.1407 24.9007 2.17859 24.9152 2.21648 24.9152C2.2543 24.9152 2.29227 24.9007 2.32117 24.8718C2.56117 24.6318 2.50391 24.3825 2.4418 24.1188C2.63101 24.1804 2.82726 24.1347 2.93242 24.0021C2.98461 23.9359 3.08554 23.7503 2.8964 23.4539C2.85258 23.385 2.76109 23.3648 2.69203 23.4084C2.62305 23.4524 2.60297 23.544 2.64695 23.6128C2.71789 23.7244 2.72 23.7932 2.70015 23.8184C2.67664 23.8482 2.6043 23.8635 2.52797 23.8369C2.47883 23.8199 2.36461 23.7609 2.36461 23.5828C2.36461 23.4405 2.43039 23.3101 2.54508 23.2254C2.66 23.1404 2.80859 23.1164 2.95211 23.161C3.12914 23.215 3.25281 23.4015 3.25281 23.6146C3.25281 23.767 3.22015 23.9211 3.16015 24.0561C3.15062 24.076 2.92437 24.5446 2.86609 24.7193C2.75086 25.0649 2.86797 25.2386 2.94789 25.3112C3.01625 25.3734 3.10429 25.4061 3.19429 25.4061C3.24531 25.4061 3.29703 25.3954 3.34578 25.374C3.36625 25.365 3.38312 25.3518 3.40086 25.3396C3.41859 25.3519 3.43554 25.365 3.45593 25.374C3.50461 25.3954 3.5564 25.4061 3.60742 25.4061C3.69718 25.4061 3.78539 25.3734 3.85382 25.3112C3.93375 25.2386 4.05086 25.0648 3.93562 24.7193C3.87734 24.5446 3.65117 24.076 3.64367 24.0604C3.58172 23.921 3.54898 23.7669 3.54898 23.6145C3.54898 23.4014 3.67257 23.2149 3.84968 23.1609C3.99367 23.1164 4.14187 23.1404 4.25671 23.2254C4.3714 23.3101 4.43718 23.4404 4.43718 23.5827C4.43718 23.7608 4.32296 23.8197 4.27382 23.8368C4.19781 23.8635 4.125 23.8482 4.10164 23.8183C4.08179 23.7932 4.0839 23.7243 4.15484 23.6127C4.19882 23.5439 4.17875 23.4523 4.10976 23.4083C4.04062 23.365 3.94945 23.3852 3.90539 23.4538C3.71632 23.7502 3.81718 23.9357 3.86937 24.002C3.97461 24.1346 4.17078 24.1804 4.36 24.1187C4.29781 24.3824 4.24062 24.6317 4.48062 24.8718C4.50953 24.9007 4.54742 24.9151 4.58531 24.9151C4.6232 24.9151 4.66109 24.9007 4.68999 24.8718C4.74781 24.8139 4.74781 24.7203 4.68999 24.6625C4.57148 24.5439 4.58687 24.4465 4.64937 24.1822C4.68679 24.0238 4.73335 23.8263 4.73335 23.5829C4.73335 23.3508 4.62218 23.1299 4.43632 22.9907C4.62218 22.8514 4.73335 22.6306 4.73335 22.3985C4.73335 22.155 4.68679 21.9575 4.64937 21.7991C4.58695 21.5349 4.5714 21.4374 4.68999 21.3189C4.74781 21.2611 4.74781 21.1674 4.68999 21.1096C4.63218 21.0518 4.53851 21.0518 4.4807 21.1096C4.2407 21.3497 4.29796 21.5988 4.36007 21.8626C4.17086 21.8008 3.97461 21.8463 3.86945 21.9793C3.81726 22.0455 3.71632 22.2311 3.90546 22.5275C3.94945 22.5964 4.04039 22.6166 4.10984 22.573C4.17882 22.529 4.1989 22.4374 4.15492 22.3686C4.08398 22.257 4.08187 22.1882 4.10171 22.163C4.12515 22.1332 4.19781 22.1179 4.2739 22.1445C4.32304 22.1615 4.43726 22.2205 4.43726 22.3986C4.43726 22.5409 4.37148 22.6713 4.25679 22.756C4.14187 22.841 3.99312 22.8653 3.84976 22.8204C3.67273 22.7664 3.54906 22.5799 3.54906 22.3668C3.54906 22.2144 3.58172 22.0604 3.64375 21.921L4.6132 19.7398C4.69289 19.5606 4.73335 19.37 4.73335 19.1737C4.73335 18.9211 4.61851 18.6905 4.43773 18.5497C4.61843 18.409 4.73335 18.1783 4.73335 17.9258C4.73335 17.7294 4.69281 17.5389 4.6132 17.3597L3.64382 15.1787C3.58187 15.0393 3.54914 14.8852 3.54914 14.7328C3.54914 14.5197 3.67273 14.3333 3.84984 14.2792C3.99382 14.2347 4.14203 14.2587 4.25687 14.3437C4.37156 14.4284 4.43734 14.5587 4.43734 14.701C4.43734 14.8791 4.32312 14.938 4.27398 14.9551C4.19796 14.982 4.12515 14.9665 4.10179 14.9366C4.08195 14.9115 4.08406 14.8426 4.155 14.731C4.19898 14.6622 4.1789 14.5706 4.10992 14.5266C4.04078 14.4833 3.94961 14.5035 3.90554 14.5721C3.71648 14.8685 3.81734 15.054 3.86953 15.1203C3.97476 15.253 4.17093 15.2987 4.36015 15.237C4.29796 15.5007 4.24078 15.75 4.48078 15.9901C4.50968 16.019 4.54757 16.0334 4.58546 16.0334C4.62335 16.0334 4.66124 16.019 4.69015 15.9901C4.74796 15.9322 4.74796 15.8386 4.69015 15.7808C4.57164 15.6622 4.58703 15.5648 4.64953 15.3005C4.68695 15.1421 4.73351 14.9446 4.73351 14.7012C4.73351 14.5392 4.67656 14.3843 4.58078 14.257H4.58554C4.66734 14.257 4.73359 14.1908 4.73359 14.109C4.73359 14.0272 4.66742 13.9609 4.58554 13.9609H4.58078C4.67664 13.8337 4.73351 13.6789 4.73351 13.5168C4.73351 13.2733 4.68695 13.0758 4.64953 12.9174C4.5871 12.6531 4.57156 12.5557 4.69015 12.4372C4.74796 12.3794 4.74796 12.2857 4.69015 12.2279C4.63234 12.1701 4.53867 12.1701 4.48085 12.2279C4.24085 12.468 4.29812 12.7172 4.36023 12.9809C4.17101 12.9194 3.97476 12.965 3.86961 13.0976C3.81742 13.1638 3.71648 13.3494 3.90562 13.6458C3.94961 13.7147 4.04054 13.7347 4.11 13.6913C4.17898 13.6473 4.19906 13.5557 4.15507 13.4869C4.08414 13.3753 4.08203 13.3065 4.10187 13.2813C4.12531 13.2515 4.19796 13.2362 4.27406 13.2628C4.3232 13.2798 4.43742 13.3388 4.43742 13.5169C4.43742 13.6592 4.37164 13.7896 4.25695 13.8743C4.14203 13.9593 3.99328 13.9833 3.84992 13.9387C3.67289 13.8847 3.54922 13.6982 3.54922 13.4851C3.54922 13.3327 3.58187 13.1787 3.6439 13.0393L4.61335 10.8581C4.69304 10.6789 4.73351 10.4883 4.73351 10.292C4.73351 10.0394 4.61867 9.80882 4.43789 9.66804C4.61859 9.52726 4.73351 9.29663 4.73351 9.04406C4.73351 8.84773 4.69296 8.65718 4.61335 8.47796L3.6439 6.2968C3.58195 6.15742 3.54922 6.00336 3.54922 5.85094C3.54922 5.63781 3.67281 5.45141 3.84992 5.39735C3.9939 5.35281 4.14211 5.3768 4.25695 5.4618C4.37164 5.54656 4.43742 5.67688 4.43742 5.81914C4.43742 5.99727 4.3232 6.05617 4.27406 6.07328C4.19804 6.09992 4.12523 6.08422 4.10187 6.05476C4.08203 6.02961 4.08414 5.96078 4.15507 5.84914C4.19906 5.78031 4.17898 5.68867 4.11 5.64477C4.04086 5.60141 3.94968 5.62133 3.90562 5.69016C3.71656 5.98656 3.81742 6.17211 3.86961 6.23836C3.97484 6.37101 4.17101 6.41672 4.36023 6.35508C4.29804 6.61875 4.24085 6.86804 4.48085 7.10812C4.50976 7.13703 4.54765 7.15148 4.58554 7.15148C4.62343 7.15148 4.66132 7.13703 4.69023 7.10812C4.74804 7.05031 4.74804 6.95664 4.69023 6.89883C4.57171 6.78031 4.5871 6.68289 4.6496 6.41859C4.68703 6.26015 4.73359 6.06266 4.73359 5.81922C4.73359 5.65727 4.67664 5.50234 4.58085 5.37508H4.58562C4.66742 5.37508 4.73367 5.30891 4.73367 5.22703C4.73367 5.14524 4.66749 5.07899 4.58562 5.07899H4.58085C4.67671 4.95172 4.73359 4.79695 4.73359 4.63485C4.73312 4.39102 4.68656 4.19352 4.64921 4.03508ZM3.14687 3.40422C3.09429 3.24641 3.11265 3.15649 3.14734 3.12493C3.17 3.10352 3.20437 3.10438 3.22617 3.11422C3.25289 3.1261 3.25289 3.14493 3.25289 3.15415C3.25289 3.23594 3.31906 3.30219 3.40093 3.30219C3.48273 3.30219 3.54898 3.23602 3.54898 3.15415C3.54898 3.14493 3.54898 3.1261 3.5757 3.11422C3.59711 3.10438 3.63125 3.10352 3.65453 3.12493C3.68922 3.15649 3.70757 3.24641 3.655 3.40422C3.61672 3.51868 3.4782 3.81664 3.40101 3.97836C3.32539 3.82039 3.18539 3.51946 3.14687 3.40422ZM3.40086 9.51242C3.44336 9.57015 3.4914 9.6239 3.54984 9.66765C3.4914 9.71148 3.44336 9.76515 3.40086 9.82288C3.35836 9.76515 3.31031 9.7114 3.25187 9.66765C3.31031 9.62382 3.35836 9.57023 3.40086 9.51242ZM3.40086 18.3946C3.44336 18.4523 3.4914 18.5061 3.54984 18.5498C3.4914 18.5936 3.44336 18.6473 3.40086 18.7051C3.35836 18.6473 3.31031 18.5936 3.25187 18.5498C3.31031 18.506 3.35836 18.4525 3.40086 18.3946ZM3.65476 24.8133C3.70734 24.9711 3.68898 25.0611 3.65429 25.0926C3.63101 25.1137 3.59687 25.1129 3.57547 25.1033C3.54875 25.0914 3.54875 25.0727 3.54875 25.0634C3.54875 24.9816 3.48258 24.9154 3.4007 24.9154C3.31883 24.9154 3.25265 24.9815 3.25265 25.0634C3.25265 25.0726 3.25265 25.0914 3.22594 25.1033C3.20422 25.1129 3.16984 25.1138 3.14711 25.0926C3.11242 25.0611 3.09406 24.9711 3.14664 24.8133C3.18492 24.6989 3.32343 24.4009 3.40062 24.2392C3.47625 24.3971 3.61625 24.6981 3.65476 24.8133ZM3.54843 22.9909C3.49242 23.0345 3.44273 23.0867 3.40086 23.1457C3.35906 23.0867 3.30929 23.0346 3.25328 22.9909C3.30929 22.9473 3.35898 22.8951 3.40086 22.8361C3.44265 22.8951 3.49234 22.9473 3.54843 22.9909ZM4.34234 19.6196L3.40078 21.738L2.45922 19.6196C2.39726 19.4802 2.36453 19.3261 2.36453 19.1737C2.36453 18.9606 2.48812 18.7741 2.66523 18.7201C2.80914 18.6756 2.95758 18.6996 3.07226 18.7846C3.18695 18.8693 3.25273 18.9997 3.25273 19.1419C3.25273 19.3201 3.13851 19.379 3.08937 19.3961C3.01304 19.4227 2.94047 19.4074 2.91719 19.3776C2.89734 19.3524 2.89945 19.2836 2.97039 19.1719C3.01437 19.1031 2.9943 19.0115 2.92531 18.9676C2.85617 18.9242 2.765 18.9444 2.72094 19.013C2.53187 19.3094 2.63273 19.495 2.68492 19.5612C2.79211 19.6965 2.99375 19.7431 3.18656 19.6757C3.20851 19.6681 3.23078 19.6586 3.25273 19.6475V20.0218C3.25273 20.0218 3.2525 20.0216 3.2525 20.0216C3.24804 19.9436 3.18351 19.8822 3.10476 19.8822C3.02297 19.8822 2.95672 19.9483 2.95672 20.0302C2.95672 20.1268 3.02422 20.2943 3.25273 20.3461V20.6223C3.25273 20.7041 3.3189 20.7704 3.40078 20.7704C3.48265 20.7704 3.54883 20.7042 3.54883 20.6223V20.3461C3.77734 20.2943 3.84484 20.1268 3.84484 20.0302C3.84484 19.9484 3.77882 19.8773 3.69711 19.8773C3.61531 19.8773 3.54937 19.9386 3.54937 20.0204C3.54929 20.0207 3.54883 20.0211 3.54875 20.0213V19.6476C3.5707 19.6588 3.59297 19.6683 3.61492 19.6758C3.80773 19.7432 4.00929 19.6966 4.11656 19.5614C4.16875 19.4952 4.26968 19.3096 4.08054 19.0132C4.03656 18.9443 3.94523 18.9241 3.87617 18.9677C3.80718 19.0117 3.78711 19.1033 3.83109 19.1721C3.90203 19.2837 3.90414 19.3526 3.88429 19.3777C3.86086 19.4075 3.78828 19.4228 3.71211 19.3962C3.66297 19.3792 3.54875 19.3202 3.54875 19.1421C3.54875 18.9998 3.61453 18.8694 3.72922 18.7847C3.84414 18.6997 3.99289 18.6754 4.13625 18.7203C4.31328 18.7743 4.43695 18.9608 4.43695 19.1739C4.4371 19.3261 4.40445 19.4803 4.34234 19.6196ZM4.34234 17.4801C4.40429 17.6194 4.43703 17.7735 4.43703 17.9259C4.43703 18.139 4.31343 18.3254 4.13632 18.3795C3.99265 18.4243 3.84398 18.4001 3.72929 18.3151C3.61461 18.2303 3.54883 18.1 3.54883 17.9577C3.54883 17.7796 3.66304 17.7207 3.71218 17.7036C3.78836 17.6769 3.86101 17.6922 3.88437 17.7221C3.90422 17.7472 3.90211 17.8161 3.83117 17.9277C3.78718 17.9965 3.80726 18.0881 3.87625 18.1321C3.94578 18.1761 4.03703 18.1558 4.08062 18.0866C4.26968 17.7902 4.16882 17.6047 4.11664 17.5384C4.00937 17.4031 3.80781 17.3571 3.615 17.424C3.59304 17.4315 3.57078 17.4411 3.54883 17.4522V17.0777L3.54906 17.0782C3.55351 17.1559 3.61804 17.2176 3.69679 17.2176C3.77859 17.2176 3.84484 17.1514 3.84484 17.0695C3.84484 16.9729 3.77734 16.8054 3.54883 16.7536V16.4774C3.54883 16.3956 3.48265 16.3294 3.40078 16.3294C3.3189 16.3294 3.25273 16.3955 3.25273 16.4774V16.7536C3.02422 16.8054 2.95672 16.9729 2.95672 17.0695C2.95672 17.1513 3.02273 17.2224 3.10445 17.2224C3.18625 17.2224 3.25218 17.1611 3.25218 17.0793C3.25226 17.079 3.25273 17.0786 3.25273 17.0786L3.25281 17.4521C3.23086 17.4409 3.20859 17.4315 3.18664 17.4239C2.99383 17.3571 2.79219 17.4031 2.685 17.5383C2.63281 17.6045 2.53187 17.7901 2.72101 18.0865C2.765 18.1554 2.85633 18.1754 2.92539 18.132C2.99437 18.088 3.01445 17.9964 2.97047 17.9276C2.89953 17.816 2.89742 17.7472 2.91726 17.722C2.94055 17.6922 3.01312 17.6769 3.08945 17.7035C3.13859 17.7205 3.25281 17.7795 3.25281 17.9576C3.25281 18.0999 3.18703 18.2303 3.07234 18.315C2.95742 18.4 2.80898 18.4243 2.66531 18.3794C2.48828 18.3254 2.36461 18.1389 2.36461 17.9258C2.36461 17.7734 2.39726 17.6194 2.4593 17.48L3.40086 15.3615L4.34234 17.4801ZM3.54843 14.1088C3.49242 14.1524 3.44273 14.2046 3.40086 14.2636C3.35906 14.2046 3.30929 14.1525 3.25328 14.1088C3.30929 14.0652 3.35898 14.013 3.40086 13.954C3.44265 14.013 3.49234 14.0651 3.54843 14.1088ZM4.34234 10.7375L3.40078 12.8559L2.45922 10.7375C2.39726 10.5981 2.36453 10.4441 2.36453 10.2916C2.36453 10.0785 2.48812 9.8921 2.66523 9.83804C2.80914 9.79351 2.95758 9.81749 3.07226 9.90249C3.18695 9.98726 3.25273 10.1176 3.25273 10.2598C3.25273 10.438 3.13851 10.4969 3.08937 10.514C3.01304 10.5409 2.94047 10.5253 2.91719 10.4955C2.89734 10.4703 2.89945 10.4015 2.97039 10.2898C3.01437 10.221 2.9943 10.1294 2.92531 10.0855C2.85617 10.0419 2.765 10.062 2.72094 10.1309C2.53187 10.4273 2.63273 10.6129 2.68492 10.6791C2.79211 10.8144 2.99375 10.8607 3.18656 10.7936C3.20851 10.786 3.23078 10.7766 3.25273 10.7654V11.1398L3.2525 11.1393C3.24804 11.0616 3.18351 10.9999 3.10476 10.9999C3.02297 10.9999 2.95672 11.0661 2.95672 11.148C2.95672 11.2445 3.02422 11.412 3.25273 11.4639V11.7401C3.25273 11.8219 3.3189 11.8881 3.40078 11.8881C3.48265 11.8881 3.54883 11.8219 3.54883 11.7401V11.4639C3.77734 11.412 3.84484 11.2445 3.84484 11.148C3.84484 11.0662 3.77882 10.995 3.69711 10.995C3.61531 10.995 3.54937 11.0563 3.54937 11.1381C3.54929 11.1383 3.54883 11.1387 3.54883 11.1387L3.54875 10.7653C3.5707 10.7765 3.59297 10.7859 3.61492 10.7935C3.80773 10.8605 4.00929 10.8143 4.11656 10.6791C4.16875 10.6129 4.26968 10.4273 4.08054 10.1309C4.03656 10.0617 3.94523 10.0416 3.87617 10.0854C3.80718 10.1294 3.78711 10.221 3.83109 10.2898C3.90203 10.4014 3.90414 10.4702 3.88429 10.4954C3.86086 10.5251 3.78828 10.5409 3.71211 10.5139C3.66297 10.4969 3.54875 10.4379 3.54875 10.2598C3.54875 10.1175 3.61453 9.9871 3.72922 9.90241C3.84414 9.81741 3.99289 9.79343 4.13625 9.83796C4.31328 9.89202 4.43695 10.0785 4.43695 10.2916C4.4371 10.4441 4.40445 10.5981 4.34234 10.7375ZM4.34234 8.59789C4.40429 8.73726 4.43703 8.89132 4.43703 9.04374C4.43703 9.25687 4.31343 9.44327 4.13632 9.49734C3.99265 9.54218 3.84398 9.51788 3.72929 9.43288C3.61461 9.34812 3.54883 9.21781 3.54883 9.07554C3.54883 8.89742 3.66304 8.83851 3.71218 8.8214C3.78836 8.79476 3.86101 8.81007 3.88437 8.83992C3.90422 8.86507 3.90211 8.9339 3.83117 9.04554C3.78718 9.11437 3.80726 9.20593 3.87625 9.24992C3.94578 9.29351 4.03703 9.27359 4.08062 9.20445C4.26968 8.90804 4.16882 8.7225 4.11664 8.65625C4.00937 8.52093 3.80781 8.47468 3.615 8.54179C3.59304 8.54937 3.57078 8.55882 3.54883 8.57V8.19562C3.54883 8.1957 3.54906 8.19586 3.54906 8.19586C3.55351 8.27382 3.61804 8.33531 3.69679 8.33531C3.77859 8.33531 3.84484 8.26914 3.84484 8.18726C3.84484 8.0907 3.77734 7.9232 3.54883 7.87132V7.59515C3.54883 7.51336 3.48265 7.44711 3.40078 7.44711C3.3189 7.44711 3.25273 7.51328 3.25273 7.59515V7.87132C3.02422 7.9232 2.95672 8.0907 2.95672 8.18726C2.95672 8.26906 3.02273 8.34023 3.10445 8.34023C3.18625 8.34023 3.25218 8.2789 3.25218 8.1971C3.25226 8.19687 3.25273 8.19648 3.25281 8.19625V8.56992C3.23086 8.55874 3.20859 8.54929 3.18664 8.54171C2.99383 8.47468 2.79219 8.52093 2.685 8.65617C2.63281 8.72234 2.53187 8.90796 2.72101 9.20437C2.765 9.2732 2.85633 9.2932 2.92539 9.24984C2.99437 9.20585 3.01445 9.11421 2.97047 9.04546C2.89953 8.93382 2.89742 8.86499 2.91726 8.83984C2.94055 8.81007 3.01312 8.79476 3.08945 8.82132C3.13859 8.83835 3.25281 8.89734 3.25281 9.07546C3.25281 9.21773 3.18703 9.34812 3.07234 9.43281C2.95742 9.51781 2.80898 9.5421 2.66531 9.49726C2.48828 9.4432 2.36461 9.25671 2.36461 9.04367C2.36461 8.89124 2.39726 8.73718 2.4593 8.59781L3.40086 6.47937L4.34234 8.59789ZM3.2532 5.22664C3.30922 5.18305 3.3589 5.13086 3.40078 5.07188C3.44258 5.13086 3.49234 5.18297 3.54836 5.22664C3.49234 5.27024 3.44265 5.32242 3.40078 5.38141C3.35898 5.32242 3.30929 5.27024 3.2532 5.22664Z" fill="#FFE15A"/>
<path d="M21.1509 15.9247C23.1186 15.9247 24.7138 14.3296 24.7138 12.3618C24.7138 10.394 23.1186 8.79883 21.1509 8.79883C19.1831 8.79883 17.5879 10.394 17.5879 12.3618C17.5879 14.3296 19.1831 15.9247 21.1509 15.9247Z" fill="#FFE15A"/>
<path d="M21.4183 7.81917C21.4183 7.96675 21.2986 8.08644 21.1511 8.08644C21.0035 8.08644 20.8838 7.96675 20.8838 7.81917C20.8838 7.6716 21.1511 7.01746 21.1511 7.01746C21.1511 7.01746 21.4183 7.6716 21.4183 7.81917Z" fill="#FFE15A"/>
<path d="M20.8848 16.9052C20.8848 16.7576 21.0045 16.6379 21.152 16.6379C21.2996 16.6379 21.4193 16.7576 21.4193 16.9052C21.4193 17.0528 21.152 17.7069 21.152 17.7069C21.152 17.7069 20.8848 17.0529 20.8848 16.9052Z" fill="#FFE15A"/>
<path d="M25.695 12.6294C25.5474 12.6294 25.4277 12.5097 25.4277 12.3621C25.4277 12.2145 25.5474 12.0948 25.695 12.0948C25.8426 12.0948 26.4967 12.3621 26.4967 12.3621C26.4967 12.3621 25.8426 12.6294 25.695 12.6294Z" fill="#FFE15A"/>
<path d="M16.6084 12.0951C16.7559 12.0951 16.8756 12.2148 16.8756 12.3624C16.8756 12.5099 16.7559 12.6296 16.6084 12.6296C16.4608 12.6296 15.8066 12.3624 15.8066 12.3624C15.8066 12.3624 16.4608 12.0951 16.6084 12.0951Z" fill="#FFE15A"/>
<path d="M24.553 9.3387C24.4486 9.44307 24.2794 9.44307 24.175 9.3387C24.0705 9.23432 24.0706 9.06518 24.175 8.96073C24.2794 8.85628 24.9308 8.58276 24.9308 8.58276C24.9308 8.58276 24.6574 9.23432 24.553 9.3387Z" fill="#FFE15A"/>
<path d="M17.75 15.3855C17.8543 15.2812 18.0235 15.2812 18.1279 15.3855C18.2324 15.4899 18.2323 15.659 18.1279 15.7635C18.0236 15.8679 17.3721 16.1414 17.3721 16.1414C17.3721 16.1414 17.6456 15.49 17.75 15.3855Z" fill="#FFE15A"/>
<path d="M24.175 15.7637C24.0706 15.6593 24.0706 15.4901 24.175 15.3857C24.2793 15.2812 24.4485 15.2813 24.5529 15.3857C24.6574 15.4901 24.9309 16.1415 24.9309 16.1415C24.9309 16.1415 24.2793 15.8679 24.175 15.7637Z" fill="#FFE15A"/>
<path d="M18.128 8.96077C18.2324 9.06515 18.2324 9.23429 18.128 9.33874C18.0236 9.44319 17.8545 9.44311 17.75 9.33874C17.6456 9.23437 17.3721 8.58289 17.3721 8.58289C17.3721 8.58289 18.0236 8.85648 18.128 8.96077Z" fill="#FFE15A"/>
<path d="M19.6602 8.06271C19.7167 8.19912 19.6519 8.35537 19.5155 8.41185C19.3791 8.46834 19.2229 8.40357 19.1664 8.26717C19.1099 8.13076 19.1064 7.42419 19.1064 7.42419C19.1064 7.42419 19.6037 7.92631 19.6602 8.06271Z" fill="#FFE15A"/>
<path d="M22.6435 16.6618C22.587 16.5254 22.6517 16.3691 22.7881 16.3126C22.9245 16.2562 23.0808 16.3209 23.1373 16.4573C23.1938 16.5937 23.1972 17.3003 23.1972 17.3003C23.1972 17.3003 22.6999 16.7982 22.6435 16.6618Z" fill="#FFE15A"/>
<path d="M25.4506 10.8704C25.3142 10.9269 25.158 10.8621 25.1015 10.7257C25.045 10.5893 25.1097 10.4331 25.2462 10.3766C25.3826 10.3201 26.089 10.3167 26.089 10.3167C26.089 10.3167 25.587 10.8138 25.4506 10.8704Z" fill="#FFE15A"/>
<path d="M16.8524 13.8538C16.9888 13.7973 17.145 13.8621 17.2015 13.9985C17.258 14.1349 17.1932 14.2911 17.0568 14.3476C16.9204 14.4041 16.2139 14.4076 16.2139 14.4076C16.2139 14.4076 16.716 13.9104 16.8524 13.8538Z" fill="#FFE15A"/>
<path d="M23.1372 8.26708C23.0808 8.40349 22.9244 8.46818 22.7881 8.41177C22.6517 8.35529 22.587 8.19896 22.6434 8.06263C22.6999 7.9263 23.1971 7.42419 23.1971 7.42419C23.1971 7.42419 23.1937 8.13075 23.1372 8.26708Z" fill="#FFE15A"/>
<path d="M19.1663 16.4573C19.2228 16.3209 19.3791 16.2562 19.5154 16.3126C19.6518 16.3691 19.7165 16.5254 19.6601 16.6618C19.6036 16.7982 19.1064 17.3002 19.1064 17.3002C19.1064 17.3002 19.1098 16.5937 19.1663 16.4573Z" fill="#FFE15A"/>
<path d="M25.2471 14.3476C25.1107 14.2911 25.046 14.1348 25.1024 13.9984C25.1589 13.862 25.3152 13.7973 25.4515 13.8538C25.5879 13.9102 26.09 14.4074 26.09 14.4074C26.09 14.4074 25.3833 14.4041 25.2471 14.3476Z" fill="#FFE15A"/>
<path d="M17.0568 10.3767C17.1932 10.4332 17.2578 10.5896 17.2014 10.7259C17.145 10.8622 16.9886 10.927 16.8523 10.8706C16.716 10.8141 16.2139 10.3169 16.2139 10.3169C16.2139 10.3169 16.9205 10.3202 17.0568 10.3767Z" fill="#FFE15A"/>
<path d="M20.5273 7.85433C20.5561 7.99909 20.4622 8.1398 20.3173 8.16855C20.1725 8.19737 20.0318 8.10339 20.0031 7.95855C19.9742 7.81378 20.1088 7.12012 20.1088 7.12012C20.1088 7.12012 20.4985 7.70956 20.5273 7.85433Z" fill="#FFE15A"/>
<path d="M21.7757 16.87C21.7469 16.7252 21.8409 16.5845 21.9857 16.5557C22.1305 16.5269 22.2712 16.6209 22.2999 16.7657C22.3287 16.9105 22.1942 17.6042 22.1942 17.6042C22.1942 17.6042 21.8045 17.0147 21.7757 16.87Z" fill="#FFE15A"/>
<path d="M25.6593 11.738C25.5145 11.7668 25.3738 11.6728 25.345 11.528C25.3162 11.3831 25.4102 11.2425 25.555 11.2138C25.6998 11.1849 26.3935 11.3195 26.3935 11.3195C26.3935 11.3195 25.804 11.7092 25.6593 11.738Z" fill="#FFE15A"/>
<path d="M16.6434 12.9865C16.7882 12.9577 16.9289 13.0517 16.9576 13.1965C16.9864 13.3414 16.8925 13.482 16.7476 13.5107C16.6029 13.5396 15.9092 13.405 15.9092 13.405C15.9092 13.405 16.4986 13.0153 16.6434 12.9865Z" fill="#FFE15A"/>
<path d="M23.8977 8.73337C23.8157 8.8561 23.6497 8.88907 23.527 8.80704C23.4042 8.72501 23.3713 8.55907 23.4533 8.43634C23.5353 8.3136 24.1209 7.91821 24.1209 7.91821C24.1209 7.91821 23.9796 8.61055 23.8977 8.73337Z" fill="#FFE15A"/>
<path d="M18.4048 15.9911C18.4868 15.8684 18.6528 15.8354 18.7755 15.9174C18.8983 15.9994 18.9313 16.1654 18.8492 16.2881C18.7673 16.4108 18.1816 16.8062 18.1816 16.8062C18.1816 16.8062 18.3229 16.1139 18.4048 15.9911Z" fill="#FFE15A"/>
<path d="M24.7799 15.1086C24.6572 15.0267 24.6242 14.8607 24.7062 14.7379C24.7883 14.6152 24.9542 14.5822 25.0769 14.6642C25.1997 14.7462 25.5951 15.3318 25.5951 15.3318C25.5951 15.3318 24.9026 15.1906 24.7799 15.1086Z" fill="#FFE15A"/>
<path d="M17.5232 9.61602C17.6459 9.69798 17.6789 9.86399 17.5968 9.98673C17.5149 10.1095 17.3489 10.1424 17.2261 10.0604C17.1034 9.97837 16.708 9.39282 16.708 9.39282C16.708 9.39282 17.4005 9.53407 17.5232 9.61602Z" fill="#FFE15A"/>
<path d="M18.8492 8.43626C18.9312 8.55899 18.8982 8.72493 18.7755 8.80696C18.6529 8.88899 18.4869 8.85594 18.4048 8.73329C18.3229 8.61055 18.1816 7.91821 18.1816 7.91821C18.1816 7.91821 18.7673 8.3136 18.8492 8.43626Z" fill="#FFE15A"/>
<path d="M23.4533 16.2882C23.3713 16.1655 23.4043 15.9995 23.5269 15.9175C23.6496 15.8355 23.8156 15.8685 23.8976 15.9912C23.9796 16.1139 24.1208 16.8062 24.1208 16.8062C24.1208 16.8062 23.5353 16.4108 23.4533 16.2882Z" fill="#FFE15A"/>
<path d="M25.0779 10.0604C24.9551 10.1424 24.7892 10.1094 24.7072 9.98673C24.6252 9.86399 24.6582 9.69806 24.7808 9.61602C24.9036 9.53407 25.5959 9.39282 25.5959 9.39282C25.5959 9.39282 25.2006 9.97845 25.0779 10.0604Z" fill="#FFE15A"/>
<path d="M17.2251 14.6639C17.3478 14.582 17.5138 14.615 17.5958 14.7376C17.6777 14.8604 17.6448 15.0263 17.5221 15.1083C17.3994 15.1903 16.707 15.3315 16.707 15.3315C16.707 15.3315 17.1023 14.7459 17.2251 14.6639Z" fill="#FFE15A"/>
<path d="M22.2999 7.95855C22.2711 8.10332 22.1305 8.19738 21.9857 8.16855C21.8409 8.13972 21.7469 7.9991 21.7757 7.85433C21.8045 7.70957 22.1942 7.12012 22.1942 7.12012C22.1942 7.12012 22.3287 7.81379 22.2999 7.95855Z" fill="#FFE15A"/>
<path d="M20.0031 16.7659C20.0319 16.6211 20.1725 16.527 20.3173 16.5559C20.4621 16.5847 20.5561 16.7253 20.5273 16.8701C20.4985 17.0148 20.1088 17.6043 20.1088 17.6043C20.1088 17.6043 19.9743 16.9106 20.0031 16.7659Z" fill="#FFE15A"/>
<path d="M25.555 13.5106C25.4103 13.4818 25.3162 13.3412 25.345 13.1964C25.3739 13.0516 25.5145 12.9576 25.6593 12.9864C25.804 13.0152 26.3935 13.4049 26.3935 13.4049C26.3935 13.4049 25.6998 13.5394 25.555 13.5106Z" fill="#FFE15A"/>
<path d="M16.7476 11.2137C16.8924 11.2426 16.9864 11.3832 16.9576 11.528C16.9288 11.6727 16.7882 11.7668 16.6434 11.738C16.4986 11.7091 15.9092 11.3195 15.9092 11.3195C15.9092 11.3195 16.6028 11.185 16.7476 11.2137Z" fill="#FFE15A"/>
<path d="M29.5325 13.2998C29.4281 13.2559 29.3088 13.3062 29.2653 13.4099C29.2653 13.4104 29.2653 13.4104 29.2653 13.4104C29.2645 13.4124 29.2605 13.422 29.2535 13.4384C29.0991 13.7992 28.7795 14.3264 28.4569 14.8224C28.7574 13.855 29.0322 12.8217 29.0513 12.7491C29.08 12.6406 29.0158 12.5292 28.9074 12.4997C28.7989 12.4706 28.6874 12.5337 28.657 12.6417C28.5167 13.1442 28.2299 13.8056 27.9653 14.3654C28.0138 13.7412 28.023 13.1629 28.0236 13.121C28.0252 13.0105 27.9386 12.9191 27.8281 12.9138C27.7241 12.917 27.6238 12.9929 27.6156 13.1034C27.3539 16.7024 23.8907 18.3124 23.5535 18.4605C23.3771 18.4781 22.5553 18.5707 21.8095 18.8297C21.7249 18.8591 21.6529 18.8885 21.5812 18.9177C21.5546 18.9077 21.526 18.9021 21.4959 18.9039C19.2067 19.0695 17.3814 18.1305 16.0695 16.1186C15.0783 14.5984 14.7675 13.0028 14.7644 12.9869C14.7435 12.8759 14.6372 12.8045 14.5258 12.8241C14.4149 12.8452 14.342 12.9517 14.363 13.0627C14.3713 13.1067 14.5077 13.8032 14.8833 14.7199C14.3807 13.9265 14.0305 12.9654 13.9072 12.4649C13.9047 12.4549 13.8983 12.4473 13.8946 12.4381C13.8888 12.4239 13.884 12.4097 13.8754 12.3974C13.8694 12.3888 13.8615 12.3824 13.8544 12.3749C13.8432 12.3631 13.8325 12.3515 13.8189 12.3427C13.8111 12.3376 13.8023 12.3351 13.7938 12.3311C13.7787 12.3241 13.764 12.3171 13.7472 12.3139C13.7355 12.3117 13.7236 12.3131 13.7115 12.3129C13.6993 12.3127 13.6877 12.3096 13.6751 12.3118C13.6724 12.3123 13.6703 12.3142 13.6675 12.3148C13.6649 12.3153 13.6624 12.3145 13.6597 12.315C13.6488 12.3177 13.6404 12.3245 13.6304 12.3288C13.6177 12.3344 13.6047 12.3385 13.5935 12.3463C13.5825 12.3538 13.5743 12.3637 13.5651 12.3731C13.556 12.3825 13.5465 12.3908 13.5393 12.4017C13.532 12.4127 13.5281 12.4251 13.5229 12.4374C13.518 12.4493 13.5123 12.4606 13.5097 12.4735C13.5071 12.4867 13.5083 12.5002 13.5083 12.5141C13.5083 12.5251 13.5053 12.5356 13.5072 12.5469C13.508 12.5517 13.5096 12.5566 13.5104 12.5613V12.562C13.5107 12.5629 13.511 12.5641 13.5112 12.565C13.6376 13.3098 13.9389 14.0818 14.2113 14.6706C13.7787 14.1797 13.4172 13.6142 13.2891 13.2792C13.2854 13.2695 13.278 13.2627 13.273 13.2539C13.2654 13.2404 13.2588 13.2266 13.2486 13.2154C13.2413 13.2074 13.2325 13.2023 13.2242 13.1956C13.2118 13.1856 13.2 13.1756 13.1856 13.1687C13.1764 13.1643 13.1664 13.1629 13.1566 13.1599C13.1415 13.1553 13.1269 13.1503 13.1109 13.1493C13.0983 13.1484 13.0858 13.1517 13.0731 13.1533C13.0613 13.1548 13.0497 13.1533 13.0379 13.157C13.0357 13.1577 13.0341 13.1595 13.032 13.1602C13.0298 13.1609 13.0276 13.1605 13.0254 13.1613C13.0143 13.1656 13.0065 13.1738 12.9965 13.1796C12.9849 13.1865 12.9725 13.1922 12.9625 13.2011C12.9524 13.2102 12.9454 13.2216 12.9374 13.2324C12.9298 13.2427 12.9214 13.2518 12.9158 13.2632C12.9099 13.2752 12.9077 13.2881 12.9043 13.301C12.901 13.3136 12.8965 13.3253 12.8957 13.3385C12.8947 13.3517 12.898 13.3649 12.8997 13.3783C12.9012 13.3899 12.8997 13.4013 12.9033 13.4127C13.1256 14.1299 13.6603 14.9832 14.0792 15.5843C13.7301 15.3153 13.4736 15.0244 13.3991 14.9366C13.3911 14.927 13.3832 14.9174 13.3751 14.9079C13.3031 14.8213 13.1758 14.8089 13.0886 14.8795C13.0016 14.9506 12.9879 15.0784 13.0583 15.1656C13.0621 15.1705 13.0774 15.1896 13.103 15.2195C13.4096 15.5843 13.7436 15.9247 14.0461 16.2121L13.6322 16.0357C13.5379 15.995 13.4269 16.0317 13.3753 16.1215C13.3236 16.2113 13.3469 16.325 13.4297 16.3873C13.47 16.4172 14.203 16.9648 14.8375 17.2884C14.7777 17.292 14.7075 17.2877 14.6289 17.2816C14.5329 17.2724 14.4386 17.3411 14.4152 17.4384C14.3922 17.5362 14.4433 17.636 14.5361 17.6743C14.5518 17.6807 14.7451 17.7605 14.9839 17.8455C14.9282 17.8682 14.8839 17.9149 14.8655 17.9755C14.838 18.0662 14.8767 18.1644 14.9589 18.2114C14.9803 18.2238 15.2691 18.3895 15.6265 18.5363C15.617 18.551 15.6092 18.567 15.6033 18.5845C15.5754 18.6703 15.6073 18.7645 15.6818 18.816C15.7438 18.8587 17.1317 19.8005 18.7526 19.8005C18.859 19.8005 18.9665 19.7966 19.0746 19.7878C19.187 19.779 19.271 19.6805 19.2621 19.5679C19.2531 19.4553 19.1555 19.3703 19.042 19.3807C18.0237 19.4637 17.0427 19.0814 16.4593 18.7892C16.5363 18.7704 16.5806 18.7533 16.5916 18.7489C16.6816 18.7122 16.7335 18.6176 16.7159 18.5222C16.6983 18.4269 16.6161 18.357 16.5189 18.3549C16.2821 18.3501 15.954 18.2348 15.6714 18.111C15.7782 18.0576 15.8405 18.0064 15.846 18.002C15.9075 17.9505 15.9334 17.8684 15.9125 17.7909C15.8914 17.7139 15.827 17.656 15.7481 17.6433C15.6613 17.6289 15.5531 17.6009 15.4398 17.5666C15.55 17.5032 15.5968 17.4334 15.6148 17.3978C15.6432 17.3412 15.6438 17.2748 15.6166 17.2178C15.5893 17.1608 15.5372 17.1196 15.4753 17.1064C15.4218 17.0948 15.3613 17.0753 15.2959 17.0498C15.3079 17.0378 15.3189 17.0242 15.3278 17.0087C15.3798 16.9205 15.3583 16.8071 15.2775 16.7437C15.2733 16.7405 15.1147 16.616 14.8746 16.4088C14.9127 16.3948 14.9464 16.3689 14.9707 16.3338C15.0222 16.2596 15.0187 16.1602 14.9622 16.0899C14.9576 16.0843 14.7988 15.8846 14.5799 15.5813C14.6522 15.6374 14.7243 15.6948 14.7965 15.7412C14.8305 15.7627 14.869 15.7735 14.9071 15.7735C14.9588 15.7735 15.0098 15.754 15.0491 15.716C15.0653 15.7004 15.0779 15.6824 15.0879 15.6633C15.2119 15.7957 15.3422 15.9159 15.4789 16.0185C15.4968 16.0319 15.5184 16.0316 15.5384 16.0384C15.5964 16.1356 15.6567 16.2329 15.72 16.3302C16.9608 18.2395 18.7104 19.2621 20.8089 19.3235C20.6157 19.4409 20.4059 19.5621 20.0738 19.6915C20.0013 19.7198 19.9372 19.748 19.8728 19.7764C19.8418 19.7825 19.8126 19.7937 19.7883 19.813C19.2086 20.0814 18.9686 20.3466 18.8713 20.532C18.7741 20.7164 18.8579 20.9055 18.9766 21.0037C19.0135 21.0341 19.0604 21.0496 19.1075 21.0496C19.1398 21.0496 19.1721 21.0424 19.2014 21.0276C19.2737 20.9917 19.322 20.9155 19.3188 20.8353C19.3271 20.8262 19.3627 20.7966 19.474 20.793C19.5552 20.7862 19.726 20.8045 19.9254 20.8205C20.1151 20.8361 20.3426 20.8538 20.5845 20.8662C20.4332 21.0427 20.2573 21.2471 20.2573 21.2471C20.2045 21.3086 20.1928 21.3955 20.228 21.4686C20.2633 21.542 20.3394 21.5876 20.4192 21.5847C20.5807 21.5791 20.6903 21.5759 20.7624 21.5744C20.8252 21.6566 20.9023 21.6893 20.952 21.702C21.0925 21.738 21.2326 21.6817 21.3381 21.6151C21.4179 21.6726 21.4978 21.6969 21.561 21.7061C21.7037 21.7256 21.8358 21.6841 21.9314 21.637C22.0303 21.7009 22.1273 21.7173 22.2012 21.7173C22.2022 21.7173 22.2034 21.7173 22.2046 21.7173C22.364 21.7165 22.5035 21.6394 22.6022 21.564C22.6895 21.6159 22.7728 21.6326 22.8373 21.6355C22.9836 21.6406 23.1049 21.5844 23.1855 21.5316C23.4735 21.5894 23.7217 21.4538 23.8857 21.3041C23.9606 21.3476 24.0317 21.3584 24.0885 21.3556C24.2343 21.3505 24.3454 21.2618 24.4167 21.1824C24.7432 21.2219 24.9775 21.1616 25.1129 21.0009C25.1867 20.9134 25.2167 20.8149 25.2249 20.7251C26.1306 20.7199 26.2126 20.2254 26.2192 20.1643C26.2252 20.1087 26.2083 20.0534 26.1722 20.0107C26.1363 19.968 26.0842 19.9416 26.0285 19.9384L23.6539 19.7956C23.5545 19.7884 23.4658 19.8551 23.4428 19.9521C23.4423 19.9537 23.4018 20.1045 23.2752 20.2252C23.1047 20.3879 22.8303 20.4738 22.5317 20.5194C22.5328 20.492 22.529 20.4642 22.5185 20.437C22.4778 20.3317 22.3593 20.2805 22.2543 20.3202C21.7641 20.5104 20.9703 20.4865 20.3494 20.4433C20.4446 20.3655 20.5593 20.2884 20.651 20.238C20.7284 20.1954 20.77 20.108 20.7535 20.021C20.7417 19.9578 20.696 19.9138 20.6408 19.8855C20.8135 19.7984 20.955 19.7141 21.0893 19.6323C21.3225 19.4895 21.5427 19.3548 21.9438 19.2156C22.718 18.9466 23.614 18.8648 23.623 18.864C23.6433 18.8623 23.6633 18.8572 23.6822 18.8496C23.7141 18.8364 26.2414 17.7777 27.4321 15.3347C27.4165 15.4085 27.3998 15.476 27.3816 15.535C27.3505 15.6356 27.4007 15.743 27.4977 15.7836C27.5727 15.8152 27.6579 15.7988 27.7156 15.7453C27.6404 15.9437 27.5724 16.0997 27.5168 16.1919C27.4602 16.2857 27.4875 16.4074 27.5787 16.4681C27.6001 16.482 27.623 16.4916 27.6465 16.4972C27.5543 16.6321 27.4609 16.7598 27.3677 16.8767C27.3056 16.9545 27.3092 17.0655 27.3741 17.139C27.2141 17.3066 27.0722 17.4447 26.9644 17.5325C26.894 17.5895 26.871 17.6849 26.9034 17.7664C26.7994 17.8259 26.714 17.8678 26.6548 17.8857C26.5554 17.9156 26.4944 18.0158 26.5131 18.118C26.5229 18.1719 26.5532 18.2173 26.5951 18.2473C26.4702 18.2808 26.3335 18.3131 26.185 18.3426C26.1014 18.3593 26.0369 18.426 26.0232 18.5102C26.0097 18.5944 26.0496 18.6782 26.1235 18.7205C26.1299 18.7241 26.1997 18.7636 26.3066 18.8091C25.9113 18.9683 25.2055 19.1762 24.0473 19.2904C23.9351 19.3016 23.8529 19.4018 23.8641 19.5139C23.875 19.6261 23.9721 19.7039 24.0876 19.6975C26.2862 19.48 26.9651 18.9297 26.9928 18.9061C27.0563 18.853 27.0814 18.7664 27.0563 18.6874C27.0395 18.6352 27.0028 18.5929 26.9556 18.5684C27.6581 18.3473 27.9596 18.1027 27.9754 18.0895C28.0524 18.0256 28.0718 17.9152 28.0211 17.8285C27.97 17.7419 27.8637 17.7044 27.7709 17.7419C27.7448 17.7519 27.7031 17.7622 27.6503 17.7726C28.1217 17.4498 28.6221 17.0653 28.8422 16.8938C28.8809 16.8651 28.916 16.8374 28.947 16.8115C29.0324 16.7397 29.0444 16.6127 28.9738 16.5262C28.9038 16.44 28.7763 16.4256 28.6888 16.4946C28.657 16.5198 28.6238 16.5457 28.5895 16.5724C28.4879 16.6479 28.358 16.7333 28.2163 16.821C28.7513 16.2136 29.2899 15.5551 29.4437 15.3659C29.4577 15.3488 29.4714 15.3316 29.4854 15.3145C29.556 15.2266 29.5423 15.0981 29.4545 15.0275C29.3664 14.9557 29.2377 14.9705 29.1673 15.0578L29.1668 15.0583L29.1667 15.0588C29.1628 15.0631 29.1456 15.0847 29.1164 15.1206C28.9552 15.3174 28.7856 15.5078 28.6181 15.6857C29.1631 14.698 29.5758 13.7257 29.6363 13.5817C29.6384 13.5765 29.6405 13.5713 29.6427 13.566C29.6859 13.4627 29.6367 13.3429 29.5325 13.2998ZM19.9552 20.1878L20.011 20.1951C19.9425 20.2591 19.8868 20.3308 19.8426 20.4048C19.7456 20.397 19.6575 20.3902 19.5885 20.3871C19.6836 20.325 19.806 20.2576 19.9552 20.1878Z" fill="#FFE15A"/>
</svg>
