<svg width="12" height="16" viewBox="0 0 12 16" fill="none" xmlns="http://www.w3.org/2000/svg">
<path d="M5.99967 0C2.80452 0 0.205078 2.59944 0.205078 5.79456C0.205078 9.75981 5.39067 15.581 5.61145 15.8269C5.81883 16.0579 6.18089 16.0575 6.38789 15.8269C6.60867 15.581 11.7943 9.75981 11.7943 5.79456C11.7942 2.59944 9.1948 0 5.99967 0ZM5.99967 14.679C4.25445 12.606 1.24858 8.516 1.24858 5.79462C1.24858 3.17481 3.37989 1.0435 5.99967 1.0435C8.61945 1.0435 10.7508 3.17481 10.7508 5.79459C10.7507 8.51609 7.74533 12.6053 5.99967 14.679Z" fill="url(#paint0_linear)"/>
<path d="M5.99936 2.87939C4.3918 2.87939 3.08398 4.18724 3.08398 5.7948C3.08398 7.40236 4.39183 8.71021 5.99936 8.71021C7.60689 8.71021 8.9147 7.40236 8.9147 5.7948C8.9147 4.18724 7.60689 2.87939 5.99936 2.87939ZM5.99936 7.66671C4.96717 7.66671 4.12748 6.82699 4.12748 5.7948C4.12748 4.76261 4.9672 3.92289 5.99936 3.92289C7.03151 3.92289 7.87123 4.76261 7.87123 5.7948C7.87123 6.82699 7.03151 7.66671 5.99936 7.66671Z" fill="url(#paint1_linear)"/>
<defs>
<linearGradient id="paint0_linear" x1="0.205078" y1="7.99999" x2="11.7943" y2="7.99999" gradientUnits="userSpaceOnUse">
<stop stop-color="#0066B2"/>
<stop offset="1" stop-color="#50D168"/>
</linearGradient>
<linearGradient id="paint1_linear" x1="3.08398" y1="5.7948" x2="8.9147" y2="5.7948" gradientUnits="userSpaceOnUse">
<stop stop-color="#0066B2"/>
<stop offset="1" stop-color="#50D168"/>
</linearGradient>
</defs>
</svg>
