<svg width="53" height="53" viewBox="0 0 53 53" fill="none" xmlns="http://www.w3.org/2000/svg">
<path d="M44.8939 5.08504C44.8939 5.08504 37.7441 4.62655 36.0398 5.25176C34.3355 5.83529 33.6704 6.33546 32.8391 7.29411C32.0077 8.25277 30.5528 10.7536 28.7654 14.6716C27.5599 17.2558 26.5622 21.0904 26.0634 23.5079C25.5646 21.0904 24.567 17.2141 23.3615 14.6716C21.5325 10.7536 20.1191 8.25277 19.2878 7.29411C18.4564 6.33546 17.7913 5.87697 16.087 5.25176C14.3411 4.66823 7.23291 5.08504 7.23291 5.08504L0 0L5.07135 7.21075C5.07135 7.21075 4.6141 14.3798 5.23763 16.0887C5.86115 17.7976 6.3184 18.5062 7.27448 19.2981C8.23055 20.1317 10.7247 21.5906 14.6321 23.3828C17.2093 24.5499 21.0336 25.5502 23.4862 26.0921C21.0752 26.5923 17.2093 27.5926 14.6321 28.8013C10.7247 30.6353 8.23055 32.0524 7.27448 32.886C6.3184 33.7196 5.86115 34.3865 5.23763 36.0954C4.65567 37.846 5.07135 44.9734 5.07135 44.9734L0 52.1842L7.19135 47.0991C7.19135 47.0991 14.3411 47.5576 16.0454 46.9324C17.7497 46.3072 18.4564 45.8487 19.2462 44.8901C20.0776 43.9314 21.5325 41.4306 23.3199 37.5126C24.4838 34.9284 25.4815 31.0938 26.0218 28.6346C26.5207 31.0521 27.5183 34.9284 28.7238 37.5126C30.5112 41.4306 31.9661 43.9314 32.7975 44.8901C33.6289 45.8487 34.294 46.3072 35.9983 46.9324C37.7026 47.5159 44.8523 47.0991 44.8523 47.0991L52.0437 52.1842L46.9723 45.0151C46.9723 45.0151 47.4296 37.846 46.8061 36.1371C46.2241 34.4282 45.7253 33.7613 44.7692 32.9277C43.8131 32.0941 41.319 30.6353 37.4116 28.843C34.8344 27.6343 31.0101 26.6339 28.5575 26.1338C30.9685 25.6336 34.8344 24.6333 37.4116 23.4245C41.319 21.6323 43.8131 20.1734 44.7692 19.3398C45.7253 18.5062 46.1825 17.8393 46.8061 16.1304C47.388 14.4215 46.9723 7.25243 46.9723 7.25243L52.0437 0.0416832L44.8939 5.08504Z" fill="#0066B2"/>
<path d="M19.6614 17.0056L25.6472 25.5084L25.3978 25.7585L16.9179 19.7565L13.8418 13.9212L19.6614 17.0056Z" fill="white"/>
<path d="M16.9594 32.5108L25.4394 26.5088L25.6888 26.7588L19.7029 35.2617L13.8834 38.3461L16.9594 32.5108Z" fill="white"/>
<path d="M32.4229 35.1783L26.437 26.6755L26.6449 26.4671L35.1664 32.4274L38.2425 38.2627L32.4229 35.1783Z" fill="white"/>
<path d="M35.1248 19.7148L26.6449 25.7168L26.3955 25.4667L32.3813 16.9639L38.2009 13.8795L35.1248 19.7148Z" fill="white"/>
</svg>
