<svg width="22" height="20" viewBox="0 0 22 20" fill="none" xmlns="http://www.w3.org/2000/svg">
<g clip-path="url(#clip0)">
<rect width="22" height="20" fill="url(#paint0_linear)"/>
<path fill-rule="evenodd" clip-rule="evenodd" d="M2.14691 0H8.07837C9.26097 0 10.2255 0.980282 10.2255 2.18216V3.57934V7.30516V8.86761C10.2255 12.3531 9.47532 15.0648 7.99337 16.9164C6.49665 18.7906 4.23493 19.8272 1.27474 19.9962H1.24887C1.13801 19.9962 1.03453 19.9512 0.953225 19.8761C0.868226 19.7972 0.820183 19.6808 0.820183 19.5606V15.2188C0.820183 14.9934 0.990181 14.8019 1.21192 14.7831C3.61037 14.5615 4.82993 12.8676 4.92601 9.60376H2.14691C0.964312 9.60376 -0.000244141 8.62723 -0.000244141 7.4216V2.18216C-0.000244141 0.980282 0.964312 0 2.14691 0ZM9.36814 7.30516V3.57934V2.18216C9.36814 1.45728 8.78793 0.871362 8.07837 0.871362H2.1506C1.43735 0.871362 0.860834 1.46103 0.860834 2.18216V7.4216C0.860834 8.14648 1.44105 8.73239 2.1506 8.73239H5.36579C5.60231 8.73239 5.79448 8.9277 5.79448 9.16808C5.79448 11.1399 5.42122 12.6873 4.68949 13.7653C3.99841 14.7793 2.98951 15.3991 1.68126 15.6056V19.0911C6.85143 18.6216 9.36814 15.2714 9.36814 8.86761V7.30516ZM13.9212 0H19.849C21.0353 0 21.9998 0.980282 21.9998 2.18216V8.86761C21.9998 12.3531 21.2496 15.0648 19.7677 16.9164C18.2709 18.7906 16.0092 19.8272 13.049 19.9962H13.0232C12.9123 19.9962 12.8088 19.9512 12.7275 19.8761C12.6425 19.7972 12.5945 19.6808 12.5945 19.5606V15.2188C12.5945 14.9934 12.7645 14.8019 12.9862 14.7831C15.3847 14.5615 16.6042 12.8676 16.7003 9.60376H13.9212C12.7386 9.60376 11.774 8.62723 11.774 7.4216V2.18216C11.774 0.980282 12.7349 0 13.9212 0ZM13.4518 19.0948C18.622 18.6254 21.1387 15.2751 21.1387 8.87136L21.1424 2.18216C21.1424 1.48732 20.6103 0.920188 19.9377 0.875117L19.0766 0.871362H13.9212C13.2079 0.871362 12.6314 1.46103 12.6314 2.18216V7.42535C12.6314 8.15024 13.2116 8.73615 13.9212 8.73615H17.1364C17.3729 8.73615 17.5651 8.93146 17.5651 9.17183C17.5651 11.1437 17.1918 12.6911 16.4601 13.769C15.769 14.7831 14.7601 15.4028 13.4518 15.6094V19.0948Z" fill="url(#paint1_linear)"/>
</g>
<defs>
<linearGradient id="paint0_linear" x1="11" y1="0" x2="11" y2="20" gradientUnits="userSpaceOnUse">
<stop stop-color="white"/>
<stop offset="1" stop-color="white" stop-opacity="0"/>
</linearGradient>
<linearGradient id="paint1_linear" x1="-0.000244141" y1="9.99812" x2="21.9998" y2="9.99812" gradientUnits="userSpaceOnUse">
<stop stop-color="#0066B2"/>
<stop offset="1" stop-color="#50D168"/>
</linearGradient>
<clipPath id="clip0">
<rect width="22" height="20" fill="white"/>
</clipPath>
</defs>
</svg>
