<svg width="48" height="48" viewBox="0 0 48 48" fill="none" xmlns="http://www.w3.org/2000/svg">
<path d="M33.8075 29.3315C33.3896 28.9572 32.7474 28.9937 32.3751 29.4106C30.2588 31.7754 27.2072 33.1308 24.0004 33.1308C20.7946 33.1308 17.742 31.7754 15.6258 29.4106C15.2514 28.9937 14.6113 28.9572 14.1933 29.3315C13.7753 29.7048 13.7408 30.346 14.1142 30.764C16.6149 33.5579 20.2184 35.1598 24.0004 35.1598C27.7835 35.1598 31.3869 33.5569 33.8867 30.764C34.26 30.346 34.2245 29.7048 33.8075 29.3315Z" fill="url(#paint0_linear)"/>
<path d="M23.9993 0.666504C11.1336 0.666504 0.666016 11.134 0.666016 23.9998C0.666016 36.8656 11.1336 47.3332 23.9993 47.3332C36.8651 47.3332 47.3327 36.8656 47.3327 23.9998C47.3327 11.134 36.8651 0.666504 23.9993 0.666504ZM23.9993 45.3042C12.2515 45.3042 2.695 35.7477 2.695 23.9998C2.695 12.252 12.2515 2.69549 23.9993 2.69549C35.7472 2.69549 45.3037 12.252 45.3037 23.9998C45.3037 35.7477 35.7472 45.3042 23.9993 45.3042Z" fill="url(#paint1_linear)"/>
<path d="M32.1154 16.8989C29.3185 16.8989 27.043 19.1744 27.043 21.9714C27.043 22.5314 27.4975 22.9859 28.0575 22.9859C28.6175 22.9859 29.072 22.5314 29.072 21.9714C29.072 20.2934 30.4375 18.9279 32.1154 18.9279C33.7934 18.9279 35.1589 20.2934 35.1589 21.9714C35.1589 22.5314 35.6134 22.9859 36.1734 22.9859C36.7334 22.9859 37.1879 22.5314 37.1879 21.9714C37.1879 19.1744 34.9124 16.8989 32.1154 16.8989Z" fill="url(#paint2_linear)"/>
<path d="M18.9265 21.9714C18.9265 22.5314 19.381 22.9859 19.941 22.9859C20.501 22.9859 20.9555 22.5314 20.9555 21.9714C20.9555 19.1744 18.68 16.8989 15.883 16.8989C13.0861 16.8989 10.8105 19.1744 10.8105 21.9714C10.8105 22.5314 11.265 22.9859 11.825 22.9859C12.385 22.9859 12.8395 22.5314 12.8395 21.9714C12.8395 20.2934 14.205 18.9279 15.883 18.9279C17.561 18.9279 18.9265 20.2934 18.9265 21.9714Z" fill="url(#paint3_linear)"/>
<defs>
<linearGradient id="paint0_linear" x1="13.8555" y1="32.1163" x2="34.145" y2="32.1163" gradientUnits="userSpaceOnUse">
<stop stop-color="#0066B2"/>
<stop offset="1" stop-color="#50D168"/>
</linearGradient>
<linearGradient id="paint1_linear" x1="0.666016" y1="23.9998" x2="47.3327" y2="23.9998" gradientUnits="userSpaceOnUse">
<stop stop-color="#0066B2"/>
<stop offset="1" stop-color="#50D168"/>
</linearGradient>
<linearGradient id="paint2_linear" x1="27.043" y1="19.9424" x2="37.1879" y2="19.9424" gradientUnits="userSpaceOnUse">
<stop stop-color="#0066B2"/>
<stop offset="1" stop-color="#50D168"/>
</linearGradient>
<linearGradient id="paint3_linear" x1="10.8105" y1="19.9424" x2="20.9555" y2="19.9424" gradientUnits="userSpaceOnUse">
<stop stop-color="#0066B2"/>
<stop offset="1" stop-color="#50D168"/>
</linearGradient>
</defs>
</svg>
