<svg width="32" height="32" viewBox="0 0 32 32" fill="none" xmlns="http://www.w3.org/2000/svg">
<path d="M16 0C7.15294 0 0 7.15294 0 16C0 24.8471 7.15294 32 16 32C24.8471 32 32 24.8471 32 16C32 7.15294 24.8471 0 16 0ZM22.0235 25.7882C19.7647 25.7882 17.6941 24.4706 16.7529 22.4L12.4235 21.6471C11.4824 22.4 10.5412 22.7765 9.41177 22.7765C6.77647 22.7765 4.51765 20.5176 4.51765 17.8824C4.51765 15.2471 6.77647 12.9882 9.41177 12.9882H9.6L12.8 9.6V9.41177C12.8 6.77647 14.8706 4.70588 17.5059 4.70588C20.1412 4.70588 22.2118 6.77647 22.2118 9.41177C22.2118 12.0471 20.1412 14.1176 17.5059 14.1176L15.8118 15.8118L17.8824 16.1882C19.0118 15.0588 20.5177 14.4941 22.0235 14.4941C25.2235 14.4941 27.8588 17.1294 27.8588 20.3294C27.8588 23.5294 25.0353 25.7882 22.0235 25.7882Z" fill="#50D168"/>
<path d="M22.0232 16.5646C20.8938 16.5646 19.9526 17.1293 19.1997 17.8823C19.0114 18.2587 18.4467 18.447 18.0702 18.2587L13.1761 17.5058C12.7997 17.5058 12.4232 17.1293 12.2349 16.7528C12.0467 16.3764 12.2349 15.8117 12.4232 15.6234L15.8114 11.8587C15.9997 11.6705 16.3761 11.4822 16.7526 11.4822C16.9408 11.4822 16.9408 11.4822 17.1291 11.4822C18.4467 11.4822 19.5761 10.3528 19.5761 9.03519C19.5761 7.71755 18.4467 6.58813 17.1291 6.58813C15.8114 6.58813 14.8702 7.90578 14.8702 9.22342C14.8702 9.41166 14.8702 9.5999 14.8702 9.5999C14.8702 9.97637 14.8703 10.3528 14.4938 10.5411L10.5408 14.8705C10.3526 15.0587 9.97612 15.247 9.59965 15.247C9.41142 15.247 9.22319 15.247 9.22319 15.247C7.71731 15.247 6.58789 16.3764 6.58789 17.8823C6.58789 19.3881 7.71731 20.5175 9.22319 20.5175C9.97613 20.5175 10.5408 20.1411 11.1055 19.7646C11.2938 19.5764 11.6702 19.3881 11.8585 19.3881H12.0467L17.6938 20.3293C18.0702 20.3293 18.4467 20.7058 18.635 21.0823C19.0114 22.5881 20.3291 23.5293 21.8349 23.5293C23.7173 23.5293 25.2232 22.0234 25.2232 20.1411C25.4114 18.0705 23.9055 16.5646 22.0232 16.5646Z" fill="#50D168"/>
</svg>
