<svg width="151" height="129" viewBox="0 0 151 129" fill="none" xmlns="http://www.w3.org/2000/svg">
<path d="M3.59351 117.357C3.33898 117.357 3.08445 117.229 2.89355 116.974C2.70265 116.654 2.25722 116.016 5.37522 113.78C6.20244 113.205 7.41146 112.503 8.68411 111.736C10.5931 110.65 13.1384 109.117 13.5202 108.415C16.9563 102.092 20.3925 94.2991 23.765 86.7622C25.2922 83.3131 26.7557 80.0557 28.1556 76.9898C28.9829 75.2014 30.5737 73.7962 32.419 73.1575C37.1278 71.5607 42.473 69.9 47.0545 70.4748L48.5817 70.6664L41.773 76.0956L39.7368 77.9479H39.5459C39.355 77.9479 39.1641 78.0117 38.9095 78.0117C38.2096 78.0756 37.3187 78.2034 36.5551 78.2672C34.9643 78.395 31.91 78.6505 31.6554 79.2253C30.1283 82.4828 27.6466 87.401 25.1649 92.0636L25.1013 92.1914C21.6651 96.0237 19.8834 99.4089 19.8198 102.283V102.411L19.7562 102.539C19.1198 103.816 18.4199 105.094 17.8472 106.371C17.7199 106.626 17.5927 106.818 17.529 107.074C16.8927 108.415 16.1927 109.756 15.2383 110.523C13.0111 112.183 8.68411 114.738 5.37522 116.591C4.86616 116.974 4.1662 117.357 3.59351 117.357ZM18.6108 101.453C17.3381 104.135 16.0018 106.754 14.7292 109.117C14.6019 109.373 14.3474 109.628 14.0292 109.948C14.1565 109.82 14.2838 109.756 14.411 109.692C15.111 109.181 15.7473 107.84 16.32 106.754C16.4473 106.499 16.5745 106.243 16.7018 106.052C17.2745 104.838 17.9108 103.624 18.5471 102.347C18.5471 101.964 18.5471 101.708 18.6108 101.453ZM45.0819 71.7523C41.2003 71.7523 36.8097 73.1575 32.8645 74.4988C31.3373 75.0098 30.0646 76.1595 29.3647 77.6285C27.9648 80.6305 26.5012 83.888 24.974 87.3371C23.9559 89.5726 23.0014 91.8081 21.9833 94.0437C22.6196 93.2133 23.3196 92.383 24.0832 91.4888C26.5012 86.8261 28.9829 82.0357 30.4464 78.7782C30.9555 77.6285 33.0554 77.373 36.4279 77.1175C37.2551 77.0537 38.0823 76.9898 38.7823 76.862C38.9095 76.862 39.1004 76.7982 39.2277 76.7982L45.2728 71.6884C45.2092 71.7523 45.1455 71.7523 45.0819 71.7523Z" fill="#50D168"/>
<path d="M48.6452 102.347C48.518 102.347 48.3907 102.347 48.2635 102.347C47.5635 102.219 46.9908 101.772 46.4817 101.006C44.4455 97.9398 45.7182 90.6584 48.1998 86.379C42.6002 87.7203 34.6461 87.1454 33.0553 85.1015C32.6735 84.6544 32.6099 84.0796 32.8644 83.5686L32.928 83.5047C39.2276 76.7343 45.7818 71.3051 53.5449 66.4509L54.2449 66.0038L53.9904 67.0896L53.9267 67.1534C52.3996 68.4309 50.6179 69.7722 48.7089 71.2413C43.1092 75.5846 36.1733 80.9498 36.5551 83.0576C36.6823 83.6963 37.1278 84.2073 38.0186 84.5905C40.9457 85.9319 47.5635 85.2293 49.4088 84.0796C50.5542 83.377 51.8269 82.5466 53.3541 81.5247L69.3894 58.5307L69.8985 58.9139L57.2356 78.9059C58.381 78.1395 59.5264 77.373 60.6718 76.5427C63.7261 74.4349 66.9078 72.3271 69.7712 70.4748C71.9984 66.4509 72.4438 62.363 73.0165 57.1894L73.1438 55.7842L73.3347 55.7203C75.4982 55.0816 76.9617 55.0177 78.4253 55.1455H78.5525L78.807 55.2732L78.8707 55.401C80.4615 61.8521 83.1977 65.0457 86.8884 67.7922L87.2702 68.1754L86.8884 68.4948C86.5702 69.1335 86.2521 69.7083 85.9339 70.3471C85.8066 70.6664 85.6157 70.9219 85.4885 71.2413L85.4248 71.369L85.2339 71.4329H85.1067C81.7341 70.6025 77.5344 70.0277 70.2167 71.5606L69.2622 72.1993C65.5715 74.6904 61.4354 77.5007 57.7447 80.1195L80.5251 75.6484L80.6524 76.2872L54.4994 82.6105C52.7814 83.9518 51.4451 85.1015 50.3633 86.0596C48.0726 88.2313 45.7818 97.365 47.8817 100.111C48.6452 101.133 50.0452 101.006 51.9541 99.7921L52.3359 100.303L51.9541 100.559C50.936 101.453 49.7906 102.347 48.6452 102.347ZM49.727 85.2293L49.2179 85.9319C46.609 89.8919 45.0182 97.5566 47.0544 100.559C47.4999 101.197 47.9453 101.517 48.4543 101.644C48.8361 101.708 49.2179 101.644 49.5997 101.453C48.518 101.517 47.8817 101.07 47.4362 100.559C45.0818 97.5566 47.4999 87.9758 49.9815 85.6125C50.9996 84.5905 52.4632 83.4409 54.1813 82.0995L54.3085 82.0357L65.826 79.2892L55.1358 81.3969L56.2811 80.5666C56.9811 80.0556 57.7447 79.4808 58.5083 78.9698C57.8083 79.4808 57.1084 79.9279 56.4084 80.375L55.1358 81.2053L62.0081 70.3471L53.6722 82.0357C52.0814 83.0576 50.8088 83.888 49.6634 84.5905C47.6271 85.8041 40.8184 86.5706 37.7005 85.1015C36.6187 84.5905 36.046 83.9518 35.9187 83.0576C35.7278 81.9718 36.8096 80.4389 38.5913 78.6504C36.8732 80.2472 35.1552 81.9718 33.5007 83.7602C33.3734 84.0796 33.3734 84.3351 33.628 84.5905C35.0915 86.379 43.2365 87.0816 48.8998 85.4209L49.727 85.2293ZM47.8817 70.9858C45.9091 72.4548 43.9364 73.9878 42.0911 75.5846C43.8092 74.1155 45.8454 72.5826 47.8817 70.9858ZM73.7801 56.3591L73.6528 57.3171C73.0801 62.363 72.6347 66.7063 70.2803 70.9219V70.9858C77.4708 69.5167 81.6705 70.0277 85.1067 70.858C85.2339 70.6025 85.3612 70.4109 85.4248 70.1554C85.743 69.5806 85.9975 68.9419 86.3793 68.3031C82.6886 65.5566 79.8888 62.363 78.298 55.912C77.2162 55.7203 75.88 55.7203 73.7801 56.3591Z" fill="#50D168"/>
<path d="M95.9878 60.2552C95.4151 60.2552 94.906 59.9997 94.6515 59.6804C94.0788 59.0416 94.0152 58.0836 94.5243 57.3171C94.8424 56.87 95.2878 56.6145 95.6696 56.4229C96.1151 56.1674 96.5605 55.9758 96.8787 55.4009L97.1332 55.0177L97.3877 55.3371C98.2149 56.2951 98.5331 57.3171 98.3422 58.2113C98.2149 58.9778 97.7059 59.5526 97.0059 59.9359C96.6241 60.1913 96.306 60.2552 95.9878 60.2552ZM97.1332 56.1035C96.7514 56.5506 96.306 56.8061 95.9242 56.9977C95.5424 57.1894 95.2242 57.381 95.0333 57.7003C94.6515 58.2752 94.7788 58.9139 95.0969 59.2333C95.4787 59.6804 96.1151 59.7442 96.7514 59.4249C97.2605 59.1694 97.6422 58.7223 97.7059 58.1474C97.8331 57.5087 97.6422 56.8061 97.1332 56.1035Z" fill="#50D168"/>
<path d="M89.0519 52.335L88.9246 52.1434C88.6064 51.5047 88.7337 50.8021 89.1155 50.0995C89.4973 49.4608 90.1972 49.0137 90.9608 48.9498C91.9153 48.8859 92.8698 49.2692 93.697 50.1634L94.1424 50.6105L93.5061 50.6744C92.6153 50.7382 91.6608 51.2492 90.4518 52.1434L90.3881 52.2073H90.2609C89.8791 52.2073 89.5609 52.2073 89.3064 52.2712L89.0519 52.335ZM91.2154 49.5885C91.1517 49.5885 91.0881 49.5885 91.0245 49.5885C90.4518 49.6524 90.0063 49.9718 89.6882 50.4189C89.4336 50.866 89.3064 51.2492 89.4336 51.6324C89.6882 51.6324 89.8791 51.6324 90.1972 51.6324C91.2154 50.9299 92.0426 50.4189 92.8698 50.2273C92.2971 49.844 91.7244 49.5885 91.2154 49.5885Z" fill="#50D168"/>
<path d="M89.4337 64.918L89.2428 64.8541C84.7885 62.874 83.6431 58.5307 83.1977 54.9539L83.134 54.5707H83.5158C83.9613 54.5707 84.0885 54.5068 84.4703 54.4429L85.1066 54.2513L85.2339 55.0178C85.6157 57.1894 86.0611 59.6166 88.161 61.5966C88.7973 62.2353 89.4336 62.2992 89.6882 62.1715C89.7518 62.1715 89.7518 62.1076 89.8154 62.1076C89.8154 62.0437 89.7518 61.8521 89.2428 61.5327C87.2065 60.3192 85.2975 55.8481 85.4884 54.6345C85.5521 54.2513 85.8066 54.1236 85.9339 54.1236L86.1884 54.0597L86.252 54.3152C86.7611 55.8481 87.7156 58.7224 90.5154 60.0637C91.4699 60.5108 92.3607 59.8721 93.2516 59.2333C93.3789 59.1056 93.5061 59.0417 93.697 58.914L94.397 58.4669L94.2061 59.2972C93.9516 60.383 93.1243 61.7243 90.8336 62.2353C90.7063 63.1295 90.4518 64.0237 89.4973 64.7902L89.4337 64.918ZM83.8976 55.2094C84.343 58.4669 85.4248 62.3631 89.3064 64.1515C89.8154 63.7044 90.0063 63.1934 90.1972 62.6186C90.1336 62.6824 90.07 62.6824 90.0063 62.7463C89.4973 62.9379 88.6064 62.8102 87.7792 62.0437C85.5521 59.9359 85.043 57.381 84.6612 55.1455V55.0817C84.3431 55.1455 84.1522 55.1455 83.8976 55.2094ZM86.8247 57.1256C87.461 58.5946 88.4792 60.3192 89.6245 60.9579C90.07 61.2134 90.3245 61.4689 90.4518 61.7243H90.579C91.8517 61.4689 92.7425 60.9579 93.2516 60.1914C92.4244 60.7663 91.4063 61.2134 90.3245 60.7024C88.6064 59.7443 87.5247 58.403 86.8247 57.1256Z" fill="#50D168"/>
<path d="M87.2702 67.0895C86.0612 67.0895 84.7885 66.387 83.5795 64.9818C81.0979 62.1075 79.3798 57.0616 79.6979 55.5926V55.4648L79.7616 55.4009C80.907 54.5067 81.5433 54.3151 82.9432 54.5706L83.7068 54.6983L83.0068 55.2093C83.5159 59.6804 85.4249 62.9379 88.6065 64.9818L88.7338 65.0456V65.1734C88.7974 65.7482 88.7338 66.2592 88.4792 66.5786C88.2883 66.8341 87.9065 67.0257 87.4611 67.0895C87.5248 67.0895 87.3975 67.0895 87.2702 67.0895ZM80.3343 55.848C80.1434 57.1255 81.7342 61.852 84.0886 64.5347C85.2976 65.876 86.443 66.5147 87.5884 66.387C87.8429 66.387 88.0338 66.2592 88.1611 66.1315C88.2883 66.0037 88.352 65.7482 88.2883 65.365C84.9795 63.1933 83.0068 59.7442 82.4978 55.0816C81.6069 55.0816 81.1615 55.2093 80.3343 55.848Z" fill="#50D168"/>
<path d="M29.3647 112.247C26.0558 112.247 22.8742 111.034 20.2016 107.904C18.6744 106.179 18.0381 104.135 18.229 101.772C18.8653 95.321 26.1194 88.3589 32.2281 83.5685C32.2918 83.4408 32.2918 83.313 32.3554 83.1853C32.419 83.1214 32.419 83.0576 32.4827 82.9937C45.0819 69.5805 56.7903 63.1294 71.9348 55.5925C71.9984 55.5925 71.9984 55.5287 72.0621 55.5287C75.6891 54.3151 77.4708 54.4428 79.2525 54.6344C79.3798 54.6344 79.5707 54.6344 79.698 54.6983C81.2888 53.9957 82.6251 53.7402 83.7068 53.9319L85.4249 53.4848C86.8884 51.3131 88.5429 50.9937 89.9428 50.9937C91.3427 49.9718 93.3153 48.886 95.2243 49.7163H95.2879C96.7515 49.6524 98.7241 49.5247 99.4877 50.866C100.188 52.1434 99.1695 53.8041 98.2787 55.0177C98.2787 55.2732 98.2787 55.5925 98.0878 55.9758C98.0241 56.1035 97.8969 56.2313 97.7696 56.359C97.2605 56.9977 96.6878 57.2532 96.2424 57.5087C95.8606 57.7003 95.6697 57.8281 95.5425 57.9558C95.4152 58.0835 95.4152 58.2752 95.4152 58.4668C95.4788 58.7861 95.3516 59.1055 95.097 59.2971C94.9698 59.4249 94.8425 59.4887 94.7789 59.6165C94.3334 61.2772 92.9335 62.1075 91.47 62.6185C91.3427 63.3211 90.9609 64.0875 90.5155 64.6624C90.261 66.3869 88.9883 67.6005 87.5248 68.8779C87.2066 69.4528 86.9521 70.0276 86.6339 70.6025C85.6158 72.7103 84.5977 74.6903 82.2433 77.2452C75.88 83.9518 59.9083 95.8959 53.1632 100.622C52.7814 100.878 52.3996 101.133 52.1451 101.389C51.8906 101.58 51.6997 101.708 51.5088 101.9C50.8088 102.411 50.2998 102.602 49.9816 102.794C49.5998 102.986 49.2816 102.986 48.8998 102.986C43.1729 107.393 35.9188 112.247 29.3647 112.247ZM33.0554 85.357C25.1013 91.6164 20.5198 97.5565 20.0743 102.028C19.8834 103.816 20.3925 105.349 21.5379 106.69C28.6647 114.866 39.9277 107.521 47.8181 101.325C48.009 101.197 48.1999 101.133 48.3908 101.133C48.8362 101.133 48.8998 101.133 49.0907 101.07C49.3453 100.942 49.7271 100.814 50.2998 100.367C50.4907 100.239 50.6816 100.111 50.8725 99.9198C51.1906 99.6643 51.5088 99.4088 51.9542 99.0895C60.2264 93.2771 75.0528 81.9717 80.7161 75.9677C82.8796 73.6684 83.7705 71.8799 84.7886 69.836C85.1067 69.1973 85.4249 68.5586 85.7431 67.9199C85.8067 67.7921 85.8703 67.7282 85.9976 67.6644C87.8429 66.1314 88.4792 65.3011 88.5429 64.343C88.5429 64.0875 88.6702 63.832 88.861 63.6404C89.1792 63.3849 89.561 62.4268 89.561 62.0436C89.561 61.6604 89.8155 61.2772 90.261 61.1494C92.0427 60.5746 92.7426 60.0636 92.9335 59.1055C92.9972 58.9139 93.0608 58.6584 93.2517 58.5306C93.3153 58.4668 93.4426 58.4029 93.5062 58.2752C93.5699 57.8281 93.6971 57.4448 93.9516 57.0616C94.3334 56.4229 94.9061 56.1674 95.3516 55.9119C95.797 55.7203 96.1152 55.5287 96.3697 55.1454V55.0816C96.3697 54.9538 96.3697 54.8261 96.3697 54.6983C96.3697 54.5067 96.4333 54.379 96.5606 54.2512C97.9605 52.4628 97.7696 51.8879 97.7696 51.8879C97.5151 51.5686 95.9243 51.6963 95.4152 51.7602H95.097C94.9061 51.7602 94.7789 51.7602 94.588 51.6325C94.0153 51.3131 93.0608 51.1215 90.8337 52.7822C90.6428 52.9099 90.4519 52.9738 90.1973 52.9738C88.9247 52.9099 87.9066 53.2293 86.8884 54.8899C86.7612 55.0816 86.5703 55.2732 86.3158 55.337L83.9613 55.9119C83.8341 55.9758 83.6432 55.9758 83.5159 55.9119C82.7523 55.7203 81.6706 55.9758 80.2707 56.6145C80.1434 56.6784 79.9525 56.7422 79.7616 56.6784C79.5071 56.6784 79.2525 56.6145 79.0616 56.6145C77.4708 56.4229 75.9437 56.2951 72.762 57.381C57.872 64.854 46.2909 71.1135 34.0098 84.2072C34.0098 84.2711 34.0098 84.335 34.0098 84.3989C34.0098 84.846 33.6917 85.2292 33.2463 85.357C33.2463 85.357 33.119 85.357 33.0554 85.357Z" fill="#50D168"/>
<path d="M40.3094 107.968L40.1821 107.904C33.8825 105.413 33.7553 101.07 34.6461 97.0456C30.3191 97.3649 27.2648 95.3849 25.2921 91.0416L25.2285 90.9777L25.2921 90.7222L25.3558 90.6584C27.4557 88.4867 30.0009 86.1873 32.928 83.8879L33.5007 83.4408L33.4371 84.1434V84.2073V84.2711V84.335V84.3989C33.628 84.846 34.2643 85.2292 35.2824 85.5486L35.6642 85.6763V85.9957L35.7279 85.6763L36.6824 85.9318C37.2551 86.0596 37.955 86.1234 38.5913 86.2512L41.7093 86.3789L47.3726 85.8041L47.4999 86.1234L47.4362 85.8041L47.6908 85.7402L47.8817 86.0596L47.818 85.7402L48.518 85.5486C48.6453 85.5486 48.7089 85.4847 48.8362 85.4847L49.6634 85.2292L49.1543 85.9318C46.5454 89.8919 44.9546 97.5566 46.9908 100.559L47.6908 101.325L47.818 101.453L47.7544 101.772L47.8817 101.517L47.818 101.836L47.9453 101.517L48.0089 101.581L47.9453 101.9L48.0726 101.581V101.836L48.1362 101.644V101.772C48.1362 101.772 48.1362 101.772 48.1998 101.772V101.644V101.772L48.2635 101.836V101.644L48.3271 101.9V101.644L49.0907 101.708L48.518 102.219C45.2727 104.71 42.7274 106.499 40.3094 107.904V107.968ZM35.4097 96.343L35.2824 96.7901C34.328 100.814 34.328 104.902 40.2458 107.265C42.4729 105.988 44.8273 104.327 47.7544 102.091L47.2454 101.772L46.8636 101.389C46.7999 101.325 46.7999 101.325 46.7999 101.261L46.5454 100.878C44.5092 97.7482 45.7818 90.4667 48.3271 86.1873L48.1998 85.9318L48.2635 86.2512L44.2546 86.8899L41.5184 87.0176L38.655 86.8899C37.955 86.826 37.2551 86.6983 36.6824 86.5705L35.2188 86.1873C34.0098 85.8041 33.2462 85.2931 32.9917 84.6544C30.3191 86.7622 27.9647 88.8699 25.9921 90.9138C27.9011 95.0655 30.8918 96.854 35.0915 96.343H35.4097Z" fill="#50D168"/>
<path d="M41.6457 108.351L39.673 107.201C35.8551 104.966 34.137 101.453 34.5824 96.854C31.7826 96.4708 26.9465 95.5766 26.4375 90.2752L26.2466 88.6784L27.0102 90.0836C27.9647 91.8081 29.2373 92.894 30.8918 93.2133C33.9461 93.9159 38.0822 92.383 43.6819 88.4868C40.4366 88.4229 38.1459 88.1036 35.9824 87.5287L36.1096 86.89C39.2276 87.2093 42.5365 87.401 45.909 86.8261C46.2272 86.5706 46.609 86.3151 46.9272 86.0596L46.9908 85.9958L47.818 85.6125C48.1362 85.5487 48.518 85.4209 48.8361 85.357L49.6633 85.1016L49.1543 85.8042C48.8998 86.1874 48.6452 86.6345 48.3907 87.0816L48.3271 87.1455L47.5635 87.8481C45.8454 91.4888 45.3363 95.5127 45.9727 100.175L45.3363 100.303C44.0637 96.4708 43.8728 93.2133 44.8273 90.3391C40.1185 94.8101 37.955 98.1954 37.8277 101.261C37.7641 103.177 38.464 104.902 40.0548 106.563L41.6457 108.351ZM27.4556 91.8081C28.5374 95.0656 31.9099 95.8321 35.0279 96.2792L35.346 96.3431L35.2824 96.6624C34.837 100.431 35.8551 103.305 38.3368 105.477C37.5732 104.199 37.1914 102.858 37.255 101.453C37.3823 98.0037 39.9276 94.1714 45.4636 89.1255L46.609 88.1036L45.9727 89.5087C44.9545 91.7443 44.7 94.1075 45.1454 96.854C45.1454 93.5966 45.7181 90.6584 46.9908 87.9119V87.8481L47.118 87.6564L47.9453 86.9539C48.0725 86.7622 48.1998 86.5067 48.2634 86.3151C48.1998 86.3151 48.1362 86.379 48.0725 86.379L47.3726 86.6984C47.0544 86.9539 46.6726 87.2093 46.3545 87.4648L46.2908 87.5287H46.2272C45.1454 87.7203 44.1273 87.8481 43.1092 87.8481C43.6819 87.8481 44.191 87.8481 44.8273 87.8481H45.7818L44.9545 88.4229C38.8458 92.8301 34.2643 94.5546 30.8918 93.7882C29.4918 93.5966 28.3465 92.894 27.4556 91.8081Z" fill="#50D168"/>
<path d="M34.2643 108.99C33.4371 108.99 32.7371 108.67 32.2281 107.712C31.3372 105.988 33.1189 104.135 34.0734 103.113L34.4552 102.666L34.5825 103.241C35.0279 104.966 35.9188 106.307 37.4459 107.457L37.8914 107.776L37.4459 108.032C36.5551 108.415 35.3461 108.99 34.2643 108.99ZM34.2007 103.944C33.1826 105.094 32.2917 106.371 32.8644 107.393C33.5644 108.798 35.0915 108.351 36.746 107.585C35.4733 106.563 34.6461 105.413 34.2007 103.944Z" fill="#50D168"/>
<path d="M25.3558 98.0676C24.7194 98.0676 24.1467 97.8121 23.6377 97.1734C22.5559 95.7682 23.5741 93.9159 24.5922 92.3191L24.9103 91.8081L25.1649 92.3191C25.9285 93.9798 27.0102 95.0656 28.7283 95.8959L29.1737 96.1514L28.7283 96.4708C27.8374 97.1095 26.5648 98.0676 25.3558 98.0676ZM24.7831 93.0855C23.9558 94.4269 23.3195 95.7682 24.0831 96.7263C25.0376 98.0037 26.4375 97.3011 27.9647 96.2153C26.5648 95.4488 25.5467 94.4269 24.7831 93.0855Z" fill="#50D168"/>
<path d="M27.8375 105.413C27.1375 105.413 26.6284 105.221 26.2466 104.838C25.9285 104.519 25.8649 104.008 25.9921 103.369C26.3103 101.581 28.2829 98.4508 30.1282 97.4927L30.1919 97.4289H30.2555C31.5281 97.5566 32.8644 97.6205 33.8825 97.3011L34.4552 97.1095L34.2643 97.6843C33.8189 99.0257 33.8189 100.048 33.8189 101.261V101.772L33.7553 101.836C32.8008 103.497 30.2555 105.03 28.2193 105.285C28.092 105.413 27.9647 105.413 27.8375 105.413ZM30.2555 98.0676C28.6647 98.9618 26.8193 101.836 26.5648 103.433C26.5012 103.88 26.5012 104.199 26.6921 104.327C27.0739 104.71 27.7102 104.774 28.2193 104.71C30.001 104.519 32.2917 103.113 33.1826 101.644V101.261C33.1826 100.175 33.1826 99.2173 33.5008 98.0037C32.4826 98.2592 31.3372 98.1953 30.2555 98.0676Z" fill="#50D168"/>
<path d="M26.3739 125.916C26.183 125.916 25.9921 125.852 25.8648 125.724C25.5467 125.469 25.2921 124.894 25.7376 124.127C27.0102 122.02 28.4101 119.912 29.7464 117.868L30.7645 116.271C31.8463 114.61 31.9736 114.483 33.628 113.78C33.8189 113.716 34.0734 113.589 34.328 113.461C44.6364 108.862 52.6541 105.413 60.29 102.347C60.5446 101.133 60.8627 99.9199 61.1809 98.7063C61.7536 96.4069 62.3263 94.2992 62.1354 92.3191L62.0717 91.9359L62.3899 91.7443C64.108 90.403 65.826 89.1255 67.4169 87.8481L68.6895 86.9539L68.6259 88.2952C68.3714 93.4049 66.6533 98.4508 63.4717 103.752L63.408 103.816C62.6444 104.838 58.5719 106.435 50.8088 109.373C44.891 111.608 38.2095 114.163 33.5644 116.463C32.8644 117.421 32.2281 118.443 31.5281 119.401C30.1282 121.445 28.7283 123.553 27.1375 125.533C26.9466 125.788 26.6921 125.916 26.3739 125.916ZM63.4717 92.5746C63.5989 94.6824 63.0262 96.7902 62.4535 99.0896C62.1354 100.367 61.7536 101.644 61.5627 102.922L61.499 103.305L61.1809 103.433C56.2812 105.413 51.1906 107.521 45.4636 110.012C47.1181 109.373 48.8362 108.734 50.427 108.096C55.7085 106.115 61.7536 103.816 62.4535 102.986C65.1897 98.387 66.7805 94.0437 67.2896 89.6365C66.017 90.5946 64.7443 91.6165 63.4717 92.5746Z" fill="#50D168"/>
<path d="M61.8808 103.497C61.8172 103.497 61.8172 103.497 61.7536 103.497C61.499 103.433 61.3081 103.241 61.2445 102.922V102.858V102.794C61.2445 101.772 61.6263 100.239 62.0717 98.6425C62.6444 96.5347 63.2807 94.1075 63.0898 92.4468V92.2552L63.2171 92.1275C64.1716 91.4249 65.2534 90.7223 66.2715 89.8281L66.7805 89.381V90.0836C66.7169 94.2991 65.4443 98.387 62.7717 102.858C62.5808 103.177 62.2626 103.497 61.8808 103.497ZM61.8808 102.73C61.8808 102.794 61.8808 102.794 61.8808 102.794C61.9445 102.794 62.0717 102.666 62.199 102.475C64.617 98.387 65.8897 94.6185 66.0806 90.7862C65.2534 91.4249 64.4261 92.0636 63.6625 92.5746C63.7898 94.363 63.1535 96.7263 62.6444 98.8341C62.3263 100.367 61.9445 101.836 61.8808 102.73Z" fill="#50D168"/>
<path d="M23.3831 92.5107L22.8104 92.1913C24.4649 88.7422 25.8011 85.6125 27.2011 82.2912C28.0283 80.2473 28.9191 78.2034 29.8736 75.9678L29.9373 75.8401C32.228 73.86 40.1821 71.4329 43.0455 71.7523C43.6182 71.8161 44 72.0078 44.1909 72.2632L44.3818 72.5187L44.1909 72.7103C43.491 73.3491 42.7274 74.0517 41.9638 74.6904C41.2002 75.393 40.4366 76.0317 39.7367 76.6704L39.673 76.7343H39.6094C39.2276 76.7982 38.7822 76.862 38.2731 76.9259C36.555 77.2453 34.2006 77.6285 31.3372 77.5646C30.8917 78.0756 29.9373 79.9918 28.8555 82.1634C27.3283 85.4209 25.4194 89.3171 23.3831 92.5107ZM30.4463 76.2872C29.4918 78.4588 28.601 80.5028 27.7738 82.5467C27.2647 83.7602 26.7556 84.9738 26.2466 86.1874C27.0102 84.7183 27.7101 83.3131 28.3464 82.0357C29.81 79.0976 30.5736 77.5646 31.019 77.1814L31.0826 77.1175H31.2099C34.0734 77.1814 36.4278 76.7982 38.1459 76.4788C38.5913 76.4149 39.0367 76.3511 39.3549 76.2872C40.0548 75.6485 40.7548 75.0097 41.5184 74.371C42.1547 73.7962 42.791 73.2213 43.4273 72.6465C43.3001 72.5826 43.1728 72.5826 42.9819 72.5187C40.3094 72.0716 32.6735 74.4349 30.4463 76.2872Z" fill="#50D168"/>
<path d="M81.1615 103.305L80.716 103.241C80.8433 100.878 82.116 96.854 83.1341 93.6604C83.834 91.4249 84.6613 88.9339 84.534 88.5507C84.0249 87.7203 78.9343 84.399 75.8163 82.9299H75.7527L75.6891 82.8661C75.6254 82.8022 75.5618 82.6106 75.6891 82.3551C75.88 81.908 76.6436 81.2054 77.2799 81.0776H77.3435L77.4072 81.1415C80.2706 82.9299 85.1703 86.7623 85.6158 87.7203C86.0612 88.6145 85.2976 90.5946 84.1522 93.7243C83.1977 96.4069 81.9251 99.7922 81.1615 103.305ZM76.1345 82.5467C79.1889 84.0158 84.3431 87.3371 84.9158 88.2952C85.1703 88.7423 84.7885 90.1475 83.5795 93.7882C83.5159 94.1075 83.3886 94.363 83.2613 94.6824C83.3886 94.2992 83.5795 93.8521 83.7068 93.4688C84.6613 90.8501 85.5521 88.5507 85.234 87.8481C84.8522 87.0816 80.207 83.377 77.2799 81.5247C76.7708 81.7164 76.1981 82.2912 76.1345 82.5467Z" fill="#50D168"/>
<path d="M46.2908 65.3012C45.909 65.3012 45.5908 65.1734 45.2727 64.7902C42.6637 63.4489 40.0548 62.6186 37.764 61.9798C37.0641 61.7882 36.8095 61.2134 36.9368 60.8301C37.1277 60.1275 38.0822 59.8082 39.2276 60.1275C40.9456 60.5108 42.4092 61.2134 43.8727 61.916C44.5091 62.1714 45.0818 62.4908 45.7817 62.7463C46.0999 62.4269 46.5453 62.1714 46.9907 62.0437C50.1724 60.4469 53.2267 58.4669 56.0902 56.5507C58.0628 55.2733 60.1627 53.8681 62.2625 52.6545C63.0898 52.2074 64.0442 52.0796 64.8715 52.4629C65.635 52.7822 66.2077 53.3571 66.4623 54.1874C66.8441 55.3371 67.035 56.4868 67.2895 57.5727C67.4168 58.0836 67.4804 58.5307 67.6077 59.0417L67.7349 59.5527L67.2895 59.8082C66.1441 60.383 64.9987 60.9579 63.917 61.5966L63.0897 62.0437L62.9625 61.1495C62.8989 60.4469 62.8352 59.5527 62.8352 58.7224C62.8352 57.9559 62.8352 56.6784 62.708 56.1036C61.4353 56.8701 59.8445 57.8281 58.1264 58.7862C55.1993 60.5746 51.8268 62.5547 48.8361 64.2154C48.5815 64.3431 48.327 64.5347 48.0725 64.6625C47.5634 64.918 46.9271 65.3012 46.2908 65.3012ZM63.7897 53.4848C63.4715 53.4848 63.1534 53.5487 62.8989 53.7403C60.799 54.9539 58.7627 56.2952 56.7265 57.5727C53.7994 59.4888 50.745 61.4689 47.4362 63.1295C46.7362 63.4489 46.5453 63.6405 46.4817 63.7683L46.3544 64.0237C46.5453 63.9599 46.7998 63.8321 47.3725 63.5128C47.6271 63.385 47.8816 63.1934 48.1361 63.0657C51.1268 61.405 54.4357 59.4249 57.3628 57.6365C59.1445 56.5507 60.8626 55.5287 62.1989 54.7623C62.6443 54.5068 63.0261 54.6345 63.217 54.6984C63.917 55.0816 63.9806 56.2952 64.0442 58.5946C64.0442 59.0417 64.0442 59.4888 64.0442 59.9359C64.7442 59.5527 65.4442 59.2333 66.1441 58.8501C66.0805 58.5307 66.0168 58.2114 65.9532 57.8281C65.6987 56.6784 65.5078 55.5926 65.126 54.5068C64.9351 53.9319 64.5533 53.6765 64.2988 53.6126C64.2351 53.5487 63.9806 53.4848 63.7897 53.4848Z" fill="#50D168"/>
<path d="M64.3625 59.7443C64.108 59.7443 63.9807 59.5526 63.9171 59.4249C63.7898 58.7862 63.8534 58.2113 63.8534 57.6365C63.9171 56.8061 63.9807 55.9758 63.4717 54.9538C63.1535 54.3151 63.1535 53.6125 63.4717 53.2932C63.6625 53.1654 63.8534 53.1016 64.0443 53.2293C65.1897 53.868 66.1442 55.9119 66.2715 58.1475C66.3351 58.7862 64.9988 59.6165 64.4261 59.6804C64.4261 59.7443 64.4261 59.7443 64.3625 59.7443ZM63.8534 53.6764C63.7262 53.6764 63.5989 54.1874 63.9171 54.7622C64.4261 55.9119 64.3625 56.8061 64.3625 57.6365C64.2989 58.1475 64.2989 58.6584 64.3625 59.2333C64.5534 59.2333 65.0625 59.0417 65.4443 58.6584C65.7624 58.4029 65.826 58.2113 65.826 58.1475C65.6988 56.1674 64.8716 54.2513 63.8534 53.6764Z" fill="#50D168"/>
<path d="M78.7434 56.87L79.4434 55.3371C79.7615 54.6345 80.0797 53.9958 80.3979 53.2932C81.0978 51.8241 81.7341 50.355 82.3068 48.8221C83.0068 46.9059 83.834 45.4369 85.6793 44.7343H85.743C88.4792 44.0956 91.4063 43.2014 95.0333 41.9878L95.4788 43.2014C91.8517 44.4788 88.861 45.373 86.1248 46.0117C84.9794 46.4588 84.2794 47.3531 83.5795 49.3331C83.0068 50.866 82.3068 52.399 81.6069 53.868C81.5432 53.9958 81.4796 54.1235 81.416 54.3151C81.7978 54.2512 82.1159 54.1874 82.5614 54.2512C82.8795 54.1874 83.1977 54.1874 83.5158 54.2512C84.2794 52.4628 84.8521 50.4189 85.2976 47.7363V47.5447L85.4248 47.4169C85.9339 46.7782 86.5702 46.2034 88.4155 45.7562C89.4337 45.4369 90.5154 45.1175 91.5972 44.7982C92.7426 44.4788 93.9516 44.0956 95.097 43.7762L95.4788 44.9898C94.2697 45.373 93.1243 45.6924 91.9153 46.0756C90.8336 46.395 89.8155 46.7143 88.7337 47.0337C87.2702 47.4169 86.8247 47.8002 86.5066 48.1834C85.9975 51.0576 85.3612 53.2932 84.534 55.2732L84.4067 55.5926L83.7704 55.6564H83.7067C83.3886 55.5926 83.0704 55.5926 82.7523 55.5926H82.6886H82.625C81.925 55.5287 81.5432 55.5926 80.9069 56.1035L80.7796 56.1674C80.6524 56.2313 80.5887 56.2313 80.4615 56.2951L78.7434 56.87Z" fill="#50D168"/>
<path d="M97.0059 44.4149L96.6241 43.2013C98.0876 42.6904 99.3603 42.1794 100.506 41.6684C100.824 41.5407 101.015 41.349 101.078 41.2213C101.015 41.2213 100.951 41.2213 100.887 41.2852L100.633 41.3491C99.4239 41.7962 98.2149 42.2433 96.9423 42.6904L96.4968 41.4768C97.7058 41.0297 98.9785 40.5826 100.188 40.1355L100.442 40.0716C100.697 40.0077 100.951 39.9439 101.142 39.9439C103.115 37.9638 105.024 35.6644 106.742 33.5566C107.123 33.0457 107.696 33.1095 108.014 33.365C108.46 33.6844 108.523 34.3231 108.205 34.7702C106.424 37.1974 104.387 39.4968 102.351 41.4129C102.224 41.9878 101.778 42.4987 101.015 42.8181C99.8694 43.3291 98.5331 43.8401 97.0059 44.4149Z" fill="#50D168"/>
<path d="M82.0522 54.4428C81.7341 54.4428 81.4796 54.379 81.2887 54.379L80.9069 54.3151L81.6068 52.6544C83.6431 47.8001 84.2158 46.5866 84.9157 46.6504C85.1066 46.6504 85.2975 46.7782 85.4248 47.1614V47.2253V47.2892C85.2975 49.6524 85.2339 52.2712 83.5158 53.9957C83.134 54.3151 82.5613 54.4428 82.0522 54.4428ZM81.7977 53.7402C82.2431 53.8041 82.8158 53.7402 83.0067 53.4848C84.5339 51.9518 84.6612 49.6524 84.7248 47.353C84.2158 47.9917 83.134 50.5466 82.1159 52.846L81.7977 53.7402Z" fill="#50D168"/>
<path d="M84.7885 70.6664L85.4248 69.4528L85.8702 69.6444L85.4248 69.3889V69.3251L85.8066 69.4528L85.4884 69.2612L85.552 69.1973L85.8702 69.3251L85.552 69.1335L85.6157 69.0696L86.1884 69.2612L85.6793 69.0057L85.8066 68.7502L86.1247 68.9418L86.3793 69.0696L85.8066 68.7502L86.252 67.9199L86.3793 67.7921C87.5246 66.8341 88.161 66.1953 88.5428 65.5566L88.7337 65.2373H89.0518C90.4517 65.2373 93.1879 64.6624 95.5423 64.1514C97.7695 63.6405 99.933 63.1934 101.078 63.1934C104.133 61.9798 108.078 61.6604 111.896 61.4049C112.723 61.3411 113.55 61.2772 114.378 61.2133C115.077 61.1494 115.777 61.0217 116.477 60.894C119.086 60.5107 121.377 60.1275 122.65 60.6385C123.286 60.5107 123.859 60.383 124.495 60.3191C126.15 59.9997 127.804 59.6804 129.522 59.5526C130.222 59.4888 130.604 59.872 130.667 60.3191C130.731 60.7662 130.477 61.2133 129.777 61.3411C128.186 61.6604 126.849 61.852 125.513 62.0437C124.622 62.1714 123.732 62.2991 122.841 62.4908C122.204 62.874 120.677 63.0656 116.032 63.4488C115.332 63.5127 114.632 63.5766 114.059 63.6405C112.787 63.8959 111.514 64.2153 110.241 64.4708C106.996 65.2373 103.942 65.9399 101.715 66.0037C101.142 66.4508 99.6784 67.0896 95.8605 68.3031C91.5335 69.6444 88.2882 70.4109 85.8702 70.5386L84.7885 70.6664ZM86.3156 69.0696L86.6338 69.2612C86.6974 69.2612 86.6974 69.2612 86.7611 69.2612L86.3156 69.0696ZM86.4429 68.8141L87.0156 69.1335L86.952 69.2612C89.1155 69.0057 91.9789 68.3031 95.4787 67.2173C99.9966 65.8121 100.824 65.2373 100.951 65.1095L101.142 64.9179H101.46C103.624 64.9179 106.678 64.1514 109.987 63.385C110.75 63.1934 111.578 63.0017 112.341 62.874C112.214 62.874 112.087 62.874 111.96 62.874C108.205 63.1295 104.324 63.385 101.46 64.5985L101.333 64.6624H101.206C100.188 64.6624 97.9604 65.1095 95.7969 65.6205C93.3788 66.1315 90.9608 66.6424 89.37 66.7063C88.8609 67.4089 88.0973 68.1115 87.2065 68.878L87.0792 69.0696L86.5065 68.8141L87.0792 69.1335L86.4429 68.8141ZM86.6338 68.4309L86.8883 68.6225L86.8247 68.5586L86.6338 68.4309ZM120.614 61.7882C119.85 61.7882 118.959 61.9159 118.005 62.0437C118.895 61.9798 119.85 61.852 120.614 61.7882Z" fill="#50D168"/>
<path d="M85.8066 69.2613L86.952 68.6225C87.8429 68.1116 88.3519 67.6006 88.5428 67.0257V66.898L88.6065 66.8341C89.3701 66.2593 92.4881 65.6206 97.0696 64.7902C98.4059 64.5347 99.7422 64.2792 100.824 64.0237C105.151 62.7463 107.823 62.6186 110.432 62.5547H110.56L110.623 63.1934C108.587 63.5766 106.551 64.0237 104.578 64.4709C103.56 64.7263 102.542 64.918 101.524 65.1096L100.76 65.3651C98.1513 67.0257 92.3608 68.9419 87.0157 69.1974L85.8066 69.2613ZM89.1155 67.2812C88.9883 67.6645 88.6701 68.0477 88.2883 68.4309C93.188 67.9838 98.2786 66.2593 100.569 64.7263L100.76 64.6625C99.7422 64.8541 98.5331 65.1096 97.2605 65.3651C94.0152 66.0038 90.0064 66.7703 89.1155 67.2812ZM105.087 63.7044C104.196 63.896 103.178 64.0876 102.033 64.407C102.86 64.2154 103.687 64.0237 104.515 63.8321C104.705 63.7683 104.896 63.7044 105.087 63.7044Z" fill="#50D168"/>
<path d="M148.994 59.1694C145.367 58.4668 140.531 57.8919 134.995 57.2532C132.831 56.9977 130.54 56.7422 128.186 56.4229L127.104 56.2951C120.741 55.5287 114.187 54.6983 108.078 53.6125C107.314 53.4847 105.024 53.1015 104.069 53.5486C103.624 53.7402 103.178 53.9957 102.733 54.1873C101.142 54.9538 99.6785 55.7203 97.3241 56.2312L96.1151 56.4867L96.6242 55.337C96.6878 55.2732 96.6878 55.2093 96.6878 55.0177C96.6878 54.8899 96.6878 54.7622 96.6878 54.6344V54.4428L96.8151 54.3151C97.0696 53.9957 97.2605 53.7402 97.3878 53.4847L97.4514 53.357L97.5787 53.2931C98.7877 52.5905 101.142 51.2492 102.924 50.8021C104.069 50.4828 105.342 50.4189 107.187 50.6744C113.296 51.377 119.405 52.335 124.241 53.1015C127.677 53.6125 130.668 54.1235 132.704 54.3151C141.294 55.2732 145.303 56.4867 149.312 57.9558L148.994 59.1694ZM105.405 52.0157C106.296 52.0157 107.314 52.1434 108.269 52.335C114.378 53.4209 120.868 54.1873 127.231 55.0177L128.313 55.1454C130.668 55.4648 132.958 55.7203 135.122 55.9758C136.14 56.1035 137.158 56.2313 138.176 56.359C136.585 56.1035 134.74 55.848 132.577 55.5925C130.54 55.337 127.486 54.8899 124.05 54.379C119.214 53.6125 113.105 52.6544 107.06 52.0157C105.405 51.8241 104.196 51.8879 103.306 52.1434C102.16 52.4628 100.378 53.2931 98.4059 54.4428C98.3422 54.5706 98.2786 54.6983 98.1514 54.8261C99.8058 54.379 100.951 53.7402 102.224 53.1654C102.669 52.9738 103.115 52.7183 103.56 52.5267C104.069 52.1434 104.705 52.0157 105.405 52.0157Z" fill="#50D168"/>
<path d="M95.0969 51.3771L94.5878 51.1855C94.2697 51.0577 93.9515 50.9939 93.5697 51.0577L93.5061 50.419L93.0607 50.8661L92.7425 50.5468L92.8698 50.0997L93.0607 49.5887C93.7606 47.9919 94.4606 46.3312 94.5878 44.5428C94.7151 41.924 94.3969 37.964 94.1424 34.451C93.8879 31.1935 93.7606 29.0857 93.8879 28.1915L93.697 26.9141C92.2971 18.6746 90.8972 10.1157 90.0699 3.79235L91.3426 3.53687C92.8061 8.966 94.0788 15.5448 95.4151 22.5708C95.7332 24.3592 96.115 26.1476 96.4332 27.936V27.9999C96.5605 29.9161 96.6877 31.8322 96.815 33.7484C97.0695 37.5168 97.3877 41.4131 97.4513 45.2454C97.5149 47.4809 96.3696 49.4609 95.4151 50.93L95.0969 51.3771ZM94.3969 49.8442C94.4606 49.8442 94.4606 49.8442 94.5242 49.8442C95.2878 48.5667 96.115 46.9699 96.115 45.2454C96.0514 41.4131 95.7969 37.5807 95.4787 33.8123C95.3514 32.0238 95.2242 30.2993 95.0969 28.5109C95.0333 29.469 95.2242 31.8322 95.4151 34.3232C95.6696 37.9001 95.9878 41.924 95.8605 44.6067C95.7969 46.5228 95.0969 48.2474 94.3969 49.8442Z" fill="#50D168"/>
<path d="M82.0523 118.187C81.2887 118.187 80.9706 117.229 80.5251 116.016C80.4615 115.824 80.3979 115.569 80.2706 115.377C79.8888 114.483 78.9343 111.161 78.5525 109.884C78.1707 109.565 77.8526 108.99 78.1707 107.84C79.0616 103.624 80.5251 98.4508 81.9887 94.0436C82.3068 93.1494 82.5614 92.319 82.8159 91.6165C83.1977 90.6584 83.5159 89.6364 83.5795 89.1893C80.8433 86.9538 77.7889 85.1015 74.3528 83.4408L73.4619 82.9937L74.2255 82.355C75.3073 81.4608 76.2617 80.6304 77.1526 79.8001L77.5344 79.4169L77.9798 79.8001C79.1252 80.7582 80.3342 81.7163 81.4796 82.7382C82.8159 83.8241 84.2158 84.9737 85.4885 86.0596C86.5702 87.0177 86.8884 88.359 86.3793 89.7642C85.3612 92.5107 84.4703 95.2572 83.5159 98.1314L82.8795 100.111C82.4977 101.197 82.1796 102.73 81.8614 104.199C81.3523 106.435 80.9069 108.351 80.3342 109.373C80.716 110.842 81.9887 114.61 82.4341 115.888L82.4977 116.079C82.7523 116.782 82.9432 117.421 82.6886 117.868C82.5614 118.06 82.3068 118.187 82.0523 118.251C82.1159 118.187 82.1159 118.187 82.0523 118.187ZM75.88 82.6743C79.1252 84.2712 82.0523 86.1234 84.6612 88.2951C85.2339 88.8061 84.9158 89.6364 84.0885 91.9997C83.834 92.7023 83.5159 93.5326 83.2613 94.4268C81.7978 98.834 80.3979 103.944 79.4434 108.095C79.3797 108.287 79.3797 108.415 79.3797 108.606C79.8252 107.776 80.2706 105.732 80.6524 103.944C80.9706 102.411 81.3523 100.878 81.7341 99.7282L82.3705 97.7482C83.325 94.8101 84.2794 92.0636 85.2339 89.317C85.5521 88.359 85.4248 87.5925 84.7249 87.0177C83.4522 85.9318 82.0523 84.7821 80.716 83.6963C79.6343 82.866 78.6161 81.9718 77.598 81.1414C77.089 81.5885 76.5163 82.0995 75.88 82.6743Z" fill="#50D168"/>
</svg>
