<svg width="310" height="95" viewBox="0 0 310 95" fill="none" xmlns="http://www.w3.org/2000/svg">
<path d="M143.305 41.2397H144.891V47.1027L151.085 41.2397H153.216L145.684 48.2455L153.761 56.8412H151.68L144.891 49.587L144.842 56.8412H143.256L143.305 41.2397Z" fill="white"/>
<path d="M161.392 41.2893H163.126L167.833 51.9221L172.144 41.2893H173.879L167.933 55.3008C167.387 56.5926 166.396 57.2882 165.009 57.2882C164.464 57.2882 163.919 57.1889 163.423 56.9405C162.928 56.692 162.284 56.1455 161.54 55.3008L162.68 54.3568C163.473 55.1021 163.968 55.5492 164.266 55.6486C164.513 55.748 164.811 55.7977 165.058 55.7977C165.455 55.7977 165.802 55.6983 166.099 55.4499C166.396 55.2511 166.743 54.6549 167.09 53.8102L161.392 41.2893Z" fill="white"/>
<path d="M195.683 56.9405H193.998L188.845 44.8667L183.592 56.9405L181.907 56.8908L188.696 41.2893H189.043L195.683 56.9405Z" fill="white"/>
<path d="M204.801 41.3391H206.337V48.0467H207.476C209.508 48.0467 210.995 48.1461 211.887 48.3449C212.779 48.5436 213.472 48.9908 214.017 49.7361C214.562 50.4317 214.86 51.3757 214.81 52.5185C214.81 53.6116 214.562 54.5556 214.017 55.2512C213.472 55.9965 212.828 56.4437 211.986 56.6425C211.193 56.8412 209.805 56.9903 207.873 56.9903H204.751L204.801 41.3391ZM206.337 55.45H208.021C209.756 55.45 210.895 55.3506 211.441 55.2016C211.986 55.0525 212.382 54.7047 212.729 54.2575C213.026 53.8103 213.224 53.2141 213.224 52.5185C213.224 51.7235 213.026 51.1273 212.63 50.6304C212.233 50.1336 211.738 49.8354 211.143 49.7361C210.549 49.6367 209.409 49.587 207.724 49.587H206.436L206.337 55.45Z" fill="white"/>
<path d="M222.937 42.9292V41.3889H231.46V42.9292H227.991L227.941 56.9904H226.356L226.405 42.9292H222.937Z" fill="white"/>
<path d="M238.991 41.4385H240.726L245.433 52.0713L249.744 41.4385H251.478L245.532 55.45C244.987 56.7418 243.996 57.4374 242.609 57.4374C242.014 57.4374 241.518 57.3381 241.023 57.0896C240.527 56.8412 239.883 56.2946 239.14 55.45L240.28 54.5059C241.072 55.3009 241.568 55.6984 241.816 55.8475C242.063 55.9468 242.361 55.9965 242.609 55.9965C243.005 55.9965 243.401 55.8972 243.649 55.6487C243.946 55.45 244.293 54.9034 244.64 54.0091L238.991 41.4385Z" fill="white"/>
<path d="M260.695 41.4385H263.817C265.601 41.4385 266.79 41.5378 267.434 41.6869C268.326 41.9353 269.07 42.3825 269.615 43.0284C270.16 43.724 270.457 44.5687 270.457 45.6121C270.457 46.6555 270.16 47.5002 269.615 48.1958C269.07 48.8417 268.326 49.3386 267.335 49.5373C266.642 49.6864 265.304 49.7858 263.371 49.7858H262.281V57.0399H260.745L260.695 41.4385ZM262.231 42.9788V48.2455L264.858 48.2952C265.898 48.2952 266.691 48.1958 267.187 47.9971C267.682 47.7983 268.079 47.5002 268.376 47.053C268.673 46.6058 268.822 46.1587 268.822 45.6121C268.822 45.0656 268.673 44.6184 268.425 44.1712C268.128 43.724 267.781 43.4259 267.335 43.2272C266.889 43.0284 266.097 42.9291 265.056 42.9291L262.231 42.9788Z" fill="white"/>
<path d="M286.414 41.4882L293.648 57.0896H291.964L289.536 51.9223H282.846L280.418 57.0399H278.684L286.067 41.4385H286.414V41.4882ZM286.216 44.8171L283.54 50.4814H288.842L286.216 44.8171Z" fill="white"/>
<path d="M29.9294 49.4871H22.5957V47.9468H29.8799C29.7312 46.1581 29.0375 44.7669 27.6996 43.6738C26.3617 42.6304 24.8751 42.0839 23.2894 42.0839C20.9604 42.0839 19.0775 42.9782 17.69 44.7669L16.4512 43.8229C17.1449 42.8291 18.0864 41.9845 19.3252 41.4379C20.5145 40.8417 21.8524 40.5436 23.2894 40.5436C25.6679 40.5436 27.65 41.3385 29.2852 42.8788C30.8709 44.4191 31.7133 46.3569 31.6638 48.6424C31.6638 50.9777 30.9205 52.9154 29.3844 54.5054C27.8482 56.0954 25.8166 56.8903 23.2399 56.8903C20.3163 56.8903 18.0864 55.8469 16.4512 53.7601L17.69 52.8161C19.127 54.5551 20.9604 55.3997 23.1407 55.3997C24.8255 55.3997 26.3121 54.9029 27.6005 53.9092C28.8393 53.0645 29.6321 51.5242 29.9294 49.4871Z" fill="white"/>
<path d="M41.2771 40.991H42.8628V46.8539L49.1064 41.0407H51.1876L43.7052 47.9967L51.7327 56.6421H49.6515L42.8628 49.3382V56.5924H41.2275L41.2771 40.991Z" fill="white"/>
<path d="M67.986 40.6436C70.3645 40.6436 72.297 41.4385 73.8827 43.0285C75.4684 44.6185 76.2612 46.5562 76.2612 48.8418C76.2612 51.1273 75.4684 53.0651 73.8827 54.6551C72.297 56.245 70.3645 57.04 68.0851 57.04C65.7561 57.04 63.8236 56.245 62.2379 54.6551C60.6522 53.0651 59.8594 51.1273 59.8594 48.8915C59.8594 47.4009 60.2062 46.0097 60.9495 44.7178C61.6928 43.426 62.6839 42.4323 63.9227 41.687C65.211 40.9914 66.549 40.6436 67.986 40.6436ZM68.0851 42.1838C66.9454 42.1838 65.8552 42.482 64.8146 43.0782C63.774 43.6744 62.9812 44.4694 62.3866 45.5128C61.7919 46.5065 61.4946 47.6493 61.4946 48.9412C61.4946 50.7795 62.1388 52.3695 63.4272 53.6613C64.7155 54.9532 66.2516 55.5991 68.0851 55.5991C69.2743 55.5991 70.4141 55.301 71.4547 54.7048C72.4953 54.1085 73.2881 53.3135 73.8827 52.3198C74.4774 51.2764 74.7747 50.1833 74.7747 48.9412C74.7747 47.699 74.4773 46.6059 73.9323 45.5625C73.3872 44.5688 72.5448 43.7738 71.5042 43.1279C70.3645 42.4819 69.2248 42.1838 68.0851 42.1838Z" fill="white"/>
<path d="M132.701 22.4581C132.701 22.4581 124.178 21.9115 122.147 22.6568C120.115 23.3524 119.322 23.9487 118.331 25.0914C117.34 26.2342 115.606 29.2154 113.475 33.8859C112.038 36.9665 110.849 41.5376 110.254 44.4194C109.659 41.5376 108.47 36.9168 107.033 33.8859C104.853 29.2154 103.168 26.2342 102.177 25.0914C101.186 23.9487 100.393 23.4021 98.3614 22.6568C96.2802 21.9612 87.8067 22.4581 87.8067 22.4581L79.1846 16.3964L85.23 24.9921C85.23 24.9921 84.6849 33.5381 85.4282 35.5752C86.1715 37.6124 86.7165 38.457 87.8562 39.4011C88.996 40.3948 91.9691 42.1338 96.627 44.2703C99.6993 45.6615 104.258 46.854 107.182 47.4999C104.308 48.0962 99.6993 49.2886 96.627 50.7295C91.9691 52.9157 88.996 54.605 87.8562 55.5988C86.7165 56.5925 86.1715 57.3875 85.4282 59.4246C84.7344 61.5114 85.23 70.0078 85.23 70.0078L79.1846 78.6035L87.7572 72.5418C87.7572 72.5418 96.2802 73.0883 98.3118 72.343C100.343 71.5977 101.186 71.0512 102.127 69.9084C103.118 68.7656 104.853 65.7844 106.983 61.1139C108.371 58.0334 109.56 53.4623 110.204 50.5308C110.799 53.4126 111.988 58.0334 113.425 61.1139C115.556 65.7844 117.29 68.7656 118.281 69.9084C119.272 71.0512 120.065 71.5977 122.097 72.343C124.129 73.0386 132.652 72.5418 132.652 72.5418L141.224 78.6035L135.179 70.0575C135.179 70.0575 135.724 61.5114 134.981 59.4743C134.287 57.4372 133.692 56.6422 132.553 55.6485C131.413 54.6547 128.44 52.9157 123.782 50.7792C120.71 49.3383 116.151 48.1459 113.227 47.5496C116.101 46.9534 120.71 45.7609 123.782 44.32C128.44 42.1835 131.413 40.4445 132.553 39.4508C133.692 38.457 134.237 37.6621 134.981 35.6249C135.674 33.5878 135.179 25.0418 135.179 25.0418L141.224 16.4461L132.701 22.4581ZM88.55 36.9168C87.113 34.4324 87.2121 31.0538 87.2616 28.6192C87.3112 26.1845 87.2121 25.0914 87.4598 24.843L87.5589 24.7436C87.8067 24.4952 88.8968 24.5946 91.3249 24.5449C93.753 24.4952 97.1226 24.3958 99.6002 25.8367C102.078 27.2776 102.821 29.0167 105.745 34.5815C108.074 39.0533 109.461 44.2206 109.907 46.1087C109.957 46.3571 109.907 46.6056 109.758 46.8043L102.623 36.6683L95.6855 32.9916L99.3524 39.9476L109.461 47.1024C109.263 47.2515 109.015 47.3012 108.718 47.2515C106.785 46.8043 101.681 45.4131 97.2217 43.0779C91.6718 40.1961 89.987 39.4011 88.55 36.9168ZM105.794 60.5177C102.92 66.1322 102.127 67.8216 99.6497 69.2625C97.1721 70.7034 93.8025 70.604 91.3745 70.5543C88.9464 70.5046 87.8562 70.604 87.6085 70.3556L87.5094 70.2562C87.2616 70.0078 87.3607 68.9147 87.3112 66.48C87.2616 64.0454 87.1625 60.6668 88.5995 58.1825C90.0366 55.6982 91.7709 54.9529 97.3208 52.0214C101.78 49.6861 106.934 48.2949 108.817 47.8477C109.065 47.798 109.312 47.8477 109.511 47.9968L99.402 55.1516L95.7351 62.1077L102.672 58.4309L109.808 48.2949C109.957 48.4937 110.006 48.7421 109.957 49.0402C109.461 50.9283 108.074 56.0459 105.794 60.5177ZM131.908 58.1328C133.345 60.6171 133.246 63.9958 133.197 66.4304C133.147 68.865 133.246 69.9581 132.999 70.2065L132.899 70.3059C132.652 70.5543 131.562 70.4549 129.133 70.5046C126.705 70.5543 123.336 70.6537 120.858 69.2128C118.381 67.7222 117.588 66.0826 114.714 60.468C112.434 56.046 110.997 50.8786 110.551 48.9408C110.502 48.6924 110.551 48.3943 110.7 48.1955L117.835 58.3315L124.773 62.0083L121.106 55.0522L110.948 47.9471C111.146 47.798 111.394 47.7484 111.641 47.798C113.524 48.2452 118.678 49.6364 123.138 51.9717C128.737 54.9032 130.422 55.6485 131.908 58.1328ZM132.999 24.7933C133.246 25.0418 133.147 26.1349 133.197 28.5695C133.246 31.0041 133.345 34.3828 131.908 36.8671C130.422 39.3514 128.787 40.1464 123.187 43.0282C118.777 45.3137 113.624 46.7546 111.691 47.2018C111.443 47.2515 111.146 47.2018 110.948 47.0528L121.056 39.8979L124.723 32.9419L117.786 36.6187L110.65 46.7546C110.502 46.5559 110.452 46.3075 110.502 46.059C110.948 44.171 112.335 39.0036 114.664 34.5318C117.588 28.967 118.331 27.228 120.809 25.7871C123.286 24.3462 126.656 24.4455 129.084 24.4952C131.512 24.5449 132.602 24.4455 132.85 24.694L132.999 24.7933Z" fill="white"/>
</svg>
