<svg width="235" height="74" viewBox="0 0 235 74" fill="none" xmlns="http://www.w3.org/2000/svg">
<path d="M108.635 32.1235H109.837V36.6905L114.533 32.1235H116.148L110.438 37.5806L116.561 44.2762H114.984L109.837 38.6256L109.8 44.2762H108.598L108.635 32.1235Z" fill="#0066B2"/>
<path d="M122.346 32.1621H123.66L127.229 40.4445L130.497 32.1621H131.812L127.304 43.0763C126.891 44.0826 126.14 44.6244 125.088 44.6244C124.675 44.6244 124.261 44.547 123.886 44.3535C123.51 44.16 123.022 43.7343 122.458 43.0763L123.322 42.341C123.923 42.9215 124.299 43.2698 124.524 43.3472C124.712 43.4247 124.938 43.4633 125.125 43.4633C125.426 43.4633 125.689 43.386 125.914 43.1924C126.14 43.0376 126.403 42.5732 126.666 41.9152L122.346 32.1621Z" fill="#0066B2"/>
<path d="M148.34 44.3535H147.063L143.156 34.9487L139.175 44.3535L137.897 44.3148L143.044 32.1621H143.307L148.34 44.3535Z" fill="#0066B2"/>
<path d="M155.252 32.2009H156.417V37.4258H157.281C158.821 37.4258 159.948 37.5032 160.624 37.658C161.3 37.8128 161.826 38.1612 162.239 38.7417C162.653 39.2836 162.878 40.0189 162.84 40.9091C162.84 41.7606 162.653 42.4959 162.239 43.0378C161.826 43.6183 161.338 43.9666 160.699 44.1214C160.098 44.2762 159.046 44.3924 157.581 44.3924H155.215L155.252 32.2009ZM156.417 43.1926H157.694C159.009 43.1926 159.873 43.1152 160.286 42.999C160.699 42.8829 161 42.612 161.263 42.2637C161.488 41.9154 161.638 41.4509 161.638 40.9091C161.638 40.2898 161.488 39.8254 161.188 39.4384C160.887 39.0513 160.511 38.8191 160.061 38.7417C159.61 38.6643 158.746 38.6256 157.469 38.6256H156.492L156.417 43.1926Z" fill="#0066B2"/>
<path d="M169.001 33.4395V32.2397H175.462V33.4395H172.833L172.795 44.3925H171.593L171.63 33.4395H169.001Z" fill="#0066B2"/>
<path d="M181.171 32.2783H182.486L186.054 40.5607L189.322 32.2783H190.637L186.129 43.1925C185.716 44.1988 184.965 44.7407 183.913 44.7407C183.462 44.7407 183.087 44.6632 182.711 44.4697C182.335 44.2762 181.847 43.8505 181.284 43.1925L182.148 42.4572C182.749 43.0764 183.124 43.3861 183.312 43.5022C183.5 43.5796 183.725 43.6183 183.913 43.6183C184.214 43.6183 184.514 43.5409 184.702 43.3474C184.927 43.1925 185.19 42.7668 185.453 42.0702L181.171 32.2783Z" fill="#0066B2"/>
<path d="M197.625 32.2783H199.992C201.344 32.2783 202.245 32.3557 202.734 32.4718C203.41 32.6653 203.973 33.0137 204.386 33.5168C204.8 34.0587 205.025 34.7166 205.025 35.5294C205.025 36.3421 204.8 37.0001 204.386 37.5419C203.973 38.0451 203.41 38.4321 202.659 38.5869C202.133 38.703 201.118 38.7804 199.653 38.7804H198.827V44.431H197.663L197.625 32.2783ZM198.789 33.4781V37.5806L200.78 37.6193C201.569 37.6193 202.17 37.5419 202.546 37.3871C202.921 37.2323 203.222 37.0001 203.447 36.6518C203.673 36.3034 203.785 35.9551 203.785 35.5294C203.785 35.1036 203.673 34.7553 203.485 34.407C203.26 34.0587 202.997 33.8264 202.659 33.6716C202.32 33.5168 201.719 33.4394 200.931 33.4394L198.789 33.4781Z" fill="#0066B2"/>
<path d="M217.121 32.317L222.605 44.4697H221.328L219.487 40.4446H214.416L212.575 44.431H211.261L216.858 32.2783H217.121V32.317ZM216.97 34.9101L214.942 39.3223H218.961L216.97 34.9101Z" fill="#0066B2"/>
<path d="M22.6891 38.5478H17.1296V37.348H22.6515C22.5388 35.9547 22.0129 34.871 20.9987 34.0196C19.9845 33.2068 18.8576 32.7811 17.6555 32.7811C15.89 32.7811 14.4626 33.4777 13.4108 34.871L12.4717 34.1357C12.9976 33.3616 13.7113 32.7037 14.6504 32.2779C15.5519 31.8135 16.5662 31.5813 17.6555 31.5813C19.4586 31.5813 20.9611 32.2005 22.2007 33.4003C23.4028 34.6001 24.0414 36.1095 24.0038 37.8899C24.0038 39.7089 23.4403 41.2183 22.2759 42.4568C21.1114 43.6953 19.5713 44.3146 17.6179 44.3146C15.4017 44.3146 13.7113 43.5018 12.4717 41.8763L13.4108 41.1409C14.5001 42.4955 15.89 43.1535 17.5428 43.1535C18.82 43.1535 19.9469 42.7664 20.9236 41.9924C21.8627 41.3344 22.4637 40.1346 22.6891 38.5478Z" fill="#0066B2"/>
<path d="M31.2915 31.9299H32.4935V36.4969L37.2266 31.9686H38.8043L33.1321 37.387L39.2175 44.1214H37.6398L32.4935 38.432V44.0827H31.2539L31.2915 31.9299Z" fill="#0066B2"/>
<path d="M51.5384 31.6592C53.3415 31.6592 54.8065 32.2784 56.0085 33.5169C57.2106 34.7554 57.8116 36.2648 57.8116 38.0452C57.8116 39.8255 57.2106 41.3349 56.0085 42.5734C54.8065 43.8119 53.3415 44.4311 51.6136 44.4311C49.848 44.4311 48.383 43.8119 47.181 42.5734C45.979 41.3349 45.3779 39.8255 45.3779 38.0839C45.3779 36.9228 45.6409 35.8391 46.2043 34.8328C46.7678 33.8265 47.5191 33.0525 48.4582 32.4719C49.4348 31.9301 50.4491 31.6592 51.5384 31.6592ZM51.6136 32.859C50.7496 32.859 49.9232 33.0912 49.1343 33.5556C48.3455 34.0201 47.7445 34.6393 47.2937 35.4521C46.8429 36.2261 46.6175 37.1163 46.6175 38.1226C46.6175 39.5546 47.1059 40.7931 48.0825 41.7994C49.0592 42.8056 50.2237 43.3088 51.6136 43.3088C52.5151 43.3088 53.3791 43.0766 54.1679 42.6121C54.9567 42.1477 55.5578 41.5284 56.0085 40.7544C56.4593 39.9416 56.6847 39.0901 56.6847 38.1226C56.6847 37.155 56.4593 36.3035 56.0461 35.4908C55.6329 34.7167 54.9943 34.0975 54.2055 33.5943C53.3415 33.0912 52.4775 32.859 51.6136 32.859Z" fill="#0066B2"/>
<path d="M100.596 17.4937C100.596 17.4937 94.1354 17.068 92.5953 17.6485C91.0552 18.1904 90.4541 18.6548 89.7029 19.545C88.9516 20.4352 87.6368 22.7573 86.0216 26.3954C84.9322 28.795 84.0307 32.3557 83.5799 34.6004C83.1292 32.3557 82.2276 28.7563 81.1383 26.3954C79.4855 22.7573 78.2083 20.4352 77.457 19.545C76.7057 18.6548 76.1047 18.2291 74.5646 17.6485C72.9869 17.1067 66.5635 17.4937 66.5635 17.4937L60.0273 12.772L64.6101 19.4676C64.6101 19.4676 64.1969 26.1245 64.7604 27.7113C65.3239 29.2981 65.7371 29.9561 66.601 30.6914C67.465 31.4655 69.7188 32.8201 73.2499 34.4843C75.5788 35.568 79.0347 36.4969 81.251 37C79.0723 37.4644 75.5788 38.3933 73.2499 39.5157C69.7188 41.2186 67.465 42.5345 66.601 43.3086C65.7371 44.0826 65.3239 44.7019 64.7604 46.2887C64.2345 47.9142 64.6101 54.5324 64.6101 54.5324L60.0273 61.2281L66.5259 56.5063C66.5259 56.5063 72.9869 56.932 74.527 56.3515C76.0672 55.7709 76.7057 55.3452 77.4195 54.455C78.1707 53.5649 79.4855 51.2427 81.1007 47.6046C82.1525 45.205 83.054 41.6444 83.5424 39.3609C83.9931 41.6057 84.8947 45.205 85.984 47.6046C87.5993 51.2427 88.914 53.5649 89.6653 54.455C90.4166 55.3452 91.0176 55.7709 92.5577 56.3515C94.0978 56.8933 100.559 56.5063 100.559 56.5063L107.057 61.2281L102.475 54.5711C102.475 54.5711 102.888 47.9142 102.324 46.3274C101.798 44.7406 101.348 44.1213 100.484 43.3473C99.6197 42.5732 97.3659 41.2186 93.8349 39.5544C91.5059 38.432 88.0501 37.5032 85.8338 37.0387C88.0125 36.5743 91.5059 35.6454 93.8349 34.523C97.3659 32.8588 99.6197 31.5042 100.484 30.7301C101.348 29.9561 101.761 29.3368 102.324 27.75C102.85 26.1632 102.475 19.5063 102.475 19.5063L107.057 12.8107L100.596 17.4937ZM67.1269 28.7563C66.0376 26.8211 66.1127 24.1893 66.1503 22.2929C66.1878 20.3965 66.1127 19.545 66.3005 19.3515L66.3756 19.2741C66.5635 19.0806 67.3899 19.158 69.2305 19.1193C71.0711 19.0805 73.6255 19.0031 75.5037 20.1255C77.3819 21.2479 77.9453 22.6025 80.1616 26.9372C81.9271 30.4205 82.9789 34.4456 83.317 35.9163C83.3546 36.1098 83.317 36.3034 83.2043 36.4582L77.7951 28.5628L72.5361 25.6988L75.3159 31.1172L82.9789 36.6904C82.8287 36.8065 82.6408 36.8452 82.4155 36.8065C80.9505 36.4582 77.0814 35.3745 73.7006 33.5555C69.4935 31.3107 68.2163 30.6914 67.1269 28.7563ZM80.1992 47.1402C78.0205 51.5136 77.4195 52.8295 75.5413 53.9519C73.6631 55.0743 71.1087 54.9969 69.2681 54.9582C67.4274 54.9195 66.601 54.9969 66.4132 54.8034L66.3381 54.726C66.1503 54.5324 66.2254 53.681 66.1878 51.7845C66.1503 49.8881 66.0751 47.2563 67.1645 45.3211C68.2538 43.386 69.5686 42.8055 73.7757 40.522C77.1565 38.7029 81.0632 37.6193 82.4906 37.2709C82.6784 37.2322 82.8662 37.2709 83.0165 37.387L75.3534 42.9603L72.5737 48.3787L77.8327 45.5147L83.2419 37.6193C83.3546 37.7741 83.3921 37.9676 83.3546 38.1998C82.9789 39.6705 81.9271 43.6569 80.1992 47.1402ZM99.9954 45.2824C101.085 47.2176 101.01 49.8494 100.972 51.7458C100.934 53.6423 101.01 54.4937 100.822 54.6872L100.747 54.7647C100.559 54.9582 99.7324 54.8808 97.8918 54.9195C96.0512 54.9582 93.4968 55.0356 91.6186 53.9132C89.7404 52.7521 89.1394 51.4749 86.9607 47.1015C85.2328 43.6569 84.1434 39.6318 83.8053 38.1224C83.7678 37.9289 83.8053 37.6967 83.918 37.5419L89.3272 45.4372L94.5862 48.3013L91.8064 42.8829L84.1058 37.3483C84.2561 37.2322 84.4439 37.1935 84.6317 37.2322C86.0592 37.5806 89.9658 38.6642 93.3466 40.4833C97.5913 42.7668 98.8685 43.3473 99.9954 45.2824ZM100.822 19.3128C101.01 19.5063 100.934 20.3577 100.972 22.2542C101.01 24.1506 101.085 26.7824 99.9954 28.7176C98.8685 30.6527 97.6289 31.272 93.3841 33.5167C90.0409 35.2971 86.1343 36.4195 84.6693 36.7678C84.4815 36.8065 84.2561 36.7678 84.1058 36.6517L91.7689 31.0785L94.5486 25.66L89.2897 28.5241L83.8804 36.4195C83.7678 36.2647 83.7302 36.0711 83.7678 35.8776C84.1058 34.4069 85.1576 30.3818 86.9231 26.8985C89.1394 22.5638 89.7029 21.2092 91.5811 20.0868C93.4593 18.9644 96.0136 19.0418 97.8542 19.0806C99.6949 19.1193 100.521 19.0418 100.709 19.2354L100.822 19.3128Z" fill="#0066B2"/>
</svg>
