<svg width="170" height="170" viewBox="0 0 170 170" fill="none" xmlns="http://www.w3.org/2000/svg">
<g opacity="0.4">
<path d="M12.0921 145.715C5.40586 145.715 0 151.112 0 157.787C0 164.462 5.40586 169.858 12.0921 169.858C18.7782 169.858 24.1841 164.462 24.1841 157.787C24.3264 151.112 18.7782 145.715 12.0921 145.715ZM16.6444 165.172C14.9373 165.172 13.3724 164.178 12.6611 162.615L9.38913 162.047C8.67783 162.615 7.96653 162.899 7.11297 162.899C5.12134 162.899 3.41422 161.195 3.41422 159.207C3.41422 157.218 5.12134 155.514 7.11297 155.514H7.25524L9.67362 152.958V152.816C9.67362 150.828 11.2385 149.265 13.2301 149.265C15.2217 149.265 16.7866 150.828 16.7866 152.816C16.7866 154.804 15.2217 156.366 13.2301 156.366L11.9498 157.645L13.5146 157.929C14.3682 157.076 15.5063 156.65 16.6444 156.65C19.0628 156.65 21.0544 158.639 21.0544 161.053C20.9121 163.325 19.0628 165.172 16.6444 165.172Z" fill="#72A5CB"/>
<path d="M16.6435 158.355C15.7899 158.355 15.0786 158.781 14.5096 159.349C14.3673 159.633 13.9406 159.775 13.656 159.633L9.95728 159.065C9.67277 159.065 9.38825 158.781 9.24599 158.497C9.10373 158.213 9.246 157.786 9.38826 157.644L11.9489 154.804C12.0912 154.662 12.3757 154.52 12.6602 154.52C12.8025 154.52 12.8025 154.52 12.9447 154.52C13.9406 154.52 14.7941 153.668 14.7941 152.674C14.7941 151.68 13.9406 150.827 12.9447 150.827C11.9489 150.827 11.0953 151.68 11.0953 152.674C11.0953 152.816 11.0953 152.958 11.0953 152.958C11.0953 153.242 11.0954 153.526 10.8108 153.668L7.82339 156.934C7.68113 157.076 7.39662 157.218 7.1121 157.218C6.96984 157.218 6.82756 157.218 6.82756 157.218C5.68949 157.218 4.83594 158.071 4.83594 159.207C4.83594 160.343 5.68949 161.195 6.82756 161.195C7.3966 161.195 7.82338 160.911 8.25015 160.627C8.39241 160.485 8.67697 160.343 8.81923 160.343H8.96145L13.2292 161.053C13.5138 161.053 13.7983 161.337 13.9405 161.621C14.225 162.757 15.2209 163.467 16.359 163.467C17.7816 163.467 18.9196 162.331 18.9196 160.911C19.2041 159.491 18.0661 158.355 16.6435 158.355Z" fill="#72A5CB"/>
</g>
<g opacity="0.4">
<path d="M12.0914 90.7522C15.2211 90.7522 17.9241 88.1958 17.9241 84.9293C17.9241 81.6628 15.3634 79.1064 12.0914 79.1064C8.96173 79.1064 6.25879 81.6628 6.25879 84.9293C6.25879 88.1958 8.96173 90.7522 12.0914 90.7522ZM12.6605 82.515C12.0914 82.373 11.8069 81.8049 11.9492 81.2368C12.0914 80.8107 12.5182 80.5267 12.945 80.5267C13.0873 80.5267 13.0872 80.5267 13.2295 80.5267C15.3634 81.0947 16.786 82.941 16.786 85.0714C16.786 87.2017 15.3634 89.048 13.2295 89.6161C12.6605 89.7581 12.0914 89.474 11.9492 88.906C11.8069 88.3379 12.0914 87.7698 12.6605 87.6277C13.7985 87.3437 14.6521 86.3496 14.6521 85.0714C14.6521 83.7932 13.7985 82.799 12.6605 82.515ZM10.3843 81.3788C11.2379 81.3788 11.9492 82.0889 11.9492 82.941C11.9492 83.7932 11.2379 84.5033 10.3843 84.5033C9.53075 84.5033 8.81948 83.7932 8.81948 82.941C8.81948 82.0889 9.53075 81.3788 10.3843 81.3788ZM10.3843 85.7815C11.2379 85.7815 11.9492 86.4916 11.9492 87.3437C11.9492 88.1958 11.2379 88.906 10.3843 88.906C9.53075 88.906 8.81948 88.1958 8.81948 87.3437C8.81948 86.3496 9.53075 85.7815 10.3843 85.7815Z" fill="#72A5CB"/>
<path d="M12.0921 97.143C18.7782 97.143 24.1841 91.7462 24.1841 85.0711C24.1841 78.3961 18.7782 72.9993 12.0921 72.9993C5.40586 72.9993 0 78.3961 0 85.0711C0 91.7462 5.40586 97.143 12.0921 97.143ZM12.0921 77.2599C16.3598 77.2599 19.9163 80.8105 19.9163 85.0711C19.9163 89.3318 16.3598 92.8823 12.0921 92.8823C7.82427 92.8823 4.26778 89.3318 4.26778 85.0711C4.26778 80.8105 7.82427 77.2599 12.0921 77.2599Z" fill="#72A5CB"/>
</g>
<g opacity="0.4">
<path d="M12.0921 0.000244141C5.40586 0.000244141 0 5.39707 0 12.0721C0 18.7471 5.40586 24.1439 12.0921 24.1439C18.7782 24.1439 24.1841 18.7471 24.1841 12.0721C24.1841 5.39707 18.7782 0.000244141 12.0921 0.000244141ZM16.6444 19.5993C14.9373 19.5993 13.3724 18.6051 12.6611 17.0429L9.38913 16.4748C8.67783 17.0429 7.96653 17.3269 7.11297 17.3269C5.12134 17.3269 3.41422 15.6226 3.41422 13.6343C3.41422 11.646 5.12134 9.94177 7.11297 9.94177H7.25524L9.67362 7.38537V7.24336C9.67362 5.25506 11.2385 3.69282 13.2301 3.69282C15.2217 3.69282 16.7866 5.25506 16.7866 7.24336C16.7866 9.23167 15.2217 10.7939 13.2301 10.7939L11.9498 12.0721L13.5146 12.3561C14.3682 11.504 15.5063 11.0779 16.6444 11.0779C19.0628 11.0779 21.0544 13.0663 21.0544 15.4806C20.9121 17.611 19.0628 19.5993 16.6444 19.5993Z" fill="#72A5CB"/>
<path d="M16.6435 12.6402C15.7899 12.6402 15.0786 13.0663 14.5096 13.6343C14.3673 13.9184 13.9406 14.0604 13.656 13.9184L9.95728 13.3503C9.67277 13.3503 9.38825 13.0662 9.24599 12.7822C9.10373 12.4982 9.246 12.0721 9.38826 11.9301L11.9489 9.08965C12.0912 8.94763 12.3757 8.80559 12.6602 8.80559C12.8025 8.80559 12.8025 8.80559 12.9447 8.80559C13.9406 8.80559 14.7941 7.95348 14.7941 6.95932C14.7941 5.96517 13.9406 5.11304 12.9447 5.11304C11.9489 5.11304 11.0953 5.96517 11.0953 6.95932C11.0953 7.10135 11.0953 7.24336 11.0953 7.24336C11.0953 7.52741 11.0954 7.81145 10.8108 7.95347L7.82339 11.22C7.68113 11.362 7.39662 11.504 7.1121 11.504C6.96984 11.504 6.82756 11.504 6.82756 11.504C5.68949 11.504 4.83594 12.3561 4.83594 13.4923C4.83594 14.6285 5.68949 15.4806 6.82756 15.4806C7.3966 15.4806 7.82338 15.1966 8.25015 14.9125C8.39241 14.7705 8.67697 14.6285 8.81923 14.6285H8.96145L13.2292 15.3386C13.5138 15.3386 13.7983 15.6226 13.9405 15.9067C14.225 17.0429 15.2209 17.753 16.359 17.753C17.7816 17.753 18.9196 16.6168 18.9196 15.1966C19.2041 13.7764 18.0661 12.6402 16.6435 12.6402Z" fill="#72A5CB"/>
</g>
<g opacity="0.4">
<path d="M90.7619 12.2143C90.7619 9.08978 88.2013 6.39136 84.9293 6.39136C81.7996 6.39136 79.0967 8.94776 79.0967 12.2143C79.0967 15.3387 81.6574 18.0371 84.9293 18.0371C88.2013 17.8951 90.7619 15.3387 90.7619 12.2143ZM82.5109 11.6462C82.3686 12.2142 81.7996 12.4983 81.2306 12.3563C80.8038 12.2142 80.5193 11.7882 80.5193 11.3621C80.5193 11.2201 80.5193 11.2201 80.5193 11.0781C81.0883 8.94775 82.9377 7.52754 85.0715 7.52754C87.2054 7.52754 89.0548 8.94775 89.6239 11.0781C89.7661 11.6462 89.4816 12.2142 88.9126 12.3563C88.3435 12.4983 87.7745 12.2142 87.6322 11.6462C87.3477 10.51 86.3519 9.65786 85.0715 9.65786C83.7912 9.65786 82.7954 10.51 82.5109 11.6462ZM81.3728 14.0605C81.3728 13.2084 82.0841 12.4983 82.9377 12.4983C83.7912 12.4983 84.5025 13.2084 84.5025 14.0605C84.5025 14.9127 83.7912 15.6228 82.9377 15.6228C82.0841 15.4808 81.3728 14.7707 81.3728 14.0605ZM85.7828 14.0605C85.7828 13.2084 86.4942 12.4983 87.3477 12.4983C88.2013 12.4983 88.9126 13.2084 88.9126 14.0605C88.9126 14.9127 88.2013 15.6228 87.3477 15.6228C86.4942 15.4808 85.7828 14.7707 85.7828 14.0605Z" fill="#72A5CB"/>
<path d="M97.3062 12.2142C97.3062 5.53916 91.9003 0.142334 85.2141 0.142334C78.5279 0.142334 73.1221 5.53916 73.1221 12.2142C73.1221 18.8892 78.5279 24.286 85.2141 24.286C91.7581 24.286 97.3062 18.8892 97.3062 12.2142ZM77.2476 12.2142C77.2476 7.95353 80.8041 4.40299 85.0719 4.40299C89.3396 4.40299 92.8961 7.95353 92.8961 12.2142C92.8961 16.4748 89.3396 20.0254 85.0719 20.0254C80.8041 20.0254 77.2476 16.4748 77.2476 12.2142Z" fill="#72A5CB"/>
</g>
<g opacity="0.4">
<path d="M90.7619 157.928C90.7619 154.804 88.2013 152.105 84.9293 152.105C81.7996 152.105 79.0967 154.662 79.0967 157.928C79.0967 161.195 81.6574 163.751 84.9293 163.751C88.2013 163.609 90.7619 161.053 90.7619 157.928ZM82.5109 157.36C82.3686 157.928 81.7996 158.212 81.2306 158.07C80.8038 157.928 80.5193 157.502 80.5193 157.076C80.5193 156.934 80.5193 156.934 80.5193 156.792C81.0883 154.662 82.9377 153.241 85.0715 153.241C87.2054 153.241 89.0548 154.662 89.6239 156.792C89.7661 157.36 89.4816 157.928 88.9126 158.07C88.3435 158.212 87.7745 157.928 87.6322 157.36C87.3477 156.224 86.3519 155.372 85.0715 155.372C83.7912 155.372 82.7954 156.224 82.5109 157.36ZM81.3728 159.632C81.3728 158.78 82.0841 158.07 82.9377 158.07C83.7912 158.07 84.5025 158.78 84.5025 159.632C84.5025 160.485 83.7912 161.195 82.9377 161.195C82.0841 161.195 81.3728 160.485 81.3728 159.632ZM85.7828 159.632C85.7828 158.78 86.4942 158.07 87.3477 158.07C88.2013 158.07 88.9126 158.78 88.9126 159.632C88.9126 160.485 88.2013 161.195 87.3477 161.195C86.4942 161.195 85.7828 160.485 85.7828 159.632Z" fill="#72A5CB"/>
<path d="M97.3062 157.928C97.3062 151.253 91.9003 145.856 85.2141 145.856C78.5279 145.856 73.1221 151.253 73.1221 157.928C73.1221 164.603 78.5279 170 85.2141 170C91.7581 170 97.3062 164.603 97.3062 157.928ZM77.2476 157.928C77.2476 153.667 80.8041 150.117 85.0719 150.117C89.3396 150.117 92.8961 153.667 92.8961 157.928C92.8961 162.189 89.3396 165.739 85.0719 165.739C80.8041 165.739 77.2476 162.189 77.2476 157.928Z" fill="#72A5CB"/>
</g>
<g opacity="0.4">
<path d="M82.6529 85.071L80.519 84.0768C79.8077 83.7928 78.9542 83.9348 78.2429 84.5029L77.6738 85.071L78.2429 85.6391C78.8119 86.2072 79.6655 86.3492 80.3767 86.0651L82.6529 85.071Z" fill="#72A5CB"/>
<path d="M85.6417 78.2544L85.0726 77.6863L84.5036 78.2544C83.9346 78.8225 83.7923 79.6746 84.0768 80.5267L85.0726 82.657L86.0685 80.5267C86.353 79.6746 86.2107 78.8225 85.6417 78.2544Z" fill="#72A5CB"/>
<path d="M97.3062 85.0711C97.3062 78.3961 91.9003 72.9993 85.2141 72.9993C78.5279 72.9993 73.1221 78.3961 73.1221 85.0711C73.1221 91.7462 78.5279 97.143 85.2141 97.143C91.9003 97.143 97.3062 91.7462 97.3062 85.0711ZM85.0719 94.8706C84.7873 94.8706 84.5028 94.7286 84.3606 94.5866L83.0802 93.3084C82.3689 92.5983 81.9422 91.4621 81.9422 90.4679C81.9422 89.8999 82.0844 89.3318 82.3689 88.7637L83.0802 87.0594L81.3731 87.7695C79.8083 88.4796 78.1012 88.1956 76.8208 86.9174L75.3982 85.6392C75.256 85.4972 75.1137 85.2131 75.1137 84.9291C75.1137 84.6451 75.256 84.361 75.3982 84.219L76.6786 82.9408C77.8166 81.8046 79.666 81.3785 81.2309 82.0887L82.938 82.7988L82.2267 81.0945C81.9422 80.5264 81.7999 79.9583 81.7999 79.3903C81.7999 78.3961 82.2267 77.2599 82.938 76.5498L84.2183 75.2716C84.6451 74.8455 85.2142 74.8455 85.6409 75.2716L86.9213 76.5498C88.0593 77.686 88.4861 79.5323 87.7748 81.0945L87.0635 82.7988L88.7706 82.0887C90.3355 81.3785 92.0426 81.6626 93.3229 82.9408L94.6033 84.219C95.03 84.6451 95.03 85.2131 94.6033 85.6392L93.3229 86.9174C92.1849 88.0536 90.3355 88.4796 88.7706 87.7695L87.0635 87.0594L87.7748 88.7637C88.4861 90.3259 88.2016 92.0302 86.9213 93.3084L85.6409 94.5866C85.6409 94.8706 85.3564 94.8706 85.0719 94.8706Z" fill="#72A5CB"/>
<path d="M92.4703 85.071L91.9013 84.5029C91.3322 83.9348 90.4787 83.7928 89.6251 84.0768L87.4912 85.071L89.6251 86.0651C90.3364 86.3492 91.19 86.2072 91.9013 85.6391L92.4703 85.071Z" fill="#72A5CB"/>
<path d="M86.0685 89.6157L85.0726 87.4854L84.0768 89.6157C83.7923 90.3258 83.9346 91.1779 84.5036 91.888L85.0726 92.4561L85.6417 91.888C86.2107 91.3199 86.353 90.4678 86.0685 89.6157Z" fill="#72A5CB"/>
</g>
<g opacity="0.4">
<path d="M160.469 157.786L162.603 158.78C163.314 159.064 164.168 158.922 164.879 158.354L165.448 157.786L164.879 157.218C164.31 156.65 163.456 156.508 162.745 156.792L160.469 157.786Z" fill="#72A5CB"/>
<path d="M157.481 164.603L158.05 165.171L158.619 164.603C159.188 164.035 159.33 163.183 159.046 162.331L158.05 160.2L157.054 162.331C156.77 163.183 156.912 164.035 157.481 164.603Z" fill="#72A5CB"/>
<path d="M145.815 157.928C145.815 164.603 151.221 170 157.907 170C164.594 170 170 164.603 170 157.928C170 151.253 164.594 145.856 157.907 145.856C151.364 145.714 145.815 151.111 145.815 157.928ZM158.05 147.987C158.334 147.987 158.619 148.129 158.761 148.271L160.041 149.549C160.753 150.259 161.179 151.395 161.179 152.389C161.179 152.957 161.037 153.525 160.753 154.094L160.041 155.798L161.749 155.088C163.313 154.378 165.02 154.662 166.301 155.94L167.723 157.218C167.866 157.36 168.008 157.644 168.008 157.928C168.008 158.212 167.866 158.496 167.723 158.638L166.443 159.916C165.305 161.053 163.456 161.479 161.891 160.769L160.184 160.058L160.895 161.763C161.179 162.331 161.322 162.899 161.322 163.467C161.322 164.461 160.895 165.597 160.184 166.307L158.903 167.586C158.477 168.012 157.908 168.012 157.481 167.586L156.2 166.307C155.062 165.171 154.636 163.325 155.347 161.763L156.058 160.058L154.351 160.769C152.786 161.479 151.079 161.195 149.799 159.916L148.518 158.638C148.092 158.212 148.092 157.644 148.518 157.218L149.799 155.94C150.937 154.804 152.786 154.378 154.351 155.088L156.058 155.798L155.347 154.094C154.636 152.531 154.92 150.827 156.2 149.549L157.481 148.271C157.481 147.987 157.765 147.987 158.05 147.987Z" fill="#72A5CB"/>
<path d="M150.651 157.786L151.22 158.354C151.789 158.922 152.643 159.064 153.497 158.78L155.63 157.786L153.497 156.792C152.785 156.508 151.932 156.65 151.22 157.218L150.651 157.786Z" fill="#72A5CB"/>
<path d="M157.054 153.241L158.05 155.372L159.046 153.241C159.33 152.531 159.188 151.679 158.619 150.969L158.05 150.401L157.481 150.969C156.912 151.537 156.77 152.531 157.054 153.241Z" fill="#72A5CB"/>
</g>
<g opacity="0.4">
<path d="M152.359 85.0712C152.359 88.1957 154.92 90.8941 158.192 90.8941C161.322 90.8941 164.025 88.3377 164.025 85.0712C164.025 81.8047 161.464 79.2483 158.192 79.2483C154.92 79.2483 152.359 81.8047 152.359 85.0712ZM160.61 85.4972C160.753 84.9292 161.322 84.6451 161.891 84.7871C162.318 84.9292 162.602 85.3552 162.602 85.7813C162.602 85.9233 162.602 85.9233 162.602 86.0653C162.033 88.1957 160.184 89.6159 158.05 89.6159C155.916 89.6159 154.066 88.1957 153.497 86.0653C153.355 85.4973 153.64 84.9292 154.209 84.7871C154.778 84.6451 155.347 84.9292 155.489 85.4972C155.774 86.6334 156.769 87.4856 158.05 87.4856C159.33 87.4856 160.326 86.7754 160.61 85.4972ZM161.606 83.2249C161.606 84.077 160.895 84.7871 160.041 84.7871C159.188 84.7871 158.477 84.077 158.477 83.2249C158.477 82.3728 159.188 81.6627 160.041 81.6627C161.037 81.6627 161.606 82.3728 161.606 83.2249ZM157.338 83.2249C157.338 84.077 156.627 84.7871 155.774 84.7871C154.92 84.7871 154.209 84.077 154.209 83.2249C154.209 82.3728 154.92 81.6627 155.774 81.6627C156.627 81.6627 157.338 82.3728 157.338 83.2249Z" fill="#72A5CB"/>
<path d="M145.815 85.0711C145.815 91.7461 151.221 97.1429 157.907 97.1429C164.594 97.1429 170 91.7461 170 85.0711C170 78.3961 164.594 72.9993 157.907 72.9993C151.364 72.8572 145.815 78.3961 145.815 85.0711ZM165.874 85.0711C165.874 89.3318 162.318 92.8823 158.05 92.8823C153.782 92.8823 150.225 89.3318 150.225 85.0711C150.225 80.8104 153.782 77.2599 158.05 77.2599C162.318 77.2599 165.874 80.6684 165.874 85.0711Z" fill="#72A5CB"/>
</g>
<g opacity="0.4">
<path d="M160.469 12.2143L162.603 13.2084C163.314 13.4925 164.168 13.3505 164.879 12.7824L165.448 12.2143L164.879 11.6462C164.31 11.0781 163.456 10.9361 162.745 11.2202L160.469 12.2143Z" fill="#72A5CB"/>
<path d="M157.481 19.0313L158.05 19.5994L158.619 19.0313C159.188 18.4633 159.33 17.6111 159.046 16.759L158.05 14.6287L157.054 16.759C156.77 17.4691 156.912 18.4633 157.481 19.0313Z" fill="#72A5CB"/>
<path d="M145.815 12.2142C145.815 18.8892 151.221 24.286 157.907 24.286C164.594 24.286 170 18.8892 170 12.2142C170 5.53915 164.594 0.14232 157.907 0.14232C151.364 0.0002985 145.815 5.53915 145.815 12.2142ZM158.05 2.27265C158.334 2.27265 158.619 2.41466 158.761 2.55669L160.041 3.83487C160.753 4.54498 161.179 5.68116 161.179 6.67531C161.179 7.2434 161.037 7.8115 160.753 8.37959L160.041 10.0838L161.749 9.37374C163.313 8.66363 165.02 8.94766 166.301 10.2259L167.723 11.5041C167.866 11.6461 168.008 11.9301 168.008 12.2142C168.008 12.4982 167.866 12.7823 167.723 12.9243L166.443 14.2025C165.305 15.3386 163.456 15.7647 161.891 15.0546L160.184 14.3445L160.895 16.0488C161.179 16.6168 161.322 17.1849 161.322 17.753C161.322 18.7472 160.895 19.8833 160.184 20.5934L158.903 21.8717C158.477 22.2977 157.908 22.2977 157.481 21.8717L156.2 20.5934C155.062 19.4573 154.636 17.611 155.347 16.0488L156.058 14.3445L154.351 15.0546C152.786 15.7647 151.079 15.4807 149.799 14.2025L148.518 12.9243C148.092 12.4982 148.092 11.9301 148.518 11.5041L149.799 10.2259C150.937 9.08968 152.786 8.66363 154.351 9.37374L156.058 10.0838L155.347 8.37959C154.636 6.81735 154.92 5.11307 156.2 3.83487L157.481 2.55669C157.481 2.41466 157.765 2.27265 158.05 2.27265Z" fill="#72A5CB"/>
<path d="M150.651 12.2143L151.22 12.7824C151.789 13.3505 152.643 13.4925 153.497 13.2084L155.63 12.2143L153.497 11.2202C152.785 10.9361 151.932 11.0781 151.22 11.6462L150.651 12.2143Z" fill="#72A5CB"/>
<path d="M157.054 7.52769L158.05 9.65802L159.046 7.52769C159.33 6.81758 159.188 5.96544 158.619 5.25533L158.05 4.68726L157.481 5.25533C156.912 5.96544 156.77 6.81758 157.054 7.52769Z" fill="#72A5CB"/>
</g>
</svg>
