<svg width="251" height="341" viewBox="0 0 251 341" fill="none" xmlns="http://www.w3.org/2000/svg">
<path d="M230.893 166.582C221.813 166.073 217.825 167.43 213.582 168.109C209.339 168.703 217.57 165.054 223.68 165.309C229.79 165.563 237.343 166.582 237.343 166.582H230.893Z" stroke="#E9F2E9" stroke-width="4.022" stroke-miterlimit="10" stroke-linecap="round" stroke-linejoin="round"/>
<path d="M223.511 184.912C216.891 182.451 213.667 182.621 210.357 182.111C207.132 181.602 214.006 180.754 218.419 182.281C222.832 183.809 228.263 186.354 228.263 186.354L223.511 184.912Z" stroke="#E9F2E9" stroke-width="4.022" stroke-miterlimit="10" stroke-linecap="round" stroke-linejoin="round"/>
<path d="M102.243 167.006C101.989 166.412 101.819 165.903 101.734 165.648C100.886 163.272 100.461 160.896 100.461 158.435C100.461 158.181 100.461 157.841 100.461 157.586C100.631 154.362 101.48 151.137 103.092 148.167C105.468 143.754 108.693 141.208 110.814 139.596C113.785 137.305 116.67 135.947 118.707 135.183C122.271 134.08 125.835 132.892 129.399 131.789C147.644 127.8 165.805 123.812 184.05 119.823C188.632 119.059 195.591 118.635 203.313 121.011C206.962 122.114 217.146 125.339 223.171 135.438C226.226 140.529 227.075 145.366 227.329 148.421C225.462 155.635 223.68 164.121 222.747 173.88C221.898 182.451 221.813 190.258 222.153 197.047C221.389 201.036 217.4 221.063 202.974 226.409C192.875 230.228 182.692 224.882 165.465 215.886C151.124 208.334 140.516 200.187 133.812 194.501C132.454 193.483 131.096 192.549 129.739 191.531L121.083 185.166L120.064 184.403L111.324 177.953C111.154 177.868 111.069 177.784 111.069 177.784C109.541 176.511 104.959 173.116 102.243 167.006Z" stroke="#E9F2E9" stroke-width="4.022" stroke-miterlimit="10"/>
<path d="M120.064 184.233C119.47 185.421 118.791 186.948 118.197 188.9C117.519 191.276 116.84 193.483 116.246 195.689C111.748 225.56 107.844 239.478 109.711 246.946C110.984 252.122 113.53 253.48 115.482 252.462C115.567 252.462 115.567 252.462 115.652 252.377C116.415 251.952 117.009 251.189 117.518 250.255C121.507 242.618 129.229 203.836 130.417 194.077C130.417 194.077 130.163 192.974 129.739 191.361" stroke="#E9F2E9" stroke-width="4.022" stroke-miterlimit="10"/>
<path d="M115.482 252.462C115.652 253.48 115.482 254.413 115.142 255.092C112.766 259.929 75.4273 303.378 67.8746 310.507C67.8746 310.507 67.7049 310.422 67.3654 310.337C66.3471 309.913 64.2255 308.81 63.1223 306.094C62.9526 305.755 62.8678 305.415 62.7829 305.076C61.5948 300.578 72.3722 295.995 90.5326 265.53C99.0188 251.273 105.468 247.03 109.711 247.03" stroke="#E9F2E9" stroke-width="4.022" stroke-miterlimit="10"/>
<path d="M63.1223 306.094C61.0008 308.131 58.4549 311.865 55.6545 317.381C49.8839 328.837 47.3381 334.353 48.5261 337.493C49.7991 340.633 50.7325 337.408 50.7325 337.408C55.2302 329.855 64.8195 317.805 67.3654 310.337" stroke="#E9F2E9" stroke-width="4.022" stroke-miterlimit="10"/>
<path d="M67.9594 236.083C62.3585 237.441 50.9871 243.551 36.9849 252.462C31.7235 255.856 28.6685 255.517 27.141 257.808C25.1043 261.033 26.0378 263.069 27.9896 263.833C28.3291 263.918 28.6685 264.003 29.008 264.088C32.9964 264.512 66.1773 246.351 71.5236 242.024" stroke="#E9F2E9" stroke-width="4.022" stroke-miterlimit="10"/>
<path d="M27.9896 263.748C25.6135 266.803 21.5402 269.773 21.5402 269.773C15.6847 273.932 2.53118 282.078 2.53118 282.078C1.00367 280.551 10.3384 270.452 13.9026 267.397C17.0425 264.766 22.8131 257.129 27.0561 257.723" stroke="#E9F2E9" stroke-width="4.022" stroke-miterlimit="10"/>
<path d="M142.807 201.036C141.195 203.836 160.289 227.427 184.22 248.728C199.07 262.9 199.834 269.858 204.756 269.094C205.435 269.01 206.114 268.755 206.878 268.416C207.132 268.331 207.387 268.076 207.472 267.822C209.678 263.918 195.082 242.618 165.38 215.717" stroke="#E9F2E9" stroke-width="4.022" stroke-miterlimit="10"/>
<path d="M140.601 200.017C140.855 201.375 140.601 200.017 140.601 200.017C143.232 210.625 146.032 234.895 145.693 248.728C145.608 251.613 144.589 253.565 143.147 254.583C141.704 255.601 139.752 255.686 137.716 254.668C132.539 252.207 135.085 241.939 131.436 218.347C129.399 204.769 130.248 196.453 132.794 193.568" stroke="#E9F2E9" stroke-width="4.022" stroke-miterlimit="10"/>
<path d="M204.756 269.094C205.605 271.131 206.878 274.186 208.829 278.429C208.829 278.429 222.662 297.947 229.026 304.906C232.166 307.961 231.657 305.076 231.657 305.076C228.093 297.353 212.988 272.489 207.981 268.161C207.811 267.991 207.641 267.906 207.472 267.737" stroke="#E9F2E9" stroke-width="4.022" stroke-miterlimit="10"/>
<path d="M113.869 179.735C108.184 185.676 95.3697 205.533 77.2093 223.439C71.863 228.7 69.2323 233.198 67.8745 236.083C64.9892 242.363 68.3837 241.854 71.4387 242.024C72.2873 242.024 73.0511 242.024 73.3905 241.939C75.5969 241.599 100.207 215.462 102.413 212.831C102.413 212.831 103.941 211.134 108.863 205.024C112.003 201.545 114.379 198.49 116.246 195.689" stroke="#E9F2E9" stroke-width="4.022" stroke-miterlimit="10"/>
<path d="M137.716 129.752C138.225 128.224 138.479 128.14 139.158 126.782C141.534 122.199 165.72 98.2683 173.866 90.8005C174.8 89.9518 175.649 89.3578 176.412 88.8487C182.013 85.3693 185.323 89.1881 184.389 93.1766C184.22 93.8555 183.965 94.4495 183.541 95.1284C180.74 99.4563 165.041 117.786 157.658 125.509" stroke="#E9F2E9" stroke-width="4.022" stroke-miterlimit="10"/>
<path d="M122.525 133.061C123.968 127.376 133.048 104.378 139.328 90.6307C139.837 89.5275 143.486 81.7202 143.995 80.8716C147.729 74.8465 151.293 76.7983 153.33 81.0413C154.433 83.3326 155.027 86.2179 154.942 88.9335C154.773 96.2315 142.043 118.211 136.527 129.582" stroke="#E9F2E9" stroke-width="4.022" stroke-miterlimit="10"/>
<path d="M110.814 139.596C109.966 138.408 110.814 135.098 110.475 133.655C109.032 127.885 109.711 98.2682 110.136 88.4243C110.22 86.2179 110.645 84.4358 111.154 83.1628C112.681 79.6835 115.567 79.2592 118.367 82.1445C119.301 83.078 120.149 84.3509 120.998 85.9633C124.817 93.6008 120.404 123.387 120.658 134.928" stroke="#E9F2E9" stroke-width="4.022" stroke-miterlimit="10"/>
<path d="M143.995 80.9564C141.449 75.1859 140.007 57.7893 139.582 51.4247C139.498 50.0669 139.498 48.9637 139.667 47.9453C140.346 44.0417 143.232 43.5325 147.729 48.8788C148.069 49.3031 148.408 49.7274 148.832 50.1517C155.112 58.2984 154.518 73.8281 153.33 81.0413" stroke="#E9F2E9" stroke-width="4.022" stroke-miterlimit="10"/>
<path d="M111.154 83.1629C107.675 78.4106 103.007 70.4336 99.5278 65.6814C99.1884 65.2571 98.9338 64.8328 98.6792 64.4933C96.0485 60.5897 94.7756 56.9407 96.1334 55.9223C97.1517 55.1586 99.5278 55.8375 103.686 58.553C113.021 64.7479 117.603 76.5437 118.282 82.0597" stroke="#E9F2E9" stroke-width="4.022" stroke-miterlimit="10"/>
<path d="M176.497 88.8486C177.431 86.8968 178.619 84.6055 179.298 82.2294C180.061 79.6836 181.504 77.3923 183.201 75.9496C185.577 73.913 188.378 73.6584 190.245 77.0528C190.415 77.3923 190.584 77.7317 190.669 78.0712C192.791 83.5023 187.784 88.4243 184.389 93.1765" stroke="#E9F2E9" stroke-width="4.022" stroke-miterlimit="10"/>
<path d="M139.667 47.9454C135.17 43.6174 128.041 33.6887 123.629 29.9547C118.113 25.3722 117.434 19.4319 118.622 11.8792C120.064 2.62934 120.913 -0.595394 124.138 5.5995C127.362 11.7095 121.762 14.3402 126.429 22.3172C131.096 30.2942 142.637 39.629 147.475 46.7573C148.069 47.6059 148.153 48.3697 147.814 49.0486" stroke="#E9F2E9" stroke-width="4.022" stroke-miterlimit="10"/>
<path d="M98.6792 64.4085C93.333 68.2272 67.3654 54.3948 58.2852 46.5876C49.205 38.7803 48.6958 30.379 54.6362 33.6037C60.5765 36.9133 59.4733 44.5509 73.5603 48.4545C83.1496 51.1701 91.2114 53.5462 96.1334 55.8374" stroke="#E9F2E9" stroke-width="4.022" stroke-miterlimit="10"/>
<path d="M195.252 119.399C206.793 111.931 217.485 104.972 223.85 100.984C228.772 97.9288 242.01 91.649 241.247 90.0366C239.719 86.8119 238.107 86.9816 237.428 87.3211C237.173 87.4059 237.088 87.4908 237.088 87.4908C228.178 88.2546 184.22 116.259 178.194 121.181" stroke="#E9F2E9" stroke-width="4.022" stroke-miterlimit="10"/>
<path d="M241.247 90.0367C242.01 89.1032 242.944 87.9152 244.047 86.3028C246.423 82.9932 247.781 80.6171 248.46 79.0896C248.884 78.2409 247.866 77.3923 247.102 77.9864C242.774 81.296 239.38 84.6904 237.428 87.3211" stroke="#E9F2E9" stroke-width="4.022" stroke-miterlimit="10"/>
<path d="M183.201 76.0346C180.401 72.8947 176.412 67.1241 174.121 63.7297C171.151 59.232 176.837 47.9454 180.74 44.4661C184.474 41.2414 179.467 52.0188 178.364 58.1288C177.261 64.3237 187.614 68.3122 190.414 75.186C191.008 76.6286 191.009 77.5621 190.669 78.1561" stroke="#E9F2E9" stroke-width="4.022" stroke-miterlimit="10"/>
<path d="M100.377 157.586C94.0119 153.598 87.5624 157.756 82.3859 159.708C75.2575 162.424 71.269 158.265 82.4708 150.288C90.278 144.772 97.9155 145.96 103.007 148.167" stroke="#E9F2E9" stroke-width="4.022" stroke-miterlimit="10"/>
<path d="M108.353 175.492C99.3582 176.086 81.113 178.717 78.9066 172.522C77.9731 169.807 86.4592 171.589 93.1633 170.146C97.9155 169.128 99.8674 167.6 102.159 167.091" stroke="#E9F2E9" stroke-width="4.022" stroke-miterlimit="10"/>
<path d="M101.14 164.036C92.9936 164.545 83.4042 166.667 94.2665 160.726C96.2183 159.708 98.6793 160.047 100.207 160.217" stroke="#E9F2E9" stroke-width="4.022" stroke-miterlimit="10"/>
<path d="M136.612 253.989C136.612 253.989 128.296 265.87 130.757 273.083C133.218 280.296 141.195 273.847 141.28 271.725C141.28 271.725 144.674 259.59 143.147 254.583" stroke="#E9F2E9" stroke-width="4.022" stroke-miterlimit="10"/>
<path d="M138.649 275.035C138.649 275.035 143.656 280.975 133.557 287C124.392 292.431 121.592 294.298 121.677 298.711C121.762 303.124 117.434 300.408 117.858 294.638C118.197 288.867 129.739 285.218 131.181 280.466C132.624 275.714 132.03 275.289 132.03 275.289" stroke="#E9F2E9" stroke-width="4.022" stroke-miterlimit="10"/>
<path d="M227.244 197.386C229.96 197.302 215.788 196.708 208.575 191.192C201.362 185.676 206.114 195.52 209.933 196.283C213.751 196.962 225.717 197.386 227.244 197.386Z" fill="#E9F2E9" stroke="#E9F2E9" stroke-width="4.022" stroke-miterlimit="10"/>
<path d="M211.29 176.426C214.006 176.341 199.834 175.747 192.621 170.231C185.408 164.715 190.16 174.559 193.979 175.322C197.797 176.001 209.763 176.426 211.29 176.426Z" fill="#E9F2E9" stroke="#E9F2E9" stroke-width="4.022" stroke-miterlimit="10"/>
<path d="M216.128 123.981C218.843 123.642 204.926 126.442 198.646 133.061C192.366 139.681 195.506 129.158 199.155 127.885C202.804 126.612 214.515 124.236 216.128 123.981Z" stroke="#E9F2E9" stroke-width="4.022" stroke-miterlimit="10"/>
<path d="M235.306 147.064C238.022 146.724 224.105 149.525 217.825 156.144C211.545 162.763 214.685 152.24 218.334 150.967C222.068 149.609 233.779 147.233 235.306 147.064Z" fill="#E9F2E9" stroke="#E9F2E9" stroke-width="4.022" stroke-miterlimit="10"/>
<path d="M196.694 233.537C199.07 234.81 189.226 227.173 184.05 220.639C178.449 213.425 178.364 219.196 181.334 221.657C184.389 224.118 195.337 232.859 196.694 233.537Z" stroke="#E9F2E9" stroke-width="4.022" stroke-miterlimit="10"/>
<path d="M202.295 206.127C205.011 206.042 191.348 205.363 182.947 201.799C174.461 198.15 177.261 203.497 181.08 204.26C184.899 205.024 200.768 206.127 202.295 206.127Z" stroke="#E9F2E9" stroke-width="4.022" stroke-miterlimit="10"/>
<path d="M204.162 156.314C206.878 156.229 193.215 155.55 184.814 151.986C176.328 148.337 179.128 153.683 182.947 154.447C186.765 155.21 202.635 156.314 204.162 156.314Z" stroke="#E9F2E9" stroke-width="4.022" stroke-miterlimit="10"/>
<path d="M218.673 224.457C221.389 224.882 208.066 221.657 200.513 216.565C192.876 211.389 194.658 217.159 198.222 218.602C201.871 220.044 217.146 224.203 218.673 224.457Z" stroke="#E9F2E9" stroke-width="4.022" stroke-miterlimit="10"/>
<path d="M187.529 215.547C189.566 216.056 179.807 213.001 175.139 209.182C170.472 205.363 170.217 209.182 172.763 210.285C175.309 211.389 186.341 215.292 187.529 215.547Z" stroke="#E9F2E9" stroke-width="4.022" stroke-miterlimit="10"/>
<path d="M230.639 139.426C230.809 139.511 230.893 139.256 230.724 139.171C228.602 137.814 223.171 134.928 216.297 135.777C207.387 136.88 212.988 139.85 215.109 140.19C217.231 140.529 221.474 136.201 230.639 139.426Z" fill="#E9F2E9" stroke="#E9F2E9" stroke-width="4.022" stroke-miterlimit="10"/>
<path d="M182.268 133.486C182.353 133.486 182.353 133.231 182.268 133.231C180.571 133.231 176.412 133.656 172.254 137.474C166.908 142.396 171.236 141.972 172.678 141.208C174.036 140.529 175.564 135.438 182.268 133.486Z" stroke="#E9F2E9" stroke-width="4.022" stroke-miterlimit="10"/>
<path d="M101.734 149.779C101.734 149.779 91.0417 147.827 85.6954 154.022C80.3491 160.217 80.3491 160.217 80.3491 160.217" stroke="#E9F2E9" stroke-width="4.022" stroke-miterlimit="10" stroke-linecap="round" stroke-linejoin="round"/>
<path d="M132.284 175.238C131.69 173.286 128.805 171.334 127.872 172.437C126.938 173.625 126.599 174.813 128.381 176.341C130.163 177.868 135.509 179.905 137.461 182.027C139.413 184.148 143.91 185.506 147.305 194.841C150.614 204.175 149.681 205.873 149.681 205.873" stroke="#E9F2E9" stroke-width="4.022" stroke-miterlimit="10"/>
<path d="M142.892 143.924C142.043 141.632 136.527 138.068 135.764 140.529C135 142.99 133.642 144.857 137.037 146.13C140.346 147.403 142.892 143.924 142.892 143.924Z" stroke="#E9F2E9" stroke-width="4.022" stroke-miterlimit="10"/>
<path d="M173.442 100.56C173.442 100.56 173.612 100.39 174.036 100.135C174.376 99.8807 174.97 99.6261 175.564 99.4564C176.158 99.2866 176.922 99.1169 177.77 99.2018C178.534 99.2866 179.383 99.7109 180.146 99.8807C180.995 100.135 181.759 100.39 182.522 100.644C182.862 100.814 183.286 100.984 183.626 101.154C183.965 101.323 184.304 101.493 184.559 101.663C184.814 101.832 185.068 102.002 185.323 102.172C185.577 102.342 185.747 102.427 185.832 102.596C186.087 102.851 186.256 103.021 186.256 103.021L186.087 103.275C186.087 103.275 185.917 103.19 185.577 103.105C185.408 103.021 185.238 103.021 184.983 102.936C184.729 102.851 184.474 102.851 184.22 102.766C183.88 102.766 183.626 102.681 183.286 102.681C182.947 102.681 182.607 102.596 182.183 102.596C181.419 102.596 180.655 102.511 179.892 102.511C179.128 102.511 178.279 102.681 177.516 102.681C176.752 102.596 176.073 102.342 175.564 102.172C174.97 101.917 174.461 101.578 174.121 101.323C173.782 101.069 173.612 100.899 173.612 100.899L173.442 100.56Z" fill="#E9F2E9"/>
<path d="M138.055 219.535C138.055 219.535 138.225 219.366 138.649 219.111C138.989 218.856 139.583 218.602 140.177 218.432C140.771 218.262 141.534 218.093 142.383 218.177C143.147 218.262 143.995 218.687 144.759 218.856C145.608 219.111 146.371 219.366 147.135 219.62C147.475 219.79 147.899 219.96 148.238 220.129C148.578 220.299 148.917 220.469 149.172 220.638C149.426 220.808 149.681 220.978 149.936 221.148C150.19 221.317 150.36 221.402 150.445 221.572C150.699 221.827 150.869 221.996 150.869 221.996L150.699 222.251C150.699 222.251 150.53 222.166 150.19 222.081C150.021 221.996 149.851 221.996 149.596 221.911C149.342 221.827 149.087 221.827 148.832 221.742C148.493 221.742 148.238 221.657 147.899 221.657C147.56 221.657 147.22 221.572 146.796 221.572C146.032 221.572 145.268 221.487 144.505 221.487C143.741 221.487 142.892 221.657 142.128 221.657C141.365 221.572 140.686 221.317 140.177 221.148C139.583 220.893 139.073 220.554 138.734 220.299C138.394 220.044 138.225 219.875 138.225 219.875L138.055 219.535Z" fill="#E9F2E9"/>
<path d="M208.745 209.267C208.745 209.267 208.999 209.097 209.508 208.843C210.018 208.588 210.696 208.334 211.63 208.164C212.478 207.994 213.497 207.824 214.6 207.994C215.109 208.079 215.703 208.164 216.212 208.334C216.806 208.503 217.316 208.673 217.91 208.758C219.013 209.012 220.201 209.352 221.219 209.691C221.728 209.861 222.238 210.116 222.662 210.285C223.171 210.455 223.595 210.71 223.935 210.879C224.359 211.049 224.699 211.304 224.953 211.473C225.293 211.643 225.547 211.813 225.717 211.983C226.141 212.322 226.311 212.492 226.311 212.492L226.141 212.746C226.141 212.746 225.887 212.662 225.377 212.492C225.123 212.407 224.868 212.322 224.529 212.237C224.189 212.152 223.85 212.068 223.426 211.983C223.001 211.898 222.577 211.813 222.068 211.728C221.559 211.643 221.134 211.558 220.625 211.558C219.607 211.473 218.504 211.389 217.4 211.304C216.297 211.219 215.194 211.389 214.176 211.304C213.157 211.219 212.224 210.964 211.375 210.71C210.527 210.455 209.848 210.116 209.424 209.861C208.914 209.607 208.66 209.437 208.66 209.437L208.745 209.267Z" fill="#E9F2E9"/>
<path d="M139.413 225.645C139.413 225.645 139.752 225.561 140.346 225.561C140.94 225.561 141.704 225.561 142.553 225.815C143.401 225.985 144.42 226.324 145.353 226.833C145.862 227.088 146.286 227.427 146.711 227.852C147.135 228.191 147.644 228.616 148.069 228.955C149.002 229.634 149.936 230.398 150.699 231.161C151.124 231.501 151.463 231.925 151.802 232.265C152.142 232.604 152.481 233.028 152.736 233.368C152.991 233.707 153.245 234.047 153.415 234.386C153.585 234.641 153.754 234.98 153.924 235.15C154.179 235.574 154.263 235.829 154.263 235.829L154.009 235.998C154.009 235.998 153.839 235.829 153.415 235.489C153.245 235.32 152.991 235.15 152.736 234.895C152.481 234.726 152.227 234.471 151.802 234.216C151.463 233.962 151.124 233.707 150.699 233.453C150.275 233.198 149.851 232.943 149.426 232.689C148.493 232.18 147.559 231.671 146.541 231.161C145.523 230.652 144.42 230.398 143.571 229.888C142.637 229.379 141.874 228.785 141.28 228.191C140.601 227.597 140.092 227.088 139.752 226.664C139.413 226.239 139.243 225.9 139.243 225.9L139.413 225.645Z" fill="#E9F2E9"/>
<path d="M118.537 100.559C118.537 100.559 118.622 100.22 118.961 99.626C119.131 99.3714 119.301 99.032 119.47 98.6925C119.64 98.3531 119.81 98.0136 120.064 97.5893C120.574 96.7407 121.083 95.8073 121.762 94.8738C122.525 93.9403 123.459 93.0917 124.223 92.0733C124.986 91.055 125.75 90.0367 126.429 89.0183C127.108 88 127.702 87.0665 128.211 86.3028C128.72 85.4542 129.06 84.7753 129.314 84.2661C129.484 84.0115 129.484 83.8418 129.569 83.6721C129.654 83.5023 129.654 83.4175 129.654 83.4175L129.993 83.5023C129.993 83.5023 129.993 83.5872 129.993 83.7569C129.993 83.9267 129.993 84.1812 129.908 84.4358C129.823 85.0298 129.654 85.7936 129.314 86.8119C129.06 87.7454 128.635 88.8486 128.211 90.0367C127.787 91.2247 127.193 92.4128 126.599 93.6009C126.005 94.7889 125.411 96.0618 124.732 97.0802C124.392 97.5893 123.968 98.0136 123.459 98.438C123.035 98.8623 122.61 99.2017 122.186 99.4563C121.762 99.7957 121.337 99.9655 120.913 100.22C120.743 100.305 120.574 100.39 120.319 100.475C120.149 100.559 119.98 100.559 119.81 100.644C119.216 100.814 118.876 100.899 118.876 100.899L118.537 100.559Z" fill="#E9F2E9"/>
<path d="M87.4775 218.602C87.4775 218.602 87.817 218.772 88.3262 219.196C88.411 219.281 88.5807 219.366 88.7505 219.535C88.9202 219.705 89.0051 219.875 89.1748 219.96C89.5142 220.299 89.8537 220.723 90.1083 221.148C90.278 221.402 90.3628 221.657 90.5326 221.911C90.7023 222.166 90.7871 222.421 90.9569 222.675C91.2115 223.269 91.3812 223.863 91.5509 224.457C91.7206 225.136 91.7206 225.815 91.8055 226.494C91.8055 227.173 91.8903 227.852 91.8903 228.531C91.8903 229.21 91.9752 229.888 91.9752 230.567C91.9752 231.246 91.9752 231.925 91.8903 232.519C91.8055 233.198 91.8055 233.792 91.7206 234.386C91.6358 234.98 91.5509 235.489 91.466 235.998C91.3812 236.508 91.2963 236.932 91.2114 237.356C91.1266 237.781 91.0417 238.12 90.9569 238.375C90.872 238.629 90.7871 238.884 90.7023 239.053C90.6174 239.223 90.6174 239.308 90.6174 239.308L90.278 239.223C90.278 239.223 90.278 239.138 90.278 238.969C90.278 238.799 90.3628 238.629 90.3628 238.29C90.3628 238.035 90.3628 237.696 90.3628 237.271C90.3628 236.847 90.3628 236.423 90.278 235.914C90.1931 234.895 90.1082 233.792 89.9385 232.604C89.7688 231.416 89.5142 230.143 89.2596 228.87C89.0899 228.276 88.9202 227.597 88.7505 227.003C88.4959 226.409 88.3262 225.815 88.1564 225.221C87.9019 224.118 87.7321 223.015 87.5624 222.081C87.5624 221.827 87.4775 221.572 87.4775 221.402C87.4775 221.233 87.3927 220.978 87.3927 220.808C87.3927 220.384 87.3078 220.044 87.3078 219.705C87.223 219.111 87.223 218.687 87.223 218.687L87.4775 218.602Z" fill="#E9F2E9"/>
</svg>
