<svg width="68" height="126" viewBox="0 0 68 126" fill="none" xmlns="http://www.w3.org/2000/svg">
<g opacity="0.4">
<path d="M4.83682 116.304C2.16234 116.304 0 118.459 0 121.124C0 123.789 2.16234 125.944 4.83682 125.944C7.5113 125.944 9.67364 123.789 9.67364 121.124C9.73054 118.459 7.5113 116.304 4.83682 116.304ZM6.65775 124.072C5.9749 124.072 5.34895 123.675 5.06443 123.052L3.75565 122.825C3.47113 123.052 3.18661 123.165 2.84519 123.165C2.04854 123.165 1.36569 122.485 1.36569 121.691C1.36569 120.897 2.04854 120.216 2.84519 120.216H2.9021L3.86945 119.196V119.139C3.86945 118.345 4.49539 117.721 5.29204 117.721C6.0887 117.721 6.71464 118.345 6.71464 119.139C6.71464 119.933 6.0887 120.557 5.29204 120.557L4.77991 121.067L5.40586 121.18C5.74728 120.84 6.20252 120.67 6.65775 120.67C7.62511 120.67 8.42175 121.464 8.42175 122.428C8.36485 123.335 7.62511 124.072 6.65775 124.072Z" fill="#72A5CB"/>
<path d="M6.65662 121.35C6.31519 121.35 6.03067 121.52 5.80306 121.747C5.74616 121.861 5.57544 121.917 5.46163 121.861L3.98213 121.634C3.86833 121.634 3.75452 121.52 3.69761 121.407C3.64071 121.294 3.69762 121.124 3.75452 121.067L4.77878 119.933C4.83569 119.876 4.94949 119.819 5.0633 119.819C5.1202 119.819 5.12021 119.819 5.17712 119.819C5.57544 119.819 5.91686 119.479 5.91686 119.082C5.91686 118.685 5.57544 118.345 5.17712 118.345C4.77879 118.345 4.43736 118.685 4.43736 119.082C4.43736 119.139 4.43736 119.196 4.43736 119.196C4.43736 119.309 4.43737 119.422 4.32356 119.479L3.12858 120.783C3.07167 120.84 2.95786 120.897 2.84406 120.897C2.78715 120.897 2.73024 120.897 2.73024 120.897C2.27501 120.897 1.93359 121.237 1.93359 121.691C1.93359 122.144 2.27501 122.484 2.73024 122.484C2.95786 122.484 3.12857 122.371 3.29928 122.258C3.35618 122.201 3.47001 122.144 3.52691 122.144H3.5838L5.29091 122.428C5.40472 122.428 5.51853 122.541 5.57543 122.655C5.68924 123.108 6.08757 123.392 6.5428 123.392C7.11184 123.392 7.56706 122.938 7.56706 122.371C7.68087 121.804 7.22565 121.35 6.65662 121.35Z" fill="#72A5CB"/>
</g>
<g opacity="0.4">
<path d="M4.83696 94.3586C6.08885 94.3586 7.17002 93.3379 7.17002 92.0337C7.17002 90.7294 6.14575 89.7087 4.83696 89.7087C3.58508 89.7087 2.50391 90.7294 2.50391 92.0337C2.50391 93.3379 3.58508 94.3586 4.83696 94.3586ZM5.06458 91.0697C4.83696 91.013 4.72315 90.7861 4.78006 90.5593C4.83696 90.3892 5.00768 90.2758 5.17839 90.2758C5.23529 90.2758 5.23528 90.2758 5.29219 90.2758C6.14574 90.5026 6.71478 91.2398 6.71478 92.0904C6.71478 92.941 6.14574 93.6781 5.29219 93.905C5.06457 93.9617 4.83696 93.8483 4.78006 93.6214C4.72315 93.3946 4.83696 93.1678 5.06458 93.1111C5.51981 92.9977 5.86123 92.6007 5.86123 92.0904C5.86123 91.58 5.51981 91.1831 5.06458 91.0697ZM4.15411 90.616C4.49553 90.616 4.78006 90.8996 4.78006 91.2398C4.78006 91.58 4.49553 91.8636 4.15411 91.8636C3.81269 91.8636 3.52818 91.58 3.52818 91.2398C3.52818 90.8996 3.81269 90.616 4.15411 90.616ZM4.15411 92.3739C4.49553 92.3739 4.78006 92.6574 4.78006 92.9977C4.78006 93.3379 4.49553 93.6214 4.15411 93.6214C3.81269 93.6214 3.52818 93.3379 3.52818 92.9977C3.52818 92.6007 3.81269 92.3739 4.15411 92.3739Z" fill="#72A5CB"/>
<path d="M4.83682 96.9102C7.5113 96.9102 9.67364 94.7554 9.67364 92.0902C9.67364 89.4251 7.5113 87.2703 4.83682 87.2703C2.16234 87.2703 0 89.4251 0 92.0902C0 94.7554 2.16234 96.9102 4.83682 96.9102ZM4.83682 88.9714C6.54393 88.9714 7.96653 90.3891 7.96653 92.0902C7.96653 93.7914 6.54393 95.2091 4.83682 95.2091C3.12971 95.2091 1.70711 93.7914 1.70711 92.0902C1.70711 90.3891 3.12971 88.9714 4.83682 88.9714Z" fill="#72A5CB"/>
</g>
<g opacity="0.4">
<path d="M4.83682 58.1235C2.16234 58.1235 0 60.2784 0 62.9435C0 65.6087 2.16234 67.7635 4.83682 67.7635C7.5113 67.7635 9.67364 65.6087 9.67364 62.9435C9.67364 60.2784 7.5113 58.1235 4.83682 58.1235ZM6.65775 65.9489C5.9749 65.9489 5.34895 65.552 5.06443 64.9282L3.75565 64.7014C3.47113 64.9282 3.18661 65.0416 2.84519 65.0416C2.04854 65.0416 1.36569 64.3612 1.36569 63.5673C1.36569 62.7734 2.04854 62.0929 2.84519 62.0929H2.9021L3.86945 61.0722V61.0155C3.86945 60.2216 4.49539 59.5979 5.29204 59.5979C6.0887 59.5979 6.71464 60.2216 6.71464 61.0155C6.71464 61.8094 6.0887 62.4332 5.29204 62.4332L4.77991 62.9435L5.40586 63.0569C5.74728 62.7167 6.20252 62.5466 6.65775 62.5466C7.62511 62.5466 8.42175 63.3405 8.42175 64.3045C8.36485 65.155 7.62511 65.9489 6.65775 65.9489Z" fill="#72A5CB"/>
<path d="M6.65662 63.1702C6.31519 63.1702 6.03067 63.3403 5.80306 63.5671C5.74616 63.6806 5.57544 63.7373 5.46163 63.6806L3.98213 63.4537C3.86833 63.4537 3.75452 63.3403 3.69761 63.2269C3.64071 63.1135 3.69762 62.9434 3.75452 62.8867L4.77878 61.7526C4.83569 61.6959 4.94949 61.6391 5.0633 61.6391C5.1202 61.6391 5.12021 61.6391 5.17712 61.6391C5.57544 61.6391 5.91686 61.2989 5.91686 60.902C5.91686 60.505 5.57544 60.1648 5.17712 60.1648C4.77879 60.1648 4.43736 60.505 4.43736 60.902C4.43736 60.9587 4.43736 61.0154 4.43736 61.0154C4.43736 61.1288 4.43737 61.2422 4.32356 61.2989L3.12858 62.6031C3.07167 62.6599 2.95786 62.7166 2.84406 62.7166C2.78715 62.7166 2.73024 62.7166 2.73024 62.7166C2.27501 62.7166 1.93359 63.0568 1.93359 63.5104C1.93359 63.9641 2.27501 64.3043 2.73024 64.3043C2.95786 64.3043 3.12857 64.1909 3.29928 64.0775C3.35618 64.0208 3.47001 63.9641 3.52691 63.9641H3.5838L5.29091 64.2476C5.40472 64.2476 5.51853 64.361 5.57543 64.4744C5.68924 64.9281 6.08757 65.2116 6.5428 65.2116C7.11184 65.2116 7.56706 64.758 7.56706 64.1909C7.68087 63.6238 7.22565 63.1702 6.65662 63.1702Z" fill="#72A5CB"/>
</g>
<g opacity="0.4">
<path d="M4.83682 0.000244141C2.16234 0.000244141 0 2.15506 0 4.82023C0 7.48539 2.16234 9.64021 4.83682 9.64021C7.5113 9.64021 9.67364 7.48539 9.67364 4.82023C9.67364 2.15506 7.5113 0.000244141 4.83682 0.000244141ZM6.65775 7.76892C5.9749 7.76892 5.34895 7.37198 5.06443 6.74822L3.75565 6.5214C3.47113 6.74822 3.18661 6.86163 2.84519 6.86163C2.04854 6.86163 1.36569 6.18116 1.36569 5.38728C1.36569 4.5934 2.04854 3.91294 2.84519 3.91294H2.9021L3.86945 2.89223V2.83553C3.86945 2.04165 4.49539 1.41789 5.29204 1.41789C6.0887 1.41789 6.71464 2.04165 6.71464 2.83553C6.71464 3.62941 6.0887 4.25317 5.29204 4.25317L4.77991 4.76352L5.40586 4.87693C5.74728 4.5367 6.20252 4.36658 6.65775 4.36658C7.62511 4.36658 8.42175 5.16046 8.42175 6.12446C8.42175 7.08845 7.62511 7.76892 6.65775 7.76892Z" fill="#72A5CB"/>
<path d="M6.65857 4.99026C6.31715 4.99026 6.03263 5.16038 5.80501 5.3872C5.74811 5.50062 5.57739 5.55732 5.46359 5.50062L3.98409 5.27379C3.87028 5.27379 3.75647 5.16038 3.69957 5.04697C3.64266 4.93356 3.69957 4.76344 3.75647 4.70674L4.78074 3.57262C4.83764 3.51592 4.95145 3.45921 5.06525 3.45921C5.12216 3.45921 5.12216 3.45921 5.17907 3.45921C5.57739 3.45921 5.91881 3.11898 5.91881 2.72204C5.91881 2.3251 5.57739 1.98486 5.17907 1.98486C4.78074 1.98486 4.43931 2.3251 4.43931 2.72204C4.43931 2.77874 4.43931 2.83545 4.43931 2.83545C4.43931 2.94886 4.43932 3.06227 4.32551 3.11898L3.13053 4.42321C3.07363 4.47991 2.95982 4.53662 2.84601 4.53662C2.78911 4.53662 2.7322 4.53662 2.7322 4.53662C2.27697 4.53662 1.93555 4.87685 1.93555 5.3305C1.93555 5.78414 2.27697 6.12438 2.7322 6.12438C2.95981 6.12438 3.13052 6.01097 3.30123 5.89755C3.35814 5.84085 3.47196 5.78414 3.52886 5.78414H3.58575L5.29287 6.06767C5.40667 6.06767 5.52048 6.18108 5.57738 6.29449C5.69119 6.74814 6.08952 7.03167 6.54475 7.03167C7.11379 7.03167 7.56902 6.57802 7.56902 6.01097C7.68282 5.44391 7.22761 4.99026 6.65857 4.99026Z" fill="#72A5CB"/>
</g>
<g opacity="0.4">
<path d="M4.83696 36.1784C6.08885 36.1784 7.17002 35.1577 7.17002 33.8535C7.17002 32.606 6.14575 31.5286 4.83696 31.5286C3.58508 31.5286 2.50391 32.5493 2.50391 33.8535C2.56081 35.1577 3.58508 36.1784 4.83696 36.1784ZM5.06458 32.8895C4.83696 32.8328 4.72315 32.606 4.78006 32.3791C4.83696 32.209 5.00768 32.0956 5.17839 32.0956C5.23529 32.0956 5.23528 32.0956 5.29219 32.0956C6.14574 32.3224 6.71478 33.0596 6.71478 33.9102C6.71478 34.7608 6.14574 35.498 5.29219 35.7248C5.06457 35.7815 4.83696 35.6681 4.78006 35.4412C4.72315 35.2144 4.83696 34.9876 5.06458 34.9309C5.51981 34.8175 5.86123 34.4206 5.86123 33.9102C5.86123 33.3998 5.51981 33.0029 5.06458 32.8895ZM4.15411 32.4359C4.49553 32.4359 4.78006 32.7194 4.78006 33.0596C4.78006 33.3998 4.49553 33.6834 4.15411 33.6834C3.81269 33.6834 3.52818 33.3998 3.52818 33.0596C3.52818 32.7194 3.81269 32.4359 4.15411 32.4359ZM4.15411 34.1937C4.49553 34.1937 4.78006 34.4773 4.78006 34.8175C4.78006 35.1577 4.49553 35.4412 4.15411 35.4412C3.81269 35.4412 3.52818 35.1577 3.52818 34.8175C3.52818 34.4773 3.81269 34.1937 4.15411 34.1937Z" fill="#72A5CB"/>
<path d="M4.83682 38.7301C7.5113 38.7301 9.67364 36.5752 9.67364 33.9101C9.67364 31.2449 7.5113 29.0901 4.83682 29.0901C2.16234 29.0901 0 31.2449 0 33.9101C0 36.5752 2.16234 38.7301 4.83682 38.7301ZM4.83682 30.7913C6.54393 30.7913 7.96653 32.2089 7.96653 33.9101C7.96653 35.6112 6.54393 37.0289 4.83682 37.0289C3.12971 37.0289 1.70711 35.6112 1.70711 33.9101C1.70711 32.2089 3.12971 30.7913 4.83682 30.7913Z" fill="#72A5CB"/>
</g>
<g opacity="0.4">
<path d="M36.3048 121.18C36.3048 119.933 35.2805 118.855 33.9717 118.855C32.7198 118.855 31.6387 119.876 31.6387 121.18C31.6387 122.484 32.6629 123.505 33.9717 123.505C35.2805 123.448 36.3048 122.428 36.3048 121.18ZM33.0044 120.953C32.9475 121.18 32.7198 121.294 32.4922 121.237C32.3215 121.18 32.2077 121.01 32.2077 120.84C32.2077 120.783 32.2077 120.783 32.2077 120.727C32.4353 119.876 33.1751 119.309 34.0286 119.309C34.8822 119.309 35.6219 119.876 35.8495 120.727C35.9065 120.953 35.7926 121.18 35.565 121.237C35.3374 121.294 35.1098 121.18 35.0529 120.953C34.9391 120.5 34.5408 120.159 34.0286 120.159C33.5165 120.159 33.1182 120.5 33.0044 120.953ZM32.5491 121.861C32.5491 121.52 32.8336 121.237 33.1751 121.237C33.5165 121.237 33.801 121.52 33.801 121.861C33.801 122.201 33.5165 122.484 33.1751 122.484C32.8336 122.484 32.5491 122.201 32.5491 121.861ZM34.3131 121.861C34.3131 121.52 34.5977 121.237 34.9391 121.237C35.2805 121.237 35.565 121.52 35.565 121.861C35.565 122.201 35.2805 122.484 34.9391 122.484C34.5977 122.484 34.3131 122.201 34.3131 121.861Z" fill="#72A5CB"/>
<path d="M38.9217 121.18C38.9217 118.515 36.7593 116.36 34.0849 116.36C31.4104 116.36 29.248 118.515 29.248 121.18C29.248 123.845 31.4104 126 34.0849 126C36.7024 126 38.9217 123.845 38.9217 121.18ZM30.8983 121.18C30.8983 119.479 32.3208 118.061 34.028 118.061C35.7351 118.061 37.1577 119.479 37.1577 121.18C37.1577 122.881 35.7351 124.299 34.028 124.299C32.3208 124.299 30.8983 122.881 30.8983 121.18Z" fill="#72A5CB"/>
<path d="M33.06 92.0901L32.2064 91.6932C31.9219 91.5798 31.5805 91.6365 31.296 91.8633L31.0684 92.0901L31.296 92.3169C31.5236 92.5438 31.865 92.6005 32.1495 92.4871L33.06 92.0901Z" fill="#72A5CB"/>
<path d="M34.2551 89.3684L34.0275 89.1416L33.7999 89.3684C33.5723 89.5953 33.5154 89.9355 33.6292 90.2757L34.0275 91.1263L34.4258 90.2757C34.5396 89.9355 34.4827 89.5953 34.2551 89.3684Z" fill="#72A5CB"/>
<path d="M38.9217 92.0902C38.9217 89.4251 36.7593 87.2703 34.0849 87.2703C31.4104 87.2703 29.248 89.4251 29.248 92.0902C29.248 94.7554 31.4104 96.9102 34.0849 96.9102C36.7593 96.9102 38.9217 94.7554 38.9217 92.0902ZM34.028 96.0029C33.9142 96.0029 33.8003 95.9462 33.7434 95.8895L33.2313 95.3792C32.9468 95.0956 32.7761 94.642 32.7761 94.2451C32.7761 94.0182 32.833 93.7914 32.9468 93.5646L33.2313 92.8841L32.5485 93.1677C31.9225 93.4512 31.2397 93.3378 30.7275 92.8274L30.1585 92.3171C30.1016 92.2604 30.0447 92.147 30.0447 92.0335C30.0447 91.9201 30.1016 91.8067 30.1585 91.75L30.6706 91.2397C31.1259 90.786 31.8656 90.6159 32.4916 90.8994L33.1744 91.183L32.8899 90.5025C32.7761 90.2757 32.7192 90.0488 32.7192 89.822C32.7192 89.4251 32.8899 88.9714 33.1744 88.6879L33.6866 88.1775C33.8573 88.0074 34.0849 88.0074 34.2556 88.1775L34.7677 88.6879C35.223 89.1416 35.3937 89.8787 35.1091 90.5025L34.8246 91.183L35.5075 90.8994C36.1334 90.6159 36.8163 90.7293 37.3284 91.2397L37.8405 91.75C38.0112 91.9201 38.0112 92.147 37.8405 92.3171L37.3284 92.8274C36.8732 93.2811 36.1334 93.4512 35.5075 93.1677L34.8246 92.8841L35.1091 93.5646C35.3937 94.1884 35.2799 94.8688 34.7677 95.3792L34.2556 95.8895C34.2556 96.0029 34.1418 96.0029 34.028 96.0029Z" fill="#72A5CB"/>
<path d="M36.9877 92.0901L36.7601 91.8633C36.5325 91.6365 36.1911 91.5798 35.8496 91.6932L34.9961 92.0901L35.8496 92.4871C36.1342 92.6005 36.4756 92.5438 36.7601 92.3169L36.9877 92.0901Z" fill="#72A5CB"/>
<path d="M34.4258 93.9048L34.0275 93.0542L33.6292 93.9048C33.5154 94.1883 33.5723 94.5285 33.7999 94.8121L34.0275 95.0389L34.2551 94.8121C34.4827 94.5853 34.5396 94.245 34.4258 93.9048Z" fill="#72A5CB"/>
<path d="M36.3048 63.0005C36.3048 61.7529 35.2805 60.6755 33.9717 60.6755C32.7198 60.6755 31.6387 61.6962 31.6387 63.0005C31.6387 64.248 32.6629 65.3254 33.9717 65.3254C35.2805 65.2687 36.3048 64.248 36.3048 63.0005ZM33.0044 62.7736C32.9475 63.0005 32.7198 63.1139 32.4922 63.0572C32.3215 63.0005 32.2077 62.8304 32.2077 62.6602C32.2077 62.6035 32.2077 62.6035 32.2077 62.5468C32.4353 61.6962 33.1751 61.1292 34.0286 61.1292C34.8822 61.1292 35.6219 61.6962 35.8495 62.5468C35.9065 62.7736 35.7926 63.0005 35.565 63.0572C35.3374 63.1139 35.1098 63.0005 35.0529 62.7736C34.9391 62.32 34.5408 61.9798 34.0286 61.9798C33.5165 61.9798 33.1182 62.32 33.0044 62.7736ZM32.5491 63.7376C32.5491 63.3974 32.8336 63.1139 33.1751 63.1139C33.5165 63.1139 33.801 63.3974 33.801 63.7376C33.801 64.0779 33.5165 64.3614 33.1751 64.3614C32.8336 64.3047 32.5491 64.0212 32.5491 63.7376ZM34.3131 63.7376C34.3131 63.3974 34.5977 63.1139 34.9391 63.1139C35.2805 63.1139 35.565 63.3974 35.565 63.7376C35.565 64.0779 35.2805 64.3614 34.9391 64.3614C34.5977 64.3047 34.3131 64.0212 34.3131 63.7376Z" fill="#72A5CB"/>
<path d="M38.9217 63.0004C38.9217 60.3352 36.7593 58.1804 34.0849 58.1804C31.4104 58.1804 29.248 60.3352 29.248 63.0004C29.248 65.6656 31.4104 67.8204 34.0849 67.8204C36.7024 67.8204 38.9217 65.6656 38.9217 63.0004ZM30.8983 63.0004C30.8983 61.2992 32.3208 59.8816 34.028 59.8816C35.7351 59.8816 37.1577 61.2992 37.1577 63.0004C37.1577 64.7016 35.7351 66.1192 34.028 66.1192C32.3208 66.1192 30.8983 64.7016 30.8983 63.0004Z" fill="#72A5CB"/>
<path d="M36.3048 4.8203C36.3048 3.57277 35.2805 2.49536 33.9717 2.49536C32.7198 2.49536 31.6387 3.51606 31.6387 4.8203C31.6387 6.12453 32.6629 7.14523 33.9717 7.14523C35.2805 7.14523 36.3048 6.12453 36.3048 4.8203ZM33.0044 4.59347C32.9475 4.82029 32.7198 4.93371 32.4922 4.877C32.3215 4.82029 32.2077 4.65018 32.2077 4.48006C32.2077 4.42335 32.2077 4.42336 32.2077 4.36665C32.4353 3.51607 33.1751 2.94901 34.0286 2.94901C34.8822 2.94901 35.6219 3.51607 35.8495 4.36665C35.9065 4.59347 35.7926 4.82029 35.565 4.877C35.3374 4.93371 35.1098 4.82029 35.0529 4.59347C34.9391 4.13983 34.5408 3.79959 34.0286 3.79959C33.5165 3.79959 33.1182 4.13983 33.0044 4.59347ZM32.5491 5.55747C32.5491 5.21723 32.8336 4.93371 33.1751 4.93371C33.5165 4.93371 33.801 5.21723 33.801 5.55747C33.801 5.8977 33.5165 6.18123 33.1751 6.18123C32.8336 6.12452 32.5491 5.8977 32.5491 5.55747ZM34.3131 5.55747C34.3131 5.21723 34.5977 4.93371 34.9391 4.93371C35.2805 4.93371 35.565 5.21723 35.565 5.55747C35.565 5.8977 35.2805 6.18123 34.9391 6.18123C34.5977 6.12452 34.3131 5.8977 34.3131 5.55747Z" fill="#72A5CB"/>
<path d="M38.9217 4.82023C38.9217 2.15506 36.7593 0.000244141 34.0849 0.000244141C31.4104 0.000244141 29.248 2.15506 29.248 4.82023C29.248 7.48539 31.4104 9.64021 34.0849 9.64021C36.7024 9.69692 38.9217 7.48539 38.9217 4.82023ZM30.8983 4.82023C30.8983 3.11906 32.3208 1.70141 34.028 1.70141C35.7351 1.70141 37.1577 3.11906 37.1577 4.82023C37.1577 6.5214 35.7351 7.93904 34.028 7.93904C32.3208 7.93904 30.8983 6.5214 30.8983 4.82023Z" fill="#72A5CB"/>
<path d="M33.06 33.9102L32.2064 33.5132C31.9219 33.3998 31.5805 33.4565 31.296 33.6834L31.0684 33.9102L31.296 34.137C31.5236 34.3638 31.865 34.4205 32.1495 34.3071L33.06 33.9102Z" fill="#72A5CB"/>
<path d="M34.2551 31.1885L34.0275 30.9617L33.7999 31.1885C33.5723 31.4153 33.5154 31.7555 33.6292 32.0958L34.0275 32.9464L34.4258 32.0958C34.5396 31.8123 34.4827 31.4153 34.2551 31.1885Z" fill="#72A5CB"/>
<path d="M38.9217 33.9103C38.9217 31.2451 36.7593 29.0903 34.0849 29.0903C31.4104 29.0903 29.248 31.2451 29.248 33.9103C29.248 36.5755 31.4104 38.7303 34.0849 38.7303C36.7593 38.7303 38.9217 36.5755 38.9217 33.9103ZM34.028 37.8797C33.9142 37.8797 33.8003 37.823 33.7434 37.7663L33.2313 37.256C32.9468 36.9724 32.7761 36.5188 32.7761 36.1218C32.7761 35.895 32.833 35.6682 32.9468 35.4414L33.2313 34.7609L32.5485 35.0444C31.9225 35.328 31.2397 35.2145 30.7275 34.7042L30.1585 34.1938C30.1016 34.1371 30.0447 34.0237 30.0447 33.9103C30.0447 33.7969 30.1016 33.6835 30.1585 33.6268L30.6706 33.1164C31.1259 32.6628 31.8656 32.4927 32.4916 32.7762L33.1744 33.0597L32.8899 32.3793C32.7761 32.1524 32.7192 31.9256 32.7192 31.6988C32.7192 31.3019 32.8899 30.8482 33.1744 30.5647L33.6866 30.0543C33.8573 29.8842 34.0849 29.8842 34.2556 30.0543L34.7677 30.5647C35.223 31.0183 35.3937 31.7555 35.1091 32.3793L34.8246 33.0597L35.5075 32.7762C36.1334 32.4927 36.8163 32.6061 37.3284 33.1164L37.8405 33.6268C38.0112 33.7969 38.0112 34.0237 37.8405 34.1938L37.3284 34.7042C36.8732 35.1578 36.1334 35.328 35.5075 35.0444L34.8246 34.7609L35.1091 35.4414C35.3937 36.0651 35.2799 36.7456 34.7677 37.256L34.2556 37.7663C34.2556 37.823 34.1418 37.8797 34.028 37.8797Z" fill="#72A5CB"/>
<path d="M36.9877 33.9102L36.7601 33.6834C36.5325 33.4565 36.1911 33.3998 35.8496 33.5132L34.9961 33.9102L35.8496 34.3071C36.1342 34.4205 36.4756 34.3638 36.7601 34.137L36.9877 33.9102Z" fill="#72A5CB"/>
<path d="M34.4258 35.7817L34.0275 34.9312L33.6292 35.7817C33.5154 36.0653 33.5723 36.4055 33.7999 36.689L34.0275 36.9158L34.2551 36.689C34.4827 36.4055 34.5396 36.0653 34.4258 35.7817Z" fill="#72A5CB"/>
</g>
<g opacity="0.4">
<path d="M64.1875 121.124L65.0411 121.521C65.3256 121.634 65.667 121.577 65.9515 121.35L66.1791 121.124L65.9515 120.897C65.7239 120.67 65.3825 120.613 65.098 120.727L64.1875 121.124Z" fill="#72A5CB"/>
<path d="M62.9932 123.845L63.2209 124.072L63.4485 123.845C63.6761 123.618 63.733 123.278 63.6192 122.938L63.2209 122.087L62.8225 122.938C62.7087 123.278 62.7656 123.618 62.9932 123.845Z" fill="#72A5CB"/>
<path d="M58.3262 121.18C58.3262 123.845 60.4885 126 63.163 126C65.8375 126 67.9998 123.845 67.9998 121.18C67.9998 118.515 65.8375 116.36 63.163 116.36C60.5454 116.304 58.3262 118.458 58.3262 121.18ZM63.2199 117.211C63.3337 117.211 63.4475 117.268 63.5044 117.324L64.0165 117.835C64.3011 118.118 64.4718 118.572 64.4718 118.969C64.4718 119.196 64.4149 119.422 64.3011 119.649L64.0165 120.33L64.6994 120.046C65.3253 119.763 66.0082 119.876 66.5203 120.386L67.0893 120.897C67.1463 120.953 67.2032 121.067 67.2032 121.18C67.2032 121.294 67.1463 121.407 67.0893 121.464L66.5772 121.974C66.122 122.428 65.3822 122.598 64.7563 122.314L64.0735 122.031L64.358 122.711C64.4718 122.938 64.5287 123.165 64.5287 123.392C64.5287 123.789 64.358 124.242 64.0735 124.526L63.5613 125.036C63.3906 125.206 63.163 125.206 62.9923 125.036L62.4801 124.526C62.0249 124.072 61.8542 123.335 62.1387 122.711L62.4233 122.031L61.7404 122.314C61.1145 122.598 60.4316 122.484 59.9195 121.974L59.4073 121.464C59.2366 121.294 59.2366 121.067 59.4073 120.897L59.9195 120.386C60.3747 119.933 61.1145 119.763 61.7404 120.046L62.4233 120.33L62.1387 119.649C61.8542 119.025 61.968 118.345 62.4801 117.835L62.9923 117.324C62.9923 117.211 63.1061 117.211 63.2199 117.211Z" fill="#72A5CB"/>
<path d="M60.2598 121.124L60.4874 121.35C60.715 121.577 61.0564 121.634 61.3978 121.521L62.2514 121.124L61.3978 120.727C61.1133 120.613 60.7719 120.67 60.4874 120.897L60.2598 121.124Z" fill="#72A5CB"/>
<path d="M62.8225 119.309L63.2209 120.16L63.6192 119.309C63.733 119.025 63.6761 118.685 63.4485 118.402L63.2209 118.175L62.9932 118.402C62.7656 118.628 62.7087 119.025 62.8225 119.309Z" fill="#72A5CB"/>
</g>
<g opacity="0.4">
<path d="M60.9434 92.0901C60.9434 93.3376 61.9676 94.415 63.2764 94.415C64.5283 94.415 65.6095 93.3943 65.6095 92.0901C65.6095 90.7858 64.5852 89.7651 63.2764 89.7651C61.9676 89.7651 60.9434 90.7858 60.9434 92.0901ZM64.2438 92.2602C64.3007 92.0334 64.5283 91.9199 64.7559 91.9767C64.9266 92.0334 65.0404 92.2035 65.0404 92.3736C65.0404 92.4303 65.0404 92.4303 65.0404 92.487C64.8128 93.3376 64.0731 93.9047 63.2195 93.9047C62.366 93.9047 61.6262 93.3376 61.3986 92.487C61.3417 92.2602 61.4555 92.0334 61.6831 91.9767C61.9107 91.9199 62.1383 92.0334 62.1952 92.2602C62.309 92.7138 62.7074 93.0541 63.2195 93.0541C63.7316 93.0541 64.13 92.7705 64.2438 92.2602ZM64.6421 91.3529C64.6421 91.6931 64.3576 91.9767 64.0162 91.9767C63.6747 91.9767 63.3902 91.6931 63.3902 91.3529C63.3902 91.0127 63.6747 90.7291 64.0162 90.7291C64.4145 90.7291 64.6421 91.0127 64.6421 91.3529ZM62.935 91.3529C62.935 91.6931 62.6505 91.9767 62.309 91.9767C61.9676 91.9767 61.6831 91.6931 61.6831 91.3529C61.6831 91.0127 61.9676 90.7291 62.309 90.7291C62.6505 90.7291 62.935 91.0127 62.935 91.3529Z" fill="#72A5CB"/>
<path d="M58.3262 92.0901C58.3262 94.7553 60.4885 96.9101 63.163 96.9101C65.8375 96.9101 67.9998 94.7553 67.9998 92.0901C67.9998 89.4249 65.8375 87.2701 63.163 87.2701C60.5454 87.2134 58.3262 89.4249 58.3262 92.0901ZM66.3496 92.0901C66.3496 93.7913 64.927 95.2089 63.2199 95.2089C61.5128 95.2089 60.0902 93.7913 60.0902 92.0901C60.0902 90.3889 61.5128 88.9713 63.2199 88.9713C64.927 88.9713 66.3496 90.3322 66.3496 92.0901Z" fill="#72A5CB"/>
</g>
<g opacity="0.4">
<path d="M64.1875 63.0003L65.0411 63.3972C65.3256 63.5106 65.667 63.4539 65.9515 63.2271L66.1791 63.0003L65.9515 62.7734C65.7239 62.5466 65.3825 62.4899 65.098 62.6033L64.1875 63.0003Z" fill="#72A5CB"/>
<path d="M62.9932 65.7222L63.2209 65.9491L63.4485 65.7222C63.6761 65.4954 63.733 65.1552 63.6192 64.8149L63.2209 63.9644L62.8225 64.8149C62.7087 65.0985 62.7656 65.4954 62.9932 65.7222Z" fill="#72A5CB"/>
<path d="M58.3262 63.0002C58.3262 65.6654 60.4885 67.8202 63.163 67.8202C65.8375 67.8202 67.9998 65.6654 67.9998 63.0002C67.9998 60.3351 65.8375 58.1803 63.163 58.1803C60.5454 58.1236 58.3262 60.3351 58.3262 63.0002ZM63.2199 59.0309C63.3337 59.0309 63.4475 59.0876 63.5044 59.1443L64.0165 59.6546C64.3011 59.9381 64.4718 60.3918 64.4718 60.7887C64.4718 61.0155 64.4149 61.2424 64.3011 61.4692L64.0165 62.1497L64.6994 61.8661C65.3253 61.5826 66.0082 61.696 66.5203 62.2064L67.0893 62.7167C67.1463 62.7734 67.2032 62.8868 67.2032 63.0002C67.2032 63.1137 67.1463 63.2271 67.0893 63.2838L66.5772 63.7941C66.122 64.2478 65.3822 64.4179 64.7563 64.1344L64.0735 63.8508L64.358 64.5313C64.4718 64.7581 64.5287 64.9849 64.5287 65.2118C64.5287 65.6087 64.358 66.0624 64.0735 66.3459L63.5613 66.8562C63.3906 67.0264 63.163 67.0264 62.9923 66.8562L62.4801 66.3459C62.0249 65.8922 61.8542 65.1551 62.1387 64.5313L62.4233 63.8508L61.7404 64.1344C61.1145 64.4179 60.4316 64.3045 59.9195 63.7941L59.4073 63.2838C59.2366 63.1137 59.2366 62.8868 59.4073 62.7167L59.9195 62.2064C60.3747 61.7527 61.1145 61.5826 61.7404 61.8661L62.4233 62.1497L62.1387 61.4692C61.8542 60.8454 61.968 60.165 62.4801 59.6546L62.9923 59.1443C62.9923 59.0876 63.1061 59.0309 63.2199 59.0309Z" fill="#72A5CB"/>
<path d="M60.2598 63.0003L60.4874 63.2271C60.715 63.4539 61.0564 63.5106 61.3978 63.3972L62.2514 63.0003L61.3978 62.6033C61.1133 62.4899 60.7719 62.5466 60.4874 62.7734L60.2598 63.0003Z" fill="#72A5CB"/>
<path d="M62.8225 61.129L63.2209 61.9796L63.6192 61.129C63.733 60.8455 63.6761 60.5052 63.4485 60.2217L63.2209 59.9949L62.9932 60.2217C62.7656 60.5052 62.7087 60.8455 62.8225 61.129Z" fill="#72A5CB"/>
</g>
<g opacity="0.4">
<path d="M64.1875 4.8201L65.0411 5.21704C65.3256 5.33045 65.667 5.27374 65.9515 5.04692L66.1791 4.8201L65.9515 4.59328C65.7239 4.36645 65.3825 4.30975 65.098 4.42316L64.1875 4.8201Z" fill="#72A5CB"/>
<path d="M62.9932 7.54206L63.2209 7.76888L63.4485 7.54206C63.6761 7.31523 63.733 6.975 63.6192 6.63477L63.2209 5.78418L62.8225 6.63477C62.7087 6.975 62.7656 7.31523 62.9932 7.54206Z" fill="#72A5CB"/>
<path d="M58.3262 4.82023C58.3262 7.48539 60.4885 9.64021 63.163 9.64021C65.8375 9.64021 67.9998 7.48539 67.9998 4.82023C67.9998 2.15506 65.8375 0.000244141 63.163 0.000244141C60.5454 0.000244141 58.3262 2.15506 58.3262 4.82023ZM63.2199 0.850829C63.3337 0.850829 63.4475 0.907535 63.5044 0.964241L64.0165 1.47459C64.3011 1.75812 64.4718 2.21177 64.4718 2.6087C64.4718 2.83553 64.4149 3.06235 64.3011 3.28917L64.0165 3.96964L64.6994 3.68611C65.3253 3.40259 66.0082 3.516 66.5203 4.02635L67.0893 4.5367C67.1463 4.5934 67.2032 4.70682 67.2032 4.82023C67.2032 4.93364 67.1463 5.04705 67.0893 5.10376L66.5772 5.61411C66.122 6.06775 65.3822 6.23787 64.7563 5.95434L64.0735 5.67081L64.358 6.35128C64.4718 6.5781 64.5287 6.80492 64.5287 7.03175C64.5287 7.42869 64.358 7.88233 64.0735 8.16586L63.5613 8.67621C63.3906 8.84633 63.163 8.84633 62.9923 8.67621L62.4801 8.16586C62.0249 7.71222 61.8542 6.97504 62.1387 6.35128L62.4233 5.67081L61.7404 5.95434C61.1145 6.23787 60.4316 6.12446 59.9195 5.61411L59.4073 5.10376C59.2366 4.93364 59.2366 4.70682 59.4073 4.5367L59.9195 4.02635C60.3747 3.5727 61.1145 3.40259 61.7404 3.68611L62.4233 3.96964L62.1387 3.28917C61.8542 2.66541 61.968 1.98494 62.4801 1.47459L62.9923 0.964241C62.9923 0.907535 63.1061 0.850829 63.2199 0.850829Z" fill="#72A5CB"/>
<path d="M60.2598 4.8201L60.4874 5.04692C60.715 5.27374 61.0564 5.33045 61.3978 5.21704L62.2514 4.8201L61.3978 4.42316C61.1133 4.30975 60.7719 4.36645 60.4874 4.59328L60.2598 4.8201Z" fill="#72A5CB"/>
<path d="M62.8225 3.0057L63.2209 3.85628L63.6192 3.0057C63.733 2.72217 63.6761 2.38193 63.4485 2.09841L63.2209 1.87158L62.9932 2.09841C62.7656 2.32523 62.7087 2.66546 62.8225 3.0057Z" fill="#72A5CB"/>
</g>
<g opacity="0.4">
<path d="M60.9434 33.9104C60.9434 35.1579 61.9676 36.2353 63.2764 36.2353C64.5283 36.2353 65.6095 35.2146 65.6095 33.9104C65.6095 32.6629 64.5852 31.5854 63.2764 31.5854C61.9676 31.5854 60.9434 32.6629 60.9434 33.9104ZM64.2438 34.1372C64.3007 33.9104 64.5283 33.797 64.7559 33.8537C64.9266 33.9104 65.0404 34.0805 65.0404 34.2506C65.0404 34.3073 65.0404 34.3073 65.0404 34.364C64.8128 35.2146 64.0731 35.7817 63.2195 35.7817C62.366 35.7817 61.6262 35.2146 61.3986 34.364C61.3417 34.1372 61.4555 33.9104 61.6831 33.8537C61.9107 33.797 62.1383 33.9104 62.1952 34.1372C62.309 34.5909 62.7074 34.9311 63.2195 34.9311C63.7316 34.9311 64.13 34.5909 64.2438 34.1372ZM64.6421 33.1732C64.6421 33.5134 64.3576 33.797 64.0162 33.797C63.6747 33.797 63.3902 33.5134 63.3902 33.1732C63.3902 32.833 63.6747 32.5494 64.0162 32.5494C64.4145 32.6062 64.6421 32.8897 64.6421 33.1732ZM62.935 33.1732C62.935 33.5134 62.6505 33.797 62.309 33.797C61.9676 33.797 61.6831 33.5134 61.6831 33.1732C61.6831 32.833 61.9676 32.5494 62.309 32.5494C62.6505 32.6062 62.935 32.8897 62.935 33.1732Z" fill="#72A5CB"/>
<path d="M58.3262 33.9103C58.3262 36.5755 60.4885 38.7303 63.163 38.7303C65.8375 38.7303 67.9998 36.5755 67.9998 33.9103C67.9998 31.2451 65.8375 29.0903 63.163 29.0903C60.5454 29.0903 58.3262 31.2451 58.3262 33.9103ZM66.3496 33.9103C66.3496 35.6115 64.927 37.0291 63.2199 37.0291C61.5128 37.0291 60.0902 35.6115 60.0902 33.9103C60.0902 32.2091 61.5128 30.7915 63.2199 30.7915C64.927 30.7915 66.3496 32.2091 66.3496 33.9103Z" fill="#72A5CB"/>
</g>
</svg>
