<svg width="308" height="293" viewBox="0 0 308 293" fill="none" xmlns="http://www.w3.org/2000/svg">
<path d="M202.624 159.913H202.561" stroke="#E9F2E9" stroke-width="3.6758" stroke-miterlimit="10"/>
<path d="M80.2405 180.447C69.626 195.421 70.7633 216.397 83.8418 230.108C95.7832 242.554 113.032 247.103 128.764 243.565" stroke="#E9F2E9" stroke-width="3.6758" stroke-miterlimit="10"/>
<path d="M163.071 104.818C164.082 100.964 166.104 97.2997 169.2 94.3302C173.623 90.097 180.762 87.3802 187.838 86.8747C192.83 86.4956 197.758 87.1906 201.738 89.1493C203.444 89.9706 204.961 91.0447 206.224 92.3715L228.022 115.18C229.917 117.139 231.497 119.54 232.697 122.067C237.941 133.124 237.057 148.35 228.527 156.438C225.432 159.407 221.704 161.303 217.723 162.124" stroke="#E9F2E9" stroke-width="3.6758" stroke-miterlimit="10"/>
<path d="M207.299 161.808C205.656 161.366 204.077 160.734 202.56 159.913C200.538 158.839 198.706 157.449 197.063 155.68L168.505 125.858C166.863 124.152 165.599 122.257 164.588 120.235C163.767 118.466 163.135 116.633 162.756 114.738" stroke="#E9F2E9" stroke-width="3.6758" stroke-miterlimit="10"/>
<path d="M201.802 89.1491C205.466 86.0532 210.71 85.3582 216.081 86.8745" stroke="#E9F2E9" stroke-width="3.6758" stroke-miterlimit="10"/>
<path d="M236.488 112.211C236.488 116.065 235.288 119.54 232.761 122.067" stroke="#E9F2E9" stroke-width="3.6758" stroke-miterlimit="10"/>
<path d="M217.661 87.3171C221.515 88.7071 225.369 91.1712 228.718 94.6462C233.267 99.3848 235.857 105.071 236.426 110.315" stroke="#E9F2E9" stroke-width="3.6758" stroke-miterlimit="10"/>
<path d="M155.616 75.7546C159.344 76.0705 161.745 83.7155 157.828 92.94C155.68 97.9946 154.29 102.986 153.342 107.219" stroke="#E9F2E9" stroke-width="3.6758" stroke-miterlimit="10"/>
<path d="M147.277 76.0073C141.78 77.3341 137.736 82.8941 141.906 103.491C142.348 105.766 142.791 107.788 143.233 109.62" stroke="#E9F2E9" stroke-width="3.6758" stroke-miterlimit="10"/>
<path d="M254.938 183.353C248.43 186.259 240.912 191.63 214.06 180.699L215.26 175.455V174.76C215.323 174.76 215.386 174.76 215.45 174.76C223.347 173.56 245.145 165.346 252.348 170.274C255.38 172.359 257.529 174.507 258.476 176.466" stroke="#E9F2E9" stroke-width="3.6758" stroke-miterlimit="10"/>
<path d="M172.043 102.607C172.043 102.607 78.2185 125.858 66.3403 125.794C54.4622 125.731 17.1218 139.884 28.4313 165.852C39.7409 191.882 94.2034 183.1 108.293 166.547C129.838 141.274 155.426 119.729 169.516 109.683C183.605 99.6373 172.043 102.607 172.043 102.607Z" stroke="#E9F2E9" stroke-width="3.6758" stroke-miterlimit="10"/>
<path d="M219.24 150.246C219.24 150.246 216.776 193.715 190.429 242.175C164.082 290.636 153.215 296.827 141.4 286.086C129.585 275.346 123.646 233.203 134.261 223.031C144.875 212.859 158.27 211.469 166.925 202.75C175.581 194.031 178.425 183.732 188.534 177.414C198.643 171.096 208.562 162.945 210.647 155.364C212.795 147.971 216.586 139.695 219.24 150.246Z" stroke="#E9F2E9" stroke-width="3.6758" stroke-miterlimit="10"/>
<path d="M152.963 55.0945C149.425 53.3886 148.287 51.0509 145.95 58.1272C143.612 65.2035 142.791 68.7417 147.277 76.0708C151.762 83.3998 156.817 75.6917 157.196 71.0794C157.638 66.4672 156.627 56.8636 152.963 55.0945Z" stroke="#E9F2E9" stroke-width="3.6758" stroke-miterlimit="10"/>
<path d="M258.982 176.214C265.11 178.551 284.886 185.88 285.076 190.24C285.265 194.599 278.884 202.687 264.162 190.808C249.441 178.93 250.642 180.32 254.812 178.299C258.982 176.214 258.982 176.214 258.982 176.214Z" stroke="#E9F2E9" stroke-width="3.6758" stroke-miterlimit="10"/>
<path d="M192.957 68.5522C192.893 70.574 194.852 63.624 199.275 63.8767C203.697 64.1295 214.438 80.4303 215.639 85.2321C216.839 90.0339 216.523 91.7398 217.534 91.0448C218.545 90.3498 217.092 78.7244 210.205 71.5849C203.382 64.4454 203.824 62.8658 201.107 62.1076C198.39 61.3495 193.083 62.7395 192.957 68.5522Z" stroke="#E9F2E9" stroke-width="3.6758" stroke-miterlimit="10"/>
<path d="M233.772 109.431C236.489 111.073 236.363 110.062 250.831 109.241C253.485 109.115 255.696 108.673 257.528 108.23C265.932 106.208 267.701 102.797 271.934 113.032C277.115 125.542 277.62 137.547 277.62 137.547C277.62 137.547 276.672 140.39 274.082 127.627C271.491 114.864 270.291 110.947 268.585 109.178C266.879 107.409 263.847 108.357 258.476 109.557C253.106 110.757 236.299 113.537 233.898 111.642C231.434 109.683 233.772 109.431 233.772 109.431Z" stroke="#E9F2E9" stroke-width="3.6758" stroke-miterlimit="10"/>
<path d="M141.59 27.9896C141.906 25.0833 142.222 32.8546 138.494 34.1814C134.703 35.5714 133.566 33.5496 138.62 35.8873C143.675 38.225 147.908 46.1859 148.856 49.1555C149.614 51.6195 151.51 53.1359 151.51 53.1359C151.51 53.1359 154.795 55.7264 152.647 50.4191C150.941 46.1227 146.708 39.2359 145.634 37.53C144.56 35.8241 141.148 32.0964 141.59 27.9896Z" stroke="#E9F2E9" stroke-width="3.6758" stroke-miterlimit="10"/>
<path d="M283.685 194.22C283.685 194.22 288.929 194.22 294.047 193.146C299.165 192.072 301.376 189.987 303.082 188.723C304.851 187.46 300.871 190.808 303.903 194.473C308.579 200.096 305.609 196.305 293.226 195.863C287.16 195.673 282.358 195.61 282.358 195.61" stroke="#E9F2E9" stroke-width="3.6758" stroke-miterlimit="10"/>
<path d="M160.228 105.513L149.803 110.568C146.77 113.285 62.1071 129.585 51.4926 139.126C40.8781 148.666 25.209 157.133 34.939 167.305C44.669 177.477 60.0853 182.279 60.0853 182.279" stroke="#E9F2E9" stroke-width="3.6758" stroke-miterlimit="10"/>
<path d="M219.051 152.836C219.051 152.836 203.761 178.172 195.358 206.288C186.955 234.404 172.107 270.291 161.935 274.398C151.763 278.505 148.351 290.572 135.714 266.437C123.078 242.301 143.359 232.508 146.329 224.358C149.298 216.207 148.983 213.491 148.983 213.491" stroke="#E9F2E9" stroke-width="2.6256" stroke-miterlimit="10"/>
<path d="M92.2455 176.845C92.2455 176.845 87.6965 170.274 76.387 166.168C65.0774 161.998 60.7179 158.017 62.4238 151.573C64.1297 145.128 63.4979 133.503 63.4979 133.503" stroke="#E9F2E9" stroke-width="2.6256" stroke-miterlimit="10"/>
<path d="M64.4451 159.534C64.4451 159.534 63.7501 166.104 66.6565 171.791C69.5628 177.477 70.321 181.963 70.321 181.963C70.321 181.963 64.6978 182.848 57.7479 188.787C50.7979 194.726 49.5974 199.275 54.336 198.138C59.1378 197 74.1751 192.325 75.5651 189.229C76.8919 186.133 81.0619 181.268 81.0619 181.268" stroke="#E9F2E9" stroke-width="3.6758" stroke-miterlimit="10"/>
<path d="M58.4431 135.398C58.4431 135.398 50.735 154.542 46.1227 156.69C41.5105 158.838 32.665 164.146 32.665 164.146" stroke="#E9F2E9" stroke-width="2.6256" stroke-miterlimit="10"/>
<path d="M48.2076 154.921C48.2076 154.921 50.9876 167.305 48.713 171.728C46.4385 176.15 46.4385 176.15 46.4385 176.15" stroke="#E9F2E9" stroke-width="2.6256" stroke-miterlimit="10"/>
<path d="M102.543 122.509C102.543 122.509 99.7634 133.187 92.5606 142.474C85.3579 151.762 80.9352 166.483 81.7566 168.442L80.2402 180.447" stroke="#E9F2E9" stroke-width="2.6256" stroke-miterlimit="10"/>
<path d="M85.9902 153.531C85.9902 153.531 92.877 156.438 95.657 162.314C98.437 168.19 96.352 175.013 96.352 175.013" stroke="#E9F2E9" stroke-width="2.6256" stroke-miterlimit="10"/>
<path d="M65.2667 168.505C65.2667 168.505 59.5804 172.991 56.8004 175.329C54.0204 177.73 53.5781 179.689 53.5781 179.689" stroke="#E9F2E9" stroke-width="2.6256" stroke-miterlimit="10"/>
<path d="M196.115 203.824C196.115 203.824 164.525 236.931 155.237 241.796C145.949 246.724 131.923 248.114 131.923 248.114" stroke="#E9F2E9" stroke-width="2.6256" stroke-miterlimit="10"/>
<path d="M184.237 215.955C184.237 215.955 171.791 240.722 159.786 252.41C147.782 264.099 143.485 278.504 143.485 278.504" stroke="#E9F2E9" stroke-width="2.6256" stroke-miterlimit="10"/>
<path d="M155.237 241.859C155.237 241.859 151.32 253.232 145.57 259.045C139.821 264.857 137.988 270.48 137.988 270.48" stroke="#E9F2E9" stroke-width="2.6256" stroke-miterlimit="10"/>
<path d="M89.9071 146.202C89.9071 146.202 84.8526 146.518 78.9135 152.457C73.0376 158.396 71.2686 164.019 71.2686 164.019" stroke="#E9F2E9" stroke-width="2.6256" stroke-miterlimit="10"/>
<path d="M141.085 132.997C141.085 132.997 147.845 139.505 149.046 139.568C150.246 139.631 149.614 141.021 151.004 143.359C152.394 145.697 156.185 150.815 159.913 152.647C163.641 154.479 168.632 157.575 170.022 162.756C171.412 167.937 178.868 176.909 179.247 177.351C179.689 177.793 185.123 180.004 185.123 180.004" stroke="#E9F2E9" stroke-width="3.6758" stroke-miterlimit="10"/>
<path d="M120.804 152.394C120.804 152.394 124.911 158.396 124.152 160.292C123.394 162.124 125.795 163.767 127.817 164.146C129.839 164.462 132.808 167.305 133.25 168.505C133.693 169.706 134.893 172.296 135.02 173.307C135.146 174.318 139.505 176.34 140.832 177.73C142.159 179.12 143.044 177.793 144.434 179.499C145.887 181.205 144.56 183.922 146.455 185.501C148.351 187.081 154.353 193.841 154.353 193.841C154.353 193.841 159.092 196.242 160.861 197.506C162.63 198.769 166.863 202.813 166.863 202.813" stroke="#E9F2E9" stroke-width="3.6758" stroke-miterlimit="10"/>
<path d="M198.453 87.8224C198.453 87.8224 188.281 106.019 209.826 119.792C231.371 133.566 234.593 126.995 234.593 126.995" stroke="#E9F2E9" stroke-width="2.6256" stroke-miterlimit="10"/>
<path d="M206.288 92.3716C206.288 92.3716 197.127 101.533 204.077 106.777C211.027 111.958 212.48 111.2 217.282 115.622C222.083 120.045 233.962 124.91 233.962 124.973" stroke="#E9F2E9" stroke-width="2.6256" stroke-miterlimit="10"/>
<path d="M96.3516 164.02L88.2012 171.791" stroke="#E9F2E9" stroke-width="2.6256" stroke-miterlimit="10"/>
<path d="M146.328 224.421C146.328 224.421 155.616 220.63 163.261 219.809C170.843 219.051 176.908 222.968 176.908 222.968" stroke="#E9F2E9" stroke-width="2.6256" stroke-miterlimit="10"/>
<path d="M80.8093 199.212C78.4716 201.423 78.7243 211.342 81.1884 215.576C83.5893 219.809 87.8857 226.316 88.9598 229.16C90.0339 232.003 92.5611 235.92 102.923 235.099C113.285 234.277 112.969 234.151 115.938 229.602C118.908 225.053 122.004 233.33 125.226 233.014C128.448 232.635 129.586 232.066 129.586 232.066" stroke="#E9F2E9" stroke-width="3.6758" stroke-miterlimit="10"/>
<path d="M112.842 120.045C112.842 120.045 115.559 138.115 106.776 148.098C97.9311 158.08 95.0879 160.671 95.0879 160.671" stroke="#E9F2E9" stroke-width="2.6256" stroke-miterlimit="10"/>
<path d="M201.107 188.344C201.107 188.344 186.639 193.273 175.898 202.75C165.157 212.29 156.312 209.953 156.312 209.953" stroke="#E9F2E9" stroke-width="2.6256" stroke-miterlimit="10"/>
<path d="M106.714 148.034C106.714 148.034 111.389 157.385 114.801 158.08" stroke="#E9F2E9" stroke-width="2.6256" stroke-miterlimit="10"/>
<path d="M175.897 202.75C175.897 202.75 176.213 214.881 173.244 217.597C170.337 220.314 171.917 220.757 171.917 220.757" stroke="#E9F2E9" stroke-width="2.6256" stroke-miterlimit="10"/>
<path d="M156.564 255.885C156.564 255.885 154.037 261.256 164.778 272.565" stroke="#E9F2E9" stroke-width="2.6256" stroke-miterlimit="10"/>
<path d="M169.2 94.33C169.2 94.33 174.76 90.16 179.12 95.9095C183.479 101.659 187.27 106.334 180.762 112.842C174.255 119.35 165.22 121.435 165.22 121.435" stroke="#E9F2E9" stroke-width="3.6758" stroke-miterlimit="10"/>
<path d="M227.265 157.638C227.265 157.638 230.677 148.856 222.716 142.98C214.818 137.104 209.384 131.102 205.088 142.222C200.792 153.342 199.465 157.891 199.465 157.891" stroke="#E9F2E9" stroke-width="3.6758" stroke-miterlimit="10"/>
<path d="M164.398 101.533C164.398 101.533 176.656 95.3412 181.268 99.3216" stroke="#E9F2E9" stroke-width="3.6758" stroke-miterlimit="10"/>
<path d="M222.715 142.98L222.589 160.544" stroke="#E9F2E9" stroke-width="3.6758" stroke-miterlimit="10"/>
<path d="M168.505 125.858C168.505 125.858 142.348 131.671 137.104 136.599C131.86 141.527 162.756 114.738 162.756 114.738L168.505 125.858Z" fill="#E9F2E9"/>
<path d="M197.443 156.122C197.443 156.122 188.534 176.656 183.353 181.647C178.172 186.639 207.488 161.555 207.488 161.555L197.443 156.122Z" fill="#E9F2E9"/>
<path d="M85.6746 179.057C85.6746 179.057 76.6396 191.251 76.8923 197.379C77.1451 203.571 75.3128 216.271 78.0296 222.273C80.7464 228.275 70.0055 208.878 72.5328 199.654C75.0601 190.429 78.851 180.699 78.851 180.699L85.6746 179.057Z" fill="#E9F2E9"/>
<path d="M216.46 167.305C216.46 167.305 193.146 231.434 189.861 236.299C186.575 241.164 163.64 289.309 150.625 290.572" stroke="#E9F2E9" stroke-width="2.6256" stroke-miterlimit="10"/>
<path d="M66.2772 125.858C66.2772 125.858 37.2768 138.494 26.915 155.743" stroke="#E9F2E9" stroke-width="2.6256" stroke-miterlimit="10"/>
<path d="M108.989 152.963C108.989 152.963 103.176 163.325 101.976 171.98" stroke="#E9F2E9" stroke-width="2.6256" stroke-miterlimit="10"/>
<path d="M146.455 222.399C146.455 222.399 131.165 230.36 129.08 237.121" stroke="#E9F2E9" stroke-width="2.6256" stroke-miterlimit="10"/>
<path d="M160.861 220.441C160.861 220.441 152.331 236.299 140.011 246.724" stroke="#E9F2E9" stroke-width="2.6256" stroke-miterlimit="10"/>
<path d="M158.396 264.226C158.396 264.226 147.845 276.356 147.087 280.084" stroke="#E9F2E9" stroke-width="2.6256" stroke-miterlimit="10"/>
<path d="M128.701 247.04C125.415 249.567 117.518 254.18 115.812 259.361C114.106 264.605 119.918 265.173 124.91 261.382C129.901 257.655 129.775 256.581 129.775 256.581" stroke="#E9F2E9" stroke-width="2.6256" stroke-miterlimit="10"/>
<path d="M139 136.536C139 136.536 142.728 143.612 145.318 143.17C147.909 142.727 149.551 145.002 150.625 147.403C151.7 149.804 151.447 152.773 155.174 154.921C158.965 157.07 161.05 157.765 162.693 159.028C164.336 160.292 166.926 162.44 167.053 164.588C167.116 166.8 170.401 171.475 171.791 174.065C173.181 176.656 177.604 180.131 177.604 180.131L181.774 181.774" stroke="#E9F2E9" stroke-width="2.6256" stroke-miterlimit="10"/>
<path d="M51.367 197.506C51.367 197.506 50.0402 203.192 46.6916 209.258C44.7962 212.669 43.0903 215.133 42.0162 216.587C41.6371 217.092 42.0162 217.85 42.7112 217.787C43.9116 217.661 45.3016 217.661 49.2189 218.672C50.1666 213.743 45.2384 213.996 52.5675 198.327" stroke="#E9F2E9" stroke-width="3.6758" stroke-miterlimit="10"/>
<path d="M116.444 263.151C116.444 263.151 99.9537 260.877 93.3196 264.478C87.191 268.585 96.0996 261.888 91.9928 254.748C87.886 247.609 93.1932 259.36 115.117 260.055" stroke="#E9F2E9" stroke-width="3.6758" stroke-miterlimit="10"/>
<path d="M76.4496 166.104C76.4496 166.104 74.0487 177.161 74.2382 180.51" stroke="#E9F2E9" stroke-width="2.6256" stroke-miterlimit="10"/>
<path d="M164.904 246.724C164.904 246.724 167.874 258.034 173.623 261.13" stroke="#E9F2E9" stroke-width="2.6256" stroke-miterlimit="10"/>
<path d="M49.3445 163.64L38.4141 170.906" stroke="#E9F2E9" stroke-width="2.6256" stroke-miterlimit="10"/>
<path d="M139.821 218.608L139 226.001" stroke="#E9F2E9" stroke-width="2.6256" stroke-miterlimit="10"/>
<path d="M207.552 93.6982C207.552 93.6982 199.022 105.64 232.761 122.067" stroke="#E9F2E9" stroke-width="2.6256" stroke-miterlimit="10"/>
</svg>
