<svg width="203" height="276" viewBox="0 0 203 276" fill="none" xmlns="http://www.w3.org/2000/svg">
<path d="M186.335 134.639C179.038 134.23 175.832 135.321 172.422 135.867C169.012 136.344 175.628 133.412 180.538 133.616C185.449 133.821 191.518 134.639 191.518 134.639H186.335Z" stroke="#E9F2E9" stroke-width="4.022" stroke-miterlimit="10" stroke-linecap="round" stroke-linejoin="round"/>
<path d="M180.402 149.371C175.082 147.393 172.491 147.529 169.831 147.12C167.239 146.711 172.763 146.029 176.31 147.256C179.856 148.484 184.221 150.53 184.221 150.53L180.402 149.371Z" stroke="#E9F2E9" stroke-width="4.022" stroke-miterlimit="10" stroke-linecap="round" stroke-linejoin="round"/>
<path d="M82.944 134.981C82.7394 134.503 82.603 134.094 82.5348 133.889C81.8528 131.98 81.5118 130.07 81.5118 128.092C81.5118 127.888 81.5118 127.615 81.5118 127.41C81.6482 124.819 82.3302 122.227 83.626 119.84C85.5356 116.294 88.1272 114.248 89.8322 112.952C92.2192 111.111 94.538 110.019 96.1748 109.406C99.0392 108.519 101.904 107.564 104.768 106.678C119.431 103.472 134.026 100.267 148.689 97.0615C152.372 96.4477 157.964 96.1067 164.17 98.0163C167.103 98.9029 175.287 101.494 180.129 109.61C182.584 113.702 183.266 117.59 183.471 120.045C181.97 125.842 180.538 132.662 179.788 140.505C179.106 147.393 179.038 153.667 179.311 159.123C178.697 162.329 175.491 178.424 163.897 182.721C155.782 185.79 147.598 181.493 133.753 174.264C122.227 168.194 113.702 161.647 108.314 157.077C107.223 156.259 106.132 155.509 105.041 154.69L98.0844 149.575L97.266 148.962L90.2414 143.778C90.105 143.71 90.0368 143.642 90.0368 143.642C88.8092 142.619 85.1264 139.891 82.944 134.981Z" stroke="#E9F2E9" stroke-width="4.022" stroke-miterlimit="10"/>
<path d="M97.2661 148.825C96.7887 149.78 96.2431 151.007 95.7657 152.576C95.2201 154.486 94.6745 156.259 94.1971 158.032C90.5825 182.038 87.4453 193.223 88.9457 199.225C89.9687 203.385 92.0147 204.476 93.5833 203.658C93.6515 203.658 93.6515 203.658 93.7197 203.59C94.3335 203.249 94.8109 202.635 95.2201 201.885C98.4255 195.747 104.632 164.579 105.586 156.736C105.586 156.736 105.382 155.85 105.041 154.554" stroke="#E9F2E9" stroke-width="4.022" stroke-miterlimit="10"/>
<path d="M93.5832 203.658C93.7196 204.476 93.5832 205.226 93.3104 205.772C91.4008 209.659 61.3928 244.578 55.323 250.307C55.323 250.307 55.1866 250.238 54.9138 250.17C54.0954 249.829 52.3904 248.943 51.5038 246.76C51.3674 246.487 51.2992 246.215 51.231 245.942C50.2762 242.327 58.9376 238.644 73.5324 214.161C80.3524 202.703 85.5356 199.293 88.9456 199.293" stroke="#E9F2E9" stroke-width="4.022" stroke-miterlimit="10"/>
<path d="M51.5038 246.76C49.7988 248.397 47.7528 251.398 45.5022 255.831C40.8646 265.038 38.8186 269.471 39.7734 271.994C40.7964 274.518 41.5466 271.926 41.5466 271.926C45.1612 265.856 52.8678 256.172 54.9138 250.17" stroke="#E9F2E9" stroke-width="4.022" stroke-miterlimit="10"/>
<path d="M55.3912 190.495C50.89 191.587 41.7512 196.497 30.4982 203.658C26.2698 206.386 23.8146 206.113 22.587 207.955C20.9502 210.546 21.7004 212.183 23.269 212.797C23.5418 212.865 23.8146 212.933 24.0874 213.001C27.2928 213.342 53.959 198.748 58.2556 195.269" stroke="#E9F2E9" stroke-width="4.022" stroke-miterlimit="10"/>
<path d="M23.269 212.728C21.3594 215.184 18.0858 217.571 18.0858 217.571C13.38 220.912 2.80898 227.46 2.80898 227.46C1.58138 226.232 9.08338 218.116 11.9478 215.661C14.4712 213.547 19.1088 207.409 22.5188 207.886" stroke="#E9F2E9" stroke-width="4.022" stroke-miterlimit="10"/>
<path d="M115.544 162.329C114.248 164.579 129.593 183.539 148.825 200.657C160.76 212.047 161.374 217.639 165.33 217.025C165.875 216.957 166.421 216.752 167.035 216.48C167.239 216.411 167.444 216.207 167.512 216.002C169.285 212.865 157.555 195.747 133.685 174.127" stroke="#E9F2E9" stroke-width="4.022" stroke-miterlimit="10"/>
<path d="M113.77 161.51C113.975 162.602 113.77 161.51 113.77 161.51C115.885 170.035 118.135 189.541 117.862 200.657C117.794 202.976 116.976 204.545 115.816 205.363C114.657 206.181 113.088 206.25 111.452 205.431C107.291 203.453 109.337 195.201 106.405 176.242C104.768 165.33 105.45 158.646 107.496 156.327" stroke="#E9F2E9" stroke-width="4.022" stroke-miterlimit="10"/>
<path d="M165.33 217.025C166.012 218.662 167.035 221.117 168.603 224.527C168.603 224.527 179.72 240.213 184.835 245.806C187.358 248.261 186.949 245.942 186.949 245.942C184.085 239.736 171.945 219.753 167.921 216.275C167.785 216.139 167.648 216.07 167.512 215.934" stroke="#E9F2E9" stroke-width="4.022" stroke-miterlimit="10"/>
<path d="M92.2873 145.21C87.7179 149.984 77.4197 165.943 62.8249 180.333C58.5283 184.562 56.4141 188.176 55.3229 190.495C53.0041 195.542 55.7321 195.133 58.1873 195.269C58.8693 195.269 59.4831 195.269 59.7559 195.201C61.5291 194.928 81.3071 173.923 83.0803 171.808C83.0803 171.808 84.3079 170.444 88.2635 165.534C90.7869 162.738 92.6965 160.283 94.1969 158.032" stroke="#E9F2E9" stroke-width="4.022" stroke-miterlimit="10"/>
<path d="M111.452 105.041C111.861 103.813 112.065 103.745 112.611 102.654C114.521 98.971 133.958 79.7385 140.505 73.7369C141.255 73.0549 141.937 72.5775 142.551 72.1683C147.052 69.3721 149.712 72.4411 148.962 75.6465C148.825 76.1921 148.621 76.6695 148.28 77.2151C146.029 80.6933 133.412 95.4245 127.479 101.631" stroke="#E9F2E9" stroke-width="4.022" stroke-miterlimit="10"/>
<path d="M99.2438 107.701C100.403 103.131 107.701 84.6489 112.747 73.6005C113.157 72.7139 116.089 66.4395 116.498 65.7575C119.499 60.9153 122.364 62.4839 124 65.8939C124.887 67.7353 125.364 70.0541 125.296 72.2365C125.16 78.1017 114.93 95.7655 110.497 104.904" stroke="#E9F2E9" stroke-width="4.022" stroke-miterlimit="10"/>
<path d="M89.8322 112.952C89.1502 111.997 89.8322 109.337 89.5594 108.178C88.4 103.54 88.9456 79.7386 89.2866 71.8274C89.3548 70.0542 89.6958 68.622 90.105 67.599C91.3326 64.8028 93.6514 64.4618 95.902 66.7806C96.6522 67.5308 97.3342 68.5538 98.0162 69.8496C101.085 75.9876 97.5388 99.9258 97.7434 109.201" stroke="#E9F2E9" stroke-width="4.022" stroke-miterlimit="10"/>
<path d="M116.498 65.8257C114.452 61.1881 113.293 47.2071 112.952 42.0921C112.884 41.0009 112.884 40.1143 113.02 39.2959C113.566 36.1587 115.885 35.7495 119.499 40.0461C119.772 40.3871 120.045 40.7281 120.386 41.0691C125.433 47.6163 124.955 60.0969 124 65.8939" stroke="#E9F2E9" stroke-width="4.022" stroke-miterlimit="10"/>
<path d="M90.1051 67.5989C87.3089 63.7797 83.5579 57.3689 80.7617 53.5497C80.4889 53.2087 80.2843 52.8677 80.0797 52.5949C77.9655 49.4577 76.9425 46.5251 78.0337 45.7067C78.8521 45.0929 80.7617 45.6385 84.1035 47.8209C91.6055 52.7995 95.2883 62.2793 95.8339 66.7123" stroke="#E9F2E9" stroke-width="4.022" stroke-miterlimit="10"/>
<path d="M142.619 72.1684C143.369 70.5998 144.324 68.7584 144.87 66.8488C145.483 64.8028 146.643 62.9614 148.007 61.802C149.916 60.1652 152.167 59.9606 153.667 62.6886C153.804 62.9614 153.94 63.2342 154.008 63.507C155.713 67.8718 151.69 71.8274 148.962 75.6466" stroke="#E9F2E9" stroke-width="4.022" stroke-miterlimit="10"/>
<path d="M113.02 39.2959C109.406 35.8177 103.677 27.8383 100.13 24.8375C95.6973 21.1547 95.1517 16.3807 96.1065 10.3109C97.2659 2.87713 97.9479 0.285525 100.54 5.26413C103.131 10.1745 98.6299 12.2887 102.381 18.6995C106.132 25.1103 115.407 32.6123 119.295 38.3411C119.772 39.0231 119.84 39.6369 119.567 40.1825" stroke="#E9F2E9" stroke-width="4.022" stroke-miterlimit="10"/>
<path d="M80.0795 52.5267C75.7829 55.5957 54.9137 44.4791 47.6163 38.2047C40.3189 31.9303 39.9097 25.1785 44.6837 27.7701C49.4577 30.4299 48.5711 36.5679 59.8923 39.7051C67.5989 41.8875 74.0779 43.7971 78.0335 45.6385" stroke="#E9F2E9" stroke-width="4.022" stroke-miterlimit="10"/>
<path d="M157.691 96.7204C166.966 90.7188 175.56 85.1264 180.675 81.921C184.63 79.4658 195.269 74.419 194.656 73.1232C193.428 70.5316 192.132 70.668 191.587 70.9408C191.382 71.009 191.314 71.0772 191.314 71.0772C184.153 71.691 148.825 94.197 143.983 98.1526" stroke="#E9F2E9" stroke-width="4.022" stroke-miterlimit="10"/>
<path d="M194.656 73.1232C195.269 72.373 196.02 71.4182 196.906 70.1224C198.816 67.4626 199.907 65.553 200.453 64.3254C200.794 63.6434 199.975 62.9614 199.361 63.4388C195.883 66.0986 193.155 68.8266 191.587 70.9408" stroke="#E9F2E9" stroke-width="4.022" stroke-miterlimit="10"/>
<path d="M148.007 61.8702C145.756 59.3468 142.551 54.7092 140.709 51.9812C138.322 48.3666 142.892 39.296 146.029 36.4998C149.03 33.9082 145.006 42.5696 144.119 47.48C143.233 52.4586 151.553 55.664 153.804 61.1882C154.281 62.3476 154.281 63.0978 154.008 63.5752" stroke="#E9F2E9" stroke-width="4.022" stroke-miterlimit="10"/>
<path d="M81.4435 127.41C76.3285 124.205 71.1453 127.547 66.9851 129.115C61.2563 131.298 58.0509 127.956 67.0533 121.545C73.3277 117.112 79.4657 118.067 83.5577 119.84" stroke="#E9F2E9" stroke-width="4.022" stroke-miterlimit="10"/>
<path d="M87.8544 141.801C80.6252 142.278 65.9622 144.392 64.189 139.414C63.4388 137.231 70.2588 138.663 75.6466 137.504C79.4658 136.686 81.0344 135.458 82.8758 135.049" stroke="#E9F2E9" stroke-width="4.022" stroke-miterlimit="10"/>
<path d="M82.0574 132.593C75.5102 133.003 67.8036 134.708 76.5332 129.934C78.1018 129.115 80.0796 129.388 81.3072 129.524" stroke="#E9F2E9" stroke-width="4.022" stroke-miterlimit="10"/>
<path d="M110.565 204.885C110.565 204.885 103.881 214.433 105.859 220.23C107.837 226.027 114.248 220.844 114.316 219.139C114.316 219.139 117.044 209.387 115.816 205.363" stroke="#E9F2E9" stroke-width="4.022" stroke-miterlimit="10"/>
<path d="M112.202 221.799C112.202 221.799 116.226 226.573 108.11 231.415C100.744 235.78 98.4935 237.28 98.5617 240.827C98.6299 244.373 95.1517 242.191 95.4927 237.553C95.7655 232.916 105.041 229.983 106.2 226.164C107.36 222.345 106.882 222.004 106.882 222.004" stroke="#E9F2E9" stroke-width="4.022" stroke-miterlimit="10"/>
<path d="M183.402 159.396C185.585 159.328 174.195 158.851 168.399 154.418C162.602 149.985 166.421 157.896 169.49 158.51C172.559 159.055 182.175 159.396 183.402 159.396Z" fill="#E9F2E9" stroke="#E9F2E9" stroke-width="4.022" stroke-miterlimit="10"/>
<path d="M170.581 142.551C172.763 142.482 161.374 142.005 155.577 137.572C149.78 133.139 153.599 141.05 156.668 141.664C159.737 142.21 169.353 142.551 170.581 142.551Z" fill="#E9F2E9" stroke="#E9F2E9" stroke-width="4.022" stroke-miterlimit="10"/>
<path d="M174.468 100.403C176.651 100.13 165.466 102.381 160.419 107.701C155.372 113.02 157.896 104.563 160.828 103.54C163.761 102.517 173.173 100.608 174.468 100.403Z" stroke="#E9F2E9" stroke-width="4.022" stroke-miterlimit="10"/>
<path d="M189.882 118.954C192.064 118.681 180.879 120.931 175.832 126.251C170.786 131.571 173.309 123.114 176.242 122.091C179.242 121 188.654 119.09 189.882 118.954Z" fill="#E9F2E9" stroke="#E9F2E9" stroke-width="4.022" stroke-miterlimit="10"/>
<path d="M158.851 188.449C160.76 189.472 152.849 183.334 148.689 178.083C144.188 172.286 144.119 176.923 146.506 178.901C148.962 180.879 157.759 187.904 158.851 188.449Z" stroke="#E9F2E9" stroke-width="4.022" stroke-miterlimit="10"/>
<path d="M163.352 166.421C165.534 166.353 154.554 165.807 147.802 162.943C140.982 160.01 143.233 164.307 146.302 164.92C149.371 165.534 162.124 166.421 163.352 166.421Z" stroke="#E9F2E9" stroke-width="4.022" stroke-miterlimit="10"/>
<path d="M164.852 126.387C167.035 126.319 156.054 125.773 149.303 122.909C142.483 119.976 144.733 124.273 147.802 124.887C150.871 125.501 163.625 126.387 164.852 126.387Z" stroke="#E9F2E9" stroke-width="4.022" stroke-miterlimit="10"/>
<path d="M176.514 181.152C178.697 181.493 167.989 178.901 161.92 174.809C155.782 170.649 157.214 175.287 160.078 176.446C163.011 177.605 175.287 180.947 176.514 181.152Z" stroke="#E9F2E9" stroke-width="4.022" stroke-miterlimit="10"/>
<path d="M151.485 173.991C153.122 174.4 145.279 171.945 141.528 168.876C137.777 165.807 137.572 168.876 139.618 169.763C141.664 170.649 150.53 173.786 151.485 173.991Z" stroke="#E9F2E9" stroke-width="4.022" stroke-miterlimit="10"/>
<path d="M186.131 112.815C186.267 112.884 186.335 112.679 186.199 112.611C184.494 111.52 180.129 109.201 174.605 109.883C167.444 110.769 171.945 113.156 173.65 113.429C175.355 113.702 178.765 110.224 186.131 112.815Z" fill="#E9F2E9" stroke="#E9F2E9" stroke-width="4.022" stroke-miterlimit="10"/>
<path d="M147.257 108.042C147.325 108.042 147.325 107.837 147.257 107.837C145.893 107.837 142.551 108.178 139.209 111.247C134.912 115.203 138.391 114.862 139.55 114.248C140.641 113.702 141.869 109.61 147.257 108.042Z" stroke="#E9F2E9" stroke-width="4.022" stroke-miterlimit="10"/>
<path d="M82.5347 121.136C82.5347 121.136 73.9415 119.567 69.6449 124.546C65.3483 129.525 65.3483 129.525 65.3483 129.525" stroke="#E9F2E9" stroke-width="4.022" stroke-miterlimit="10" stroke-linecap="round" stroke-linejoin="round"/>
<path d="M107.087 141.596C106.609 140.027 104.291 138.459 103.54 139.345C102.79 140.3 102.517 141.255 103.95 142.483C105.382 143.71 109.678 145.347 111.247 147.052C112.816 148.757 116.43 149.848 119.158 157.35C121.818 164.852 121.068 166.216 121.068 166.216" stroke="#E9F2E9" stroke-width="4.022" stroke-miterlimit="10"/>
<path d="M115.612 116.43C114.93 114.589 110.497 111.724 109.883 113.702C109.269 115.68 108.178 117.18 110.906 118.203C113.566 119.226 115.612 116.43 115.612 116.43Z" stroke="#E9F2E9" stroke-width="4.022" stroke-miterlimit="10"/>
<path d="M140.164 81.5798C140.164 81.5798 140.3 81.4434 140.641 81.2388C140.914 81.0342 141.391 80.8296 141.869 80.6932C142.346 80.5568 142.96 80.4204 143.642 80.4886C144.256 80.5568 144.938 80.8978 145.552 81.0342C146.234 81.2388 146.847 81.4434 147.461 81.648C147.734 81.7844 148.075 81.9208 148.348 82.0572C148.621 82.1936 148.893 82.33 149.098 82.4664C149.303 82.6028 149.507 82.7392 149.712 82.8756C149.916 83.012 150.053 83.0802 150.121 83.2166C150.326 83.4212 150.462 83.5576 150.462 83.5576L150.326 83.7622C150.326 83.7622 150.189 83.694 149.916 83.6258C149.78 83.5576 149.644 83.5576 149.439 83.4894C149.234 83.4212 149.03 83.4212 148.825 83.353C148.552 83.353 148.348 83.2848 148.075 83.2848C147.802 83.2848 147.529 83.2166 147.188 83.2166C146.575 83.2166 145.961 83.1484 145.347 83.1484C144.733 83.1484 144.051 83.2848 143.437 83.2848C142.824 83.2166 142.278 83.012 141.869 82.8756C141.391 82.671 140.982 82.3982 140.709 82.1936C140.437 81.989 140.3 81.8526 140.3 81.8526L140.164 81.5798Z" fill="#E9F2E9"/>
<path d="M111.724 177.196C111.724 177.196 111.861 177.06 112.202 176.855C112.475 176.651 112.952 176.446 113.429 176.31C113.907 176.173 114.521 176.037 115.203 176.105C115.816 176.173 116.498 176.514 117.112 176.651C117.794 176.855 118.408 177.06 119.022 177.265C119.295 177.401 119.636 177.537 119.908 177.674C120.181 177.81 120.454 177.947 120.659 178.083C120.863 178.219 121.068 178.356 121.272 178.492C121.477 178.629 121.613 178.697 121.682 178.833C121.886 179.038 122.023 179.174 122.023 179.174L121.886 179.379C121.886 179.379 121.75 179.311 121.477 179.242C121.341 179.174 121.204 179.174 121 179.106C120.795 179.038 120.59 179.038 120.386 178.97C120.113 178.97 119.908 178.901 119.636 178.901C119.363 178.901 119.09 178.833 118.749 178.833C118.135 178.833 117.521 178.765 116.908 178.765C116.294 178.765 115.612 178.901 114.998 178.901C114.384 178.833 113.839 178.629 113.429 178.492C112.952 178.288 112.543 178.015 112.27 177.81C111.997 177.606 111.861 177.469 111.861 177.469L111.724 177.196Z" fill="#E9F2E9"/>
<path d="M168.535 168.944C168.535 168.944 168.74 168.808 169.149 168.603C169.558 168.399 170.104 168.194 170.854 168.058C171.536 167.921 172.354 167.785 173.241 167.921C173.65 167.989 174.127 168.058 174.537 168.194C175.014 168.33 175.423 168.467 175.901 168.535C176.787 168.74 177.742 169.012 178.56 169.285C178.97 169.422 179.379 169.626 179.72 169.763C180.129 169.899 180.47 170.104 180.743 170.24C181.084 170.376 181.357 170.581 181.561 170.717C181.834 170.854 182.039 170.99 182.175 171.127C182.516 171.399 182.652 171.536 182.652 171.536L182.516 171.74C182.516 171.74 182.311 171.672 181.902 171.536C181.698 171.467 181.493 171.399 181.22 171.331C180.947 171.263 180.675 171.195 180.334 171.127C179.993 171.058 179.652 170.99 179.242 170.922C178.833 170.854 178.492 170.786 178.083 170.786C177.265 170.717 176.378 170.649 175.491 170.581C174.605 170.513 173.718 170.649 172.9 170.581C172.081 170.513 171.331 170.308 170.649 170.104C169.967 169.899 169.422 169.626 169.081 169.422C168.671 169.217 168.467 169.081 168.467 169.081L168.535 168.944Z" fill="#E9F2E9"/>
<path d="M112.816 182.107C112.816 182.107 113.088 182.038 113.566 182.038C114.043 182.038 114.657 182.038 115.339 182.243C116.021 182.379 116.839 182.652 117.59 183.061C117.999 183.266 118.34 183.539 118.681 183.88C119.022 184.153 119.431 184.494 119.772 184.766C120.522 185.312 121.272 185.926 121.886 186.54C122.227 186.812 122.5 187.153 122.773 187.426C123.046 187.699 123.318 188.04 123.523 188.313C123.728 188.586 123.932 188.858 124.069 189.131C124.205 189.336 124.341 189.609 124.478 189.745C124.682 190.086 124.751 190.291 124.751 190.291L124.546 190.427C124.546 190.427 124.41 190.291 124.069 190.018C123.932 189.881 123.728 189.745 123.523 189.54C123.318 189.404 123.114 189.199 122.773 188.995C122.5 188.79 122.227 188.586 121.886 188.381C121.545 188.176 121.204 187.972 120.863 187.767C120.113 187.358 119.363 186.949 118.544 186.54C117.726 186.13 116.839 185.926 116.157 185.517C115.407 185.107 114.793 184.63 114.316 184.153C113.77 183.675 113.361 183.266 113.088 182.925C112.816 182.584 112.679 182.311 112.679 182.311L112.816 182.107Z" fill="#E9F2E9"/>
<path d="M96.0383 81.5799C96.0383 81.5799 96.1065 81.3071 96.3793 80.8297C96.5157 80.6251 96.6521 80.3523 96.7885 80.0795C96.9249 79.8067 97.0613 79.5339 97.2659 79.1929C97.6751 78.5109 98.0843 77.7607 98.6299 77.0105C99.2437 76.2603 99.9939 75.5783 100.608 74.7599C101.222 73.9415 101.835 73.1231 102.381 72.3047C102.927 71.4863 103.404 70.7361 103.813 70.1223C104.222 69.4403 104.495 68.8947 104.7 68.4855C104.836 68.2809 104.836 68.1445 104.904 68.0081C104.973 67.8717 104.973 67.8035 104.973 67.8035L105.245 67.8717C105.245 67.8717 105.245 67.9399 105.245 68.0763C105.245 68.2127 105.245 68.4173 105.177 68.6219C105.109 69.0993 104.973 69.7131 104.7 70.5315C104.495 71.2817 104.154 72.1683 103.813 73.1231C103.472 74.0779 102.995 75.0327 102.517 75.9875C102.04 76.9423 101.563 77.9653 101.017 78.7837C100.744 79.1929 100.403 79.5339 99.9939 79.8749C99.6529 80.2159 99.3119 80.4887 98.9709 80.6933C98.6299 80.9661 98.2889 81.1025 97.9479 81.3071C97.8115 81.3753 97.6751 81.4435 97.4705 81.5117C97.3341 81.5799 97.1977 81.5799 97.0613 81.6481C96.5839 81.7845 96.3111 81.8527 96.3111 81.8527L96.0383 81.5799Z" fill="#E9F2E9"/>
<path d="M71.0773 176.446C71.0773 176.446 71.3501 176.582 71.7593 176.923C71.8275 176.992 71.9639 177.06 72.1003 177.196C72.2367 177.333 72.3049 177.469 72.4413 177.537C72.7141 177.81 72.9869 178.151 73.1915 178.492C73.3279 178.697 73.3961 178.901 73.5325 179.106C73.6689 179.31 73.7371 179.515 73.8735 179.72C74.0781 180.197 74.2145 180.674 74.3509 181.152C74.4873 181.697 74.4873 182.243 74.5555 182.789C74.5555 183.334 74.6237 183.88 74.6237 184.425C74.6237 184.971 74.6919 185.517 74.6919 186.062C74.6919 186.608 74.6919 187.153 74.6237 187.631C74.5555 188.176 74.5555 188.654 74.4873 189.131C74.4191 189.609 74.3509 190.018 74.2827 190.427C74.2145 190.836 74.1462 191.177 74.078 191.518C74.0098 191.859 73.9417 192.132 73.8735 192.337C73.8053 192.541 73.7371 192.746 73.6689 192.882C73.6007 193.019 73.6007 193.087 73.6007 193.087L73.3279 193.019C73.3279 193.019 73.3279 192.95 73.3279 192.814C73.3279 192.678 73.396 192.541 73.396 192.268C73.396 192.064 73.396 191.791 73.396 191.45C73.396 191.109 73.3961 190.768 73.3279 190.359C73.2597 189.54 73.1914 188.654 73.055 187.699C72.9186 186.744 72.7141 185.721 72.5095 184.698C72.3731 184.221 72.2367 183.675 72.1003 183.198C71.8957 182.72 71.7593 182.243 71.6229 181.766C71.4183 180.879 71.2819 179.992 71.1455 179.242C71.1455 179.038 71.0773 178.833 71.0773 178.697C71.0773 178.56 71.009 178.356 71.009 178.219C71.009 177.878 70.9409 177.605 70.9409 177.333C70.8727 176.855 70.8727 176.514 70.8727 176.514L71.0773 176.446Z" fill="#E9F2E9"/>
</svg>
