<svg width="370" height="370" viewBox="0 0 370 370" fill="none" xmlns="http://www.w3.org/2000/svg">
<path d="M236.997 187.041H236.923" stroke="#E9F2E9" stroke-width="3.6758" stroke-miterlimit="10"/>
<path d="M93.8529 211.058C81.4377 228.572 82.7679 253.107 98.0652 269.143C112.032 283.702 132.207 289.022 150.608 284.884" stroke="#E9F2E9" stroke-width="3.6758" stroke-miterlimit="10"/>
<path d="M190.735 122.6C191.918 118.092 194.283 113.806 197.904 110.332C203.077 105.381 211.427 102.203 219.704 101.612C225.542 101.169 231.306 101.982 235.962 104.273C237.957 105.233 239.731 106.49 241.209 108.042L266.704 134.719C268.921 137.01 270.769 139.818 272.173 142.774C278.307 155.707 277.272 173.517 267.296 182.976C263.675 186.449 259.314 188.666 254.659 189.627" stroke="#E9F2E9" stroke-width="3.6758" stroke-miterlimit="10"/>
<path d="M242.466 189.258C240.544 188.74 238.697 188.001 236.923 187.041C234.558 185.784 232.415 184.158 230.494 182.089L197.091 147.209C195.17 145.213 193.692 142.996 192.509 140.631C191.549 138.562 190.81 136.419 190.366 134.202" stroke="#E9F2E9" stroke-width="3.6758" stroke-miterlimit="10"/>
<path d="M236.036 104.273C240.322 100.652 246.456 99.8388 252.738 101.612" stroke="#E9F2E9" stroke-width="3.6758" stroke-miterlimit="10"/>
<path d="M276.607 131.246C276.607 135.754 275.203 139.818 272.247 142.774" stroke="#E9F2E9" stroke-width="3.6758" stroke-miterlimit="10"/>
<path d="M254.585 102.13C259.093 103.755 263.601 106.638 267.517 110.702C272.838 116.245 275.868 122.896 276.533 129.029" stroke="#E9F2E9" stroke-width="3.6758" stroke-miterlimit="10"/>
<path d="M182.015 88.606C186.375 88.9755 189.183 97.9173 184.601 108.707C182.089 114.619 180.463 120.457 179.354 125.408" stroke="#E9F2E9" stroke-width="3.6758" stroke-miterlimit="10"/>
<path d="M172.261 88.9016C165.831 90.4535 161.102 96.9567 165.979 121.048C166.497 123.708 167.014 126.073 167.531 128.216" stroke="#E9F2E9" stroke-width="3.6758" stroke-miterlimit="10"/>
<path d="M298.186 214.457C290.575 217.857 281.78 224.138 250.373 211.354L251.777 205.22V204.407C251.851 204.407 251.925 204.407 251.999 204.407C261.236 203.003 286.732 193.396 295.156 199.16C298.704 201.599 301.216 204.111 302.325 206.402" stroke="#E9F2E9" stroke-width="3.6758" stroke-miterlimit="10"/>
<path d="M201.229 120.013C201.229 120.013 91.4877 147.209 77.5945 147.135C63.7014 147.061 20.0266 163.614 33.2546 193.987C46.4827 224.434 110.184 214.162 126.664 194.8C151.864 165.24 181.793 140.04 198.273 128.29C214.753 116.54 201.229 120.013 201.229 120.013Z" stroke="#E9F2E9" stroke-width="3.6758" stroke-miterlimit="10"/>
<path d="M256.432 175.734C256.432 175.734 253.55 226.577 222.734 283.258C191.918 339.939 179.207 347.181 165.388 334.619C151.568 322.056 144.622 272.764 157.037 260.866C169.452 248.969 185.119 247.343 195.243 237.145C205.367 226.946 208.693 214.901 220.517 207.511C232.341 200.121 243.943 190.588 246.382 181.72C248.894 173.073 253.328 163.393 256.432 175.734Z" stroke="#E9F2E9" stroke-width="3.6758" stroke-miterlimit="10"/>
<path d="M178.911 64.4408C174.773 62.4455 173.443 59.7112 170.708 67.988C167.974 76.2647 167.013 80.4031 172.26 88.9755C177.507 97.5479 183.419 88.5321 183.863 83.1374C184.38 77.7427 183.198 66.51 178.911 64.4408Z" stroke="#E9F2E9" stroke-width="3.6758" stroke-miterlimit="10"/>
<path d="M302.915 206.107C310.084 208.841 333.214 217.413 333.436 222.512C333.658 227.612 326.194 237.071 308.975 223.178C291.757 209.284 293.161 210.91 298.038 208.545C302.915 206.107 302.915 206.107 302.915 206.107Z" stroke="#E9F2E9" stroke-width="3.6758" stroke-miterlimit="10"/>
<path d="M225.69 80.1813C225.616 82.5461 227.907 74.4171 233.08 74.7127C238.253 75.0083 250.816 94.0744 252.22 99.6908C253.624 105.307 253.255 107.303 254.437 106.49C255.62 105.677 253.92 92.0791 245.865 83.7285C237.884 75.3778 238.401 73.5303 235.223 72.6435C232.046 71.7567 225.838 73.3825 225.69 80.1813Z" stroke="#E9F2E9" stroke-width="3.6758" stroke-miterlimit="10"/>
<path d="M273.429 127.994C276.607 129.916 276.459 128.733 293.382 127.773C296.486 127.625 299.073 127.108 301.216 126.59C311.044 124.226 313.114 120.235 318.065 132.207C324.125 146.839 324.716 160.88 324.716 160.88C324.716 160.88 323.607 164.205 320.577 149.278C317.548 134.35 316.144 129.768 314.148 127.699C312.153 125.63 308.606 126.738 302.324 128.142C296.043 129.546 276.385 132.798 273.577 130.581C270.695 128.29 273.429 127.994 273.429 127.994Z" stroke="#E9F2E9" stroke-width="3.6758" stroke-miterlimit="10"/>
<path d="M165.609 32.7376C165.979 29.3382 166.348 38.4279 161.988 39.9798C157.554 41.6056 156.224 39.2408 162.136 41.9751C168.048 44.7093 172.999 54.0207 174.108 57.494C174.995 60.3761 177.212 62.1497 177.212 62.1497C177.212 62.1497 181.054 65.1796 178.542 58.972C176.547 53.9468 171.595 45.8917 170.339 43.8965C169.083 41.9012 165.092 37.5411 165.609 32.7376Z" stroke="#E9F2E9" stroke-width="3.6758" stroke-miterlimit="10"/>
<path d="M331.811 227.168C331.811 227.168 337.944 227.168 343.93 225.912C349.916 224.656 352.503 222.217 354.498 220.739C356.567 219.261 351.911 223.178 355.459 227.464C360.927 234.041 357.454 229.607 342.97 229.09C335.875 228.868 330.259 228.794 330.259 228.794" stroke="#E9F2E9" stroke-width="3.6758" stroke-miterlimit="10"/>
<path d="M187.41 123.413L175.217 129.325C171.67 132.503 72.6439 151.569 60.2287 162.728C47.8136 173.886 29.4864 183.789 40.867 195.687C52.2475 207.585 70.2791 213.201 70.2791 213.201" stroke="#E9F2E9" stroke-width="3.6758" stroke-miterlimit="10"/>
<path d="M256.211 178.764C256.211 178.764 238.327 208.398 228.499 241.283C218.67 274.168 201.304 316.143 189.406 320.947C177.508 325.75 173.517 339.865 158.737 311.636C143.957 283.406 167.679 271.951 171.152 262.418C174.626 252.885 174.256 249.708 174.256 249.708" stroke="#E9F2E9" stroke-width="2.6256" stroke-miterlimit="10"/>
<path d="M107.894 206.846C107.894 206.846 102.573 199.16 89.3446 194.357C76.1166 189.479 71.0175 184.824 73.0128 177.286C75.0081 169.748 74.2691 156.15 74.2691 156.15" stroke="#E9F2E9" stroke-width="2.6256" stroke-miterlimit="10"/>
<path d="M75.3775 186.597C75.3775 186.597 74.5646 194.283 77.964 200.934C81.3634 207.585 82.2502 212.832 82.2502 212.832C82.2502 212.832 75.6731 213.866 67.5441 220.813C59.4151 227.759 58.011 233.08 63.5535 231.75C69.1699 230.42 86.7581 224.951 88.3839 221.33C89.9358 217.709 94.8132 212.019 94.8132 212.019" stroke="#E9F2E9" stroke-width="3.6758" stroke-miterlimit="10"/>
<path d="M68.3572 158.367C68.3572 158.367 59.3414 180.759 53.9467 183.272C48.552 185.784 38.2061 191.992 38.2061 191.992" stroke="#E9F2E9" stroke-width="2.6256" stroke-miterlimit="10"/>
<path d="M56.3856 181.202C56.3856 181.202 59.6372 195.687 56.9768 200.86C54.3164 206.033 54.3164 206.033 54.3164 206.033" stroke="#E9F2E9" stroke-width="2.6256" stroke-miterlimit="10"/>
<path d="M119.939 143.292C119.939 143.292 116.688 155.781 108.263 166.644C99.8384 177.507 94.6654 194.726 95.6261 197.017L93.8525 211.058" stroke="#E9F2E9" stroke-width="2.6256" stroke-miterlimit="10"/>
<path d="M100.578 179.577C100.578 179.577 108.633 182.976 111.885 189.849C115.136 196.721 112.698 204.703 112.698 204.703" stroke="#E9F2E9" stroke-width="2.6256" stroke-miterlimit="10"/>
<path d="M76.3385 197.091C76.3385 197.091 69.6875 202.338 66.4359 205.072C63.1843 207.88 62.667 210.171 62.667 210.171" stroke="#E9F2E9" stroke-width="2.6256" stroke-miterlimit="10"/>
<path d="M229.385 238.401C229.385 238.401 192.435 277.124 181.572 282.815C170.708 288.579 154.303 290.205 154.303 290.205" stroke="#E9F2E9" stroke-width="2.6256" stroke-miterlimit="10"/>
<path d="M215.492 252.59C215.492 252.59 200.933 281.558 186.892 295.23C172.851 308.901 167.826 325.751 167.826 325.751" stroke="#E9F2E9" stroke-width="2.6256" stroke-miterlimit="10"/>
<path d="M181.572 282.889C181.572 282.889 176.99 296.191 170.265 302.989C163.541 309.788 161.397 316.365 161.397 316.365" stroke="#E9F2E9" stroke-width="2.6256" stroke-miterlimit="10"/>
<path d="M105.16 171.004C105.16 171.004 99.2478 171.374 92.3013 178.32C85.4286 185.267 83.3594 191.844 83.3594 191.844" stroke="#E9F2E9" stroke-width="2.6256" stroke-miterlimit="10"/>
<path d="M165.019 155.559C165.019 155.559 172.926 163.171 174.33 163.245C175.734 163.319 174.995 164.945 176.621 167.679C178.247 170.413 182.681 176.399 187.041 178.542C191.401 180.685 197.239 184.306 198.865 190.366C200.49 196.426 209.211 206.92 209.654 207.437C210.171 207.954 216.527 210.541 216.527 210.541" stroke="#E9F2E9" stroke-width="3.6758" stroke-miterlimit="10"/>
<path d="M141.297 178.247C141.297 178.247 146.1 185.267 145.214 187.484C144.327 189.627 147.135 191.549 149.5 191.992C151.865 192.361 155.338 195.687 155.855 197.091C156.372 198.495 157.777 201.525 157.924 202.707C158.072 203.89 163.171 206.255 164.723 207.88C166.275 209.506 167.31 207.954 168.935 209.95C170.635 211.945 169.083 215.123 171.3 216.97C173.517 218.818 180.538 226.725 180.538 226.725C180.538 226.725 186.08 229.533 188.149 231.011C190.219 232.489 195.17 237.219 195.17 237.219" stroke="#E9F2E9" stroke-width="3.6758" stroke-miterlimit="10"/>
<path d="M232.12 102.721C232.12 102.721 220.222 124.004 245.422 140.114C270.622 156.224 274.391 148.539 274.391 148.539" stroke="#E9F2E9" stroke-width="2.6256" stroke-miterlimit="10"/>
<path d="M241.283 108.042C241.283 108.042 230.567 118.757 238.696 124.891C246.825 130.95 248.525 130.064 254.141 135.237C259.758 140.41 273.651 146.1 273.651 146.174" stroke="#E9F2E9" stroke-width="2.6256" stroke-miterlimit="10"/>
<path d="M112.697 191.844L103.164 200.934" stroke="#E9F2E9" stroke-width="2.6256" stroke-miterlimit="10"/>
<path d="M171.152 262.492C171.152 262.492 182.016 258.058 190.957 257.098C199.825 256.211 206.92 260.793 206.92 260.793" stroke="#E9F2E9" stroke-width="2.6256" stroke-miterlimit="10"/>
<path d="M94.5176 233.006C91.7833 235.593 92.0789 247.195 94.961 252.146C97.7692 257.098 102.794 264.709 104.051 268.035C105.307 271.36 108.263 275.942 120.383 274.981C132.502 274.021 132.133 273.873 135.606 268.552C139.079 263.231 142.7 272.912 146.469 272.543C150.238 272.099 151.568 271.434 151.568 271.434" stroke="#E9F2E9" stroke-width="3.6758" stroke-miterlimit="10"/>
<path d="M131.986 140.41C131.986 140.41 135.163 161.545 124.891 173.221C114.545 184.897 111.22 187.927 111.22 187.927" stroke="#E9F2E9" stroke-width="2.6256" stroke-miterlimit="10"/>
<path d="M235.223 220.296C235.223 220.296 218.3 226.06 205.737 237.145C193.174 248.304 182.828 245.569 182.828 245.569" stroke="#E9F2E9" stroke-width="2.6256" stroke-miterlimit="10"/>
<path d="M124.816 173.147C124.816 173.147 130.285 184.085 134.276 184.898" stroke="#E9F2E9" stroke-width="2.6256" stroke-miterlimit="10"/>
<path d="M205.737 237.145C205.737 237.145 206.106 251.333 202.633 254.511C199.234 257.689 201.081 258.206 201.081 258.206" stroke="#E9F2E9" stroke-width="2.6256" stroke-miterlimit="10"/>
<path d="M183.124 299.294C183.124 299.294 180.168 305.576 192.731 318.804" stroke="#E9F2E9" stroke-width="2.6256" stroke-miterlimit="10"/>
<path d="M197.904 110.332C197.904 110.332 204.407 105.455 209.506 112.18C214.605 118.905 219.039 124.373 211.427 131.985C203.816 139.597 193.248 142.035 193.248 142.035" stroke="#E9F2E9" stroke-width="3.6758" stroke-miterlimit="10"/>
<path d="M265.818 184.38C265.818 184.38 269.808 174.108 260.497 167.235C251.259 160.363 244.904 153.342 239.879 166.349C234.854 179.355 233.302 184.676 233.302 184.676" stroke="#E9F2E9" stroke-width="3.6758" stroke-miterlimit="10"/>
<path d="M192.287 118.757C192.287 118.757 206.624 111.515 212.018 116.171" stroke="#E9F2E9" stroke-width="3.6758" stroke-miterlimit="10"/>
<path d="M260.497 167.235L260.35 187.779" stroke="#E9F2E9" stroke-width="3.6758" stroke-miterlimit="10"/>
<path d="M197.091 147.209C197.091 147.209 166.497 154.007 160.363 159.771C154.229 165.536 190.366 134.202 190.366 134.202L197.091 147.209Z" fill="#E9F2E9"/>
<path d="M230.937 182.607C230.937 182.607 220.517 206.624 214.457 212.462C208.397 218.3 242.687 188.962 242.687 188.962L230.937 182.607Z" fill="#E9F2E9"/>
<path d="M100.208 209.432C100.208 209.432 89.6404 223.695 89.936 230.863C90.2316 238.105 88.0885 252.959 91.2662 259.98C94.4439 267 81.881 244.313 84.837 233.523C87.7929 222.734 92.2269 211.354 92.2269 211.354L100.208 209.432Z" fill="#E9F2E9"/>
<path d="M253.181 195.687C253.181 195.687 225.912 270.695 222.07 276.385C218.227 282.076 191.401 338.387 176.178 339.865" stroke="#E9F2E9" stroke-width="2.6256" stroke-miterlimit="10"/>
<path d="M77.5211 147.208C77.5211 147.208 43.601 161.988 31.4814 182.163" stroke="#E9F2E9" stroke-width="2.6256" stroke-miterlimit="10"/>
<path d="M127.477 178.912C127.477 178.912 120.679 191.031 119.274 201.155" stroke="#E9F2E9" stroke-width="2.6256" stroke-miterlimit="10"/>
<path d="M171.3 260.128C171.3 260.128 153.416 269.439 150.978 277.346" stroke="#E9F2E9" stroke-width="2.6256" stroke-miterlimit="10"/>
<path d="M188.149 257.837C188.149 257.837 178.172 276.386 163.762 288.579" stroke="#E9F2E9" stroke-width="2.6256" stroke-miterlimit="10"/>
<path d="M185.267 309.049C185.267 309.049 172.926 323.238 172.039 327.598" stroke="#E9F2E9" stroke-width="2.6256" stroke-miterlimit="10"/>
<path d="M150.534 288.948C146.692 291.904 137.454 297.299 135.459 303.359C133.464 309.493 140.262 310.158 146.1 305.724C151.938 301.364 151.791 300.107 151.791 300.107" stroke="#E9F2E9" stroke-width="2.6256" stroke-miterlimit="10"/>
<path d="M162.58 159.698C162.58 159.698 166.94 167.974 169.97 167.457C173 166.94 174.921 169.6 176.178 172.408C177.434 175.216 177.138 178.69 181.498 181.202C185.932 183.715 188.371 184.528 190.293 186.006C192.214 187.484 195.244 189.996 195.392 192.509C195.466 195.096 199.308 200.564 200.934 203.594C202.56 206.624 207.733 210.688 207.733 210.688L212.61 212.61" stroke="#E9F2E9" stroke-width="2.6256" stroke-miterlimit="10"/>
<path d="M60.0804 231.011C60.0804 231.011 58.5285 237.662 54.6118 244.756C52.3948 248.747 50.3995 251.629 49.1432 253.329C48.6998 253.92 49.1432 254.807 49.9561 254.733C51.3602 254.585 52.986 254.585 57.5678 255.767C58.6763 250.003 52.9121 250.299 61.4844 231.972" stroke="#E9F2E9" stroke-width="3.6758" stroke-miterlimit="10"/>
<path d="M136.197 307.793C136.197 307.793 116.909 305.132 109.15 309.345C101.982 314.148 112.402 306.315 107.598 297.964C102.795 289.614 109.002 303.359 134.645 304.172" stroke="#E9F2E9" stroke-width="3.6758" stroke-miterlimit="10"/>
<path d="M89.4193 194.283C89.4193 194.283 86.6111 207.215 86.8328 211.132" stroke="#E9F2E9" stroke-width="2.6256" stroke-miterlimit="10"/>
<path d="M192.879 288.579C192.879 288.579 196.352 301.807 203.077 305.428" stroke="#E9F2E9" stroke-width="2.6256" stroke-miterlimit="10"/>
<path d="M57.7153 191.401L44.9307 199.899" stroke="#E9F2E9" stroke-width="2.6256" stroke-miterlimit="10"/>
<path d="M163.541 255.693L162.58 264.34" stroke="#E9F2E9" stroke-width="2.6256" stroke-miterlimit="10"/>
<path d="M242.761 109.594C242.761 109.594 232.784 123.561 272.247 142.775" stroke="#E9F2E9" stroke-width="2.6256" stroke-miterlimit="10"/>
</svg>
