<svg width="500" height="500" viewBox="0 0 500 500" fill="none" xmlns="http://www.w3.org/2000/svg">
<g clip-path="url(#clip0)">
<path d="M352.3 135.8C350.1 138 348.6 140.7 347.8 143.5" stroke="#E9F2E9" stroke-width="2.9226" stroke-miterlimit="10" stroke-linecap="round" stroke-linejoin="round"/>
<path d="M385.8 167L384.8 168C382.5 170.3 379.8 171.9 376.8 172.8" stroke="#E9F2E9" stroke-width="2.9226" stroke-miterlimit="10" stroke-linecap="round" stroke-linejoin="round"/>
<path d="M397.399 155.5L399.699 153.2C401.299 151.6 402.599 149.7 403.499 147.7C403.599 147.6 403.599 147.5 403.699 147.3C405.199 143.8 405.699 139.9 405.099 136.2C404.999 135.7 404.899 135.3 404.799 134.8C404.199 132.4 403.099 130.1 401.599 128C401.499 127.9 401.499 127.8 401.399 127.6C400.899 127 400.399 126.4 399.799 125.8L394.599 120.6C393.599 119.6 392.499 118.7 391.299 118C390.999 117.8 390.699 117.6 390.399 117.5C388.399 116.4 386.299 115.6 384.099 115.3C383.499 115.2 382.899 115.1 382.399 115.1C381.799 115.1 381.199 115.1 380.599 115.1C377.699 115.1 374.799 115.8 372.199 117.2C370.399 118.1 368.799 119.3 367.299 120.7L363.699 124.2" stroke="#E9F2E9" stroke-width="2.9226" stroke-miterlimit="10" stroke-linecap="round" stroke-linejoin="round"/>
<path d="M340.199 220.4C344.499 219.1 363.099 211.4 363.099 211.4L375.299 201.7C376.999 200 378.699 197.9 379.999 195.6C383.799 189.2 385.499 181.3 380.699 176.6L376.799 172.7L347.699 143.4L343.399 139C338.399 134 329.499 134.8 322.799 138.5C320.799 139.6 318.999 140.9 317.599 142.3L305.799 158.8C305.799 158.8 303.599 168.3 301.699 173.6C301.199 174.9 300.799 176 300.399 176.5" stroke="#E9F2E9" stroke-width="2.9226" stroke-miterlimit="10" stroke-linecap="round" stroke-linejoin="round"/>
<path d="M340.2 220.5C339.8 218.6 339.2 216.7 338.5 214.8C338.3 214.3 338.2 213.9 338 213.4C337.4 211.8 336.7 210.3 336 208.8C335.8 208.4 335.6 208 335.4 207.6C334.4 205.7 333.3 203.9 332 202C331.3 201 330.5 199.9 329.7 198.9C329.5 198.7 329.3 198.4 329.2 198.2C328.7 197.6 328.3 197 327.8 196.4C327.6 196.1 327.3 195.8 327.1 195.6C326.1 194.5 325.1 193.4 324 192.3L323.4 191.7C322.9 191.1 322.3 190.6 321.7 190.1C321.5 189.9 321.3 189.7 321 189.5C320.7 189.2 320.3 188.9 320 188.7C320 188.6 319.9 188.6 319.9 188.6C319.5 188.2 319 187.8 318.6 187.5C318.1 187.1 317.7 186.7 317.2 186.3C317.2 186.3 317.2 186.3 317.1 186.3C314.9 184.5 312.8 182.9 310.6 181.6V181.5C310 181.1 309.3 180.8 308.7 180.4C308.1 180 307.4 179.7 306.8 179.3C306.5 179.2 306.2 179 306 178.9C304.7 178.3 303.4 177.7 302.2 177.1C301.7 176.9 301.2 176.7 300.7 176.5L300.1 176.3C286.7 171.4 273 172.6 259.1 178.1C258.4 178.4 257.7 178.7 257.1 178.9L256.8 179C250.1 181.9 243.4 185.8 236.6 190.5C224.5 198.8 212.3 209.7 200 221.8C190.9 230.9 183.1 240.6 176.6 250.4C172.6 256.5 169.3 262.6 166.4 268.8V268.9C165.9 270 165.4 271.1 165 272.1C164.2 273.9 163.5 275.7 162.9 277.5C162.6 278.3 162.3 279.1 162 279.9C154.9 300.3 154.4 319.6 161.5 334.1C162 335.2 162.6 336.3 163.2 337.3C163.4 337.6 163.6 338 163.8 338.2C164.9 340 166.1 341.6 167.5 343.2C167.5 343.3 167.6 343.3 167.6 343.3V343.4C168.1 344.1 168.7 344.7 169.3 345.3C170.1 346 170.9 346.7 171.8 347.3C172 347.4 172.1 347.5 172.2 347.6C172.5 347.8 172.8 348 173.1 348.2C174.9 349.4 176.9 350.4 179.1 351.3C179.3 351.4 179.5 351.5 179.8 351.6C179.8 351.6 179.8 351.6 179.9 351.6C200.5 359.5 235.2 354.9 266.9 335.6C274.6 331 282 325.5 289 319.1C290.6 317.6 292.4 316 294 314.4C304.2 304.2 313.4 293.9 320.8 283.7C326.6 275.8 331.4 267.9 334.9 260C340.9 246.6 343.1 233.2 340.2 220.5ZM309.4 198.3C309.7 198 309.9 197.7 310.2 197.4C310.2 197.6 309.4 198.4 309.4 198.3Z" stroke="#E9F2E9" stroke-width="2.9226" stroke-miterlimit="10" stroke-linecap="round" stroke-linejoin="round"/>
<path d="M305.8 158.8C305.7 157.9 305.7 157 305.7 155.9C304.4 121.9 308.8 111 313 110.1C314.2 109.8 315.5 110.5 316.6 111.7C316.9 112 317.1 112.3 317.4 112.7C321.8 119.5 323.3 129 322.9 138.4" stroke="#E9F2E9" stroke-width="2.9226" stroke-miterlimit="10" stroke-linecap="round" stroke-linejoin="round"/>
<path d="M379.999 195.6C392.799 195.8 399.899 197.4 403.299 199.5C405.199 200.7 405.899 201.9 405.799 203.2C405.799 203.5 405.699 203.7 405.599 203.9C405.199 204.9 404.399 205.9 403.199 206.7C392.899 213.8 376.299 213.9 363.199 211.4" stroke="#E9F2E9" stroke-width="2.9226" stroke-miterlimit="10" stroke-linecap="round" stroke-linejoin="round"/>
<path d="M256.6 179.2C248.1 175.6 247.1 175.2 238.5 171.5C237.9 171.1 233.2 169.2 229.3 170.6C227.5 171.2 227.6 172.3 226.9 173L225 177C224.6 177.7 224.4 178.5 224.3 179.2C223.9 182.4 225.5 185.5 228.5 187L236.3 190.7" stroke="#E9F2E9" stroke-width="2.9226" stroke-miterlimit="10" stroke-linecap="round" stroke-linejoin="round"/>
<path d="M335.1 260.3L344.2 281.1C346.1 284.8 344.6 289.3 340.9 291.2L337 293.2C336.2 293.6 335.3 293.9 334.3 294C331.3 294.3 328.3 292.8 326.8 289.9L321.3 284.4" stroke="#E9F2E9" stroke-width="2.9226" stroke-miterlimit="10" stroke-linecap="round" stroke-linejoin="round"/>
<path d="M199.799 222C198.399 221.3 193.599 221.9 191.899 222.2L161.299 229.5L157.699 230.3C156.099 230.6 153.599 232 152.599 233.1C151.399 234.2 150.699 235.1 150.499 236.8C150.399 237.5 150.399 238.2 150.599 238.9C150.799 240.3 151.199 241.3 151.899 242.2C153.199 244.1 155.399 245.2 158.799 246.3L176.399 250.6" stroke="#E9F2E9" stroke-width="2.9226" stroke-miterlimit="10" stroke-linecap="round" stroke-linejoin="round"/>
<path d="M270.9 367C269.3 365.3 266.6 361.6 267.1 359.1L266.8 335.8" stroke="#E9F2E9" stroke-width="2.9226" stroke-miterlimit="10" stroke-linecap="round" stroke-linejoin="round"/>
<path d="M270.6 366.8C270.8 367 271.2 367.2 271 367" stroke="#E9F2E9" stroke-width="2.9226" stroke-miterlimit="10" stroke-linecap="round" stroke-linejoin="round"/>
<path d="M270.599 366.8C270.499 366.7 270.399 366.7 270.299 366.6C270.099 366.5 270.299 366.6 270.599 366.8Z" stroke="#E9F2E9" stroke-width="2.9226" stroke-miterlimit="10" stroke-linecap="round" stroke-linejoin="round"/>
<path d="M288.899 319.3C288.999 320.1 288.999 321 288.899 321.9L281.999 361.7C281.499 364.6 279.299 366.9 276.599 367.7C275.599 368 274.499 368.1 273.299 367.9C272.499 367.8 271.699 367.5 271.099 367.2C271.099 367.2 271.099 367.1 270.999 367.1C270.899 367.1 270.799 367 270.699 366.9" stroke="#E9F2E9" stroke-width="2.9226" stroke-miterlimit="10" stroke-linecap="round" stroke-linejoin="round"/>
<path d="M382.3 113.6C383.9 109.1 385.5 104.8 387 103.2C392.2 97.8004 393.4 101.4 395.8 98.5004C398.3 95.7004 398 90.5004 388.3 96.1004C378.7 101.8 386.4 89.3004 388.9 89.2004C391.4 89.1004 390.5 85.4004 387.1 86.9004C385 87.8004 384.8 85.7004 387.1 84.5004C388.5 83.7004 390.8 83.1004 394.3 83.9004C403.1 85.8004 398.9 76.8004 393.6 79.2004C391.3 80.3004 388.7 81.5004 386.1 83.0004C377.1 88.3004 367.9 97.1004 370.8 115.9" stroke="#E9F2E9" stroke-width="2.9226" stroke-miterlimit="10" stroke-linecap="round" stroke-linejoin="round"/>
<path d="M404.6 148.3C422.6 150.7 431.1 141.5 436.2 132.6C437.6 130.2 438.8 127.7 439.8 125.6C442.3 120.3 433.2 116 435.1 124.9C435.8 128.1 435.4 130.3 434.7 131.7C433.4 134.3 431.2 134.2 432.1 132C433.6 128.6 429.9 127.6 429.8 130.1C429.7 132.6 417.2 140.3 422.8 130.6C428.5 121 423.3 120.6 420.4 123.1C417.5 125.6 421.1 126.8 415.8 131.9C414.3 133.3 410.5 134.8 406.2 136.3" stroke="#E9F2E9" stroke-width="2.9226" stroke-miterlimit="10" stroke-linecap="round" stroke-linejoin="round"/>
<path d="M363.8 124.3C363.2 123.6 362.4 122.9 361.4 122.2C357.3 119.8 345.4 127.5 352.2 135.7C352.4 136 352.7 136.301 353 136.601C359.4 141.101 368.8 130.7 363.8 124.3Z" stroke="#E9F2E9" stroke-width="2.9226" stroke-miterlimit="10" stroke-linecap="round" stroke-linejoin="round"/>
<path d="M397.399 155.5C396.799 154.8 396.099 154.3 395.299 153.7C391.299 151.3 379.699 158.8 385.899 166.9C386.199 167.3 386.599 167.8 386.999 168.2C393.299 172.7 402.899 161.9 397.399 155.5Z" stroke="#E9F2E9" stroke-width="2.9226" stroke-miterlimit="10" stroke-linecap="round" stroke-linejoin="round"/>
<path d="M402.8 127.3C404 126.6 404.9 125.7 405.3 124.7C406.9 121.4 398.6 114.9 398.6 114.9C395.9 113.2 392.5 112.3 392 117.1" stroke="#E9F2E9" stroke-width="2.9226" stroke-miterlimit="10" stroke-linecap="round" stroke-linejoin="round"/>
<path d="M345 89.7004C339.9 96.0004 324.4 99.0004 316.6 111.8" stroke="#E9F2E9" stroke-width="2.9226" stroke-miterlimit="10" stroke-linecap="round" stroke-linejoin="round"/>
<path d="M346 80.4004C347.4 81.7004 347.7 84.4004 345.1 89.5004" stroke="#E9F2E9" stroke-width="2.9226" stroke-miterlimit="10" stroke-linecap="round" stroke-linejoin="round"/>
<path d="M312.899 109.5C315.799 106.3 335.499 80.3004 339.199 79.6004C339.199 79.6004 341.299 79.1004 343.299 79.3004C344.299 79.4004 345.299 79.7004 345.999 80.4004" stroke="#E9F2E9" stroke-width="2.9226" stroke-miterlimit="10" stroke-linecap="round" stroke-linejoin="round"/>
<path d="M405.699 203.3C405.699 203.3 413.099 189.1 422.399 180.7C424.799 178.5 426.199 176.8 426.999 175.5C427.599 174.5 427.799 173.7 427.799 173.2C427.799 171.5 426.199 171.1 426.199 171.1C425.499 170.9 424.799 170.7 424.199 170.5C423.199 170.1 422.199 169.9 421.399 169.8" stroke="#E9F2E9" stroke-width="2.9226" stroke-miterlimit="10" stroke-linecap="round" stroke-linejoin="round"/>
<path d="M419.2 169.6C417.8 169.7 416.6 170.4 415.4 171.6C413.7 173.6 412.2 177.1 410.8 183.1C407.2 198.2 403.3 199.4 403.3 199.4" stroke="#E9F2E9" stroke-width="2.9226" stroke-miterlimit="10" stroke-linecap="round" stroke-linejoin="round"/>
<path d="M224.3 179.2C224.3 179.2 203.5 195.7 197.7 200.5C197.6 200.6 197.4 200.7 197.3 200.8C196.3 201.7 195.1 202.1 194.1 202.2C193.4 202.3 192.8 202.3 192.2 202.1C191.2 201.9 190.2 201.3 189.5 200.6C189.4 200.5 189.4 200.5 189.3 200.4C187.9 198.7 187.7 196.2 190.1 193.6C195.5 188 227 173 227 173" stroke="#E9F2E9" stroke-width="2.9226" stroke-miterlimit="10" stroke-linecap="round" stroke-linejoin="round"/>
<path d="M340.899 291.2C340.899 291.2 322.799 331.2 317.999 333C317.199 333.3 316.399 333.5 315.699 333.4C314.999 333.4 314.299 333.2 313.799 332.8C311.699 331.2 311.599 326.4 317.499 316.7C326.399 301.9 334.299 293.9 334.299 293.9" stroke="#E9F2E9" stroke-width="2.9226" stroke-miterlimit="10" stroke-linecap="round" stroke-linejoin="round"/>
<path d="M150.5 236.8C150.5 236.8 148.1 234.4 145.9 239.1C143.8 243.8 108.3 307.7 108.1 315.8C108.1 317.8 108.5 318.9 109.5 319.1C112.4 319.7 120.2 310.2 132.3 283.2C148.2 247.6 151.8 242.2 151.8 242.2" stroke="#E9F2E9" stroke-width="2.9226" stroke-miterlimit="10" stroke-linecap="round" stroke-linejoin="round"/>
<path d="M273.199 367.8C270.399 372.1 223.299 386.6 211.699 392.4C210.399 393.1 208.999 393.7 207.799 394.4C200.199 398.1 194.199 401.1 194.699 404.4C194.799 405 195.099 405.6 195.599 406.2C195.899 406.6 196.299 406.9 196.799 407.3C203.499 412.5 275.599 371.3 276.499 367.6" stroke="#E9F2E9" stroke-width="2.9226" stroke-miterlimit="10" stroke-linecap="round" stroke-linejoin="round"/>
<path d="M304.299 355.1C303.599 355 302.899 354.8 302.199 354.6C300.199 353.8 298.599 352.2 299.599 350.5C301.799 346.7 313.699 332.8 313.699 332.8" stroke="#E9F2E9" stroke-width="2.9226" stroke-miterlimit="10" stroke-linecap="round" stroke-linejoin="round"/>
<path d="M315.7 333.4C315.7 333.4 307.9 349.2 307.6 353.2C307.5 354.7 306 355.3 304.3 355.1" stroke="#E9F2E9" stroke-width="2.9226" stroke-miterlimit="10" stroke-linecap="round" stroke-linejoin="round"/>
<path d="M304.299 355.1C303.499 356.6 284.399 395 285.399 404.6C282.099 400.4 284.999 400.6 280.199 402.8C273.899 408.7 302.199 354.7 302.199 354.7" stroke="#E9F2E9" stroke-width="2.9226" stroke-miterlimit="10" stroke-linecap="round" stroke-linejoin="round"/>
<path d="M24.6992 375.2C27.0992 376.4 29.5992 378.8 29.8992 382.8C40.5992 378.3 95.9992 327.7 109.499 319.1" stroke="#E9F2E9" stroke-width="2.9226" stroke-miterlimit="10" stroke-linecap="round" stroke-linejoin="round"/>
<path d="M24.6995 375.2C16.7995 374.3 20.5995 373.2 24.6995 375.2V375.2Z" stroke="#E9F2E9" stroke-width="2.9226" stroke-miterlimit="10" stroke-linecap="round" stroke-linejoin="round"/>
<path d="M107.5 316.5C107.5 316.5 43.8998 377 27.0998 375.5C26.1998 375.4 25.4998 375.301 24.7998 375.201" stroke="#E9F2E9" stroke-width="2.9226" stroke-miterlimit="10" stroke-linecap="round" stroke-linejoin="round"/>
<path d="M196.8 407.3C196.8 407.3 145 474 142 494.7C139.1 495.4 145.6 487.3 134 488.5C146.3 471.8 190.5 413.5 195.6 406.3" stroke="#E9F2E9" stroke-width="2.9226" stroke-miterlimit="10" stroke-linecap="round" stroke-linejoin="round"/>
<path d="M186.999 200.4C186.999 200.4 128.099 232.7 117.199 228.6C121.199 233.9 121.599 230.6 119.299 239.3C128.899 235.1 144.099 227 158.799 218.6C170.199 212.1 181.399 205.5 189.499 200.7" stroke="#E9F2E9" stroke-width="2.9226" stroke-miterlimit="10" stroke-linecap="round" stroke-linejoin="round"/>
<path d="M427.1 175.5C435 169.4 472.3 170.4 477.8 170C477.8 169.9 477.7 169.9 477.8 169.8C474.6 159.6 481.7 161.2 470.1 165.4C464.7 167.4 454.9 169.2 445.9 170.6C438.2 171.8 431.1 172.7 427.8 173.1" stroke="#E9F2E9" stroke-width="2.9226" stroke-miterlimit="10" stroke-linecap="round" stroke-linejoin="round"/>
<path d="M350.6 80.2004C348.5 83.7004 345.7 88.6004 345.1 89.5004C345 89.5004 345 89.6004 345 89.6004" stroke="#E9F2E9" stroke-width="2.9226" stroke-miterlimit="10" stroke-linecap="round" stroke-linejoin="round"/>
<path d="M350.6 80.2003C351.3 79.7003 352.1 78.8003 352.7 77.5003C353.8 75.1003 352.4 77.2003 350.6 80.2003Z" stroke="#E9F2E9" stroke-width="2.9226" stroke-miterlimit="10" stroke-linecap="round" stroke-linejoin="round"/>
<path d="M343.3 79.3004C350.1 48.3004 353 31.5004 352.1 23.5004C351.9 21.9004 349.8 18.2004 351.2 19.1004C354.2 20.9004 354.9 19.3004 357.4 18.9004C357.9 22.1004 348 63.0004 346 80.5004C346.3 80.7004 348.5 81.8004 350.5 80.4004" stroke="#E9F2E9" stroke-width="2.9226" stroke-miterlimit="10" stroke-linecap="round" stroke-linejoin="round"/>
<path d="M318.3 187.7C318.1 188.4 315.2 191.9 310.2 197.5C309.9 197.8 309.7 198.1 309.4 198.4C308.1 199.8 306.7 201.4 305.1 203.1C294 215.2 276.7 233.5 257.3 253.6" stroke="#E9F2E9" stroke-width="2.9226" stroke-miterlimit="10" stroke-linecap="round" stroke-linejoin="round"/>
<path d="M167.399 343.6C193.499 318.7 227.699 284.1 256.999 253.8" stroke="#E9F2E9" stroke-width="2.9226" stroke-miterlimit="10" stroke-linecap="round" stroke-linejoin="round"/>
<path d="M167.399 343.6C167.399 343.6 167.399 343.7 167.399 343.6" stroke="#E9F2E9" stroke-width="2.9226" stroke-miterlimit="10" stroke-linecap="round" stroke-linejoin="round"/>
<path d="M331.1 202.6C331.1 202.6 311.6 203 257.3 253.5C257.2 253.6 257.1 253.7 257 253.8" stroke="#E9F2E9" stroke-width="2.9226" stroke-miterlimit="10" stroke-linecap="round" stroke-linejoin="round"/>
<path d="M164.8 272.4C164.8 272.4 164.7 272.4 164.8 272.4C164.4 272.2 164.4 271.9 164.5 271.6C180.2 245.6 257.3 178.7 258 178C258.2 177.8 258.6 177.8 258.8 178.1C259 178.3 259 178.7 258.7 178.9C257.9 179.6 181 246.4 165.4 272.2C165.3 272.4 165 272.5 164.8 272.4Z" fill="#E9F2E9" stroke="#E9F2E9" stroke-width="1.2255" stroke-miterlimit="10"/>
<path d="M163.1 338.6C163 338.6 163 338.5 162.9 338.5C162.7 338.3 162.7 337.9 162.9 337.7C164.1 336.5 286.6 214.4 299.9 200.5C304.1 196.1 306 191.7 305.7 187.3C305.2 181 300.1 177 300.1 176.9C299.9 176.7 299.8 176.4 300 176.1C300.2 175.9 300.5 175.8 300.8 176C301 176.2 306.4 180.4 306.9 187.1C307.2 191.8 305.2 196.5 300.8 201.1C287.5 215 165 337.1 163.8 338.3C163.5 338.6 163.3 338.6 163.1 338.6Z" fill="#E9F2E9" stroke="#E9F2E9" stroke-width="1.2255" stroke-miterlimit="10"/>
<path d="M335.099 243.8C335.599 242.3 336.099 240.9 336.399 239.6C339.299 229.2 338.899 222.3 335.299 219C330.599 214.8 322.599 218.1 322.199 218.2C321.899 218.3 321.799 218.6 321.899 218.9C321.999 219.2 322.299 219.3 322.599 219.2C322.699 219.2 330.299 216.1 334.499 219.8C337.799 222.8 338.099 229.3 335.299 239.3C334.999 240.2 334.699 241.2 334.399 242.2C332.999 238.8 329.399 231.2 325.399 230.6C321.299 229.9 320.199 230.8 317.199 233.2C316.499 233.7 315.699 234.4 314.699 235.2C311.899 237.3 310.599 238.7 309.199 240.1C307.999 241.3 306.799 242.6 304.299 244.6C303.299 245.5 302.299 246.2 301.299 247C297.599 249.9 294.599 252.2 291.199 257.3C287.099 263.4 282.399 268 269.999 278.1C261.999 284.6 259.999 287.3 258.699 289C257.999 290 257.499 290.7 256.299 291.6C253.099 294.1 239.199 305.3 235.599 308.6C232.299 311.6 227.099 317.9 223.799 322.1L222.999 323.1C220.699 326 216.399 328.1 213.299 329.7C212.099 330.3 210.999 330.8 210.299 331.3C209.099 332.1 207.699 333.5 205.899 335.4C204.199 337.2 202.099 339.3 199.299 341.8C193.699 346.8 186.399 349.9 186.299 350C186.099 350.1 185.899 350.4 185.999 350.6C185.999 350.8 186.199 351 186.299 351.1H186.399C245.499 359.7 306.999 308.6 330.199 256.4C332.099 252.2 333.599 248.2 334.899 244.6C335.199 244.3 335.299 244 335.099 243.8ZM332.999 246.5C332.299 248.3 331.599 250.1 330.799 252C330.799 252.1 330.699 252.2 330.699 252.3C330.299 253.4 329.799 254.5 329.299 255.7C308.899 301.7 258.499 346.8 206.599 350.5C206.599 350.5 206.599 350.5 206.499 350.5C205.299 350.6 204.099 350.6 202.899 350.6C198.099 350.8 193.299 350.6 188.499 349.9C191.099 348.7 195.999 346 200.099 342.3C202.899 339.8 204.999 337.6 206.799 335.9C208.599 334.1 209.999 332.7 211.099 331.9C211.699 331.5 212.799 331 213.999 330.4C217.199 328.8 221.599 326.6 224.099 323.5L224.899 322.5C228.299 318.3 233.399 312 236.599 309.1C240.099 306 253.499 295.2 257.299 292.2C258.599 291.2 259.199 290.4 259.899 289.4C261.099 287.7 263.099 285 270.999 278.6C283.499 268.5 288.299 263.8 292.499 257.6C295.799 252.7 298.699 250.4 302.399 247.6C303.299 246.9 304.299 246.1 305.399 245.2C307.899 243.2 309.199 241.9 310.399 240.6C311.799 239.2 312.999 237.9 315.699 235.8C316.699 235.1 317.599 234.4 318.199 233.8C321.099 231.5 321.899 230.8 325.499 231.5C325.699 231.5 325.799 231.6 325.999 231.6C329.399 232.8 332.899 240.3 334.199 243.6C333.699 244.7 333.399 245.6 332.999 246.5Z" fill="#E9F2E9" stroke="#E9F2E9" stroke-width="1.2255" stroke-miterlimit="10"/>
<path d="M161.599 280.1C161.499 280.1 161.499 280 161.399 280C161.199 279.8 161.099 279.5 161.299 279.2C161.999 278.4 231.799 197.9 262.699 183.4C275.799 177.2 285.899 176.4 292.499 180.9C301.399 186.9 300.799 200.3 300.799 200.9C300.799 201.2 300.499 201.4 300.199 201.4C299.899 201.4 299.699 201.1 299.699 200.8C299.699 200.7 300.299 187.5 291.899 181.8C285.599 177.6 275.899 178.4 263.199 184.4C232.399 198.8 162.799 279.1 162.099 279.9C161.999 280.2 161.799 280.2 161.599 280.1Z" fill="#E9F2E9" stroke="#E9F2E9" stroke-width="1.2255" stroke-miterlimit="10"/>
<path d="M177.299 275.8C176.599 274.6 174.999 273.9 172.599 273.8C170.799 273.7 168.999 274.5 168.099 276.1C167.399 277.3 166.599 278.3 165.699 279.2C164.699 280.2 164.699 281 164.799 281.5C164.999 282.3 165.699 283 166.899 283.4C167.999 283.8 169.499 283.8 170.599 283.5C173.199 282.8 176.599 280 177.399 277.8C177.699 277.1 177.699 276.3 177.299 275.8ZM170.299 282.9C169.199 283.2 167.899 283.1 166.899 282.8C165.999 282.5 165.499 282 165.299 281.4C165.099 280.8 165.599 280.1 165.999 279.7C166.999 278.7 167.799 277.6 168.599 276.4C169.499 275.1 170.899 274.3 172.499 274.4C173.399 274.5 174.299 274.6 174.899 274.9C175.699 275.2 176.299 275.6 176.699 276.2C176.899 276.5 176.899 277 176.599 277.6C175.899 279.6 172.699 282.2 170.299 282.9Z" fill="#E9F2E9" stroke="#E9F2E9" stroke-width="1.2255" stroke-miterlimit="10"/>
<path d="M186.9 267.3C186.4 264.7 185.7 261.5 184.1 261C183.5 260.8 182.9 260.9 182.3 261.4C179.8 263.2 177.6 268.3 177.2 270.1C177.1 270.7 177.4 271.2 178 271.5C178.9 271.8 180.4 271.6 180.6 271.6C181.6 271.2 182.6 271 183.5 270.8C185.6 270.3 187.4 269.9 186.9 267.3ZM183.3 270C182.4 270.2 181.4 270.4 180.4 270.8C180 270.9 178.9 271 178.2 270.8C177.8 270.7 177.8 270.5 177.8 270.2C178.2 268.5 180.3 263.7 182.6 262C183.1 261.6 183.5 261.5 183.8 261.7C185.2 262.2 185.9 266.2 186.2 267.5C186.6 269.3 185.6 269.6 183.3 270Z" fill="#E9F2E9" stroke="#E9F2E9" stroke-width="1.2255" stroke-miterlimit="10"/>
<path d="M202.999 248.5C202.899 247.7 202.499 247.3 202.199 247.1C201.999 247 201.799 246.8 201.499 246.7C199.399 246 196.699 247 196.599 247.1C196.499 247.1 196.499 247.1 196.499 247.2C195.599 247.9 194.699 248.6 193.799 249.2C190.799 251.3 187.999 253.2 189.399 256.1C189.999 257.3 190.899 258.1 192.099 258.6C194.199 259.3 196.699 258.7 198.399 257.2C200.399 255.2 203.199 250.8 202.999 248.5ZM197.799 256.4C196.399 257.7 194.199 258.2 192.399 257.6C191.399 257.3 190.599 256.5 190.199 255.6C189.199 253.5 191.099 252 194.199 249.9C195.099 249.3 195.999 248.7 196.899 247.9C197.299 247.7 199.499 247 201.099 247.5C201.299 247.6 201.499 247.7 201.699 247.8C201.899 247.9 201.999 248.2 202.099 248.5C202.299 250.6 199.599 254.7 197.799 256.4Z" fill="#E9F2E9" stroke="#E9F2E9" stroke-width="1.2255" stroke-miterlimit="10"/>
<path d="M259.5 301.1C258.8 299.6 257.8 298.7 256.8 298.3C255.9 298 255.2 298.2 255.1 298.2C254.5 298.5 254 298.8 253.4 299.1C250.4 300.8 248 302.1 246.9 305.1C246.2 307.1 248 308.9 250.1 309.7C252.3 310.5 255.2 310.2 256.7 307.9C257.6 306.3 258.5 305.6 259.1 305C260.3 303.9 260.7 303.4 259.5 301.1ZM258.5 304.3C257.9 304.9 256.9 305.7 255.9 307.4C254.6 309.5 252.1 309.5 250.4 308.9C248.7 308.3 247.3 306.9 247.8 305.5C248.8 302.7 250.9 301.6 253.9 300C254.4 299.7 255 299.4 255.5 299.1C255.5 299.1 255.9 299 256.5 299.2C257.3 299.5 258.1 300.3 258.7 301.6C259.6 303.3 259.5 303.4 258.5 304.3Z" fill="#E9F2E9" stroke="#E9F2E9" stroke-width="1.2255" stroke-miterlimit="10"/>
<path d="M200.599 282.9C200.299 280.9 198.999 280 197.999 279.7C196.999 279.4 196.099 279.4 196.099 279.4C195.999 279.4 195.999 279.4 195.899 279.4C195.199 279.8 194.299 280.2 193.399 280.5C190.599 281.7 187.499 283 187.199 286.8C186.999 289.5 187.899 291.5 189.599 292.2C190.999 292.7 192.699 292.1 194.399 290.7C195.299 289.9 196.199 289.2 196.999 288.6C199.399 286.8 200.999 285.6 200.599 282.9ZM196.499 287.8C195.799 288.4 194.799 289.1 193.899 289.9C192.399 291.2 190.999 291.6 189.899 291.3C188.599 290.8 187.899 289.1 188.099 286.9C188.399 283.6 190.999 282.5 193.699 281.3C194.499 281 195.399 280.6 196.199 280.2C196.399 280.2 196.999 280.2 197.699 280.5C198.899 280.9 199.499 281.7 199.699 283C199.999 285.2 198.799 286.2 196.499 287.8Z" fill="#E9F2E9" stroke="#E9F2E9" stroke-width="1.2255" stroke-miterlimit="10"/>
<path d="M295.7 291.3C295.4 289.3 294.1 288.5 293.1 288.1C292.1 287.8 291.3 287.8 291.2 287.8C291.1 287.8 291 287.8 291 287.9C290.3 288.3 289.4 288.7 288.6 289C285.8 290.1 282.7 291.4 282.4 295.3C282.2 298 283.1 300 284.8 300.7C286.2 301.2 287.9 300.7 289.6 299.2C290.5 298.4 291.4 297.7 292.2 297.1C294.5 295.2 296.1 294.1 295.7 291.3ZM291.6 296.4C290.8 297 289.9 297.7 289 298.5C287.5 299.8 286.1 300.3 285 299.9C283.7 299.4 283 297.7 283.2 295.4C283.4 292.1 286.1 291 288.9 289.8C289.7 289.5 290.6 289.1 291.3 288.7C291.5 288.7 292.1 288.7 292.8 288.9C294 289.3 294.6 290.2 294.8 291.4C295.1 293.7 293.9 294.6 291.6 296.4Z" fill="#E9F2E9" stroke="#E9F2E9" stroke-width="1.2255" stroke-miterlimit="10"/>
<path d="M221.799 334.8C221.499 332.8 220.199 332 219.199 331.6C218.199 331.3 217.299 331.3 217.299 331.3C217.199 331.3 217.099 331.3 217.099 331.4C216.399 331.8 215.499 332.2 214.599 332.5C211.799 333.7 208.699 334.9 208.399 338.8C208.199 341.6 208.999 343.6 210.799 344.2C212.199 344.7 213.899 344.1 215.699 342.6C216.599 341.8 217.499 341.1 218.299 340.5C220.599 338.7 222.199 337.6 221.799 334.8ZM217.799 339.8C216.999 340.4 216.099 341 215.199 341.9C213.699 343.2 212.299 343.6 211.199 343.3C209.899 342.8 209.199 341.1 209.399 338.8C209.599 335.5 212.199 334.4 214.999 333.3C215.799 333 216.699 332.6 217.499 332.2C217.699 332.2 218.299 332.2 218.999 332.5C220.199 332.9 220.799 333.7 220.999 335C221.199 337.2 219.999 338.1 217.799 339.8Z" fill="#E9F2E9" stroke="#E9F2E9" stroke-width="1.2255" stroke-miterlimit="10"/>
<path d="M238.5 323.2C238.2 321.2 236.9 320.3 235.9 320C234.9 319.7 234.1 319.7 234 319.7C233.9 319.7 233.9 319.7 233.8 319.7C233.1 320.1 232.2 320.5 231.3 320.8C228.5 322 225.4 323.2 225.1 327.1C224.9 329.8 225.8 331.8 227.5 332.5C228.9 333 230.6 332.4 232.3 331C233.2 330.2 234.1 329.5 234.9 328.9C237.3 327.1 238.9 326 238.5 323.2ZM234.5 328.2C233.7 328.8 232.8 329.5 231.9 330.3C230.4 331.6 229 332 227.9 331.7C226.6 331.2 225.9 329.5 226.1 327.3C226.4 324 229 322.9 231.8 321.7C232.6 321.4 233.5 321 234.2 320.6C234.4 320.6 235 320.6 235.7 320.9C236.9 321.3 237.5 322.1 237.7 323.4C237.9 325.5 236.7 326.5 234.5 328.2Z" fill="#E9F2E9" stroke="#E9F2E9" stroke-width="1.2255" stroke-miterlimit="10"/>
<path d="M270.299 319.3C270.399 316.7 268.799 315.9 268.299 315.7C268.199 315.7 268.099 315.6 268.099 315.6C266.199 315.2 264.399 315.6 263.199 316.8C261.899 318.2 261.599 320.3 262.299 322.9C262.699 324.1 263.299 324.8 263.999 325.1C264.799 325.4 265.799 325.1 266.799 324.4C268.599 323.4 270.199 320.9 270.299 319.3ZM266.299 323.9C265.699 324.2 264.999 324.6 264.299 324.4C263.799 324.2 263.399 323.7 263.099 322.8C262.499 320.6 262.699 318.7 263.799 317.6C264.699 316.6 266.199 316.3 267.899 316.7C268.399 316.9 269.399 317.4 269.299 319.4C269.399 320.6 267.899 322.8 266.299 323.9Z" fill="#E9F2E9" stroke="#E9F2E9" stroke-width="1.2255" stroke-miterlimit="10"/>
<path d="M256.9 325.9C257 323.3 255.3 322.5 254.9 322.3C254.8 322.3 254.7 322.2 254.7 322.2C252.8 321.8 250.9 322.2 249.8 323.4C248.5 324.8 248.2 327 249 329.5C249.4 330.7 249.9 331.4 250.7 331.7C251.5 332 252.5 331.8 253.5 331.1C255.2 329.9 256.9 327.4 256.9 325.9ZM252.9 330.4C252.4 330.8 251.6 331.2 250.9 331C250.4 330.8 250 330.2 249.7 329.4C249 327.1 249.3 325.3 250.4 324.2C251.3 323.2 252.8 322.8 254.6 323.2C255 323.4 256.1 324 256 325.9C256 327.1 254.4 329.4 252.9 330.4Z" fill="#E9F2E9" stroke="#E9F2E9" stroke-width="1.2255" stroke-miterlimit="10"/>
<path d="M218.8 319.8C218.1 318.6 216.5 317.9 214 317.7C212.2 317.6 210.5 318.5 209.5 320C208.8 321.2 207.9 322.2 207 323.2C206 324.1 206 324.9 206.1 325.5C206.3 326.3 207 327 208.2 327.4C209.3 327.8 210.8 327.9 211.9 327.5C214.5 326.8 217.9 324 218.7 321.9C219.1 321 219.1 320.4 218.8 319.8ZM211.8 326.8C210.7 327.1 209.4 327 208.4 326.7C207.5 326.4 206.9 325.9 206.8 325.3C206.6 324.7 207.1 324 207.5 323.6C208.5 322.6 209.3 321.5 210.1 320.3C211 319 212.4 318.2 213.9 318.3C214.9 318.4 215.7 318.5 216.4 318.7C217.2 319 217.8 319.4 218.1 320C218.3 320.3 218.3 320.8 218.1 321.4C217.4 323.6 214.2 326.2 211.8 326.8Z" fill="#E9F2E9" stroke="#E9F2E9" stroke-width="1.2255" stroke-miterlimit="10"/>
<path d="M202.6 332.6C202.2 329.9 201.4 326.9 199.8 326.3C199.2 326.1 198.6 326.2 198 326.7C195.5 328.5 193.3 333.6 192.9 335.4C192.7 336 193 336.5 193.7 336.8C194.6 337.1 196.1 336.9 196.2 336.9C197.2 336.5 198.2 336.3 199.1 336.1C201.3 335.6 203.1 335.2 202.6 332.6ZM199 335.3C198.1 335.5 197.1 335.7 196.1 336.1C196.1 336.1 194.7 336.3 193.9 336.1C193.5 336 193.4 335.7 193.5 335.5C193.9 333.8 195.9 328.9 198.3 327.2C198.8 326.9 199.1 326.8 199.5 326.9C200.9 327.4 201.7 331.4 201.9 332.7C202.3 334.6 201.3 334.9 199 335.3Z" fill="#E9F2E9" stroke="#E9F2E9" stroke-width="1.2255" stroke-miterlimit="10"/>
<path d="M251.099 285.9C250.899 285.4 250.499 285 249.899 284.8L249.599 284.7C247.199 283.9 244.699 285.1 244.599 285.1C238.599 288.3 237.299 290.2 238.199 294.2C238.399 295.2 238.999 295.8 239.899 296.1C242.499 297 247.299 294.9 248.599 292.3C248.899 291.7 249.199 291.2 249.499 290.6C250.599 288.8 251.499 287.1 251.099 285.9ZM248.799 290.2C248.499 290.7 248.199 291.3 247.899 291.9C246.799 294.1 242.499 296 240.299 295.2C239.699 295 239.299 294.6 239.099 293.9C238.299 290.7 238.999 289 244.999 285.8C245.099 285.8 247.299 284.7 249.299 285.4L249.499 285.5C249.899 285.7 250.099 285.9 250.099 286.1C250.499 287 249.699 288.6 248.799 290.2Z" fill="#E9F2E9" stroke="#E9F2E9" stroke-width="1.2255" stroke-miterlimit="10"/>
<path d="M227.9 308.4C228 305.8 226.4 305 225.9 304.8C225.8 304.8 225.7 304.7 225.7 304.7C223.8 304.3 221.9 304.7 220.8 305.9C219.5 307.3 219.2 309.5 219.9 312C220.3 313.2 220.9 313.9 221.6 314.2C222.4 314.5 223.4 314.3 224.4 313.6C226.3 312.5 227.9 310 227.9 308.4ZM224 313C223.4 313.4 222.7 313.8 222 313.5C221.5 313.3 221.1 312.7 220.8 311.9C220.2 309.7 220.4 307.8 221.5 306.7C222.4 305.7 224 305.3 225.7 305.7C226.2 305.9 227.2 306.5 227.2 308.4C227 309.7 225.5 311.9 224 313Z" fill="#E9F2E9" stroke="#E9F2E9" stroke-width="1.2255" stroke-miterlimit="10"/>
<path d="M283.1 307.5C282.9 306.8 282.2 306.4 280.7 305.7C280.5 305.6 280.3 305.5 280.1 305.4C277.6 304.5 273.9 304.2 271.7 305.5C270.6 306.1 270 307.1 269.7 308.3C269.4 310 270.5 311.5 272.8 312.3C275.8 313.4 280.4 313 281.6 311.1C281.9 310.7 282.1 310.3 282.3 310C282.8 309 283.3 308.3 283.1 307.5ZM281.3 309.4C281.1 309.7 280.9 310.1 280.6 310.5C279.8 311.8 275.8 312.3 273.1 311.3C271.9 310.9 270.5 310 270.8 308.5C270.9 307.6 271.4 306.9 272.2 306.4C274.3 305.2 277.8 305.8 279.7 306.4C279.9 306.5 280.1 306.5 280.2 306.6C281.3 307 281.9 307.4 281.9 307.7C282.1 308.1 281.7 308.7 281.3 309.4Z" fill="#E9F2E9" stroke="#E9F2E9" stroke-width="1.2255" stroke-miterlimit="10"/>
<path d="M288.199 256.2C288.199 255.6 287.799 255.1 287.099 254.6C286.199 254 285.199 253.5 284.099 253.1C282.199 252.5 280.799 252.3 280.699 252.4C280.599 252.4 280.399 252.5 280.399 252.5C279.399 253.7 278.099 254.3 276.899 255C275.099 256 273.199 257 272.299 259.5C271.399 262.2 272.399 265.3 274.599 266.1C275.699 266.5 277.499 266.4 279.999 264.2C281.499 262.7 283.099 261.5 284.399 260.5C286.799 258.6 288.299 257.4 288.199 256.2ZM283.999 259.6C282.699 260.6 281.099 261.9 279.499 263.4C277.799 264.9 276.299 265.6 275.099 265.1C273.399 264.5 272.499 261.9 273.299 259.7C274.099 257.5 275.599 256.7 277.399 255.7C278.599 255.1 279.899 254.4 280.999 253.2C281.499 253.2 282.599 253.4 283.899 253.8C284.899 254.2 285.899 254.6 286.699 255.2C287.399 255.6 287.399 256 287.399 256.1C287.399 257 285.799 258.2 283.999 259.6Z" fill="#E9F2E9" stroke="#E9F2E9" stroke-width="1.2255" stroke-miterlimit="10"/>
<path d="M159 297.4C158.8 297.3 158.7 297.2 158.7 297C158.6 296.7 158.8 296.4 159.1 296.3C172.9 293.1 197.4 263.4 206.6 252.2C207.3 251.3 208 250.5 208.5 249.8C213.6 243.701 223.6 236.201 229.6 231.8C232 230 234 228.5 234.3 228.2C235.2 227 248.5 212 255.8 209.7C258.7 208.8 261.9 205.801 265.4 202.601C270.2 198.201 275.1 193.7 280.2 193.4C288.4 192.9 295.9 185.5 296 185.4C296.2 185.2 296.6 185.2 296.8 185.4C297 185.6 297 186 296.8 186.2C296.5 186.5 288.9 194 280.3 194.5C275.6 194.8 270.8 199.2 266.2 203.4C262.6 206.7 259.3 209.7 256.2 210.7C249.6 212.8 236.7 227 235.3 228.8C234.9 229.3 233.5 230.4 230.4 232.7C224.4 237.1 214.5 244.5 209.5 250.5C209 251.1 208.3 251.9 207.6 252.8C198.3 264.101 173.7 294 159.6 297.3C159.2 297.5 159.1 297.5 159 297.4Z" fill="#E9F2E9" stroke="#E9F2E9" stroke-width="1.2255" stroke-miterlimit="10"/>
<path d="M221.7 271.5C221.6 269.9 221.2 266.1 218.8 265.2C218.1 265 217.4 265 216.5 265.3C212.8 266.6 207.8 271.4 207.2 274.3C206.8 276.3 208.2 279.4 210.6 280.2C211.6 280.5 213.1 280.7 215 279.4L216 278.7C220 276 221.9 274.8 221.7 271.5ZM215.6 278L214.6 278.7C213.3 279.6 212.1 279.8 210.9 279.5C209 278.8 207.7 276.2 208.1 274.5C208.6 271.9 213.4 267.4 216.8 266.2C217.4 266 218 265.9 218.5 266.1C220.1 266.6 220.7 269.3 220.8 271.6C220.9 274.3 219.4 275.4 215.6 278Z" fill="#E9F2E9" stroke="#E9F2E9" stroke-width="1.2255" stroke-miterlimit="10"/>
<path d="M182.6 294.2C183 292.4 182.3 291.1 180.7 290.5C179.5 290.1 178.2 290.2 178.1 290.2C171.6 291.7 168.5 293.3 168.4 297.8C168.3 300.7 169.7 303.3 171.7 304C172.7 304.4 174.4 304.4 176.5 302.5C177.1 301.9 177.6 301.4 178.1 301C181 298.3 181.8 297.7 182.6 294.2ZM177.4 300.4C177 300.8 176.4 301.3 175.8 301.9C174.4 303.2 173 303.7 171.9 303.3C170.3 302.7 169.1 300.4 169.2 298C169.3 294.4 171.3 292.9 178.2 291.2C178.2 291.2 179.4 291.1 180.4 291.5C181.7 291.9 182.1 292.8 181.7 294.2C181 297.2 180.3 297.8 177.4 300.4Z" fill="#E9F2E9" stroke="#E9F2E9" stroke-width="1.2255" stroke-miterlimit="10"/>
<path d="M175.099 313C173.999 310.4 170.799 309.2 170.699 309.1C170.599 309.1 170.399 309.1 170.299 309.2C169.199 310 168.099 310.8 166.999 311.5C163.099 314.1 159.699 316.4 161.299 318.9C161.499 319.3 161.699 319.6 161.899 319.9C162.699 321.3 163.299 322.3 164.399 322.7C164.999 322.9 165.799 322.9 166.899 322.7L167.699 322.5C170.599 321.9 173.499 321.3 175.199 316.8C175.599 315.4 175.599 314.1 175.099 313ZM167.399 321.5L166.599 321.7C165.699 321.9 165.099 321.9 164.599 321.7C163.799 321.4 163.299 320.6 162.499 319.3C162.299 319 162.099 318.7 161.899 318.3C160.799 316.6 163.899 314.5 167.399 312.1C168.399 311.4 169.499 310.7 170.499 309.9C171.199 310.2 173.399 311.3 174.299 313.2C174.699 314.2 174.699 315.2 174.299 316.2C172.699 320.4 170.099 320.9 167.399 321.5Z" fill="#E9F2E9" stroke="#E9F2E9" stroke-width="1.2255" stroke-miterlimit="10"/>
<path d="M194.8 300.5C194.8 300.5 193.7 299 192.6 297.7C192.3 297.4 192 297.1 191.5 297C189.9 296.5 187.7 296.8 187.6 296.8C187.5 296.8 187.4 296.8 187.3 296.9C186.6 297.7 185.6 298 184.6 298.2C183.6 298.6 182.6 298.9 182.3 299.7C182.1 300.3 182.2 301.2 183 302.4C184.6 305.1 185.8 306.5 187.1 306.9C188.5 307.4 189.9 306.8 191.4 305.2C194.4 301.8 194.7 301 194.8 300.8C194.9 300.7 194.9 300.6 194.8 300.5ZM190.9 304.6C189.3 306.4 188.2 306.3 187.6 306.1C186.2 305.6 184.9 303.7 184 302C183.5 301.1 183.2 300.4 183.4 300C183.6 299.6 184.3 299.3 185.1 299.1C186 298.8 187.1 298.5 188 297.7C188.5 297.6 190.2 297.5 191.3 297.9C191.6 298 191.8 298.1 192 298.3C192.8 299.3 193.6 300.4 194 300.8C193.8 301.2 193 302.2 190.9 304.6Z" fill="#E9F2E9" stroke="#E9F2E9" stroke-width="1.2255" stroke-miterlimit="10"/>
<path d="M279.999 283.9C279.999 283.8 279.999 283.7 279.899 283.5C279.899 283.5 278.799 282 277.699 280.7C277.499 280.4 277.099 280.1 276.599 280C275.099 279.5 272.799 279.8 272.799 279.8C272.699 279.8 272.599 279.8 272.499 279.9C271.799 280.7 270.699 281 269.799 281.2C268.799 281.5 267.799 281.9 267.499 282.7C267.299 283.4 267.399 284.2 268.099 285.4C269.699 288.1 270.999 289.5 272.299 290C273.699 290.5 275.099 289.9 276.599 288.2C279.699 284.9 279.999 284.1 279.999 283.9ZM275.999 287.7C274.399 289.5 273.299 289.4 272.699 289.2C271.299 288.7 269.999 286.7 268.999 285.1C268.499 284.2 268.199 283.5 268.399 283.2C268.599 282.8 269.299 282.5 270.099 282.3C270.999 282 272.099 281.7 272.999 280.8C273.499 280.7 275.199 280.6 276.299 281C276.599 281.1 276.899 281.3 276.999 281.4C277.799 282.4 278.699 283.5 278.999 283.9C278.799 284.2 278.099 285.2 275.999 287.7Z" fill="#E9F2E9" stroke="#E9F2E9" stroke-width="1.2255" stroke-miterlimit="10"/>
<path d="M203.1 351.3C202.9 351.2 202.8 351.1 202.8 350.9C202.8 350.7 203 350.4 203.2 350.4C206.1 350.3 216.4 345.2 233.9 335.3L235.2 334.5C236.7 333.7 238.5 331.2 240.3 328.7C243.7 324 248 318.1 253.4 318.1C261.3 318 265.9 307.8 267 303.9C268 300.2 274.2 295.1 279.7 290.7C280.9 289.7 282.1 288.7 283.1 287.9C284.6 286.6 286.6 285.2 288.6 283.7C293.8 279.9 299.8 275.6 300.9 271.6C301.7 268.9 303.1 268 305 266.8C307.5 265.3 310.8 263.2 315.2 255.9C319.7 248.4 320 244 320.1 241.1C320.2 239 320.3 237.5 322.1 236.2C322.7 235.8 323.4 235.7 324.2 235.9C328.1 236.9 332.7 246 332.9 246.4C333 246.6 332.9 246.9 332.7 247C332.5 247.1 332.2 247 332.1 246.8C332.1 246.7 327.7 238.1 324.2 236.9C324.1 236.9 324 236.8 324 236.8C323.5 236.7 323 236.7 322.6 237C321.2 238 321.1 239.1 321 241.2C320.8 244.2 320.5 248.7 315.9 256.4C311.4 263.9 308 266.1 305.4 267.6C303.6 268.7 302.4 269.5 301.7 271.8C300.5 276.2 294.4 280.6 289.1 284.4C287.1 285.9 285.1 287.3 283.6 288.6C282.6 289.5 281.4 290.5 280.2 291.5C275.1 295.7 268.8 300.9 267.8 304.3C266.6 308.4 261.8 319.1 253.4 319.2C248.5 319.2 244.4 324.9 241 329.4C239 332.1 237.2 334.5 235.6 335.5L234.3 336.3C227.7 340.1 207.8 351.5 203.2 351.6C203.2 351.3 203.2 351.3 203.1 351.3Z" fill="#E9F2E9" stroke="#E9F2E9" stroke-width="1.2255" stroke-miterlimit="10"/>
<path d="M309.6 182C309.2 181.2 308.8 181 308.8 181C308.6 180.9 308.5 180.7 308.5 180.5C308.5 180.5 308.5 180.5 308.5 180.4C309 179 313.6 164 321.1 160.4C324.1 159 326.1 157.4 327.6 156.3C330.1 154.4 331.9 153 335.5 153.4C339.4 153.8 344.2 155.7 345.7 159.1C346.6 161.2 346.1 163.4 344.4 165.7C341.6 169.3 335.6 175.5 330.3 180.9C326.5 184.8 322.9 188.4 321.4 190.3C321.1 190.6 325.8 184.2 329.7 180.3C335 174.9 340.9 168.8 343.7 165.2C345.2 163.1 345.7 161.2 344.9 159.5C343.6 156.6 339.2 154.7 335.5 154.3C332.2 154 330.6 155.2 328.2 157.1C326.6 158.3 324.6 159.8 321.5 161.3C314.7 164.5 310.2 178.2 309.4 180.5C309.6 180.7 310 181 310.3 181.6C310.3 181.6 310.3 181.6 310.3 181.7C310.4 182 310.6 182.3 310.7 182.8" fill="#E9F2E9"/>
<path d="M309.6 182C309.2 181.2 308.8 181 308.8 181C308.6 180.9 308.5 180.7 308.5 180.5C308.5 180.5 308.5 180.5 308.5 180.4C309 179 313.6 164 321.1 160.4C324.1 159 326.1 157.4 327.6 156.3C330.1 154.4 331.9 153 335.5 153.4C339.4 153.8 344.2 155.7 345.7 159.1C346.6 161.2 346.1 163.4 344.4 165.7C341.6 169.3 335.6 175.5 330.3 180.9C326.5 184.8 322.9 188.4 321.4 190.3C321.1 190.6 325.8 184.2 329.7 180.3C335 174.9 340.9 168.8 343.7 165.2C345.2 163.1 345.7 161.2 344.9 159.5C343.6 156.6 339.2 154.7 335.5 154.3C332.2 154 330.6 155.2 328.2 157.1C326.6 158.3 324.6 159.8 321.5 161.3C314.7 164.5 310.2 178.2 309.4 180.5C309.6 180.7 310 181 310.3 181.6C310.3 181.6 310.3 181.6 310.3 181.7C310.4 182 310.6 182.3 310.7 182.8" stroke="#E9F2E9" stroke-width="1.2255" stroke-miterlimit="10"/>
<path d="M301.499 296.2C301.299 296.1 301.199 295.9 301.199 295.7C301.299 295.1 302.999 280 308.899 273.9C311.999 270.7 315.399 263.4 318.399 257C321.099 251.2 323.499 246.2 325.199 244.8C325.999 244.2 326.799 244 327.499 244.3C329.899 245.3 330.699 251.2 330.799 251.9C330.799 252.1 330.699 252.4 330.399 252.4C330.099 252.4 329.899 252.3 329.899 252C329.699 250.3 328.799 245.8 327.199 245.1C326.799 245 326.299 245.1 325.799 245.5C324.199 246.8 321.799 252 319.199 257.4C316.099 263.9 312.699 271.2 309.499 274.5C303.799 280.3 302.099 295.6 302.099 295.7C302.099 296.1 301.799 296.3 301.499 296.2C301.599 296.2 301.499 296.2 301.499 296.2Z" fill="#E9F2E9"/>
<path d="M301.499 296.2C301.299 296.1 301.199 295.9 301.199 295.7C301.299 295.1 302.999 280 308.899 273.9C311.999 270.7 315.399 263.4 318.399 257C321.099 251.2 323.499 246.2 325.199 244.8C325.999 244.2 326.799 244 327.499 244.3C329.899 245.3 330.699 251.2 330.799 251.9C330.799 252.1 330.699 252.4 330.399 252.4C330.099 252.4 329.899 252.3 329.899 252C329.699 250.3 328.799 245.8 327.199 245.1C326.799 245 326.299 245.1 325.799 245.5C324.199 246.8 321.799 252 319.199 257.4C316.099 263.9 312.699 271.2 309.499 274.5C303.799 280.3 302.099 295.6 302.099 295.7C302.099 296.1 301.799 296.3 301.499 296.2ZM301.499 296.2C301.599 296.2 301.499 296.2 301.499 296.2Z" stroke="#E9F2E9" stroke-width="1.2255" stroke-miterlimit="10"/>
<path d="M323.8 192.4C326.4 190.1 331.1 186 333.8 184.4C344.5 177.9 350.4 171.4 351.4 165.2C352.8 156 352.3 154.9 342.2 147.9C333.3 141.7 330.1 144.6 321.5 152.5C320.2 153.7 318.7 155.1 317.1 156.5C305.9 166.3 305.8 177.2 305.8 178.9C305.8 179 306.1 178.3 306.1 178.3C306.1 178.5 306.3 178.7 306.6 178.7C306.7 178.7 306.9 178.6 306.9 178.5C307 178.4 306.7 179.2 306.7 179.1C306.7 179 305.8 167.5 317.6 157.2C319.2 155.7 320.7 154.4 322.1 153.2C330.6 145.5 333.4 142.9 341.7 148.6C351.4 155.4 351.9 156.3 350.5 165.1C349.9 169.2 346.4 175.7 333.4 183.6C330.6 185.3 325.8 189.5 323.3 191.8" fill="#E9F2E9"/>
<path d="M323.8 192.4C326.4 190.1 331.1 186 333.8 184.4C344.5 177.9 350.4 171.4 351.4 165.2C352.8 156 352.3 154.9 342.2 147.9C333.3 141.7 330.1 144.6 321.5 152.5C320.2 153.7 318.7 155.1 317.1 156.5C305.9 166.3 305.8 177.2 305.8 178.9C305.8 179 306.1 178.3 306.1 178.3C306.1 178.5 306.3 178.7 306.6 178.7C306.7 178.7 306.9 178.6 306.9 178.5C307 178.4 306.7 179.2 306.7 179.1C306.7 179 305.8 167.5 317.6 157.2C319.2 155.7 320.7 154.4 322.1 153.2C330.6 145.5 333.4 142.9 341.7 148.6C351.4 155.4 351.9 156.3 350.5 165.1C349.9 169.2 346.4 175.7 333.4 183.6C330.6 185.3 325.8 189.5 323.3 191.8" stroke="#E9F2E9" stroke-width="1.2255" stroke-miterlimit="10"/>
<path d="M172.299 348.6C172.199 348.6 172.099 348.5 172.099 348.5C171.899 348.3 171.899 347.9 172.099 347.7C173.399 346.5 301.699 225 314.599 215.2C326.799 205.9 336.799 212.5 338.399 213.7C341.499 212.8 370.599 203.8 374.499 187.6C376.599 178.8 372.199 173.5 368.199 170.7C363.499 167.3 358.099 166.4 357.299 166.9C356.999 167.2 356.499 168 355.799 169.1C353.699 172.3 350.199 177.6 346.199 179.7C341.099 182.3 327.699 195.4 327.599 195.5C327.399 195.7 327.099 195.7 326.799 195.5C326.599 195.3 326.599 195 326.799 194.7C327.399 194.1 340.399 181.3 345.699 178.6C349.499 176.7 352.899 171.5 354.899 168.4C355.599 167.3 356.199 166.5 356.499 166.1C357.499 165 362.199 166.1 366.199 168.2C370.799 170.7 378.199 176.5 375.499 187.8C371.199 205.5 339.699 214.4 338.399 214.8C338.199 214.8 338.099 214.8 337.899 214.7C337.499 214.4 327.699 206.4 315.199 216C302.299 225.8 174.099 347.2 172.799 348.5C172.699 348.6 172.499 348.7 172.299 348.6Z" fill="#E9F2E9" stroke="#E9F2E9" stroke-width="1.2255" stroke-miterlimit="10"/>
<path d="M337.4 211.2C337.3 211.2 337.2 211.1 337.1 211C337 210.8 337.1 210.5 337.3 210.4C337.6 210.3 367.5 196.2 370.8 187.9C372.7 183 370 177.1 366.3 174.3C363.3 172 360.1 171.9 357.6 173.8C350.5 179.3 329.8 198.7 329.6 198.9C329.4 199.1 329.1 199.1 329 198.9C328.8 198.7 328.8 198.4 329 198.3C329.2 198.1 350 178.6 357.1 173.1C359.9 170.9 363.6 171.1 366.9 173.5C370.9 176.5 373.9 182.6 371.7 188.1C368.3 196.8 339 210.5 337.7 211.1C337.7 211.3 337.5 211.3 337.4 211.2Z" fill="#E9F2E9" stroke="#E9F2E9" stroke-width="1.2255" stroke-miterlimit="10"/>
<path d="M312.5 329.8C312.4 329.8 312.3 329.8 312.1 329.8L304.1 329.2C304 329.2 303.9 329.2 303.7 329.1C303.2 328.9 302.8 328.5 302.7 327.9C302.6 327.2 303 326.5 303.7 326.3C306 325.6 312.3 322.9 313.9 320C314.4 319.1 315 318.1 316.2 318.5H316.3L312.5 329.8Z" fill="#E9F2E9"/>
<path d="M207.8 394.4C207.6 394 207.3 393.7 206.9 393.6C206.2 393.3 205.6 393.6 204.9 394C202.2 395.3 192.7 394.1 187.3 393C186.6 392.8 185.9 393.2 185.5 393.8C185.1 394.4 185.2 395.2 185.7 395.8L193.1 403.9C193.3 404.1 193.5 404.2 193.8 404.3C194.1 404.4 194.4 404.4 194.8 404.3C194.2 401.1 200.2 398.1 207.8 394.4Z" fill="#E9F2E9"/>
<path d="M197.7 200.5C197.6 200.6 197.4 200.7 197.3 200.8C196.3 201.7 195.1 202.1 194.1 202.2L192.2 202.1C191.2 201.9 190.2 201.3 189.5 200.6C189.4 200.5 189.4 200.5 189.3 200.4C189.1 200.7 188.9 200.9 188.8 201C188.7 201 188.7 201.1 188.7 201.1C188.3 201.6 188.3 202.3 188.6 202.9L193.7 212.3C193.9 212.7 194.2 213 194.6 213.1C194.9 213.2 195.2 213.2 195.6 213.1C196.3 212.9 196.9 212.2 196.9 211.5C196.9 209.3 197.2 204.8 197.7 200.5Z" fill="#E9F2E9"/>
<path d="M121.099 309C121.599 308.3 121.499 307.3 120.899 306.7C120.799 306.6 120.699 306.5 120.499 306.5C119.899 306.1 119.099 306.2 118.599 306.7C115.999 309 110.399 317.8 109.799 318.8C109.699 318.9 109.699 319 109.599 319.1C109.399 319.5 109.499 320.1 109.699 320.5L114.799 329.9C114.999 330.3 115.299 330.6 115.699 330.7C115.999 330.8 116.299 330.8 116.699 330.7C117.399 330.5 117.999 329.8 117.999 329.1C118.299 322.7 119.299 311.4 121.099 309Z" fill="#E9F2E9"/>
<path d="M419.2 169.6C418.9 170 418.7 170.3 418.6 170.7C418.5 170.9 418.5 171 418.5 171.2L421 170.8C421.1 170.4 421.3 170 421.5 169.7L419.2 169.6ZM428.7 159.2C428.2 158.7 427.5 158.7 426.9 159.1C426 159.7 417.7 165.1 415.9 169.8C415.6 170.4 415.5 171.1 415.5 171.7L418.5 171.3L421 170.9L424.3 170.5C426.1 166.2 428.9 161 429 161C429.3 160.3 429.2 159.6 428.7 159.2Z" fill="#E9F2E9"/>
<path d="M362.5 158.8C362.4 158.8 362.3 158.7 362.2 158.5C362.1 158.3 362.2 158 362.5 157.9C364.7 157.1 378.7 145 380.8 141.7C381.9 140 380.9 137.4 379.9 134.6C379.1 132.3 378.2 129.9 378.2 127.6C378.3 122.2 381.4 121.3 383.7 120.6C383.9 120.5 384.2 120.7 384.3 120.9C384.4 121.1 384.2 121.4 384 121.5C381.7 122.1 379.2 122.8 379.1 127.6C379.1 129.7 379.9 132 380.7 134.3C381.8 137.3 382.8 140.1 381.5 142.2C379.5 145.4 365.4 157.9 362.7 158.8C362.7 158.8 362.6 158.8 362.5 158.8Z" fill="#E9F2E9" stroke="#E9F2E9" stroke-width="1.2255" stroke-miterlimit="10"/>
<path d="M185.1 326.5C185.1 326.5 172.1 349.301 179.6 351.701C189.3 354.801 167.2 347.4 167.4 343.6C167.6 339.8 185.1 326.5 185.1 326.5Z" fill="#E9F2E9"/>
<path d="M184.599 326.4C184.599 326.4 161.899 339.6 159.599 332.8C156.599 324.1 163.799 344 167.499 343.5C171.299 343 184.599 326.4 184.599 326.4Z" fill="#E9F2E9"/>
</g>
<defs>
<clipPath id="clip0">
<rect width="500" height="500" fill="white"/>
</clipPath>
</defs>
</svg>
