<?xml version="1.0" encoding="utf-8"?><svg viewBox="0 0 40 41" xmlns="http://www.w3.org/2000/svg" xmlns:xlink="http://www.w3.org/1999/xlink"><style>:root>svg{display:none}:root>svg:target{display:block}</style><svg viewBox="0 0 22 16" id="ic_email" xmlns="http://www.w3.org/2000/svg"><path d="M20.872.667H1.128C.508.667 0 1.174 0 1.795v12.41c0 .62.508 1.128 1.128 1.128h19.744c.62 0 1.128-.507 1.128-1.128V1.795c0-.62-.508-1.128-1.128-1.128zm-.424.846l-8.799 6.6a1.1 1.1 0 0 1-.649.195 1.1 1.1 0 0 1-.649-.195l-8.8-6.6h18.897zm-4.7 7.035l4.795 5.924.016.015H1.44l.016-.015 4.795-5.924a.423.423 0 0 0-.658-.532L.846 13.88V2.041L9.844 8.79c.338.252.75.363 1.156.364.406-.001.818-.112 1.156-.364l8.998-6.748v11.84l-4.748-5.866a.423.423 0 1 0-.658.532z"/></svg><svg fill="none" viewBox="0 0 24 24" id="ic_facebook" xmlns="http://www.w3.org/2000/svg"><g clip-path="url(#bclip0)"><path d="M13.935 23.844zM14.175 23.803l-.144.025.144-.025zM13.366 23.922zM13.596 23.894zM14.502 23.738zM15.312 23.537l-.102.028.102-.028zM15.067 23.604c-.037.01-.074.02-.11.028l.11-.029zM14.746 23.684l-.118.026.118-.026zM13.009 23.957z" fill="#000"/><path d="M24 12c0-6.626-5.374-12-12-12S0 5.374 0 12s5.374 12 12 12l.21-.003v-9.341H9.634V11.65h2.578v-2.21c0-2.565 1.565-3.96 3.853-3.96 1.095 0 2.037.081 2.311.117v2.68h-1.577c-1.245 0-1.486.592-1.486 1.46v1.913h2.976l-.388 3.005h-2.588v8.88C20.328 22.098 24 17.477 24 12z" fill="#fff"/><path d="M12.793 23.973zM12.41 23.992z" fill="#000"/></g><defs><clipPath id="bclip0"><path fill="#fff" d="M0 0h24v24H0z"/></clipPath></defs></svg><svg fill="none" viewBox="0 0 22 20" id="ic_file" xmlns="http://www.w3.org/2000/svg"><path d="M6.932 11.78l7.227-7.227a2.253 2.253 0 0 1 3.181 0 2.252 2.252 0 0 1 0 3.182l-9.942 9.813a3.748 3.748 0 0 1-5.302 0 3.748 3.748 0 0 1 0-5.303l9.835-9.707a5.248 5.248 0 0 1 7.423 0 5.248 5.248 0 0 1 .001 7.424l-7.119 7.12" stroke="currentColor" stroke-linecap="square"/></svg><svg viewBox="0 0 24 28" id="ic_guide" xmlns="http://www.w3.org/2000/svg"><path d="M22.451 25.296a3.276 3.276 0 0 0-3.184-2.491h-3.192l-.996-2.74a5.813 5.813 0 0 0 2.739-4.718l.016-.426c8.537-2.454 7.719-9.197-1.638-10.98l-.17-1.725A2.453 2.453 0 0 0 13.579 0h-3.155C9.153 0 8.1.953 7.973 2.217l-.168 1.726C5.8 4.33 3.47 5.103 1.914 6.433c-3.033 2.59-2.117 6.658 4.253 8.488l.016.426a5.811 5.811 0 0 0 2.739 4.719l-.996 2.739H4.734a3.276 3.276 0 0 0-3.184 2.491l-.41 1.69a.82.82 0 0 0 1.595.386l.409-1.687c.184-.73.837-1.24 1.59-1.24h.759v2.735a.82.82 0 0 0 1.64 0v-2.735h1.064c2.194 1.747 5.408 1.75 7.607 0h1.064v2.735a.82.82 0 0 0 1.64 0v-2.735h.759c.753 0 1.406.51 1.59 1.24l.409 1.688a.82.82 0 1 0 1.594-.386l-.409-1.69zM9.607 2.38a.817.817 0 0 1 .816-.738h3.155c.423 0 .774.317.816.736l.129 1.313a22.924 22.924 0 0 0-5.045.001l.129-1.312zM2.979 7.68c1.108-.947 2.926-1.7 5.116-2.123 2.3-.444 4.862-.482 7.216-.108 2.023.321 3.82.945 5.063 1.758 3.408 2.228 1.397 4.711-2.473 5.977l.17-4.404a.82.82 0 0 0-.622-.827 22.544 22.544 0 0 0-10.887-.002.82.82 0 0 0-.627.892c.054 1.214-.102-2.651.165 4.341C2.814 12.11.37 9.91 2.98 7.681zm4.844 7.603a6704.36 6704.36 0 0 1-.225-5.89 20.913 20.913 0 0 1 8.807.001l-.227 5.89c-.115 2.986-3.19 4.835-5.86 3.67a.742.742 0 0 0-.107-.049 4.168 4.168 0 0 1-2.388-3.622zm1.65 8.067l.953-2.621a5.857 5.857 0 0 0 3.149 0l.953 2.621a4.554 4.554 0 0 1-5.055 0z"/></svg><svg fill="none" viewBox="0 0 24 24" id="ic_instagram" xmlns="http://www.w3.org/2000/svg"><g clip-path="url(#eclip0)" fill="#fff"><path d="M14.297 12a2.297 2.297 0 1 1-4.594 0 2.297 2.297 0 0 1 4.594 0z"/><path d="M17.371 7.936c-.11-.299-.286-.57-.515-.792a2.133 2.133 0 0 0-.792-.516c-.243-.094-.608-.206-1.28-.237-.727-.033-.944-.04-2.784-.04-1.84 0-2.058.007-2.785.04-.672.03-1.036.143-1.28.237-.298.11-.57.287-.791.516a2.136 2.136 0 0 0-.516.792c-.094.243-.207.608-.237 1.28-.033.726-.04.944-.04 2.784 0 1.84.007 2.058.04 2.785.03.671.143 1.036.237 1.28.11.298.287.57.515.791.223.23.493.405.793.516.243.094.607.206 1.28.237.726.033.944.04 2.784.04 1.84 0 2.058-.007 2.784-.04.672-.03 1.037-.143 1.28-.237a2.282 2.282 0 0 0 1.307-1.308c.095-.243.207-.607.238-1.28.033-.726.04-.944.04-2.784 0-1.84-.007-2.058-.04-2.784-.03-.672-.143-1.037-.238-1.28zM12 15.538a3.538 3.538 0 1 1 0-7.076 3.538 3.538 0 0 1 0 7.076zm3.678-6.39a.827.827 0 1 1 0-1.653.827.827 0 0 1 0 1.654z"/><path d="M12 0C5.374 0 0 5.374 0 12s5.374 12 12 12 12-5.374 12-12S18.626 0 12 0zm6.85 14.84c-.034.734-.15 1.235-.321 1.674a3.524 3.524 0 0 1-2.015 2.015c-.439.17-.94.287-1.673.32-.735.034-.97.042-2.84.042-1.872 0-2.107-.008-2.842-.042-.733-.033-1.234-.15-1.672-.32a3.375 3.375 0 0 1-1.221-.795 3.377 3.377 0 0 1-.795-1.22c-.17-.439-.287-.94-.32-1.673-.034-.735-.042-.97-.042-2.841 0-1.871.008-2.106.042-2.84.033-.734.15-1.235.32-1.674.173-.46.444-.876.795-1.22.344-.35.76-.622 1.22-.795.439-.17.94-.287 1.673-.32.735-.034.97-.042 2.841-.042 1.871 0 2.106.008 2.84.042.734.033 1.235.15 1.674.32.46.173.876.444 1.22.795.35.344.622.76.795 1.22.17.439.287.94.32 1.673.034.735.042.97.042 2.841 0 1.871-.008 2.106-.042 2.84z"/></g><defs><clipPath id="eclip0"><path fill="#fff" d="M0 0h24v24H0z"/></clipPath></defs></svg><svg fill="none" viewBox="0 0 40 40" id="ic_linkedin" xmlns="http://www.w3.org/2000/svg"><path d="M20 39.999c11.046 0 20-8.954 20-20s-8.954-20-20-20-20 8.954-20 20 8.954 20 20 20z" fill="#fff"/><path d="M31.95 21.609v8.246h-4.78v-7.693c0-1.932-.691-3.251-2.422-3.251-1.32 0-2.106.888-2.452 1.748-.126.307-.158.734-.158 1.165v8.03h-4.781s.064-13.03 0-14.378h4.781v2.038c-.01.016-.023.031-.032.047h.032v-.047c.635-.978 1.768-2.375 4.309-2.375 3.145 0 5.503 2.055 5.503 6.47zM12.355 8.545c-1.635 0-2.705 1.074-2.705 2.484 0 1.38 1.04 2.485 2.643 2.485h.03c1.668 0 2.705-1.104 2.705-2.485-.032-1.41-1.037-2.484-2.673-2.484zm-2.42 21.31h4.779V15.476h-4.78v14.379z" fill="#0066B2"/></svg><svg fill="none" viewBox="0 0 40 41" id="ic_linkedin2" xmlns="http://www.w3.org/2000/svg"><path d="M20 40.47c11.046 0 20-8.955 20-20 0-11.046-8.954-20-20-20s-20 8.954-20 20c0 11.045 8.954 20 20 20z" fill="#fff"/><path d="M31.95 22.08v8.245h-4.78v-7.693c0-1.931-.691-3.25-2.422-3.25-1.32 0-2.106.888-2.452 1.748-.126.307-.158.734-.158 1.165v8.03h-4.781s.064-13.03 0-14.378h4.781v2.037c-.01.016-.023.032-.032.047h.032v-.047c.635-.977 1.768-2.375 4.309-2.375 3.145 0 5.503 2.055 5.503 6.47zM12.355 9.016c-1.635 0-2.705 1.074-2.705 2.484 0 1.38 1.04 2.485 2.643 2.485h.03c1.668 0 2.705-1.105 2.705-2.485-.032-1.41-1.037-2.484-2.673-2.484zm-2.42 21.31h4.779v-14.38h-4.78v14.38z" fill="#001700"/></svg><svg viewBox="0 0 28 20" id="ic_partner" xmlns="http://www.w3.org/2000/svg"><path d="M28 .21H0v9.845h1.959a2.464 2.464 0 0 0 .219 3.228A2.45 2.45 0 0 0 3.782 14c.032.585.27 1.16.716 1.605a2.45 2.45 0 0 0 1.604.716 2.462 2.462 0 0 0 3.678 2.002 2.463 2.463 0 0 0 3.999.763L14 18.86l.01.01c.95.95 2.498.95 3.451 0l.024-.024a2.43 2.43 0 0 0 .485-.685c.96.71 2.328.635 3.201-.24.433-.432.685-.998.717-1.604A2.451 2.451 0 0 0 24.208 14a2.459 2.459 0 0 0 1.824-3.946h1.968V.212zM3.338 12.124a.821.821 0 0 1 0-1.16l.908-.908h.94l.692.688-1.38 1.38a.82.82 0 0 1-1.16 0zm2.32 2.32a.821.821 0 0 1 0-1.16l1.382-1.381 1.16 1.16-1.382 1.382c-.32.32-.84.32-1.16 0zm3.48 2.32a.82.82 0 1 1-1.16-1.16l1.382-1.381 1.16 1.16-1.382 1.382zm3.48 1.16a.821.821 0 0 1-1.162-1.157l.224-.224 1.16 1.16-.222.222zm12.034-5.8a.82.82 0 0 1-1.16 0l-4.5-4.5-1.16 1.16 4.5 4.5a.821.821 0 0 1-1.16 1.16l-4.5-4.499-1.16 1.16 4.5 4.5a.82.82 0 1 1-1.16 1.16l-4.5-4.5-1.16 1.16 3.132 3.133c.317.317.313.82.004 1.128l-.025.025a.803.803 0 0 1-1.133.002c-4.292-4.288-5.053-5.063-9.308-9.298H1.64V1.852h7.13L5.077 5.544l1.74 1.74a2.46 2.46 0 0 0 3.48 0l1.999-1.999a7.038 7.038 0 0 0 7.242.566l5.113 5.112c.32.32.32.84 0 1.16zm1.707-3.709h-1.936L19.799 3.79l-.554.346a5.417 5.417 0 0 1-6.46-.56l-.58-.52-3.067 3.068a.82.82 0 0 1-1.16 0l-.58-.58 3.692-3.692h15.27v6.562z"/></svg><svg viewBox="0 0 20 20" id="ic_phone" xmlns="http://www.w3.org/2000/svg"><path d="M18.395 13.128c-1.224 0-2.427-.192-3.566-.568-.568-.194-1.215-.044-1.585.334l-2.249 1.697C8.387 13.2 6.781 11.593 5.407 9.005l1.648-2.19a1.617 1.617 0 0 0 .398-1.638 11.373 11.373 0 0 1-.57-3.572C6.883.72 6.163 0 5.278 0H1.605C.72 0 0 .72 0 1.605 0 11.748 8.252 20 18.395 20 19.28 20 20 19.28 20 18.395v-3.662c0-.885-.72-1.605-1.605-1.605zm.494 5.267a.494.494 0 0 1-.494.494c-9.53 0-17.284-7.753-17.284-17.284 0-.272.222-.494.494-.494h3.673c.272 0 .494.222.494.494 0 1.344.21 2.663.623 3.912.058.185.011.375-.175.57L4.31 8.616a.556.556 0 0 0-.052.586c1.559 3.064 3.453 4.958 6.538 6.54a.553.553 0 0 0 .588-.052l2.587-1.96a.49.49 0 0 1 .504-.117c1.258.415 2.577.626 3.92.626.273 0 .494.221.494.494v3.662z"/></svg><svg viewBox="0 0 24 24" id="ic_phone2" xmlns="http://www.w3.org/2000/svg"><path d="M22.074 15.753c-1.47 0-2.912-.23-4.28-.681-.669-.229-1.493-.02-1.901.4l-2.699 2.038c-3.13-1.67-5.057-3.598-6.705-6.704l1.977-2.628a1.94 1.94 0 0 0 .477-1.966 13.647 13.647 0 0 1-.684-4.286A1.928 1.928 0 0 0 6.333 0H1.926A1.928 1.928 0 0 0 0 1.926C0 14.098 9.902 24 22.074 24A1.928 1.928 0 0 0 24 22.074V17.68a1.928 1.928 0 0 0-1.926-1.926z"/></svg><svg viewBox="0 0 24 24" id="ic_search" xmlns="http://www.w3.org/2000/svg"><path d="M24 22.94l-8.134-8.134A8.956 8.956 0 0 0 18 9c0-4.963-4.037-9-9-9S0 4.037 0 9s4.037 9 9 9a8.956 8.956 0 0 0 5.806-2.134L22.939 24 24 22.94zM9 16.5c-4.135 0-7.5-3.365-7.5-7.5S4.865 1.5 9 1.5s7.5 3.365 7.5 7.5-3.365 7.5-7.5 7.5z"/></svg><svg fill="none" viewBox="0 0 24 24" id="ic_telegram" xmlns="http://www.w3.org/2000/svg"><path d="M12 24c6.629 0 12-5.371 12-12S18.629 0 12 0 0 5.371 0 12s5.371 12 12 12zM5.491 11.74l11.57-4.461c.537-.194 1.006.131.832.943l.001-.001-1.97 9.281c-.146.658-.537.818-1.084.508l-3-2.211-1.447 1.394c-.16.16-.295.295-.605.295l.213-3.053 5.56-5.023c.242-.213-.054-.333-.373-.121l-6.871 4.326-2.962-.924c-.643-.204-.657-.643.136-.953z" fill="#fff"/></svg><svg fill="none" viewBox="0 0 24 24" id="ic_vkontakte" xmlns="http://www.w3.org/2000/svg"><path d="M12 24c6.627 0 12-5.373 12-12S18.627 0 12 0 0 5.373 0 12s5.373 12 12 12z" fill="#fff"/><path fill-rule="evenodd" clip-rule="evenodd" d="M11.547 17.263h.942s.284-.031.43-.188c.133-.144.13-.413.13-.413s-.02-1.264.567-1.45c.579-.184 1.321 1.221 2.108 1.761.595.409 1.047.32 1.047.32l2.104-.03s1.101-.068.58-.933c-.043-.071-.305-.64-1.565-1.81-1.32-1.225-1.143-1.027.447-3.146.967-1.29 1.354-2.077 1.233-2.415-.115-.32-.827-.236-.827-.236l-2.369.015s-.176-.024-.306.054c-.127.076-.209.254-.209.254s-.375.998-.875 1.847c-1.055 1.792-1.477 1.886-1.65 1.775-.4-.26-.3-1.041-.3-1.597 0-1.736.263-2.46-.513-2.647-.258-.063-.447-.104-1.106-.11-.845-.01-1.56.002-1.966.2-.27.133-.477.427-.35.444.156.02.51.095.699.351.242.33.234 1.072.234 1.072s.14 2.044-.326 2.298c-.32.174-.757-.181-1.698-1.807-.482-.832-.846-1.752-.846-1.752s-.07-.172-.195-.264c-.152-.112-.364-.147-.364-.147l-2.252.014s-.338.01-.462.157c-.11.13-.008.4-.008.4s1.762 4.125 3.758 6.203c1.83 1.905 3.908 1.78 3.908 1.78z" fill="#0066B2"/></svg><svg fill="none" viewBox="0 0 40 40" id="ic_vkontakte2" xmlns="http://www.w3.org/2000/svg"><path d="M20 40c11.046 0 20-8.954 20-20S31.046 0 20 0 0 8.954 0 20s8.954 20 20 20z" fill="#fff"/><path fill-rule="evenodd" clip-rule="evenodd" d="M19.244 28.772h1.57s.474-.052.716-.313c.223-.24.216-.69.216-.69s-.03-2.106.947-2.416c.964-.306 2.201 2.035 3.513 2.935.992.682 1.745.532 1.745.532l3.508-.048s1.834-.113.964-1.556c-.071-.118-.506-1.067-2.607-3.017-2.2-2.041-1.905-1.711.744-5.242 1.613-2.15 2.258-3.463 2.057-4.025-.192-.535-1.379-.394-1.379-.394l-3.949.025s-.292-.04-.51.09c-.212.127-.348.424-.348.424s-.625 1.664-1.459 3.079c-1.758 2.985-2.461 3.143-2.748 2.958-.669-.433-.502-1.736-.502-2.663 0-2.893.439-4.1-.855-4.412-.429-.104-.745-.172-1.843-.183-1.408-.015-2.601.004-3.276.335-.45.22-.796.71-.585.738.261.035.852.16 1.165.586.405.551.39 1.787.39 1.787s.233 3.407-.542 3.83c-.532.29-1.262-.303-2.83-3.011a25.185 25.185 0 0 1-1.41-2.922s-.117-.286-.325-.44c-.253-.185-.607-.245-.607-.245l-3.752.025s-.564.016-.77.26c-.184.219-.015.67-.015.67s2.938 6.872 6.264 10.336c3.05 3.175 6.513 2.967 6.513 2.967z" fill="#001511"/></svg><svg fill="none" viewBox="0 0 24 24" id="ic_youtube" xmlns="http://www.w3.org/2000/svg"><g clip-path="url(#oclip0)" fill="#fff"><path d="M10.505 14.248L14.408 12l-3.903-2.248v4.496z"/><path d="M12 0C5.374 0 0 5.374 0 12s5.374 12 12 12 12-5.374 12-12S18.626 0 12 0zm7.498 12.012s0 2.434-.309 3.607a1.88 1.88 0 0 1-1.321 1.322c-1.174.309-5.868.309-5.868.309s-4.682 0-5.868-.321a1.88 1.88 0 0 1-1.321-1.322C4.5 14.446 4.5 12 4.5 12s0-2.433.31-3.607a1.917 1.917 0 0 1 1.321-1.334C7.306 6.75 12 6.75 12 6.75s4.694 0 5.868.321a1.88 1.88 0 0 1 1.322 1.322c.32 1.174.308 3.62.308 3.62z"/></g><defs><clipPath id="oclip0"><path fill="#fff" d="M0 0h24v24H0z"/></clipPath></defs></svg></svg>